<svg xmlns="http://www.w3.org/2000/svg" xmlns:xlink="http://www.w3.org/1999/xlink" clip-rule="evenodd" fill-rule="evenodd" preserveAspectRatio="xMidYMid meet" stroke-linejoin="round" stroke-miterlimit="2" version="1.0" viewBox="0.2 0.6 1702.8 1779.1" zoomAndPan="magnify" style="fill:rgb(140, 131, 120)" original_string_length="38927"><g><g><g id="__id0_secuox58l"><path d="M9416.2,4079.83C9304.72,4151.61 9194.38,4209.2 9092.68,4245.26C9070.8,4253.02 9049.68,4261.36 9028.29,4265.42C9022.58,4266.5 9016.99,4266.63 9011.31,4267.14C9009.27,4267.65 9007.2,4266.41 9006.68,4264.37C9006.17,4262.33 9007.41,4260.26 9009.45,4259.75C9014.63,4257.54 9019.47,4254.91 9024.85,4252.94C9045,4245.6 9066.6,4240.29 9088.1,4232.49C9118.36,4221.51 9149.37,4208.59 9180.95,4193.95C9205.54,4169.55 9231.56,4147.11 9253.7,4121.09C9252.64,4119.81 9252.6,4117.91 9253.69,4116.56C9255.15,4114.48 9256.6,4112.42 9258.13,4110.42C9260.7,4104.89 9262.8,4099.28 9264.95,4093.69C9268.9,4083.44 9272.53,4073.19 9275.12,4062.6C9279.16,4046.06 9281.45,4029.04 9283.59,4011.91C9286.84,3985.93 9289.64,3959.7 9295.9,3934.45C9298.69,3923.19 9302.02,3912.16 9305.62,3901.23C9313.95,3875.97 9323.75,3851.29 9331.65,3825.74C9338.52,3803.39 9340.76,3779.91 9347.52,3757.68C9350.5,3747.86 9354.33,3738.28 9359.75,3729.12C9369.27,3713.01 9380.26,3698.39 9392.09,3684.52C9409.67,3663.93 9429.1,3644.98 9448.14,3625.04C9472.7,3599.54 9494.81,3571.6 9518.71,3545.43C9524.74,3538.82 9530.89,3532.32 9537.22,3525.99C9547.27,3515.96 9557.47,3506.47 9562.67,3503.07C9564.63,3501.79 9566.24,3501.22 9567.24,3501.1C9569.56,3500.83 9571.07,3501.77 9572.04,3503.12C9581.82,3516.4 9580.08,3539.13 9571.9,3564.78C9557.21,3610.82 9522.77,3666.88 9512.41,3690.42C9506.69,3703.3 9501.61,3716.39 9496.81,3729.57C9485.45,3760.76 9475.7,3792.46 9463.33,3823.29C9454.72,3844.5 9445.11,3864.8 9434.9,3884.7C9419.59,3914.49 9402.93,3943.38 9386.31,3973.15C9380.51,3983.53 9375.82,3994.64 9370.31,4005.23C9367.84,4009.98 9365.21,4014.63 9362.26,4019.07C9353.85,4031.71 9344.04,4042.74 9333.48,4052.93C9317.39,4068.47 9300,4082.44 9283.42,4097.51C9273.1,4111.92 9261.9,4125.54 9249.98,4138.54C9236.64,4153.09 9222.97,4167.57 9208.23,4180.94C9296.84,4137.54 9389.39,4081.27 9481.77,4016.62C9558.56,3962.89 9635.29,3903.45 9709.42,3840.61C9712.17,3837 9714.91,3833.37 9717.64,3829.74C9745.66,3792.51 9771.67,3754.31 9793.13,3713.62C9796.27,3707.66 9799.32,3701.65 9802.27,3695.59C9804.88,3683.71 9805.88,3671.9 9806.08,3660.11C9806.51,3636.03 9803.31,3612.02 9801.53,3587.81C9800.33,3571.45 9799.89,3555 9801.53,3538.42C9803.37,3519.87 9807.8,3501.71 9810.55,3483.3C9811.22,3478.82 9811.79,3474.32 9812.19,3469.8C9815.36,3434.02 9813.41,3397.47 9816.41,3361.54C9817.72,3345.83 9819.98,3330.24 9823.95,3314.88C9829.84,3292.18 9839.13,3270.19 9849.94,3248.7C9865.8,3217.15 9884.9,3186.68 9900.66,3156.47C9907.81,3142.89 9914.66,3129.03 9921.3,3115.06C9931.29,3094.07 9940.82,3072.8 9950.3,3051.76C9951.2,3049.74 9956.67,3033.97 9961.43,3025.65C9964.17,3020.86 9967.6,3018.48 9969.65,3018.42C9976.18,3018.12 9981.81,3022.44 9986.1,3029.37C9993.18,3040.8 9996.79,3059.58 9997.66,3066.98C9999.89,3086.39 10000.5,3105.89 10000.1,3125.41C9999.48,3154.45 9996.54,3183.49 9993.96,3212.27C9990.58,3249.6 9987.64,3287.39 9981.8,3324.64C9977.88,3349.67 9972.63,3374.44 9965.24,3398.69C9961.18,3411.92 9956.6,3424.83 9951.71,3437.58C9940.36,3467.17 9927.39,3495.88 9915.91,3525.72C9906,3551.44 9898.13,3578.35 9887.45,3603.94C9882.79,3615.12 9877.6,3626.04 9871.51,3636.53C9865.88,3646.16 9859.06,3654.67 9851.54,3662.55C9841.33,3673.26 9830.09,3682.99 9819.51,3693.41C9815.86,3697.01 9812.26,3700.65 9808.83,3704.47C9801.52,3719.04 9793.63,3733.29 9785.23,3747.27C9771.4,3770.27 9756.28,3792.59 9740.09,3814.29C9884.79,3688.63 10018.2,3551.26 10121.5,3421.19C10130.1,3403.28 10138,3385.15 10145.7,3366.96C10153.4,3348.38 10160.6,3329.64 10167.2,3310.76C10166.8,3309.43 10167.9,3308.05 10168.3,3306.7C10171.6,3292.14 10172.1,3277.92 10171,3263.86C10168.1,3226.22 10154.1,3189.66 10151.5,3151.01C10150.9,3141.68 10151.2,3132.3 10151.9,3122.89C10153.6,3101.59 10157.5,3080.17 10158.9,3059.14C10160.8,3030.01 10160.6,3000.66 10158.4,2971.47C10156.2,2942.25 10152,2913.18 10145.8,2884.68C10138.7,2851.62 10126.8,2816.98 10120.6,2782.45C10117.9,2767.19 10116.3,2751.95 10116.7,2736.87C10116.9,2729.55 10116.7,2719.11 10118.2,2709.6C10119.3,2702.54 10121.3,2695.98 10125,2691.25C10129.9,2684.99 10137.4,2685.93 10145.2,2691.47C10156.8,2699.64 10169.7,2717.95 10172.2,2722.01C10184.2,2741.1 10194.3,2761.67 10203.3,2782.88C10216.6,2814.29 10227.4,2847.09 10238.6,2878.34C10254.7,2923.74 10263.8,2971.11 10265.1,3018.65C10266.4,3066.21 10259.9,3113.93 10244.8,3160.05C10240.4,3172.84 10235.2,3185.2 10229.5,3197.31C10217.9,3221.66 10205.1,3245.42 10192.6,3269.36C10182.5,3303.91 10169.8,3337.83 10154.2,3370.78C10150.4,3378.8 10146.4,3386.74 10142.3,3394.6C10192.6,3329.12 10234.8,3265.85 10266.5,3207.29C10302.3,3141.2 10328.7,3070.68 10350.8,2998.38C10353.8,2981.27 10355.8,2963.18 10357,2945.01C10358.7,2919.03 10358.7,2892.91 10357.6,2869.3C10356.9,2853.12 10354.8,2837.1 10353.9,2820.97C10353.5,2813.93 10353.4,2806.86 10353.6,2799.76C10353.9,2790.97 10355.2,2782.16 10357,2773.39C10361.1,2753.71 10368,2734.17 10372.5,2715.05C10374.8,2705.12 10376.7,2695.1 10378.5,2685.03C10382.7,2661.39 10385.9,2637.47 10389.9,2613.9C10393,2595.44 10396,2577.02 10399.7,2558.73C10402.2,2546.5 10405.1,2534.33 10408.3,2522.2C10410.6,2513.49 10414.8,2500.3 10416.9,2494.46C10417.5,2492.93 10417.9,2491.85 10418.1,2491.35C10419.5,2488.55 10422,2488.74 10422.5,2488.8C10428.3,2489.41 10433.7,2492.71 10438.4,2497.27C10444.6,2503.22 10449.6,2511.37 10452.8,2517.27C10461,2532.58 10467.2,2548.82 10471.7,2565.57C10476,2582.26 10478.6,2599.44 10479.8,2616.64C10481.5,2642.31 10478,2679.29 10471.4,2715.86C10465,2752.03 10455.5,2787.8 10445.9,2811.91C10442.4,2820.51 10438,2828.63 10433.1,2836.47C10426,2847.88 10418,2858.72 10411,2870.09C10402.4,2884 10394.3,2899.81 10387.4,2916.13C10384.7,2922.53 10382.2,2929 10380,2935.47C10375.4,2952.5 10370.7,2969.48 10365.7,2986.38C10366.7,2984.36 10367.6,2982.35 10368.5,2980.34C10377,2956.9 10385,2933.57 10394.4,2910.75C10400.8,2895.15 10407.8,2879.8 10416.1,2864.78C10420,2857.84 10424.2,2851.2 10428.6,2844.73C10438.8,2829.86 10450.1,2815.89 10460.6,2801.1C10470.8,2786.68 10481.2,2771.74 10492.3,2757.51C10499.9,2747.88 10507.7,2738.58 10516,2729.95C10520.8,2724.96 10525.9,2720.16 10531.1,2715.46C10543,2704.77 10555.6,2694.62 10567.1,2683.82C10573.4,2677.96 10579.8,2672.36 10586,2666.48C10590,2662.67 10593.9,2658.74 10597.5,2654.56C10606.1,2645.03 10613.5,2634.39 10621.9,2624.63C10625.6,2620.26 10629.6,2616.07 10633.9,2612.2C10636,2610.32 10646.8,2600.82 10654.3,2597.32C10658.6,2595.28 10662.4,2595.32 10664.6,2596.65C10664.7,2596.69 10666.8,2597.76 10667,2600.92C10667,2601.38 10667.1,2602.35 10667.1,2603.68C10667.4,2611.03 10668,2629.36 10667.9,2630.98C10666.9,2650.63 10663.6,2668.95 10658.1,2686.57C10652.6,2704.15 10644.8,2721.05 10634.6,2737.91C10625.4,2753.08 10614,2767.92 10601.4,2781.61C10588.8,2795.27 10574.9,2807.79 10560.8,2818.47C10546.6,2829.18 10531.1,2838.26 10516.4,2848.31C10510.2,2852.52 10504.2,2856.9 10498.5,2861.67C10491.5,2867.49 10485.4,2874 10479.7,2880.83C10465.7,2897.5 10454.1,2915.98 10438.5,2931.44C10425.9,2943.88 10413.4,2954.14 10401.6,2965.05C10396.5,2969.77 10391.5,2974.55 10386.8,2979.82C10380.5,2986.88 10374.7,2994.65 10369.6,3004.01C10369.3,3004.5 10368.9,3004.88 10368.5,3005.12C10364.2,3012.21 10360.3,3019.43 10356.8,3026.87C10352.3,3036.3 10348.2,3045.94 10344.1,3055.59C10325.7,3109.82 10304.1,3162.66 10277.1,3213.01C10272.1,3222.42 10266.8,3231.96 10261.2,3241.61C10272.6,3228.78 10284.6,3216.33 10297,3204.24C10303.9,3190.97 10310.3,3177.15 10317.7,3164.27C10322.8,3155.38 10328.4,3146.97 10335,3139.48C10341,3132.75 10347.6,3126.69 10354.6,3121.09C10370.5,3108.49 10388.3,3098.04 10403.5,3084.72C10418,3072.12 10431,3058.62 10446.2,3048.07C10456.5,3040.93 10467.7,3035.11 10481,3031.8C10492.4,3028.94 10504.1,3027.32 10515.7,3024.86C10520.5,3023.82 10525.3,3022.64 10530,3021.15C10532.8,3020.28 10535.5,3019.3 10538.2,3018.26C10549.3,3013.97 10559.9,3008.59 10571.2,3004.71C10576.5,3002.87 10587.2,2998.1 10593,2999.75C10596.7,3000.8 10599.5,3003.63 10599.1,3010.28C10598.4,3021.2 10592.5,3032.41 10583.6,3043.03C10566,3064.26 10536.8,3083.29 10521.3,3095.28C10500.4,3111.27 10479.2,3129.63 10456.9,3145.72C10441.7,3156.71 10425.9,3166.64 10409.5,3174.14C10390,3182.93 10343.1,3200.35 10307.6,3218.3C10294.8,3224.76 10283.7,3231.47 10275.6,3237.51C10274.8,3238.11 10274,3238.7 10273.3,3239.27C10260.7,3252.99 10248.7,3267.07 10237.4,3281.12C10190.9,3354.95 10131,3434.21 10061.5,3514.66C10077,3501.21 10092.9,3488.21 10109.2,3476C10122.5,3466.11 10136,3456.69 10150,3448.01C10164.4,3434.34 10178.7,3420.31 10193.8,3407.42C10205.6,3397.47 10217.8,3388.2 10231.1,3380.23C10242.7,3373.26 10255.1,3367.66 10267.9,3362.89C10296.9,3352.08 10328.1,3345.37 10356.5,3334.39C10363,3331.86 10369.4,3329.04 10375.8,3326.03C10401.6,3313.78 10426.1,3298.55 10452.5,3287.45C10475.7,3277.71 10499.5,3270.68 10522.6,3261.12C10532.2,3257.13 10541.6,3252.72 10550.8,3247.41C10564.8,3239.38 10578.3,3230.95 10591.6,3222.25C10611.7,3209.12 10631.2,3195.36 10650.9,3181.33C10656.1,3177.62 10667.2,3171.24 10677.8,3167.39C10686.1,3164.35 10694.2,3163.1 10699.7,3165.22C10704.4,3166.93 10706.8,3170.8 10707.7,3175.68C10709,3183.43 10705.3,3194.29 10703.4,3199.04C10699.3,3209.14 10693.9,3218.35 10687.8,3226.99C10678.7,3239.75 10667.9,3251.24 10656.7,3262.52C10617.7,3301.5 10578.9,3337.59 10535.1,3366.91C10505.8,3386.52 10474.3,3403.05 10439.2,3415.63C10418.5,3422.86 10396.9,3428.25 10375,3432.31C10342.6,3438.31 10309.4,3441.42 10277.1,3443.61C10262,3444.63 10246,3444.19 10230.1,3444.03C10219.8,3443.93 10209.5,3443.88 10199.5,3444.77C10191.6,3445.46 10184,3446.89 10176.5,3448.74C10175,3449.57 10173.5,3450.4 10172,3451.25C10153.1,3461.88 10134.7,3473.68 10116.9,3486.49C10068.5,3521.26 10024,3562.78 9982.09,3602.77C9904.76,3685.12 9819.07,3767.09 9729.33,3844.18C9715.07,3856.43 9700.72,3868.55 9686.27,3880.53C9686.17,3880.66 9686.06,3880.78 9685.95,3880.9C9685.62,3881.31 9685.2,3881.6 9684.76,3881.79C9621.3,3934.38 9556.23,3984.23 9490.92,4029.73C9489.5,4030.72 9488.07,4031.71 9486.65,4032.7C9510.64,4021.91 9534.69,4012.41 9558.97,4003.98C9588.25,3993.81 9617.87,3985.22 9648.03,3977.63C9649.32,3976.64 9651.06,3976.34 9652.55,3975.66C9675.99,3965.06 9699.2,3954.48 9720.87,3940.39C9735.09,3931.16 9748.25,3920.44 9762.6,3911.51C9768.93,3907.57 9775.5,3903.97 9782.46,3900.97C9792.1,3896.8 9802.04,3893.47 9812.14,3890.63C9835.13,3884.17 9858.96,3880.26 9881.96,3874.2C9906.58,3867.99 9930.19,3860.39 9954.42,3854.78C9970.73,3851 9987.32,3848.11 10004.6,3847.08C10031.2,3845.39 10058.1,3848.49 10084.7,3854.39C10123.9,3863.09 10162.5,3877.9 10198.1,3892.34C10224.4,3903.05 10251,3913.44 10277.8,3923.46C10304.5,3933.47 10331.4,3943.11 10358.4,3952.08C10366.7,3954.83 10411.2,3966.03 10433.6,3976.59C10441.6,3980.36 10447,3984.51 10448.5,3987.93C10449.7,3990.88 10449.4,3993.71 10447.2,3996.39C10440.5,4004.41 10430.9,4009.27 10420.3,4012.17C10405.7,4016.14 10389.2,4016.37 10376.2,4016.74C10367,4017 10357.8,4017.12 10348.6,4017.12C10312.1,4017.1 10275.5,4015.47 10238.9,4016.52C10190,4017.71 10141.7,4023.38 10093.1,4026.21C10072.2,4027.43 10051.2,4028.13 10030,4027.74C10013.4,4027.42 9996.89,4026.19 9980.47,4024.45C9942.47,4020.43 9904.87,4013.67 9866.74,4009.44C9858.09,4008.48 9849.4,4008.11 9840.7,4007.99C9819.96,4007.69 9799.11,4008.9 9778.42,4008.19C9747.96,4007 9719.54,3994.26 9689.95,3988.51C9682.44,3987.05 9674.87,3986.29 9667.13,3986C9645.65,3991.2 9624.45,3996.82 9603.43,4002.98C9543.69,4020.5 9485.55,4042.73 9426.51,4073.67C9423.01,4075.51 9419.75,4078.03 9416.2,4079.83ZM9303.59,4066.19C9311.29,4059.47 9318.94,4052.69 9326.18,4045.49C9336.05,4035.66 9345.33,4025.17 9353.19,4013.1C9355.9,4008.96 9358.3,4004.63 9360.56,4000.2C9366.04,3989.47 9370.69,3978.22 9376.46,3967.7C9392.81,3937.93 9409.19,3909.03 9424.24,3879.26C9434.18,3859.62 9443.53,3839.61 9451.89,3818.69C9464.29,3788.01 9474.01,3756.43 9485.44,3725.41C9490.39,3711.99 9495.66,3698.67 9501.57,3685.57C9512.14,3662.33 9546.86,3607.06 9562.23,3561.61C9569.1,3541.26 9572.5,3523.06 9566.57,3511.19C9561.44,3514.93 9552.54,3523.49 9543.71,3532.44C9537.52,3538.71 9531.52,3545.15 9525.63,3551.7C9501.87,3578.13 9479.93,3606.31 9455.5,3632.07C9436.56,3651.86 9417.26,3670.67 9399.75,3691.07C9388.24,3704.48 9377.49,3718.57 9368.19,3734.14C9363.15,3742.59 9359.56,3751.44 9356.78,3760.51C9349.94,3782.73 9347.7,3806.22 9340.78,3828.56C9332.89,3854.17 9323.11,3878.93 9314.78,3904.24C9311.26,3914.95 9308.01,3925.75 9305.27,3936.77C9299.1,3961.67 9296.68,3987.58 9293.16,4013.17C9290.77,4030.63 9287.82,4047.92 9283.27,4064.7C9280.62,4074.49 9277.68,4084.24 9273.42,4093.49C9275.3,4091.62 9277.2,4089.78 9279.12,4087.97C9287.44,4075.94 9295.14,4063.36 9302.06,4050.08C9306.81,4041.03 9311.18,4031.85 9315.23,4022.57C9317.93,4011.15 9319.17,4000.01 9319.33,3988.88C9319.42,3982.32 9319.01,3975.77 9318.44,3969.13C9317.88,3962.64 9317.3,3956.07 9316.07,3949.35C9315.71,3947.87 9316.62,3946.38 9318.1,3946.03C9319.58,3945.67 9321.07,3946.58 9321.42,3948.06C9323.47,3954.87 9325.23,3961.54 9326.16,3968.27C9327.13,3975.23 9327.28,3982.18 9326.98,3989.1C9326.91,3990.74 9326.8,3992.38 9326.67,3994.01C9329.6,3986.05 9332.35,3978.03 9334.98,3969.96C9338.63,3958.77 9342.02,3947.49 9345.26,3936.15C9349.43,3916.95 9356.36,3895.87 9359.61,3875.82C9361.53,3863.95 9362.27,3852.44 9359.9,3841.86C9359.62,3840.38 9359.05,3838.98 9358.34,3837.61C9356.42,3833.92 9353.65,3830.47 9351.84,3826.92C9351.29,3825.99 9351.6,3824.79 9352.53,3824.24C9353.46,3823.7 9354.66,3824.01 9355.2,3824.94C9357.44,3828.29 9360.71,3831.37 9363,3834.89C9364.16,3836.66 9365.02,3838.55 9365.57,3840.54C9366.62,3844.88 9367.22,3849.37 9367.45,3853.99C9374.82,3827.01 9382.73,3800.2 9392.55,3774.04C9397.59,3760.76 9404.2,3747.97 9411.7,3735.62C9422.76,3717.4 9435.65,3700.08 9447.17,3682.78C9447.92,3681.62 9449.47,3681.29 9450.62,3682.03C9451.78,3682.78 9452.12,3684.33 9451.37,3685.49C9440.47,3703.07 9428.39,3720.84 9417.8,3739.22C9410.81,3751.37 9404.43,3763.76 9399.71,3776.7C9395.15,3789.07 9391.02,3801.58 9387.18,3814.18C9390.15,3809.35 9393.22,3804.74 9396.3,3800.61C9400.18,3795.39 9404.11,3790.99 9407.62,3787.68C9419.17,3777.15 9433.09,3769.11 9445.31,3759.32C9448.32,3756.91 9451.23,3754.41 9453.96,3751.71C9454.61,3751.02 9455.71,3750.99 9456.41,3751.64C9457.1,3752.3 9457.13,3753.39 9456.48,3754.09C9452.55,3758.55 9448.2,3762.62 9443.63,3766.51C9433.32,3775.3 9421.98,3783.14 9412.59,3792.8C9409.41,3795.98 9406.02,3800.3 9402.4,3805.15C9397.86,3811.25 9393.08,3818.25 9388.56,3825.42C9385.38,3830.45 9382.32,3835.55 9379.56,3840.46C9369.28,3877.52 9360.56,3915.09 9349.74,3951.96C9350.51,3950.52 9351.28,3949.1 9352.07,3947.67C9357.18,3938.44 9363.06,3929.68 9369.64,3921.41C9371.81,3918.84 9374.28,3916.82 9377.01,3915.2C9382.43,3911.99 9388.73,3910.35 9394.08,3906.78C9396.84,3904.98 9399.42,3902.86 9401.91,3900.59C9405.8,3897.03 9409.48,3893.18 9413.24,3889.7C9413.93,3888.97 9415.1,3888.94 9415.83,3889.64C9416.56,3890.34 9416.59,3891.5 9415.89,3892.24C9412.56,3896.17 9409.37,3900.46 9405.9,3904.47C9403.46,3907.28 9400.89,3909.91 9398.09,3912.22C9393.04,3916.33 9386.88,3918.66 9381.69,3922.38C9379.89,3923.66 9378.25,3925.16 9376.88,3927.07C9373.67,3931.37 9370.78,3935.88 9367.91,3940.39C9365.02,3944.95 9362.21,3949.57 9359.47,3954.23C9351.41,3967.93 9343.93,3982.03 9335.61,3995.57C9328.38,4015.57 9320.08,4035.21 9310.13,4054.3C9308.01,4058.32 9305.83,4062.28 9303.59,4066.19ZM9819.85,3681.23C9827.45,3673.18 9835.42,3665.47 9842.88,3657.33C9850.19,3649.35 9857.14,3641.04 9862.62,3631.4C9870.35,3617.87 9876.5,3603.59 9881.98,3589C9890.33,3566.75 9897.14,3543.82 9905.45,3521.73C9916.72,3491.82 9929.48,3463.03 9940.65,3433.37C9945.37,3420.85 9949.81,3408.18 9953.71,3395.19C9960.88,3371.47 9965.87,3347.21 9969.73,3322.74C9975.55,3285.75 9978.73,3248.25 9982.23,3211.18C9984.95,3182.66 9987.83,3153.87 9988.85,3125.09C9989.52,3106.05 9989.44,3087 9987.67,3068.02C9987.15,3062.22 9985.03,3048.69 9980.5,3038.36C9978.02,3032.71 9975.24,3027.67 9970.86,3027.12C9970.76,3027.24 9970.66,3027.36 9970.58,3027.47C9965.79,3033.86 9959.5,3053.21 9958.53,3055.41C9949.25,3076.62 9939.9,3098.03 9930.1,3119.19C9923.54,3133.35 9916.78,3147.4 9909.7,3161.18C9894.03,3191.38 9875.09,3221.88 9859.27,3253.39C9848.81,3274.22 9839.72,3295.5 9833.99,3317.49C9830.14,3332.28 9827.98,3347.29 9826.68,3362.41C9823.62,3398.35 9825.48,3434.91 9822.24,3470.7C9821.81,3475.42 9821.2,3480.12 9820.49,3484.8C9817.72,3503.04 9813.28,3521.03 9811.41,3539.41C9809.78,3555.43 9810.32,3571.31 9811.33,3587.14C9812.89,3611.66 9815.83,3636.04 9814.63,3660.39C9814.47,3663.64 9814.24,3666.89 9813.91,3670.14C9824.72,3644.89 9833.7,3618.66 9840.38,3591.19C9845.42,3571.05 9848.49,3550.99 9850.71,3530.9C9852.46,3514.98 9853.66,3499.05 9854.8,3483.03C9854.47,3478.39 9854.06,3473.76 9853.53,3469.14C9852.56,3460.69 9851.18,3452.28 9848.95,3443.91C9848.3,3441.35 9847.16,3439.01 9845.87,3436.73C9842.48,3430.73 9837.94,3425.21 9835.49,3418.76C9834.4,3415.86 9833.62,3412.85 9833.06,3409.77C9831.81,3402.97 9831.57,3395.89 9830.66,3389.17C9830.47,3388.05 9831.22,3386.99 9832.33,3386.81C9833.45,3386.62 9834.51,3387.37 9834.69,3388.48C9835.84,3394.14 9836.54,3400.09 9837.72,3405.87C9838.48,3409.56 9839.44,3413.17 9840.92,3416.59C9843.49,3422.7 9848.22,3427.74 9851.56,3433.47C9853.18,3436.24 9854.47,3439.17 9855.25,3442.34C9855.95,3445.33 9856.56,3448.32 9857.08,3451.32C9857.41,3447.05 9857.76,3442.77 9858.13,3438.49C9860.48,3411.96 9865.03,3385.01 9871.23,3358.43C9877.41,3331.9 9885.23,3305.75 9894.09,3280.77C9894.49,3279.63 9895.74,3279.02 9896.88,3279.41C9898.03,3279.8 9898.64,3281.05 9898.24,3282.2C9889.97,3307.17 9882.76,3333.29 9877.15,3359.75C9875.35,3368.26 9873.72,3376.81 9872.27,3385.37C9874.56,3379.72 9876.8,3374.1 9879.44,3368.61C9881.33,3364.66 9883.44,3360.79 9885.88,3357C9889.28,3351.8 9893.15,3347.14 9897.46,3342.94C9903.78,3336.81 9910.89,3331.6 9917.27,3325.35C9918.03,3324.55 9919.3,3324.51 9920.1,3325.27C9920.91,3326.03 9920.94,3327.3 9920.18,3328.1C9916.08,3332.89 9911.78,3337.38 9907.35,3341.74C9904.46,3344.59 9901.49,3347.34 9898.69,3350.29C9895.79,3353.35 9892.99,3356.54 9890.51,3360.12C9887.22,3364.82 9884.51,3369.7 9882.03,3374.68C9878.2,3382.37 9874.91,3390.27 9870.94,3398.09C9870.76,3398.47 9870.47,3398.76 9870.13,3398.94C9868.18,3412.37 9866.7,3425.79 9865.8,3439.09C9863.61,3470.39 9862.87,3501.15 9859.94,3531.85C9859.33,3538.26 9858.62,3544.68 9857.78,3551.09C9858.53,3549.84 9859.3,3548.59 9860.08,3547.35C9863.22,3542.4 9866.75,3537.61 9870.05,3532.57C9876.64,3523.03 9880.95,3513.84 9887,3505.47C9891.04,3499.89 9895.77,3494.69 9902.36,3489.97C9902.91,3489.53 9903.72,3489.62 9904.16,3490.17C9904.59,3490.71 9904.51,3491.52 9903.96,3491.96C9898.25,3497.08 9894.36,3502.48 9891.11,3508.13C9885.96,3517.1 9882.54,3526.66 9876.92,3536.82C9874.5,3541.01 9872.09,3545.14 9869.58,3549.14C9865.82,3555.11 9862.04,3560.91 9858.93,3567.07C9856.26,3572.37 9854.37,3577.97 9852.55,3583.92C9852.34,3584.61 9852.09,3585.26 9851.84,3585.92C9851.29,3588.47 9850.71,3591.02 9850.11,3593.57C9842.59,3624.18 9832.33,3653.3 9819.85,3681.23ZM10178.8,3274.47C10182.9,3260.57 10186.6,3246.59 10189.9,3232.53C10189.9,3230.91 10189.9,3229.29 10189.9,3227.68C10189.7,3219.35 10190.2,3210.97 10190.5,3202.62C10190.7,3197.23 10190.9,3191.85 10190.5,3186.49C10190.2,3180.4 10189,3174.54 10187.4,3168.78C10183.4,3154.74 10176.7,3141.36 10172.5,3127.47C10172.3,3126.95 10172.6,3126.38 10173.1,3126.2C10173.6,3126.02 10174.2,3126.29 10174.4,3126.81C10179.9,3140.33 10188.1,3153.03 10193.4,3166.77C10195.7,3172.89 10197.4,3179.22 10198.3,3185.85C10198.3,3186.31 10198.3,3186.77 10198.4,3187.23C10198.9,3183.14 10199.7,3179.08 10200.7,3175.02C10201,3173.71 10201.3,3172.4 10201.6,3171.09C10202.9,3162.53 10204,3153.95 10205,3145.35C10205.7,3138.97 10206.3,3132.58 10206.9,3126.17C10206.8,3125.09 10206.7,3124 10206.6,3122.92C10205.8,3115.98 10204.6,3109.16 10202.8,3102.43C10201.3,3096.65 10199.4,3090.93 10197.4,3085.24C10194.3,3076.59 10191,3068 10187.8,3059.54C10185.9,3054.64 10184.4,3049.4 10183.1,3044.05C10181.2,3036.2 10179.7,3028.13 10178.1,3020.61C10178,3019.94 10178.4,3019.27 10179.1,3019.11C10179.7,3018.95 10180.4,3019.36 10180.6,3020.03C10182.6,3027.4 10184.5,3035.32 10186.9,3043C10188.5,3048.09 10190.2,3053.07 10192.3,3057.71C10195.9,3066.07 10199.9,3074.47 10203.2,3083.12C10205.3,3088.88 10207.2,3094.74 10208.7,3100.67C10209.3,3090.09 10209.7,3079.47 10209.8,3068.83C10210.5,3026.59 10207.9,2983.95 10200.9,2941.06C10200.7,2940.02 10201.3,2939.02 10202.4,2938.82C10203.4,2938.62 10204.4,2939.3 10204.6,2940.34C10210,2964.97 10214.1,2989.59 10216.7,3014.16C10218.3,3008.78 10220.2,3003.46 10222.2,2998.07C10224.1,2993.02 10226.1,2987.98 10227.9,2982.64C10228.2,2981.52 10229.4,2980.87 10230.5,2981.18C10231.6,2981.5 10232.3,2982.66 10231.9,2983.78C10230.4,2990.27 10228.7,2996.49 10226.7,3002.54C10223.7,3011.73 10220.6,3020.56 10218.5,3029.91C10218.5,3030.21 10218.4,3030.5 10218.3,3030.8C10219.4,3043.48 10220,3056.15 10220.3,3068.8C10220.5,3079.16 10220.5,3089.51 10220.1,3099.83C10223.2,3093.68 10226.9,3087.72 10229.9,3081.54C10231.6,3078.29 10233,3074.99 10234,3071.53L10237.9,3053.1C10238,3052.34 10238.8,3051.84 10239.5,3051.99C10240.3,3052.13 10240.8,3052.87 10240.7,3053.63L10238.3,3072.61C10237.5,3076.42 10236.3,3080.11 10234.8,3083.74C10231.5,3091.75 10226.9,3099.4 10224.1,3107.48C10222.8,3111.08 10221.8,3114.77 10221,3118.5C10219.9,3123.32 10219.1,3128.21 10218.2,3133.09C10217.8,3137.61 10217.4,3142.14 10217,3146.65C10215.2,3163.9 10212.7,3181.07 10209.5,3198.1C10207.7,3207.87 10205.7,3217.62 10203.5,3227.32C10209.2,3215.96 10215,3204.62 10220.1,3193.02C10225.4,3181.15 10230.3,3169.1 10234.3,3156.61C10249,3111.72 10255.3,3065.25 10254,3018.95C10252.8,2972.54 10244,2926.29 10228.4,2881.94C10217.6,2850.77 10207,2818.1 10194.1,2786.69C10185.6,2765.82 10176.1,2745.5 10164.7,2726.62C10162.8,2723.29 10153.9,2709.76 10144.6,2701.15C10141.9,2698.61 10139.2,2696.49 10136.6,2695.34C10134.4,2694.36 10132.3,2694.07 10130.8,2695.89C10127.8,2699.66 10126.1,2705 10125.2,2710.71C10123.7,2719.87 10124.1,2729.96 10124,2737.03C10123.7,2751.62 10125.4,2766.35 10128.1,2781.08C10134.6,2815.47 10146.8,2849.91 10154.2,2882.82C10160.7,2911.7 10165.2,2941.14 10167.5,2970.77C10169.9,3000.39 10170.1,3030.18 10168.2,3059.75C10166.8,3080.81 10162.8,3102.27 10161.2,3123.61C10160.5,3132.59 10160.2,3141.55 10160.7,3150.46C10162.7,3189.06 10176.3,3225.75 10178.5,3263.35C10178.7,3267.04 10178.8,3270.75 10178.8,3274.47ZM10393,2885.67C10396.3,2878.7 10399.9,2871.98 10403.5,2865.62C10411.3,2852.17 10420.4,2839.3 10428,2825.66C10431.2,2820.01 10434.1,2814.23 10436.4,2808.17C10445.7,2784.5 10454.5,2749.39 10460.8,2713.97C10467,2678.32 10470.7,2642.34 10469.1,2617.33C10468.1,2600.78 10465.7,2584.25 10461.6,2568.16C10457.6,2552.11 10451.9,2536.49 10444.3,2521.74C10441.6,2516.39 10437.5,2508.94 10432.2,2503.46C10429.9,2501.03 10427.3,2498.94 10424.5,2497.8C10422.5,2503.79 10418.8,2516.14 10416.8,2524.39C10413.1,2539.41 10410,2554.52 10407.2,2569.68C10404.3,2584.89 10401.7,2600.15 10399.2,2615.47C10395.2,2639.07 10392.1,2663.02 10387.9,2686.69C10386.1,2696.93 10384.1,2707.12 10381.7,2717.2C10377.3,2736.26 10370.4,2755.73 10366.3,2775.33C10364.6,2783.57 10363.3,2791.83 10363,2800.1C10362.8,2806.93 10362.9,2813.71 10363.2,2820.48C10364,2836.66 10365.9,2852.74 10366.5,2868.95C10367.2,2892.87 10366.8,2919.31 10364.6,2945.57C10364.4,2948.13 10364.2,2950.7 10363.9,2953.25C10371,2927.78 10377.7,2902.14 10384.2,2876.47C10384.2,2874.23 10384.4,2871.99 10384.5,2869.75C10386,2851.66 10390.8,2833.72 10390.5,2815.63C10390.5,2810.19 10389.9,2804.91 10389.3,2799.67C10388.5,2793.28 10387.4,2786.99 10386.4,2780.64C10385.3,2774.14 10384.4,2767.69 10383.7,2761.07C10383.5,2760.24 10384,2759.43 10384.9,2759.25C10385.7,2759.08 10386.5,2759.61 10386.7,2760.44C10388.4,2765.84 10390.4,2771.01 10392.2,2776.3C10394,2781.7 10395.8,2787.06 10397.1,2792.58C10398.5,2798.24 10399.4,2804 10399.8,2809.91C10399.9,2808.92 10400.1,2807.92 10400.3,2806.93C10402.1,2798.05 10404.2,2789.23 10406.6,2780.36C10408.2,2774.85 10409.4,2769.22 10411.1,2763.75C10412.2,2760.3 10413.5,2756.93 10415.1,2753.65C10416.4,2748.55 10417.7,2743.46 10419.1,2738.38C10419.1,2737.38 10419.1,2736.37 10419.1,2735.36C10419.6,2722.78 10421.3,2710.24 10420.4,2697.65C10420.1,2692.91 10419.4,2688.27 10418.5,2683.67C10417.7,2679.27 10416.7,2674.91 10415.7,2670.55C10414.1,2663.86 10412.6,2657.2 10411.1,2650.47C10410.8,2649.28 10411.5,2648.05 10412.7,2647.71C10413.9,2647.38 10415.1,2648.07 10415.4,2649.26C10418.6,2658.62 10422.5,2667.72 10425,2677.22C10426.8,2683.72 10427.8,2690.4 10428.3,2697.22C10428.4,2699.68 10428.4,2702.13 10428.4,2704.58C10431.8,2692.37 10435.4,2680.21 10439.1,2668.09C10439.6,2666.24 10441.5,2665.16 10443.3,2665.68C10445.2,2666.19 10446.3,2668.11 10445.8,2669.96C10440.3,2691.09 10435.2,2712.43 10430,2733.82C10432.6,2731.03 10435.2,2728.24 10437.7,2725.31C10440.2,2722.05 10442.5,2718.72 10444.7,2715.28C10446.2,2712.85 10447.6,2710.31 10449,2707.84C10452.4,2702.05 10455.9,2696.3 10459.4,2690.45C10459.7,2689.91 10460.4,2689.71 10460.9,2690C10461.5,2690.29 10461.7,2690.96 10461.4,2691.5C10458.3,2697.78 10455.5,2704.08 10452.2,2710.14C10448.9,2716.26 10445.2,2722.1 10440.9,2727.76C10436.5,2734.14 10431.3,2740 10427,2746.43C10415.7,2792.64 10404.7,2839.25 10393,2885.67ZM10380.6,2975.37C10382.8,2972.43 10385.2,2969.62 10387.6,2966.9C10400.8,2952.13 10416.5,2940.3 10431.8,2924.75C10447.1,2909.37 10458.4,2891.02 10472,2874.46C10478.1,2867.14 10484.5,2860.16 10492,2853.88C10497.9,2848.88 10504.2,2844.27 10510.6,2839.85C10525.1,2829.81 10540.4,2820.76 10554.4,2810.09C10568,2799.71 10581.3,2787.52 10593.4,2774.3C10605.6,2761.11 10616.5,2746.87 10625.4,2732.28C10635.3,2716.26 10642.8,2700.18 10648.2,2683.43C10653.6,2666.64 10656.8,2649.17 10657.9,2630.41C10658,2629.02 10657.6,2614.88 10657.4,2606.75C10651.2,2610.11 10642.7,2618.27 10641,2619.88C10637.1,2623.55 10633.6,2627.53 10630.2,2631.63C10621.9,2641.62 10614.6,2652.4 10606,2662.13C10603,2665.39 10599.9,2668.51 10596.7,2671.54C10589.4,2678.42 10581.8,2684.86 10574.4,2691.61C10562.7,2702.41 10550.1,2712.55 10538.1,2723.24C10533.1,2727.76 10528.1,2732.37 10523.5,2737.18C10515.4,2745.51 10507.7,2754.52 10500.4,2763.83C10489.3,2777.91 10479,2792.68 10468.8,2806.94C10458.2,2821.64 10446.9,2835.53 10436.7,2850.32C10432.5,2856.51 10428.4,2862.87 10424.7,2869.53C10416.5,2884.2 10409.6,2899.21 10403.2,2914.43C10402.8,2915.3 10402.5,2916.18 10402.1,2917.06C10402.4,2916.67 10402.6,2916.28 10402.9,2915.9C10411,2904.03 10420.2,2892.84 10430.1,2882.24L10432.5,2878.8C10436.2,2873.74 10439.6,2868.67 10443.1,2863.58C10446.4,2858.58 10449.8,2853.57 10452.7,2848.11C10457.6,2839.75 10460.5,2831.13 10465.2,2823.08C10467.3,2819.56 10469.6,2816.18 10472.5,2812.95C10473.1,2812.18 10474.3,2812.04 10475,2812.65C10475.8,2813.25 10475.9,2814.38 10475.3,2815.15C10473.1,2818.51 10471.4,2821.96 10470,2825.45C10466.4,2834.14 10464.4,2843.08 10460.4,2852.06C10460.1,2852.69 10459.8,2853.32 10459.4,2853.94C10462.9,2850.93 10466.3,2847.96 10469.8,2845.06C10477.7,2838.45 10485.8,2832.24 10493.7,2826C10494.9,2824.91 10496.9,2825.07 10498,2826.35C10499,2827.62 10498.9,2829.54 10497.6,2830.63C10490.2,2837.4 10482.8,2844.37 10475.2,2851.29C10464.1,2861.48 10452.9,2871.73 10442.4,2882.61C10436.1,2889.11 10430.1,2895.79 10424.4,2902.7C10428.8,2900.6 10433.3,2898.8 10437.7,2896.7C10438.3,2896.32 10439.1,2896.52 10439.5,2897.14C10439.9,2897.76 10439.7,2898.57 10439.1,2898.94C10434.2,2902.57 10429.3,2905.9 10424.5,2909.57C10421.5,2911.87 10418.7,2914.28 10416.1,2917.12C10412.8,2920.26 10410,2923.66 10407.2,2927.12C10405.7,2928.99 10404.3,2930.9 10402.9,2932.84C10394.5,2946.49 10387.4,2960.86 10380.6,2975.37ZM10299.7,3211.93C10299.2,3212.76 10298.8,3213.59 10298.3,3214.41C10300.2,3213.39 10302.1,3212.36 10304,3211.33C10339.3,3192.68 10386.3,3174.99 10405.8,3165.97C10421.7,3158.68 10436.8,3149 10451.6,3138.36C10473.8,3122.31 10495,3104.07 10515.9,3088.17C10529.1,3078.16 10552.3,3063.07 10569.9,3045.95C10575.4,3040.51 10580.4,3034.84 10584.3,3029.12C10588.7,3022.72 10591.8,3016.29 10592.6,3009.74C10592.8,3007.85 10592.8,3006.59 10592,3005.96C10591.3,3005.47 10590.4,3005.44 10589.4,3005.49C10584.2,3005.71 10577.1,3009.26 10573.2,3010.62C10562.1,3014.53 10551.5,3019.93 10540.5,3024.25C10537.7,3025.36 10534.9,3026.4 10532,3027.33C10527.1,3028.9 10522.1,3030.15 10517.1,3031.26C10505.6,3033.78 10494,3035.49 10482.6,3038.42C10470.3,3041.6 10459.8,3047.11 10450.3,3053.89C10435.5,3064.48 10422.9,3078.1 10408.8,3090.77C10393.7,3104.35 10376.1,3115.38 10360.1,3127.98C10353.4,3133.24 10346.9,3138.72 10341.1,3144.96C10334.6,3151.89 10329.1,3159.74 10324,3168.02C10319.5,3175.36 10315.3,3183.04 10311.2,3190.74C10335.9,3168.04 10362,3147.33 10388.5,3129.47C10389.7,3128.33 10390.9,3127.17 10392.1,3125.99C10396.9,3121.26 10401.2,3116.15 10405,3110.7C10407.5,3107.07 10410,3103.42 10412,3099.34C10412.4,3098.14 10413.8,3097.55 10415,3098.02C10416.2,3098.48 10416.8,3099.83 10416.3,3101.03C10414.9,3105.71 10413.1,3110.17 10410.7,3114.32C10410.3,3114.97 10409.9,3115.61 10409.5,3116.24C10411.6,3115.07 10413.7,3113.93 10415.8,3112.82C10430.2,3105.35 10445.2,3099.03 10459.3,3091.3C10460.7,3090.49 10462.6,3090.98 10463.4,3092.39C10464.2,3093.81 10463.7,3095.61 10462.3,3096.41C10459.2,3098.23 10456.1,3099.99 10453,3101.72C10457.9,3101.01 10462.9,3100.66 10468,3100.31C10469.2,3100.16 10470.3,3101.01 10470.4,3102.2C10470.6,3103.39 10469.7,3104.48 10468.5,3104.62C10461.9,3105.75 10455.5,3107.38 10449.1,3108.83C10443.2,3110.14 10437.4,3111.33 10431.7,3113.04C10425.6,3116.26 10419.5,3119.53 10413.5,3122.97C10409.5,3125.23 10405.6,3127.53 10401.8,3130C10397.8,3132.57 10393.8,3135.21 10389.9,3137.91C10382.6,3144.13 10374.7,3149.73 10366.8,3155.07C10369.1,3154.42 10371.4,3153.87 10373.8,3153.41C10375.9,3153.08 10378.1,3152.99 10380.2,3153.12C10384.5,3153.37 10388.8,3154.42 10393.1,3154.28C10395.4,3154.24 10397.6,3153.88 10399.9,3153.33C10403.6,3152.46 10407.2,3151.21 10410.5,3150.03C10411.4,3149.62 10412.5,3150.04 10413,3150.98C10413.4,3151.91 10412.9,3153.01 10412,3153.42C10408.7,3155.18 10405.2,3157.07 10401.6,3158.53C10399,3159.57 10396.3,3160.31 10393.7,3160.72C10388.6,3161.42 10383.5,3160.7 10378.4,3161.03C10377.3,3161.1 10376.2,3161.22 10375.2,3161.43C10366.8,3162.75 10359.1,3165.45 10351.9,3169.11C10345.3,3172.46 10339.6,3177.31 10333.2,3181.47C10323.5,3189.74 10314,3198.31 10304.7,3207.11C10303.1,3208.71 10301.4,3210.32 10299.7,3211.93ZM10178.9,3431.41C10194.2,3423.42 10209.8,3416.42 10225.9,3410.45C10241.7,3404.72 10257.8,3399.82 10274,3395.44C10278.5,3392.25 10283.1,3388.87 10287.5,3385.38C10291.8,3382.02 10295.9,3378.53 10299.9,3375.01C10306.2,3369.57 10312.2,3364.08 10317.2,3357.99C10317.4,3357.84 10317.5,3357.71 10317.6,3357.59C10302.1,3362.16 10286.4,3366.63 10271.3,3372.11C10259,3376.58 10247,3381.68 10235.8,3388.19C10226,3393.81 10216.9,3400.15 10208,3406.93C10198,3414.65 10188.4,3422.94 10178.9,3431.41ZM10292.1,3390.76C10322.6,3383.21 10353.4,3376.97 10383.9,3369.59C10390.3,3366.83 10396.8,3363.93 10402.9,3360.59C10411.7,3355.82 10419.8,3350.19 10426,3342.36C10428.6,3339.33 10430.9,3336.06 10433,3332.71C10438.2,3324.53 10442.7,3315.87 10448.7,3308.23C10449.3,3307.41 10450.4,3307.22 10451.2,3307.81C10452.1,3308.4 10452.3,3309.55 10451.7,3310.38C10446.4,3318.42 10442.9,3327.43 10438.4,3335.87C10436.3,3339.65 10434.1,3343.28 10431.4,3346.71C10426.5,3352.76 10420.5,3357.68 10414,3361.78C10417.7,3360.73 10421.5,3359.66 10425.2,3358.54C10430.2,3357.05 10435.3,3355.35 10440.4,3353.47C10451.9,3348.26 10463.3,3342.61 10474.9,3337.66C10477.1,3336.73 10479.3,3335.81 10481.5,3334.93C10508.2,3320.99 10534.1,3304.12 10556.1,3288.16C10557.1,3287.39 10558.6,3287.61 10559.4,3288.64C10560.1,3289.68 10559.9,3291.15 10558.9,3291.92C10544.1,3303.24 10527.6,3315.04 10510.2,3326.08C10519.1,3324.2 10528.3,3323.14 10537.7,3323.12C10538.4,3323.1 10539.1,3323.71 10539.1,3324.48C10539.1,3325.26 10538.5,3325.91 10537.8,3325.93C10526.7,3326.66 10516.1,3329.1 10505.8,3332.24C10501.5,3333.54 10497.3,3334.98 10493,3336.53C10489.8,3338.4 10486.6,3340.23 10483.4,3342.02C10464.9,3352.2 10446.1,3360.91 10427.8,3366.9C10412.8,3371.8 10397.6,3376.15 10382.4,3380.23C10397.5,3382.3 10412.5,3385.47 10427.4,3386.42C10428.3,3386.44 10429,3387.2 10428.9,3388.1C10428.9,3389 10428.2,3389.71 10427.3,3389.68C10407.8,3389.8 10387.9,3386.67 10368.2,3386.13C10365.4,3386.05 10362.7,3386.01 10360,3386.05C10336.2,3392.08 10312.3,3397.86 10288.7,3404.47C10269.1,3409.96 10249.7,3416.02 10230.7,3423.36C10221.3,3426.9 10212.1,3430.86 10203,3435.16C10211.9,3434.08 10220.9,3433.55 10230,3433.33C10245.7,3432.94 10261.4,3433.39 10276.2,3432.13C10308.1,3429.46 10340.7,3425.82 10372.6,3419.44C10393.7,3415.21 10414.5,3409.78 10434.5,3402.53C10468.6,3390.48 10499.1,3374.45 10527.7,3355.68C10571,3327.18 10609.8,3292.28 10648.7,3254.39C10659.7,3243.77 10670.4,3232.96 10679.4,3220.87C10685.2,3212.98 10690.4,3204.56 10694.4,3195.27C10695.6,3192.47 10697.7,3187.07 10698.4,3181.88C10698.7,3179.79 10698.9,3177.74 10698.4,3175.99C10698.2,3174.78 10697.7,3173.66 10696.5,3173.13C10692.6,3171.49 10686.6,3172.82 10680.5,3175C10670.7,3178.51 10660.6,3184.66 10655.8,3188.14C10636.2,3202.44 10616.7,3216.47 10596.6,3229.86C10583.3,3238.8 10569.7,3247.44 10555.7,3255.7C10546.1,3261.31 10536.4,3266.03 10526.4,3270.24C10503.4,3279.93 10479.6,3286.94 10456.4,3296.73C10430.1,3307.78 10405.8,3322.98 10380.1,3335.16C10373.5,3338.27 10366.9,3341.18 10360.1,3343.79C10346.9,3348.86 10333.1,3353.05 10319.2,3357.14C10319.5,3357.17 10319.9,3357.31 10320.2,3357.54C10321.2,3358.24 10321.4,3359.58 10320.7,3360.52C10314.6,3369.57 10307.2,3378.35 10298.4,3385.79C10296.4,3387.51 10294.2,3389.17 10292.1,3390.76ZM9692.97,3979.96C9721.68,3984.76 9749.31,3996.81 9778.73,3997.33C9799.37,3997.79 9820.14,3996.22 9840.83,3996.37C9849.91,3996.44 9858.98,3996.86 9868.01,3997.85C9906.13,4002.01 9943.72,4008.71 9981.71,4012.68C9997.79,4014.36 10013.9,4015.54 10030.2,4015.82C10051.1,4016.19 10071.8,4015.48 10092.4,4014.28C10141.2,4011.44 10189.6,4005.83 10238.6,4004.68C10247.8,4004.46 10257,4004.39 10266.3,4004.47C10302.9,4004.78 10339.4,4006.9 10376,4006.38C10388.3,4006.22 10404,4006.35 10417.8,4002.8C10426.3,4000.64 10434,3997.13 10439.6,3991.06C10438.9,3990.37 10437.6,3989.07 10436.2,3988.19C10430.7,3984.66 10421.9,3980.92 10412,3977.44C10389.5,3969.52 10361.9,3962.83 10355.5,3960.76C10328.3,3951.99 10301.2,3942.64 10274.3,3932.74C10247.5,3922.85 10220.8,3912.43 10194.3,3901.76C10159.1,3887.61 10121.2,3873.05 10082.5,3864.6C10056.9,3858.99 10030.9,3856.08 10005.3,3857.79C9988.66,3858.98 9972.71,3861.97 9957.04,3865.79C9932.94,3871.66 9909.48,3879.48 9884.99,3885.94C9861.98,3891.75 9838.18,3895.47 9815.16,3901.63C9805.5,3904.22 9795.98,3907.23 9786.74,3911.06C9780.23,3913.76 9774.1,3917.03 9768.15,3920.6C9753.74,3929.26 9740.44,3939.7 9726.12,3948.65C9714.87,3955.67 9703.24,3961.79 9691.39,3967.46C9714.08,3962.5 9737.14,3957.97 9760.68,3953.65C9763,3952.22 9765.51,3951.12 9767.89,3949.83C9774.48,3946.23 9780.99,3942.62 9786.97,3937.75C9793.36,3932.88 9798.62,3926.93 9804.57,3921.67C9807.26,3919.29 9810.09,3917.05 9813.18,3915.07C9814.67,3914.04 9816.71,3914.42 9817.73,3915.91C9818.76,3917.4 9818.38,3919.45 9816.89,3920.47C9815.11,3921.77 9813.45,3923.18 9811.84,3924.63C9804.95,3930.86 9799.18,3938.09 9791.95,3944.04C9789.43,3945.98 9786.86,3947.76 9784.23,3949.41C9792.38,3947.97 9800.58,3946.55 9808.84,3945.14C9837.75,3940.23 9865.98,3931.69 9894.51,3924.8C9901.02,3921.82 9907.61,3918.77 9913.98,3915.54C9918.67,3913.16 9923.31,3910.81 9927.57,3908.03C9929.99,3906.48 9932.23,3904.72 9934.39,3902.86C9939.75,3898.24 9944.65,3893.09 9950.43,3888.92C9953.95,3886.41 9957.74,3884.37 9961.68,3882.57C9967.37,3879.98 9973.33,3877.89 9979.04,3875.46C9979.93,3875.05 9980.99,3875.45 9981.39,3876.34C9981.8,3877.23 9981.41,3878.28 9980.51,3878.69C9974.98,3881.39 9969.18,3883.78 9963.66,3886.64C9960.11,3888.49 9956.68,3890.55 9953.55,3893.05C9948.07,3897.38 9943.53,3902.67 9938.47,3907.41C9936.17,3909.56 9933.77,3911.59 9931.16,3913.41C9928.36,3915.3 9925.43,3917.09 9922.41,3918.78C9922.6,3918.74 9922.79,3918.71 9922.98,3918.68C9939.69,3915.64 9956.61,3913.72 9973.93,3913.89C9995.37,3914.13 10016.7,3915.67 10037.9,3917.99C10043,3917.11 10048.2,3916.52 10053.3,3915.52C10057,3914.78 10060.6,3913.89 10064.3,3912.68C10077.7,3908.42 10089.9,3902.47 10102.8,3899.21C10111.6,3897 10120.7,3896.05 10130.6,3897.25C10131.5,3897.33 10132.2,3898.17 10132.1,3899.11C10132,3900.06 10131.2,3900.76 10130.3,3900.67C10120.8,3900.14 10112.4,3901.79 10104.2,3904.22C10091.5,3908 10079.4,3913.85 10066.1,3918.34C10063.5,3919.17 10060.8,3919.85 10058.2,3920.41C10084.3,3923.77 10110.3,3927.95 10136.2,3932.2C10157,3935.6 10177.8,3939.14 10198.7,3941.87C10200.2,3942.04 10201.3,3943.4 10201.1,3944.91C10200.9,3946.43 10199.6,3947.52 10198.1,3947.35C10177,3945.45 10156,3942.99 10135,3940.14C10103.7,3935.9 10072.5,3931.01 10041.1,3927.85C10023.7,3926.1 10006.2,3924.81 9988.71,3924.34C9992.24,3925.68 9995.74,3927.22 9999.22,3928.98C10003.9,3931.45 10008.7,3934.62 10013.4,3938.4C10023.4,3946.39 10032.9,3956.59 10041.9,3963.74C10046.7,3967.56 10051.9,3970.7 10057.4,3973.34C10065.8,3977.38 10074.8,3980.28 10083.6,3983.09C10084.4,3983.3 10084.8,3984.07 10084.6,3984.81C10084.4,3985.55 10083.6,3985.97 10082.9,3985.76C10073.7,3983.4 10064.5,3980.84 10055.6,3977.31C10049.6,3974.9 10043.8,3972.06 10038.4,3968.42C10031.7,3964.02 10024.5,3958.41 10017.2,3952.75C10012.6,3949.16 10008.1,3945.58 10003.6,3942.4C10000.7,3940.3 9997.85,3938.32 9995.02,3936.74C9987.52,3932.39 9979.83,3929.25 9971.89,3926.86C9968.84,3925.95 9965.75,3925.14 9962.63,3924.42C9949.88,3925.08 9937.34,3926.81 9924.93,3929.18C9892.18,3935.42 9860.28,3946.01 9827.73,3953.26C9831.86,3955.14 9835.85,3957.3 9840.35,3958.51C9857.97,3963.76 9872.78,3967.76 9887.56,3973.9C9897.15,3977.89 9906.7,3982.76 9917.01,3989.37C9917.84,3989.87 9918.12,3990.95 9917.62,3991.78C9917.13,3992.62 9916.05,3992.89 9915.21,3992.4C9904.73,3986.67 9895.09,3982.63 9885.5,3979.36C9870.55,3974.27 9855.75,3971.16 9838.09,3967.04C9835.71,3966.45 9833.42,3965.68 9831.21,3964.75C9826.59,3962.79 9822.31,3960.2 9817.49,3958.61C9815.17,3957.74 9812.71,3957.17 9810.16,3956.79C9769.72,3963.94 9730.84,3971.42 9692.97,3979.96ZM10383.8,2745.49C10383.8,2746.53 10382.9,2747.33 10381.9,2747.29C10380.9,2747.24 10380.1,2746.37 10380.1,2745.34L10380.3,2741.99C10380.3,2740.96 10381.2,2740.16 10382.2,2740.2C10383.2,2740.25 10384,2741.12 10384,2742.15L10383.8,2745.49Z" transform="translate(-9006 -2488)" style="fill:inherit"/></g></g></g></svg>