<svg xmlns="http://www.w3.org/2000/svg" xmlns:xlink="http://www.w3.org/1999/xlink" data-name="Poppy Bouquet" preserveAspectRatio="xMidYMid meet" version="1.0" viewBox="24.7 56.4 970.7 1738.1" zoomAndPan="magnify" style="fill:rgb(140, 131, 120);" original_string_length="70982"><g data-name="Icelandic Poppy 6" id="__id1_secuox58l"><path d="M920,249.37c-.71-.47-2-.94-2-1.42,0-4.24,1.53-8.06,3.67-11.62.37-.62,1.55-.79,2.39-1,.12,0,.62.71.68,1.13.6,4.22.12,8.27-2.41,11.82C921.84,248.85,920.76,249,920,249.37Z" style="fill: inherit;"/><path d="M950.37,1016c0,1.41-.07,2.81,0,4.21a100.29,100.29,0,0,1-3,29.17c-1.57,6.34-2.35,12.89-4.17,19.14-1.7,5.83-5.78,10.62-8.2,16.23a38.4,38.4,0,0,1-8.8,12.59,16.38,16.38,0,0,1-7.14,4.25,1.32,1.32,0,0,1-1.07-.51c-.24-.31-.46-1-.3-1.22,2.22-3.53,4.45-7.06,6.8-10.52A76.37,76.37,0,0,0,937,1058.42c.67-4.13,2.12-8.13,3.14-12.21a47.06,47.06,0,0,0,1.77-8.18c.49-7.47.68-14.95,2.37-22.3a17.23,17.23,0,0,0,.07-5.6c-.69-6.5-1.18-13.06-2.42-19.47-.79-4.06-2.77-7.89-4.26-11.82-1.14-3-2.44-6-3.45-9.13a3.2,3.2,0,0,1,.72-2.54,2.72,2.72,0,0,1,2.33-.88,7.24,7.24,0,0,1,3.25,2.46,64.74,64.74,0,0,1,9.73,31.83c.22,5.14,0,10.29,0,15.44Z" style="fill: inherit;"/><path d="M967.25,995.42c-.6-.58-1.67-1.11-1.74-1.75a169.28,169.28,0,0,0-3-20.67,55.32,55.32,0,0,0-5.4-14.25c-1.79-3.25-4-6.3-4.81-10a1.41,1.41,0,0,1,1.35-1.84,1.8,1.8,0,0,1,1.32.18c1.69,1.58,3.65,3,4.89,4.91,6.51,9.93,10.58,20.68,10.36,32.77-.05,3.22.55,6.48-.76,9.63C969,995.47,968.4,995.87,967.25,995.42Z" style="fill: inherit;"/><path d="M919.4,1071.83c-.62-.59-1.55-1.08-1.77-1.8a4.2,4.2,0,0,1,.28-2.69,111.13,111.13,0,0,0,5.65-17.34c.57-2.26,1.5-4.54,1.52-6.82.09-8,2.62-15.7,3.2-23.64.09-1.2.87-1.85,1.73-1.46a4.24,4.24,0,0,1,2,1.7,4.07,4.07,0,0,1,.36,2.71,44.21,44.21,0,0,0-1.51,12.51c.11,9-2.43,17.62-3.85,26.39a17.05,17.05,0,0,1-5,9.88A2.29,2.29,0,0,1,919.4,1071.83Z" style="fill: inherit;"/><path d="M585.83,759c.68,2.47,1,5.36,2.24,7.81,4.63,9.29,6.64,19.52,10.61,29a17.39,17.39,0,0,1,1.43,5.43c.59,9.84,3.78,19.31,3.68,29.27a49.82,49.82,0,0,0,1.94,15.3,22.5,22.5,0,0,1,.82,5.55,83.31,83.31,0,0,0,2.15,15.28c1,4.06.41,8.49,1.36,12.56a108.46,108.46,0,0,1,2.47,25.13,9.63,9.63,0,0,0,.19,2.8c2.38,7.75,2.16,15.75,2.43,23.72A22,22,0,0,0,616,935a1.74,1.74,0,0,0,2,1.54,10.83,10.83,0,0,0,2.57-.68c.4-.15.68-.63,1-1,2.7-3.24,5.45-6.45,8.08-9.74,7-8.78,14-17.62,21-26.37,2.65-3.28,5.47-6.43,8.29-9.57,7.49-8.38,16.06-15.73,23.19-24.46,9.11-6.58,15.87-16,25.86-21.58a50,50,0,0,0,11.12-8.57c6-6.17,13.19-10.43,20.66-14.41,2.47-1.32,4.75-3,7.21-4.37,2.86-1.58,5.76-3.14,8.75-4.44,3.86-1.69,7.85-3.08,11.76-4.66,15-6.09,15-6.14,31-8.75a72.64,72.64,0,0,1,9.78-.84c5.63-.16,11.26-.1,16.89-.15,23.12-.24,43,8,60.3,23A169.24,169.24,0,0,1,904,839.22c5.48,6.53,8.83,14.33,12.28,22,1.72,3.84,3.17,7.81,4.64,11.75a133.7,133.7,0,0,1,7,27.14c.48,3.23,1,6.47,1.82,9.64.58,2.36,1.95,4.34,4.59,4.74a57.15,57.15,0,0,1,10.82,2.94,33.86,33.86,0,0,1,7.54,3.65,75.7,75.7,0,0,1,26.14,28.8c5.36,10.47,9.88,21.22,12.25,32.77.66,3.21,1.12,6.46,1.55,9.7.55,4.18.75,8.42,1.52,12.55a58.77,58.77,0,0,1,.25,19.62c-3.37,22.42-9.62,43.88-21.13,63.66a88.5,88.5,0,0,1-21.72,25.55,31.49,31.49,0,0,0-3.38,2.51c-10.49,11-24.31,15.65-38.28,19.83-7.3,2.19-15,1.74-22.3,0a91.66,91.66,0,0,1-26.13-10.16,28.37,28.37,0,0,1-5.64-4.1c-10-10-19-20.82-24.35-34.07a131.09,131.09,0,0,1-6.08-18.69c-1.62-6.82-2.45-13.83-3.45-20.78a28.93,28.93,0,0,1-.14-7c.81-8.4,1.3-16.86,2.82-25.14a279.22,279.22,0,0,1,13.11-48.79A50.82,50.82,0,0,1,844.28,955a171.38,171.38,0,0,1,18.41-21.17c7.2-7,15.64-11.9,24.23-16.68a16.66,16.66,0,0,1,6.73-1.75c4.67-.34,9.37-.25,14.05-.4,2.33-.07,4.66-.25,7-.47,1.44-.14,3.49-2.24,3.74-3.82.22-1.37.67-2.86.36-4.14-1.77-7.27-2.44-14.83-5.64-21.73a14.93,14.93,0,0,1-1.45-4C910.13,870.36,904.5,861.69,899,853c-2-3.17-4.21-6.22-6.22-9.38a64.35,64.35,0,0,0-24.69-22.41c-11.74-6.26-24-10.56-37.39-11.11a29.48,29.48,0,0,1-6.94-1c-6.5-1.87-13.13-1.32-19.58-.54a154.32,154.32,0,0,0-24.7,5.27,41.37,41.37,0,0,0-6.58,2.48c-13.87,6.85-27.58,13.86-40,23.32-8.56,6.51-16.89,13.34-25.67,19.58a17.45,17.45,0,0,0-3.17,2.76c-7.29,8.56-15.52,16.16-23.56,24-7,6.84-13.1,14.65-19.56,22.06-2.46,2.83-4.7,5.85-7.28,8.56-4.85,5.1-9.17,10.66-13.81,15.92-6.57,7.46-11.67,15.81-17.05,24-3.52,5.39-5,10.89-3.34,17.32,2.08,8.26,1.43,16.82,1.5,25.21.15,20.17-.31,40.35-.61,60.52-.05,3.26-.49,6.52-.82,9.78-.43,4.18-1.14,8.35-1.32,12.55-.31,7-.27,14.07-.42,21.11-.07,3.28.21,6.65-.45,9.82-2.6,12.51-2,25.19-2.39,37.81a97.65,97.65,0,0,1-1.57,16.78,99.36,99.36,0,0,0-1.33,12.57c-.42,5.61-.72,11.19-1.57,16.79-.92,6-.75,12.15-.88,18.24-.14,6.57-.31,13.1-1.62,19.6a90.25,90.25,0,0,0-1.11,11.18c-.44,6.07-.67,12.08-2.32,18.08-1.61,5.81-.73,12.16-2.79,18-.56,10.29-2.56,20.48-3.13,30.71s-3.28,20.35-4,30.64c-2.45,5.7-2.32,11.94-3.45,17.9-2.68,14.26-6,28.38-8.84,42.61-1.08,5.51-1.56,11.14-2.68,16.63-3.58,17.43-7.53,34.78-10.94,52.25-2.52,12.88-5.73,25.57-9.18,38.22-.62,2.25-.68,4.64-1.2,6.92-1.25,5.48-2.17,11.09-4,16.35-3.14,8.85-5.35,17.92-7.71,27s-4.72,18.14-7.56,27c-7.11,22.32-12.33,45.2-20.08,67.33-5.89,16.82-12.91,33.18-20.29,49.39-4.66,10.24-9.21,20.53-14,30.69q-5.13,10.79-10.95,21.23c-5.93,10.61-12.44,21-17.13,32.23-1.38,3.3-4.2,5-7.64,5.48a4.1,4.1,0,0,1-2.61-.62c-2.94-1.92-4.18-5-4.75-8.24a4,4,0,0,1,.64-2.67c9.21-13.62,16.26-28.48,24.67-42.56,2.84-8,8.44-14.54,11-22.67,1.12-3.51,3.41-6.64,5.19-9.93,2.22-4.12,4.9-8,6.62-12.37,7.43-18.72,15.95-37,22-56.26,1.83-5.8,4.28-11.4,6.17-17.18,5.36-16.47,10.76-32.92,15.16-49.69a29.51,29.51,0,0,0-2.22-21.79,458.69,458.69,0,0,0-23.32-40.09c-4-6.31-8.1-12.61-12.3-18.82-5-7.4-10.56-14.23-18-19.54-11-7.9-21.77-16.26-32.63-24.42a40.9,40.9,0,0,1-3.42-2.48c-15.75-14.71-33.06-27.81-47.15-44.2s-25.43-34.74-30.77-56.18c-.89-3.56-.62-6.63,2.18-8.94a18.18,18.18,0,0,0,5.93-7.56c.59-1.51,2.71-2.42,4.11-3.64,1.74-1.51,2.24-3.5,1.07-4.85-6.76-7.85-11.81-16.88-17.74-25.31-5.69-8.08-9.95-17-14.1-25.91a54.11,54.11,0,0,1-5.14-17.46,65.23,65.23,0,0,0-1.71-8.22,11,11,0,0,1,.2-6.91c2.72-6.53,1.83-12.82-.91-19.08-1.13-2.57-2.17-5.19-3.18-7.81a36.39,36.39,0,0,1-2.59-12.33c-.18-7-.24-14-2.39-20.87-.72-2.29.21-4.65,1.62-6.63a12.11,12.11,0,0,1,2.81-3.1c3.1-2.12,3.74-5.26,3.85-8.61.08-2.81,0-5.63-.1-8.44-.21-7-.51-14.07-.68-21.1-.11-4.22-.11-8.45,0-12.66a31.67,31.67,0,0,1,1.81-9.63c1.79-5.32,3.17-10.77,4.77-16.16a46.09,46.09,0,0,0,2.24-12.42,10.87,10.87,0,0,1,.12-1.4c3.89-22.79,2.82-45.79,2.8-68.74,0-20.17-.26-40.34-.31-60.51a167.28,167.28,0,0,1,2.06-26.59c1.24-7.86,2.26-15.74,4-23.5a96,96,0,0,1,6.22-18.64c1.23-2.67,6.65-3.33,8.6-1.05a11.47,11.47,0,0,1,2.39,3.41c2.47,7.56,5.32,15.07,7,22.82,1.36,6.36,3.5,12.67,3.39,19.35a21.52,21.52,0,0,0,1,5.5c2,8.18,4.14,16.33,5.56,24.64,1.33,7.84,3.39,15.54,5.14,23.27,2.67,11.85,4.93,23.87,9.55,35.22a92.65,92.65,0,0,1,3.52,10.68,114.77,114.77,0,0,0,8.11,21c6.94,13.84,12.42,28.3,18.65,42.44,1.51,3.43,3.37,6.71,4.88,10.14q6.26,14.15,12.3,28.38a33.78,33.78,0,0,1,1.45,5.42c.74,3.19,1.36,6.41,2.15,9.58,1.58,6.36,3.67,12.58,4,19.23.13,2.75,1.27,5.46,2,8.17a113.86,113.86,0,0,1,3.81,27.79c0,2.79.44,5.58.68,8.38.13,1.39.64,2.85.36,4.15-1.52,6.94-1,14-1.67,21a54.68,54.68,0,0,1-2.88,13.72c-2.67,7.23-2.61,14.74-2.86,22.2a15.83,15.83,0,0,0,1.72,6.72,189.65,189.65,0,0,0,14,26c4.14,6.25,8,12.7,11.86,19.12,1.2,2,2.13,4.15,3.16,6.24a50.28,50.28,0,0,0,3.09,6.24,160.55,160.55,0,0,1,14.15,25.82c2.08,4.7,4.7,9.16,7.14,13.69.13.25.85.31,1.28.26s1-.3,1-.57A10.81,10.81,0,0,0,515,1364c-.17-9.84-.95-19.68.77-29.49a20.78,20.78,0,0,0-.12-7c-1.31-7.45-1.15-15-1.13-22.46,0-6.09,0-12.19.08-18.29a53.63,53.63,0,0,1,.41-8.42c2.1-12.09,1.88-24.3,2.18-36.48.14-5.62-.09-11.25,1.54-16.75a18.7,18.7,0,0,0,.75-5.56c-.17-11.32,2.63-22.32,3.37-33.54.24-3.69,1.55-7.31,2.4-11,2.86-12.31,5.62-24.64,8.63-36.92,2.11-8.64,4.51-17.22,6.88-25.8,1.74-6.32,3.61-12.6,5.47-18.89,2.12-7.19,4.11-14.41,6.46-21.52,6-18.23,12.21-36.41,19.89-54,1.12-2.58,2.22-5.17,3.16-7.83a90.37,90.37,0,0,1,8.73-17.59c5-8,9.69-16.06,14.67-24a29.47,29.47,0,0,0,4.66-18.75c-.16-1.86.13-3.82-.3-5.61-2.2-9.22-2-18.63-2.27-28s-2.37-18.58-3.87-27.81a108.94,108.94,0,0,1-1.63-11.09c-.3-5.14-.33-10.33-2.07-15.28-.83-12.69-4.86-24.77-7.11-37.2-2-11-5.06-21.89-7.61-32.84-2-8.68-5.24-17-8.35-25.3-1.17-3.15-3.14-4.61-6.26-4.36-12.67,1-25.32-.17-38-.15-9.42,0-18.54-2.08-27.46-5.13a37.58,37.58,0,0,1-10.86-6.37,12.85,12.85,0,0,1-3.62-15.28,56,56,0,0,1,18-23c4.13-3.08,8.12-6.33,12.16-9.52.89-.71.22-3-1-3.48a15.19,15.19,0,0,0-3.9-1.35c-5.14-.47-10.25-.85-15.29-2.22-2.66-.72-5.58-.57-8.39-.64-3.28-.08-6.64.48-9.84,0-9.1-1.41-17.66.93-26.29,3.08a77.55,77.55,0,0,0-23.14,10,24.56,24.56,0,0,1-4.81,2.89c-6.79,2.34-12.26,6.71-17.75,11.11a215.27,215.27,0,0,1-35.2,23.1c-3.74,2-7.5,3.87-11.15,6a20.52,20.52,0,0,1-6.5,2.47c-4.14.81-8.27,1.69-12.34,2.81-9.5,2.63-19.34,3.43-29,5.33-5,1-10.28.4-15.43.29a15.86,15.86,0,0,1-5.44-1.26,75.25,75.25,0,0,1-8.89-4.21,23.49,23.49,0,0,1-4.16-3.66,3.07,3.07,0,0,1-.74-1.18c-2.44-6.49-6.12-11.6-13.67-12.48-10.85-6.22-19.88-14-23.64-26.61-2.27-7.62-5.39-15-7.64-22.63-2.31-7.85-6.79-14.39-11.55-20.77a35.57,35.57,0,0,0-7.06-6.8c-3.36-2.54-7.08-4.58-10.57-6.95-7.2-4.88-15.68-6.05-23.81-8.11-5.88-1.5-12-2.18-18-3.23a67.19,67.19,0,0,1-22.37-8c-6.68-3.88-12-8.87-14.52-16.46a22.14,22.14,0,0,0-2.52-5,9.84,9.84,0,0,0-5.32-4.4,69.1,69.1,0,0,0-10.92-2.53A111.08,111.08,0,0,1,90,605.1a16.8,16.8,0,0,1-11.6-9.39c-2.35-4.75-3.91-9.57-1.88-14.86.4-10.26,5.45-18.8,10.35-27.32,2.59-4.49,5.15-8.92,6.52-14,.78-2.89.08-5.77-2.35-7.49a43.68,43.68,0,0,0-7.15-4.41,161.67,161.67,0,0,0-21.07-7.82C47.59,515.36,45.81,514,35,502c-3.14-3.47-6.54-6.75-8.62-11-1-2.16-1.71-4.38-.83-6.77,1.3-3.51,2.73-7,3.91-10.53,2.15-6.5,6.17-11.26,11.77-15.27,5.31-3.79,10-8.51,14.71-13a55.25,55.25,0,0,0,12.54-18.54,52,52,0,0,0,2-5.24c2.89-9.68,9.06-17.41,15-25.21,4.66-6.08,11.29-9.87,17.74-13.64a128.47,128.47,0,0,1,16.52-7.8,42.68,42.68,0,0,1,16.44-3.35c4.69,0,9.38-.36,14.07-.23,7.66.23,13.42-2.65,17.93-9,6.25-8.78,13.81-16.51,20.85-24.66A27.11,27.11,0,0,1,198,331c4.21-2.06,8.3-4.37,12.44-6.56a26.33,26.33,0,0,1,12.08-3.36q10.56-.16,21.11-.48c9.47-.28,18.58,2.18,27.83,3.6,10.16,4.68,21.63,6.31,30.89,13.19a16.08,16.08,0,0,0,5.1,2.22c.67.19,1.66-.47,2.41-.91a1.39,1.39,0,0,0,.52-1.17,52.87,52.87,0,0,0-1.83-8.17,93,93,0,0,1-5.76-24.55c-.24-2.78-1.21-5.5-1.63-8.27a75,75,0,0,1-1.07-9.77c-.19-8.45,0-16.89-.22-25.34-.28-11.34,2.15-22.38,3.79-33.49a46.45,46.45,0,0,1,6.3-17.06c4.83-8.06,9.9-15.88,17-22.26a75.71,75.71,0,0,0,13.74-15.93c2.22-3.53,5.26-6.57,8.13-9.66a18.43,18.43,0,0,1,9.44-5.81c2.27-.52,4.41-1.64,6.67-2.18,11.58-2.79,21.81-8.39,31.63-14.92,2.47-1.64,4.36-3.53,4.5-6.65.19-3.91,2-7.07,4.1-10.28,3.91-5.94,8.8-11,13.81-15.9a41.65,41.65,0,0,1,11.39-8.13,129.35,129.35,0,0,0,27.11-17.44C464.33,76,471.71,71,478.36,65.09c6-5.3,13-7.39,20.52-8.15A37.93,37.93,0,0,1,512.82,58c7.24,2,14.42,3.91,21.36,6.9a66,66,0,0,0,26,5.25c9.38,0,18.76.17,28.14.22A40.88,40.88,0,0,1,599.4,72c9,2.59,18,5.47,26.16,10.14C635.73,88,645.75,94.07,655.83,100a21.72,21.72,0,0,1,7.06,6.7c5.5,8.14,11.88,15.75,14.55,25.5.33,1.21,2.61,1.62,3.42.64a60,60,0,0,0,5.18-6.57c3.25-5.3,7.74-9.39,12.3-13.44a14.87,14.87,0,0,1,10.33-3.79,105.29,105.29,0,0,1,11.24.43,41.45,41.45,0,0,1,8.14,2c2.22.72,4.27,1.94,6.47,2.75a52.67,52.67,0,0,0,19.19,3.68,280.53,280.53,0,0,0,48.92-4.37,56.65,56.65,0,0,1,19.61,0,84.35,84.35,0,0,0,14,1.23c10.19-.07,19.28,3.4,27.85,8.52,5.63,3.36,11.18,6.84,16.77,10.27a32.16,32.16,0,0,0,10.33,4.3c8.24,1.73,16.43,3.7,24.71,5.24,6.23,1.15,11.27,4.13,16.08,8.12a54.23,54.23,0,0,1,14.74,18.52c2.21,4.66,4.36,9.36,6.89,13.85a44.8,44.8,0,0,1,5.52,21.57c.06,2.81-.05,5.64.17,8.44a57,57,0,0,1-6.35,31.28,28,28,0,0,0-1.38,3.83c.29.54.41,1.11.75,1.35,6.54,4.55,9.84,11.15,11.63,18.62,1.1,4.54,2,9.14,2.76,13.75,2.47,14.83-.44,29-6.14,42.59a195,195,0,0,1-23.64,41.43c-8.13,10.9-16.23,21.81-22.35,34-1.25,2.51-2.79,5-3.55,7.63-3.74,13.21-6.41,14,9.23,18.63,4.94,1.46,9.85,3,14.71,4.76,6,2.12,9,6.63,9.13,12.85a85.84,85.84,0,0,1-.84,11.18c-.26,2.31-1.19,4.59-1.23,6.9-.24,13.63-5.71,25.54-12.5,36.82-3.4,5.64-6.54,11.35-9.46,17.23-2.09,4.19-4.35,8.31-6.43,12.51a89.61,89.61,0,0,0-4.69,10.22c-4.41,12.6-5.45,9.67,1.44,20.58a52.84,52.84,0,0,1,6.48,14,69.25,69.25,0,0,1,1.06,34.72c-.53,2.28-1,4.58-1.73,6.81-6.06,19.56-18.33,33.47-37.56,40.93a38.5,38.5,0,0,1-8.11,2.15,40.85,40.85,0,0,0-27.08,16.1c-2.86,3.71-5.76,7.42-8.28,11.37a53.85,53.85,0,0,1-17,16.6c-4.75,3-9.66,5.76-14.61,8.42a39.62,39.62,0,0,1-14.79,4.18c-7.43.8-14.83,2-22.21,3.25-6.93,1.15-13.79,2.7-20.73,3.8a66.9,66.9,0,0,1-9.82.52c-6.1.08-12.2.13-18.3,0-13.43-.25-35.6,3-47.31,5.75a59.52,59.52,0,0,0-8,2.43c-13.54,5.26-27.12,10.45-40.55,16a161.72,161.72,0,0,1-24.09,7.56c-3.61.87-7.13,2.16-10.68,3.32C586.67,757.86,586.42,758.39,585.83,759Zm-63.74,722c-.13-1.39.23-3.13-.47-4.1-6-8.31-11.22-17.33-20.36-23a97.3,97.3,0,0,1-10-7.71,5.43,5.43,0,0,1-1.34-2.31,1.66,1.66,0,0,1,1.11-2.25,6.25,6.25,0,0,1,5.39.56c11,6.51,20.83,14.3,28.6,24.53a1.86,1.86,0,0,0,1.2.55c.5-.63,1.29-1.43,1.21-2.07-.69-5.56-1.45-11.11-2.42-16.63a17.2,17.2,0,0,0-2-5.18,58.31,58.31,0,0,0-17.85-19.57c-2.3-1.59-4.89-2.91-6.22-5.52a2.74,2.74,0,0,1,.42-2.41c.53-.63,1.77-1.31,2.38-1.09a32.16,32.16,0,0,1,6.26,3.07c2.74,1.76,5.24,3.9,8,5.68.47.3,1.64-.33,2.39-.71a1.32,1.32,0,0,0,.4-1.19c-.38-1.32-.56-2.9-1.41-3.83-2.84-3.09-5.9-6-8.94-8.88s-6.1-5.83-9.26-8.62c-4.57-4-9.18-8-13.88-11.89-9.74-8-19.38-16.23-30.75-22-5-2.56-9.82-5.42-14.63-8.3-.48-.29-.43-1.65-.4-2.51,0-.31.63-.66,1-.88a7.19,7.19,0,0,1,6.76,0c3.76,1.9,7.26,4.28,10.94,6.34,16,9,30.94,19.4,44.16,32.19a40.87,40.87,0,0,0,4.2,3.7,42.76,42.76,0,0,0,4.77,2.91,1.2,1.2,0,0,0,1.11-.17,1.59,1.59,0,0,0,.48-1.2c-1.25-8.41-4.4-16.24-7.43-24.1a10.72,10.72,0,0,0-4.31-5.42c-5.3-3.22-9.41-7.77-13.53-12.22-6.82-7.36-15-12.64-23.91-17-5.46-2.7-10.86-5.54-16.44-8s-11.31-4.48-17-6.68c-2.62-1-5.28-1.92-7.87-3a7.65,7.65,0,0,1-2.14-1.73,1.9,1.9,0,0,1-.27-2.58c1.21-1.91,3.05-2.78,4.66-2.12,8.67,3.53,17.36,7,26,10.61,13,5.37,25.82,11.17,37,19.93a12.07,12.07,0,0,0,2.41,1.41,2,2,0,0,0,1.38.08c1.16-.39,1.38-1.16.79-2.18-2.37-4-4.35-8.37-7.19-12-2.24-2.9-5.62-4.9-8.31-7.49a43.68,43.68,0,0,0-11.53-7.88c-6.32-3.07-12.61-6.1-19.5-7.68-1.07-.25-1.47-2.66-.69-3.67a6.89,6.89,0,0,1,7.49-2.37c3.07,1.16,6,2.61,9.08,3.78a11.76,11.76,0,0,0,4.06.78,3.3,3.3,0,0,0,2.36-1.09,3,3,0,0,0,.43-2.54c-4.71-9.17-9.46-18.31-14.35-27.38a35.66,35.66,0,0,0-9.29-10.47c-7.28-5.88-14.05-12.41-22.26-17.08a21.18,21.18,0,0,1-2.32-1.59c-.36-.28-.62-.7-1-1a4,4,0,0,1-.35-3.92,3.38,3.38,0,0,1,3.71-1.15c3.67,2.07,7.27,4.26,11,6.23.6.32,1.67-.15,2.47-.41.2-.07.35-.81.25-1.16a19.48,19.48,0,0,0-9-12.11c-6.55-3.86-11.9-9-16.95-14.62a88.36,88.36,0,0,0-13.52-12.26c-12.08-8.84-24.27-17.56-37.87-24a2,2,0,0,1-1-.91,8.4,8.4,0,0,1-.48-2.57c0-.3.62-.73,1-.88,2.87-1.07,5.6-.29,8.06,1.09,13.09,7.3,26.62,13.93,37.37,24.77,1.64,1.64,3.35,3.3,5.77,3.8a2.16,2.16,0,0,0,1.31,0,1.89,1.89,0,0,0,1.07-2.35,25.07,25.07,0,0,0-10.42-14.53c-5-3.38-9.83-7.2-15.49-9.63a22.06,22.06,0,0,1-4.75-2.86,3.87,3.87,0,0,1-1-2.43c-.14-1,1.68-2.92,2.68-2.95a6.85,6.85,0,0,1,2.72.09c4.3,1.81,8.54,3.77,12.83,5.63a1.36,1.36,0,0,0,1.12-.4,1.58,1.58,0,0,0,.52-1.17c-.91-4.69-2.19-9.1-7.23-11.24a7.24,7.24,0,0,1-2.95-2.84c-2.82-4.48-6.78-7.71-11.06-10.65a36.94,36.94,0,0,1-4.39-3.49,7.85,7.85,0,0,1-1.3-2.43,3.56,3.56,0,0,1,1-3.83,3,3,0,0,1,3.81-.09c2.22,1.72,4.35,3.58,6.64,5.19a41.47,41.47,0,0,0,4.91,2.67,1.55,1.55,0,0,0,2.35-.65,2.52,2.52,0,0,0,.4-1.28c-1-7.06-3.13-13.41-8.77-18.49-4.51-4.07-8.42-8.78-13.69-12a25.71,25.71,0,0,1-9-8.68c-.29-.5.32-1.63.67-2.39a1.94,1.94,0,0,1,1.12-.75c1.47-.47,2.75.2,3.92.94,5.54,3.47,11.05,7,16.59,10.5.84.54,3.13-.8,3.25-1.89.15-1.39.18-2.8.34-4.19a38.26,38.26,0,0,1,.62-4.14c.27-1.19,1.05-1.56,2.05-1.11.4.18,1,.36,1.12.69,1.36,2.94,2.61,5.93,4,8.87.65,1.39,2.73,1.91,3.47.93,3.08-4.11,6.37-8.09,9.15-12.39a37.49,37.49,0,0,1,8.37-9.37,3.26,3.26,0,0,1,3.86.2,3.78,3.78,0,0,1,.86,3.89,41.45,41.45,0,0,1-2.12,3.6,195.53,195.53,0,0,0-14.78,23.84c-3.57,6.85-5.45,13.66-3.26,21.56,3,10.82,6.13,21.58,10.16,32.06.13.36.74.54,1.13.81.4-.78,1.11-1.54,1.13-2.33.16-4.68.18-9.37.21-14.06.05-5.63,0-11.25.13-16.88a18.06,18.06,0,0,1,.88-5.52,16.92,16.92,0,0,1,2.79-4.78,2.61,2.61,0,0,1,2.44-.57,2.73,2.73,0,0,1,1.36,2.12,26.47,26.47,0,0,1-.77,6.9c-3.1,10.18-2.1,20.45-.6,30.66,1.22,8.32,2.95,16.59,4.76,24.81,1.11,5,2.72,9.92,4.3,14.82a13.63,13.63,0,0,0,2.36,3.46c1.27,1.68,3.72,1.63,4.46-.08a56.19,56.19,0,0,1,2.86-6.37,10.36,10.36,0,0,1,3.11-2.7,2,2,0,0,1,2.57.32c1.54,1.33,2.5,3.22,1.8,5-2.5,6.29-2.55,12.79-2.44,19.39.07,4,1.68,7.24,3.88,10.35a3.48,3.48,0,0,0,1,.89,5,5,0,0,0,1.25.43c1.14.3,2-.08,2.18-1.18.72-5.08.71-10.36,2.14-15.22,2.3-7.8,1.27-15.85,2.74-23.68.67-3.59.08-7.44-.17-11.15-.62-9.34-.46-18.78-3.39-27.83.05-6.66-2.18-12.89-3.55-19.28-.69-3.21-2-6.31-2.39-9.54-1.74-13.17-8-24.9-11.69-37.46a8.51,8.51,0,0,0-1.29-2.48c-4.66-6.53-7.48-13.93-10.67-21.25-8.59-19.75-17.66-39.29-23.92-60-6.67-14.11-8.39-29.71-13.35-44.33a17.55,17.55,0,0,1-.75-4.15c-1.11-12.16-4.33-23.91-7-35.77-.41-1.83-1.42-3.64-1.35-5.43.3-7.18-2.32-13.84-3.59-20.71-1.16-6.33-2.24-12.95-6-18.53a1.68,1.68,0,0,0-2.47-.56,6.54,6.54,0,0,0-1.16.65,2.94,2.94,0,0,0-.88,1.08,98.91,98.91,0,0,0-6.34,25.81c-.44,4.19-1.12,8.34-1.64,12.52-.4,3.25-1,6.5-1,9.77-.3,10.31-.61,20.63-.53,30.94.08,11.25.56,22.5,1,33.74.07,1.86.6,3.69.85,5.55,1.23,9.34,1.79,18.83.31,28s-1.69,18.66-2.14,28a139.14,139.14,0,0,1-4.21,27.7c-3,11.83-4.09,24-6.06,36a9.7,9.7,0,0,0,.21,4.19c2.1,6.86,1.4,13.94,2,20.93.59,7.39-.5,13.94-6.65,19-1.9,1.55-2.06,4.26-1.57,6.57,1.18,5.5,3.07,10.89,2.79,16.58a28.86,28.86,0,0,0,2.74,13.61c1.15,2.56,1.88,5.31,3.07,7.85a22.28,22.28,0,0,1,1,17.75c-2,5.56-1.26,10.93.34,16.5,4,13.68,10.42,26.13,18.42,37.73,5.31,7.69,9.82,15.92,16,23.08,3,3.49,4.87,8,7.06,12.12a27.67,27.67,0,0,1,1.75,5.3,4.37,4.37,0,0,1-3.13,5.37c-1.8.44-3.62.77-5.43,1.15-2,4.14-7.13,4.09-10.28,7.5,2.37,10,7,19.17,12.25,27.94a159.16,159.16,0,0,0,22.12,29c8.13,8.43,16.2,16.95,25.88,23.7a33.74,33.74,0,0,1,5.23,4.7c9.69,10.33,21.33,18.27,32.69,26.53,5.3,3.86,10.86,7.36,16.05,11.35a37.13,37.13,0,0,1,7.92,7.91c4,5.78,8.78,11,11.79,17.47a24.76,24.76,0,0,0,3.92,5.78,63.8,63.8,0,0,1,7.82,11.65,106.9,106.9,0,0,0,6.2,9.37,4.61,4.61,0,0,0,2.23,1.47,1.63,1.63,0,0,0,2.26-1c1.69-5.14,0-10.12-.61-15.21-.93-7.31-3.51-13.53-9.32-18.26a8,8,0,0,1-2.57-3.26,7.69,7.69,0,0,1,.21-4c.3-1.27,2-1.82,3.57-1.29,1.32.44,2.59,1.05,3.89,1.58a18.54,18.54,0,0,0,1.5,1.91,1.51,1.51,0,0,0,1.13.29c.33,0,.63-.35.94-.54-.48-.42-.89-1.07-1.44-1.22A9.57,9.57,0,0,0,522.09,1481.07ZM852,340.39a8.51,8.51,0,0,0-1.79,1.75c-.58,1-.17,1.73.8,1.65.2,0,.45-.71.5-1.12.11-.85.11-1.71.15-2.57a3.54,3.54,0,0,0,3-2.58c2.24-7.25,6.39-13.49,10.4-19.8,6.27-9.88,12.35-19.92,20.1-28.77,1.93-2.21,2.41-4.92,3.41-7.52,3.89-10.12,5.84-20.71,8.29-31.17,1.39-5.93,2.42-11.94,3.8-17.87.52-2.25,1.27-4.6,3.29-6a2.59,2.59,0,0,1,2.44.29c1.5,1.4,1.54,3.49,1.18,5.27C905.45,242,904,252.18,901,262.08a29.43,29.43,0,0,0-.8,5.49,1.47,1.47,0,0,0,.67,1.16c.77.37,2,1,2.42.69,3.1-2.07,6.09-4.34,9.07-6.59,7.15-5.43,14.69-10.08,23.5-12.33a7.92,7.92,0,0,0,5.32-4.21c1.52-2.92,3.12-5.79,4.56-8.73a47.1,47.1,0,0,0,5-18.89c.57-14.36-2.23-27.9-9.34-40.55a122.56,122.56,0,0,0-13-18.29,25.42,25.42,0,0,0-14-8.84c-4.09-.94-8-2.56-12.28-2.94-3.7-.33-7.31-1.6-11-2.18a35.46,35.46,0,0,1-11.84-4.3c-6.13-3.44-12.3-6.81-18.27-10.52a68.18,68.18,0,0,0-38.76-10.55c-4.69.13-9.38.1-14.07.15a67.71,67.71,0,0,0-13.93,1.6c-6.38,1.4-12.93,2-19.41,2.92-4.65-1.89-9.23-.25-13.86.14a49.57,49.57,0,0,1-14-.72c-7.82-1.56-15.65-3-23.15-5.83-4.94-1.89-10.12-1.91-15.27-1.3a11.73,11.73,0,0,0-5.19,1.93A29.58,29.58,0,0,0,697,125c-8.07,10-12.63,21.84-16.72,33.86-1.32,12.59-6,24.59-6.4,37.34a16.69,16.69,0,0,1-.53,4.18c-2.59,8.78-2,17.61-.63,26.49a15,15,0,0,1,.24,5.52c-2.25,9.58-3.77,19.32-6.1,28.85-2.45,10-5,20-8.67,29.65a90.93,90.93,0,0,0-3.67,13.55c-3,14.19-5.91,28.42-8.89,42.63a14.94,14.94,0,0,1-1.36,3.92,5.6,5.6,0,0,1-2,1.84c-.7.44-3.08-1.16-3.22-2.13a15,15,0,0,1-.32-4.14c.58-3.7,1.43-7.35,2.16-11,2.91-14.69,5.53-29.43,9.91-43.79,4.5-14.78,8.69-29.65,11.51-44.87,1.19-6.44,2.11-12.92,3.16-19.39-2.51-9.79-.64-19.53.37-29.28.24-2.32.1-4.69.26-7,.26-3.74.1-7.62,1.06-11.19,2.68-9.95,3.82-20.26,7-30.08a10.28,10.28,0,0,0-.41-8.18c-1.7-3.35-3.12-6.84-5-10.09-2.8-4.87-5.81-9.62-8.88-14.33a35.42,35.42,0,0,0-10.83-10.9c-10.73-6.72-21.3-13.66-32.64-19.39-11.13-5.63-22.94-8.11-35.2-8.67-8-.37-16-.25-23.92,0a56.6,56.6,0,0,1-24.6-4.83c-1.29-.57-2.61-1.07-3.9-1.63A97.83,97.83,0,0,0,510,66,32.79,32.79,0,0,0,499,65.76a34.59,34.59,0,0,0-18,7.29c-3.66,2.92-7.47,5.67-11.13,8.59-10.27,8.19-20.48,16.54-32.32,22.35-10.49,5.15-17.72,13.66-24.92,22.3a14.48,14.48,0,0,0-3.53,9,165.54,165.54,0,0,0,1.14,25.28c2.44,5.22,2.51,11,3.3,16.49,1,7,3,13.68,5,20.41.65,2.24,1.74,4.46,1.9,6.74.45,6.64,2.83,12.78,4.38,19.14,3.55,14.55,7.31,29.06,7.57,44.19a69.7,69.7,0,0,0,1.13,8.33,53.4,53.4,0,0,1,.93,7c.09,7.54,1.65,14.88,2.6,22.3a119,119,0,0,0,5.27,21.79,2.41,2.41,0,0,1,.15,1.36,5.85,5.85,0,0,1-1.15,2.39,3.61,3.61,0,0,1-3.9.34,10.36,10.36,0,0,1-3.67-5.84c-1.77-6.78-4.19-13.43-4-20.62a29.87,29.87,0,0,0-.67-7c-2.66-12.41-2.91-25.11-4.64-37.64-.78-5.57-1.23-11.16-2.78-16.61-2.05-7.2-3.9-14.46-5.82-21.69-1-3.62-2.29-7.2-2.75-10.89-.75-6.1-2.57-11.92-4.19-17.77a158.77,158.77,0,0,1-4.6-22c-1-7.4-2.33-14.75-3.58-22.11a1.49,1.49,0,0,0-2.2-1.11,29.35,29.35,0,0,0-4.94,2.5c-8.24,5.53-16.9,10.08-26.65,12.34-2.28.53-4.45,1.47-6.68,2.21a18.26,18.26,0,0,0-10.77,8.5c-4.13,7.46-9.82,13.62-16,19.34-1.73,1.59-3.3,3.34-5.06,4.89-6.91,6.06-10.68,14.24-13.86,22.43a86.55,86.55,0,0,0-6,27.36c-.84,18.72-1.24,37.36,2.27,56a195,195,0,0,0,24.55,65.42A103.77,103.77,0,0,1,341,378.5c4.57,9.89,11.11,18.45,17.66,27a4.24,4.24,0,0,0,2.26,1.53,3.05,3.05,0,0,0,2.47-.63,3.16,3.16,0,0,0,.56-2.49,9.65,9.65,0,0,0-1.41-2.41c-2.3-4.07-4.66-8.12-6.84-12.26a35.19,35.19,0,0,1-1.91-5.27c-.63-1.93.15-4.89,1.29-4.93a4.13,4.13,0,0,1,3.59,1.88c1.59,2.3,3,4.76,4.43,7.15,2,3.18,3.58,6.6,6.58,9a3.49,3.49,0,0,0,3.86.23,39.77,39.77,0,0,0,3.17-2.77c2.16-2.17,2.47-4.05.93-6.21-8.72-12.22-16.31-25.15-24-38-4.59-7.72-7.35-16.19-10.94-24.32a48.9,48.9,0,0,1-2.28-8.11,5.31,5.31,0,0,1,0-2.77,3.29,3.29,0,0,1,1.62-1.78,1.61,1.61,0,0,1,2.19,1.23c2.25,7.16,4.69,14.23,8.94,20.53a14.3,14.3,0,0,1,1.8,3.81c2.18,7.32,6.48,13.49,10.6,19.75,2.32,3.53,4.56,7.11,7,10.58q5.21,7.5,10.65,14.83a3.34,3.34,0,0,0,2.46,1.11c3.12-.08,5.18-2,6.52-4.59a4.85,4.85,0,0,0-.55-5.3,145.15,145.15,0,0,1-11.46-17.68c-3.18-5.73-6.47-11.4-9.64-17.14-5.88-10.64-12.38-21-16.13-32.68-.84-2.64-2.61-5-3.84-7.5-7.39-15.25-13-31.08-15.2-48-.25-1.86-.26.38.95-1a2.58,2.58,0,0,1,2.27.58,42.09,42.09,0,0,1,3.23,7.74c4.25,15.94,11.08,30.87,18.08,45.68,9,19.08,19.46,37.44,29.49,56A46.67,46.67,0,0,0,399,373.22a2.8,2.8,0,0,0,3.74-.35c.46-.73,1-1.87.78-2.5-4.54-11.29-9.21-22.54-13.84-33.79a36.29,36.29,0,0,1-1.91-5.25,4.05,4.05,0,0,1,.73-2.55c.41-.74,2.74.18,3.37,1.32s1.38,2.45,2,3.71c3.47,7.18,6.83,14.41,10.4,21.54,1.88,3.75,3.7,7.59,6.79,10.61a5.89,5.89,0,0,0,6.44,1.07c11.31-5.62,22.5-11.4,35.26-13.39,6.81-1.06,7.75-3.47,6.07-11-.5-2.28-.58-4.71-1.37-6.88-2.32-6.27-2-13-3.46-19.33-1.61-7-1.17-14-1.41-21-.09-2.81-.35-5.63-.29-8.43.32-13.26-2.12-26.12-5.5-38.85-.84-3.17-2-6.28-2.53-9.5-1.65-10.24-5.49-19.83-8.73-29.58-3-8.88-4.83-18.06-8-26.88-.3-.86,1.18-2.72,2.4-3.12a1.61,1.61,0,0,1,2.18,1.05c1.64,4.38,3.65,8.69,4.66,13.22a191.3,191.3,0,0,0,10.67,31.91,56.64,56.64,0,0,1,3.19,9.29c2.76,12.31,7.19,24.31,7.08,37.17a14,14,0,0,0,.59,4.17c1.39,4.56,1.5,9.24,1.57,13.94.09,5.62.46,11.25.29,16.86-.4,13.34,2.79,26,6.69,38.57a14.7,14.7,0,0,0,2.93,4.7,3.09,3.09,0,0,0,2.48.73,2.89,2.89,0,0,0,2.07-1.41,13.34,13.34,0,0,0,.51-4.1c0-2.34-.2-4.68-.07-7a4.1,4.1,0,0,1,1.38-2.18c.62-.66,3,.58,3.38,1.81,1.05,3.1,2.15,6.2,3.05,9.34,1.09,3.8,3.06,4.91,7.36,5,1.65,0,3.88-1.86,4-3.26a39.26,39.26,0,0,0-.82-15.35c-1.32-4.6-1.28-9.27-1.66-13.94a10.91,10.91,0,0,1,0-1.4c.11-1.8,0-3.72,2.13-4.58,1.4-.56,3.13,1.32,3.3,3.66.25,3.27-.07,6.69.8,9.77a60.55,60.55,0,0,1,2.06,13.86,22.38,22.38,0,0,0,.74,5.56c1.88,6,4.67,11.37,11.7,12.73,9.66,1.87,18.47,6.82,28.38,7.76,8.06,2.81,16.64,2.46,24.9,4.07,3.61.71,7.5.26,11.23,0a30.67,30.67,0,0,0,6.8-1.65,4.67,4.67,0,0,0,3.6-3.85,54.47,54.47,0,0,1,2.33-11,58.09,58.09,0,0,0,3-12.25c1.78-15.35,5.64-30.41,6.43-45.9a15.72,15.72,0,0,1,.5-4.19c2-5.87,2-12,2.5-18.07a10.15,10.15,0,0,1,1.27-3.93c.37-.67,1.44-1,2.24-1.34a2.19,2.19,0,0,1,.65,1,50.35,50.35,0,0,1-.54,18.16,133.24,133.24,0,0,0-1.9,16.73c-.27,3.73-.95,7.42-1.49,11.12-.33,2.31-1,4.61-1.09,6.93A192.74,192.74,0,0,1,595.83,356c-.84,3.62-1.24,7.35-1.83,10.95,4.15,2.21,7.11,1.84,8.33-1.17,3.88-9.54,8.52-18.79,10.57-29,.74-3.66,1.92-7.24,3-10.84.32-1.11,1.18-1.64,2.1-1.21a4,4,0,0,1,1.88,1.69,4.42,4.42,0,0,1,.18,2.74c-1.91,7.25-3.53,14.6-5.95,21.67-7.33,21.43-6.39,18.73,12.63,27.37.85.39,1.71.75,2.55,1.17,1.71.87,4.75-.09,5.87-2.44a20.41,20.41,0,0,1,2.31-3.48,2.12,2.12,0,0,1,1.23-.5,1.52,1.52,0,0,1,1.93,1.38c.27,1.84.23,3.72.34,5.58a26.17,26.17,0,0,0,.37,4.17,5.68,5.68,0,0,0,3.77,3.83c1.31.54,3.77-.88,4.48-2.59,2.14-5.19,4.41-10.34,6.34-15.61,4.51-12.31,8.5-24.84,13.39-37,4.55-11.32,8.2-22.93,12.28-34.41,5.53-15.55,7.45-31.83,10-48,.73-4.61.75-9.31,2.1-13.88.77-2.64.71-5.55.92-8.35s-.13-5.71.49-8.41c1.56-6.92,1.67-13.95,2.17-21a7.06,7.06,0,0,1,.21-1.39,4,4,0,0,1,.58-1.26,2,2,0,0,1,.95-.71c1.14-.31,2,.13,2.1,1.24.26,4.65,1.24,9.48.38,13.93-1.25,6.53-1,13.07-1.74,19.58s-2.2,13-2.17,19.49c0,13.33-3.19,26-6.44,38.69-3.48,13.63-7.13,27.28-12.69,40.16q-6.71,15.51-12.27,31.39c-2.76,8-4.93,16.13-8.62,23.77-1,2.07-1.33,4.48-1.92,6.74-.43,1.64.52,3.55,2.29,4.73,1.54,1,4.15.95,5.17-.34,1.73-2.18,3.23-4.55,5-6.68.47-.57,1.6-.65,2.46-.76.21,0,.7.71.74,1.12.14,1.84.17,3.69.22,5.53.11,3.61,1.54,5.35,4.76,5.74,5.65.68,8.05-.45,10.34-5.1,1.66-3.35,2.92-6.93,4.85-10.11a128.48,128.48,0,0,0,12.56-26.65,2.33,2.33,0,0,1,.91-1.06c.36-.25,1-.57,1.24-.42.69.39,1.78,1.05,1.75,1.54-.14,2.3-.17,4.77-1,6.84-3.44,8.2-6.39,16.62-10.67,24.46a61.39,61.39,0,0,0-3.14,7.78,1.72,1.72,0,0,0,1,2.31,5,5,0,0,0,2.65.4,4,4,0,0,0,2.38-1.28c2.24-3,4.71-5.91,6.38-9.21,3.16-6.27,6-12.72,8.65-19.24,4-10,7.58-20.16,11.63-30.14,4.58-11.29,9-22.62,11.27-34.66a94,94,0,0,1,2.64-9.48c.11-.39.6-.67.91-1,.44.54,1.27,1.07,1.26,1.6a72.1,72.1,0,0,1-2.35,19.45c-2.4,8.58-4.92,17.11-7.66,25.58-3.88,12-9.09,23.56-13.84,35.27-2.82,6.94-5.59,13.9-8.37,20.86-.39,1,.9,3.2,1.92,3.31,3.47.4,7-.24,8.67-3.3,3.84-7,8.6-13.42,11.48-20.9a1.59,1.59,0,0,1,2.33-1,3,3,0,0,1,1.4,2,12.8,12.8,0,0,1-.57,4.11c-1.17,4.05-2.47,8.05-3.66,12.08-.1.34.2.88.47,1.22a1.42,1.42,0,0,0,2.27-.09c2-2,4.32-3.82,5.66-6.2a153.91,153.91,0,0,0,8.74-17.53c3.7-9.11,7.06-18.37,10.09-27.71a122.77,122.77,0,0,1,8.89-20.54c6.94-12.92,14.66-25.09,25.64-35,3.6-3.26,6.06-7,5.26-12.32-.5-3.31,1-6.42,2.43-9.42a34,34,0,0,0,3.25-15,17.72,17.72,0,0,1,.76-4.1c.29-1.18,1.12-1.63,2.14-1.09.75.4,1.82,1,1.95,1.63a29.19,29.19,0,0,1,.77,6.94c-.16,4.21-.72,8.41-1,12.62a1.54,1.54,0,0,0,1.58,1.74,2.24,2.24,0,0,0,1.32-.22,39.4,39.4,0,0,0,8.89-8.92c2.5-3.39,5.11-6.73,7.93-9.85s4.81-6.66,4.72-11.32c-.05-2.66,1.28-5.41,2.24-8a77.87,77.87,0,0,0,5.23-26c0-2.81.18-5.62.37-8.43a17.22,17.22,0,0,1,.61-2.7c.29-1.22,1.05-1.67,2.14-1.09a4.17,4.17,0,0,1,1.95,1.65c1.23,3.13.92,6.45.88,9.73-.07,6.56-.19,13.12-.24,19.69,0,1.61,1.57,2.83,2.7,2.18a37.34,37.34,0,0,1,3.61-2.11c6.19-2.7,9.12-7.78,10.42-14.07a24.05,24.05,0,0,1,.83-4.12,2.71,2.71,0,0,1,2-1.4A2.77,2.77,0,0,1,868,205c.91,2.11,1.46,4.37,2.23,6.54.11.29.7.47,1.09.6,1.08.36,2.09,0,2.32-1.06,1.26-5.93,3.61-11.61,4.08-17.72a4.48,4.48,0,0,1,1-2.55,4.57,4.57,0,0,1,2.35-1c.25,0,.75.48,1,.85,1.75,3.14,1,6.4.18,9.56s-2,6.22-2,9.59c0,4.23,3.55,6.45,5.31,9.67a11.27,11.27,0,0,1,1.57,8c-1.8,9.18-3.65,18.37-4.57,27.7a28.51,28.51,0,0,1-.85,5.55c-4.08,13-8.53,25.8-14.58,38-2.5,5-5.94,9.6-8.36,14.66s-2.58,10.92-5.27,16A16.61,16.61,0,0,0,852,340.39ZM693.77,577.5c-.71,2.72-1.37,5.45-2.16,8.15q-2.4,8.07-4.92,16.1a1.87,1.87,0,0,0,.83,2.45,2.56,2.56,0,0,0,3.27-1.53c1.07-6.74,5.66-11.76,8.6-17.57,1.71-3.38,3.28-6.62,3.89-10.41.37-2.24,1.64-4.34,2.56-6.49.43-1,1.31-1.59,2.2-1.2.68.31,1.67,1.24,1.59,1.74-1.46,9.28-3.57,18.37-8,26.78a33.88,33.88,0,0,0-2,5.23c-.61,1.84,1.3,5,3.26,5.58a23.54,23.54,0,0,0,2.71.72c7.9,1.19,14.92-1.18,21.13-5.84,6-4.49,11.82-9.21,17.5-14.08A77.49,77.49,0,0,0,752,579c2.75-3.19,5.43-6.46,8-9.81a146.91,146.91,0,0,0,9-12.55c8-13.26,14.8-27.12,18.9-42.13a65,65,0,0,1,9.83-20.07c2.93-4.21,6.58-7.93,9.88-11.88,2.4-2.88,5.16-5.56,7.07-8.73,5.84-9.66,10.78-19.76,13.83-30.69a17.85,17.85,0,0,0,.88-4.11c.22-5.19,1.62-10.13,2.64-15.18s2.19-10.05,3-15.11a94,94,0,0,0,1.63-16.7c-.09-5.67,1.77-11,1.64-16.7-.08-3.7,1-7.41,1.4-11.13a13.83,13.83,0,0,0,0-4.16c-.12-.66-1.1-1.24-1.79-1.69a1.38,1.38,0,0,0-1.3.09c-3.9,4-7.55,8.34-11.67,12.14-5.85,5.38-11.58,11.12-18.2,15.4a151.38,151.38,0,0,1-34,16.63,38.82,38.82,0,0,1-12.38,2.18c-5.63,0-11.26.5-16.88.31-11.8-.39-23.4.58-34.74,4-.45.13-.91.23-1.37.35a21.43,21.43,0,0,1-11.15.18c-9.09-2.68-18.69-1.73-27.74-4.38-7.24-.12-13.74-2.79-20-6-5.45-2.74-11.11-5.23-16.07-8.7C624.53,385,615.79,382,606.88,379a42.86,42.86,0,0,0-15.17-2.36c-8.44.25-16.88.32-25.32.42-15.13.17-29.8-2.59-44.17-7.14-4-1.27-8-2.69-12-4-12.54-4.09-25.25-7.14-38.61-6.08a33,33,0,0,1-4.22,0c-10.51-.53-20.58,1.78-30.11,5.74-12.07,5-24.62,9.31-34.59,18.38a10.37,10.37,0,0,1-2.4,1.45c-6.89,3.35-12.14,8.73-17.43,14.06q-15.87,16-31.75,31.93a74.56,74.56,0,0,1-6.14,5.79,52,52,0,0,0-14.65,18.62,79.45,79.45,0,0,1-8.56,14.49c-2.83,3.64-6.76,6.46-10.4,9.41-4.95,4-7.86,9.29-9.74,15.16-3.05,9.53-2.14,19.06,4,26.77a124,124,0,0,0,26.35,25.16c12.31,8.52,24.41,17.36,34.9,28.21,3.94,4.07,7.87,8.08,10.28,13.26,2.2,4.76,5.55,8.59,9,12.5a128.8,128.8,0,0,0,21,18.59,103,103,0,0,0,13.24,8c12.56,6.57,26.49,9.25,39.82,13.63a5.23,5.23,0,0,0,2.77.14c4.52-1.22,9-2.6,12.49-5.94.32-.31,0-1.84-.47-2.29a10.44,10.44,0,0,0-3.53-2.22c-12.15-4.31-22.42-11.86-32.12-19.9-13.68-11.34-28-22-39.93-35.37a46.69,46.69,0,0,0-4.19-3.75c-12.41-10.81-23.56-22.86-34.75-34.87a23.8,23.8,0,0,1-2.91-4.69,1.59,1.59,0,0,1,.14-1.28,1.51,1.51,0,0,1,2.37-.46c1.37,1.24,2.37,2.89,3.74,4.15q12.93,11.91,26,23.71a51.4,51.4,0,0,0,5.44,4.44A100.44,100.44,0,0,1,411,576.48c3.23,3.37,6.42,6.79,10.48,9.32,2.34,1.46,4.21,3.69,6.27,5.6,7.92,7.33,15.91,14.56,25.2,20.21,3.59,2.17,6.64,5.25,10.29,7.3a111.9,111.9,0,0,0,28.83,11c1.3.31,3.63-.58,3.44-1.35a4.46,4.46,0,0,0-1.11-2.47c-2.63-1.94-5.35-3.78-8.16-5.46-12.11-7.2-23.89-14.8-33.68-25.14a87.94,87.94,0,0,0-8.57-7.27c-6.19-5-12.72-9.66-18.56-15-7.92-7.3-16.25-14.19-23.33-22.41a115.23,115.23,0,0,0-9.87-10C376.13,526,363.09,509,351.58,490.62a4.79,4.79,0,0,1-.68-2.66,6,6,0,0,1,1.07-2.42,1.78,1.78,0,0,1,1.26.34,66.18,66.18,0,0,1,9.15,10.53c7.47,10.83,17,20,25.15,30.27a29.93,29.93,0,0,0,3.13,2.79c4.73,4.54,9.72,8.85,14.09,13.72,6.89,7.69,15.22,13.86,22.06,21.57a11.86,11.86,0,0,0,3.25,2.66c5.1,2.64,8.89,6.84,13.12,10.54,3.52,3.08,7.19,6,10.76,9a68.32,68.32,0,0,1,5.17,4.74c8.8,9.29,19.17,16.45,30.33,22.56,5.75,3.15,11.44,6.4,17.19,9.56a6.21,6.21,0,0,0,2.67.79,6.3,6.3,0,0,0,2.64-.62,1.53,1.53,0,0,0,.57-2.34c-1.4-2.43-3-4.76-4.36-7.19a6.87,6.87,0,0,1-.74-2.57,1.42,1.42,0,0,1,.6-1.17c.74-.4,1.85-1,2.35-.77,4.07,2.29,6.68,6.57,11.14,8.37a1.52,1.52,0,0,0,1.23-.24c.27-.19.56-.88.44-1-4.2-5-8.62-9.89-12.66-15-10.4-13.27-21.07-26.3-33.15-38.11a3.43,3.43,0,0,1-1-2.42c.09-.79.91-1.55,1.53-2.21.29-.3,1-.62,1.26-.47a36.35,36.35,0,0,1,5.46,4.29c5.41,5.84,9.82,12.53,15.55,18.14A175.56,175.56,0,0,1,515,598.08c4.33,5.51,9.48,10.39,14.48,15.33,1.62,1.59,3.89,2.57,6,3.66a5.87,5.87,0,0,0,6.57-.73c.67-.49,1.49-1.55,1.37-2.18A51.82,51.82,0,0,0,538,599.73a15.73,15.73,0,0,1-1.39-5.32c-.07-.59.84-1.39,1.44-1.93.17-.15,1,.13,1.25.44,2.11,3.08,4.13,6.22,6.2,9.32,1.82,2.71,3.54,5.52,5.58,8.06a4.67,4.67,0,0,0,5,1.79,64.53,64.53,0,0,0,6.61-2.29c1.46-.59,2.36-3.39,1.74-4.88q-3.21-7.8-6.44-15.57c-2.68-6.5-5.08-13.13-8.12-19.46-5.48-11.4-11.37-22.61-17-33.93-4.17-8.36-9.34-16.22-12.68-25-1-2.6-2.67-4.93-4-7.41a1.44,1.44,0,0,1,0-1.2,1.73,1.73,0,0,1,1.1-.66c1.65-.25,2.68.86,3.34,2.05,8,14.28,16.43,28.3,24,42.79,3.92,7.48,8,14.91,11.46,22.58,5.24,11.49,10.28,23.06,16.46,34.09,2.29,4.09,3.38,5,7.48,4.15a125.79,125.79,0,0,1,19.51-2.42c3.55-.21,6.27-1.94,7.25-5.6,1.21-4.52,2.3-9.07,3.46-13.6,1-4.06,2.13-8.13,3.25-12.17.06-.23.66-.44,1-.42a2.28,2.28,0,0,1,1.27.46,4.94,4.94,0,0,1,1.59,5.11c-1.6,6.88-2.9,13.75-2.19,20.87.21,2.15,3.56,3.67,5.48,2.38.75-.5,1.73-1.1,2-1.85,1.44-4.45,2.5-9,4-13.44,4.65-13.35,6.38-27.31,8.73-41.14a152,152,0,0,0,2.1-15.28c.54-8.42.21-16.92,1-25.3s-.35-16.82-.54-25.22c0-.47,0-.94,0-1.41-.3-7.48-.06-14.95-1.88-22.36-1-4-.5-8.4-.65-12.61a2.37,2.37,0,0,1,.17-1.38,5.46,5.46,0,0,1,1.8-1.72,1.46,1.46,0,0,1,2.2,1.13c1.88,10.58,3.88,21.15,3.77,32a61,61,0,0,0,.9,11.21,103.11,103.11,0,0,1,0,35,47.47,47.47,0,0,0-.77,8.4A117.26,117.26,0,0,1,640,558.53c-2.82,11.33-3.86,23.06-7.75,34.16-.91,2.61-1,5.51-1.41,8.28-.15,1,1.1,2.59,2.41,3.2a4.9,4.9,0,0,0,6.14-1.78c3.57-6.16,5.44-12.93,7.11-19.77,1.33-5.46,2.38-11,4-16.39a44.13,44.13,0,0,0,1.64-11.08c.15-4.69-.19-9.48.65-14A162.07,162.07,0,0,0,655,517.36,43.32,43.32,0,0,1,657.53,505c.23-.69,1.17-1.15,1.78-1.71.23.41.65.82.65,1.23.1,10.3.2,20.59-1.22,30.84a69.76,69.76,0,0,0-.83,9.78,131.64,131.64,0,0,1-3.5,32c-1.9,7.71-2.47,15.74-5.68,23.13-1.52,3.51-.74,5.78,4.49,6.3a56.06,56.06,0,0,0,20.83-1.43,5.5,5.5,0,0,0,3.12-2.51c2-3.73,4.19-7.47,5.23-11.5,3.28-12.67,7.61-25,9.67-38.07,1.68-10.59,4.7-21,7.39-31.39a191,191,0,0,0,6.07-35.94c.53-8.47,2.51-16.62,4.21-24.85a1.54,1.54,0,0,1,2.22-1.1,4.72,4.72,0,0,1,1.64,1.85,2.92,2.92,0,0,1,.18,1.38c.26,12.71-3.14,25.1-3.23,37.79a46,46,0,0,1-.82,7,42.11,42.11,0,0,1-1.05,4.08c-2.9,10.84-3.85,22.15-8.08,32.66a9.8,9.8,0,0,0-.65,2.73C699,557.58,696.21,567.5,693.77,577.5Zm-60.41,73.81c-.78-2.09-1.7-4.21-2.35-6.41-1.58-5.43-4-10.49-6.14-15.71-2.34-5.83-6.08-10.5-10.38-14.88a10.43,10.43,0,0,0-8.9-3.39c-5.56.68-11.1,1.63-16.59,2.75-1.2.24-2.38,1.49-3.19,2.56-2.54,3.36-4.83,6.91-7.35,10.28a18.65,18.65,0,0,0-3.07,6.24c-1.12,4.07-2.52,8-3.72,12.09a30.49,30.49,0,0,0-1.7,6.78,113.52,113.52,0,0,1-1.91,16.73c-.46,2.17.34,4.58.24,6.87,0,.57-1.29,1.41-2.07,1.51a3.16,3.16,0,0,1-2.27-1.07,5.08,5.08,0,0,1-1.14-2.5c-2.17-13.74-1.06-27.1,4.92-39.85,1.39-3,2.76-5.95,4.16-8.92.79-1.69,1.57-3.4,2.45-5,.57-1.08.46-2-.72-2.28a3.06,3.06,0,0,0-2.55.47c-3.87,4.69-7.93,9.28-11.26,14.34-3.88,5.91-6.63,12.4-6.79,19.71,0,2.34-.42,4.67-.67,7-.1.92-2,2.5-3,2.64-1.55.21-3.58-1.79-3.58-3.51a13.76,13.76,0,0,1-.06-2.79c1.5-7.83,2.95-15.66,6.72-22.84a42.14,42.14,0,0,0,2.89-7.82c.15-.49-.82-1.76-1.46-1.93a8,8,0,0,0-4.15-.18c-4.93,1.46-9.78,3.2-14.68,4.78a12.18,12.18,0,0,0-6.54,5.06,59.5,59.5,0,0,1-12.1,13.52,1.36,1.36,0,0,1-1.2,0,1.71,1.71,0,0,1-.8-1.1,5.8,5.8,0,0,1,.22-2.74c.79-1.68,1.9-3.21,2.83-4.83,1-1.78.8-3.44-.47-3.44s-3.07-.08-3.9.68c-3.08,2.85-5.82,6.07-8.77,9.08-5.71,5.83-10,12.4-11,20.73a1.67,1.67,0,0,1-.73,1.16,4.37,4.37,0,0,1-2.49.62c-2.21-.59-4-3.76-3.23-5.52,2-4.24,4.15-8.4,6.14-12.63a51.29,51.29,0,0,0,2.51-6.5c.1-.35-1.14-1.61-1.66-1.56-8.48.89-16.28,4.12-24,7.36a49.6,49.6,0,0,0-13.19,8,107.27,107.27,0,0,1-10.3,7.34,6.65,6.65,0,0,1-5.32,1.27c-2.2-.55-2.38-2.54-3.07-4.23s-1.94-2.12-3.28-1.56c-10.44,4.4-18.92,12.06-28.82,17.35-7.48,7.08-14.79,14.37-23.35,20.2-7.19,9.17-17.49,15.71-22.57,26.66-.42.9-2.62,1.1-3.85.5A3.09,3.09,0,0,1,355,718.7a17.38,17.38,0,0,1,1.38-2.43c4.81-5.76,9.36-11.76,14.56-17.13,8.79-9.09,18-17.78,27.05-26.63a5.39,5.39,0,0,1,1.08-.89c7.24-4.33,13.18-10.52,20.89-14.23a159.9,159.9,0,0,0,14.55-8.54,35.22,35.22,0,0,0,4.3-3.53c.9-.78.4-3-.76-3.51-1.71-.77-3.36-1.88-5.15-2.23-8.93-1.74-16.77-5.81-24.23-10.81-2.73-1.82-5.7-3.27-8.43-5.09a11.67,11.67,0,0,0-7.95-2.14,90,90,0,0,0-9.72,1.24c-5.94,1.28-11.81,2.92-17.72,4.32a172.23,172.23,0,0,0-38.29,13.61c-16.32,8.25-32.85,16.08-48.91,24.84a25.38,25.38,0,0,1-4,1.41c-.81.28-2.77-1.11-3.16-2.27a1.86,1.86,0,0,1,.85-2.46c4.94-2.69,9.84-5.44,14.86-8,8.37-4.23,16.7-8.49,24.84-13.17a182.23,182.23,0,0,1,30.79-13.65c12.84-4.49,25.69-8.82,39.14-11.08a12.83,12.83,0,0,0,1.32-.45c1.57-.45,2.21-3.3,1.17-4.74-1.46-2-3.25-3.4-5.77-3.49-3.75-.12-7.51-.32-11.25-.09-5.59.33-11.22.09-16.71,1.89-7.12,2.33-14.37,4.24-21.59,6.27a113.27,113.27,0,0,0-18.36,7c-6.34,3-12.78,5.87-19.19,8.73-.23.1-.83-.34-1.06-.66a2.09,2.09,0,0,1-.3-1.26,3.91,3.91,0,0,1,2.29-3.26c13.78-7,27.61-13.86,42.59-18.1,8.56-2.43,16.93-5.42,25.87-6.38,3.69-.4,7.28-1.72,10.91-2.65,1-.25,1.85-2.65,1.34-3.58a75.33,75.33,0,0,0-10.69-14.77A11.91,11.91,0,0,0,353,576.6c-2.77-.12-5.72,0-8.08-1.8a2.53,2.53,0,0,1-.74-2.26c.72-1.56,2.91-2.81,1.42-4.79a12.82,12.82,0,0,0-4.23-3.51,15.34,15.34,0,0,0-5.38-1.48A79.51,79.51,0,0,0,308,564.3c-5.9,1.49-11.86,2.73-17.76,4.25a293.76,293.76,0,0,0-47.6,17c-15.37,7-30.48,14.49-45.8,21.57a156.3,156.3,0,0,1-33.37,10.78,7.48,7.48,0,0,1-4-.68,3.11,3.11,0,0,1-1.64-2.08,3.15,3.15,0,0,1,1-2.28,5,5,0,0,1,2.44-1.25c12.56-2.32,24.27-7,35.73-12.46,14.39-6.87,28.87-13.53,43.32-20.26,1.28-.59,2.6-1.07,3.9-1.61,22.54-9.54,46.13-15.48,70-20.27a76.49,76.49,0,0,0,8.05-2.39,2.22,2.22,0,0,0,.93-3.4c-1.32-1.32-2.45-3-4-3.83-4.76-2.43-8.12-6.32-11.51-10.2-1.85-2.12-3.34-4.55-5.24-6.61a13.31,13.31,0,0,0-4.46-3.35c-5.63-2.29-11.28-4.77-17.6-4.18-11.15,1.05-22.53-1.4-33.53,2.26-1.73.57-3.72.35-5.59.54-5.12.53-10.28,1.72-15.36,1.43a80.55,80.55,0,0,0-15.31.85,74,74,0,0,1-8.44.23c-3.75.06-7.51-.08-11.25.15-16.42,1-32.83.15-49.24.08-2.34,0-4.69-.23-7-.45a6.33,6.33,0,0,1-2.69-.68,4.77,4.77,0,0,1-1.68-2.05c-.36-.79.23-1.72,1.35-1.88a40,40,0,0,1,5.59-.31q23.22-.08,46.45-.1c1.87,0,3.86.31,5.6-.2,8.27-2.45,16.74-1.68,25.16-1.95,10.75-.34,21.59.32,32.13-2.74a16.65,16.65,0,0,1,4.19-.38c5.58-.17,11-1.9,16.7-1.18a1.66,1.66,0,0,0,1.23-.57,10,10,0,0,0,1.51-2.26,1.34,1.34,0,0,0-.37-1.19,13.05,13.05,0,0,0-3.19-2.65A42.55,42.55,0,0,0,249,506c-10.32.06-20.65-.27-31,.16-11.68.48-23.46-.32-35,2.28a32.17,32.17,0,0,1-7,.39c-10.32,0-20.64,0-31-.15a31.24,31.24,0,0,1-7-.72c-10.47-2.5-21.27-3.27-31.64-6.24-1-.29-3,1.22-3.13,2.27a7.59,7.59,0,0,0-.28,2.75,40.81,40.81,0,0,1,.06,22.14,28.91,28.91,0,0,0-.42,5.61,36.37,36.37,0,0,1-4.28,14.75c-1.48,2.93-3.23,5.73-4.69,8.66-3.13,6.3-6.28,12.59-9.16,19a17.65,17.65,0,0,0-.55,12.4c1.09,3.73,3.08,6.74,7.19,7.95A67.21,67.21,0,0,0,102.06,600c5.56.67,11.08,1.75,16.6,2.75a8.86,8.86,0,0,1,6.49,4.91,30.17,30.17,0,0,1,2.67,6.46c1,4.34,3.59,7.53,6.56,10.62a36.33,36.33,0,0,0,12.77,8.53A103.7,103.7,0,0,0,168.83,639a152.58,152.58,0,0,1,29.8,8c7.92,3,15,7.67,21.76,12.75a36.77,36.77,0,0,1,10.56,13,147.93,147.93,0,0,1,6.74,15.45c2.94,7.9,5.6,15.91,8.18,23.94a20.51,20.51,0,0,0,4.86,8.42,68.66,68.66,0,0,1,4.82,5.14c3.36,4.23,8.06,6.33,12.83,8.34,3.3,1.39,6.83.63,8.83-2.21,5.4-7.73,12.62-13.86,18.36-21.28a34.93,34.93,0,0,1,5-4.95c12.15-10.37,25.44-19.16,38.65-28.08,1.16-.78,2.47-1.33,3.71-2,18.54-10.22,38.4-17.34,58.18-24.65a6.64,6.64,0,0,1,2.78-.07,1.77,1.77,0,0,1,1.17.72,1.25,1.25,0,0,1-.1,1.2c-1.24,1.36-2.35,3-3.91,3.86a105.14,105.14,0,0,1-11.56,5.07,196.9,196.9,0,0,0-20.74,8.67c-6.68,3.41-13.45,6.66-20.11,10.11-3.75,1.93-7.43,4-11,6.23-17.17,10.75-33,23.13-46.52,38.35a17.74,17.74,0,0,1-1.95,2c-4.64,3.75-6.45,9.11-8.13,14.5-.59,1.87.17,3.64,1.29,5.25,3.22,4.59,8.1,6.48,13.21,7.19a44.94,44.94,0,0,0,18.17-.69,36.22,36.22,0,0,1,8.27-1.49c4.31-.12,8.28-1.51,12.36-2.57s8.15-2.13,12.21-3.24c8.64-2.36,17-5.57,24.42-10.53,10.11-6.78,20.66-12.92,30-20.91A80.33,80.33,0,0,1,415,705.26a246.37,246.37,0,0,1,22.71-11.19c8.19-3.43,16.68-6.55,25.69-6.81,8.42-.24,16.87.31,25.31.51,8.59,2.68,17.68,1.61,26.43,3.59s17.76.25,26.65.72c1.4.08,2.81.13,4.22.14,12.19.07,24.39.33,36.58.13,13.58-.23,13.57-.45,27.66-4.12,5-1.3,10-2.87,15-3.45,13.47-1.54,26.87-4.22,40.58-2.91,3.7.35,7.5-.11,11.25-.27a50.85,50.85,0,0,0,12.44-2c9.87-2.92,19.92-5.26,29.79-8.15,6.3-1.84,12.41-4.19,17.48-8.72,2.42-2.16,5.46-3.62,8.2-5.42,4.32-2.82,8.79-5.44,12.87-8.56a31.34,31.34,0,0,0,6.66-7.13,113.12,113.12,0,0,0,7.79-13.33,47.8,47.8,0,0,0,3-9.34c.85-3.31-2.69-8.16-6-8.14-6.53,0-13.1-.86-19.55,1.18a29.71,29.71,0,0,1-7,.79c-5.15.33-10.4.05-15.43,1-5.49,1-11,2-16.51,2.68a1.39,1.39,0,0,0-1,.84,1.57,1.57,0,0,0,.48,1.28c2.57,2,5.22,3.93,7.77,6,3.3,2.63,6.58,5.29,9.73,8.09a14.36,14.36,0,0,1,2.32,3.43c.68,1.11.23,3.95-.55,3.87s-1.93-.09-2.44-.6c-7.75-7.69-16.43-13.88-26.81-17.56-3.1-1.1-6-2.64-9.43-1.38-1.91.7-3.61-.66-5.26-1.44a42.73,42.73,0,0,0-13.35-4.13c-5.12-.59-5.72-.64-13.26,2.58.21.41.31,1,.64,1.21,4.08,3.12,8.09,6.36,12.34,9.26a65.88,65.88,0,0,1,15.07,14.64,97.27,97.27,0,0,0,8,9.79,3,3,0,0,1-.06,3.82,2.55,2.55,0,0,1-3.68.4c-4.13-3.81-8.31-7.54-11.47-12.31a26.11,26.11,0,0,0-4.86-5c-2.81-2.46-5.88-4.65-8.63-7.18a32.42,32.42,0,0,0-12-7.14,77.57,77.57,0,0,1-12.84-5.7,40.26,40.26,0,0,0-6.49-2.63,8.55,8.55,0,0,0-2.77,0c-1.33,0-2.71,1.67-2.33,2.83q3.25,10,6.52,20a16.8,16.8,0,0,1,.75,8.31A4.07,4.07,0,0,1,633.36,651.31ZM898.25,361.83c1.71-.42,3.07-.75,4.43-1.11,3-.78,4.87-2.51,5.29-5.74.55-4.16,1.18-8.32,2-12.44.14-.68,1.21-1.35,2-1.71,1.11-.51,3.11.67,3.47,1.62,1.24,3.27,0,6.48-.1,9.71,0,1.07,1.9,2.48,3,2.23,4-.86,5.51-2.86,5.25-6.67-.13-1.85-.5-3.8-.06-5.53,1.75-6.8,3.69-13.54,5.73-20.26a17.38,17.38,0,0,1,2.62-4.89c.35-.49,1.63-.42,2.47-.39.29,0,.77.65.8,1,.18,1.83.67,3.79.24,5.49-1.15,4.54-2.89,8.92-4,13.46a25.2,25.2,0,0,0-.37,6.9c0,1.18,1,1.45,2.08,1.17a13.14,13.14,0,0,0,6.9-4.58,80,80,0,0,0,8.12-11.45c3.49-6.17,5.54-12.9,8.34-19.34a37.18,37.18,0,0,0,2.67-17.92c-.74-9.94-3.88-19.24-7.78-28.32a8.68,8.68,0,0,0-.75-1.18,7,7,0,0,0-5.8-3.42,19.27,19.27,0,0,0-5.58.3c-14.56,3.6-26.39,11.79-36.66,22.41-4.23,4.37-8.06,9.14-12.27,13.53A104.19,104.19,0,0,0,878.88,309c-3.13,4.67-5.88,9.59-9.14,14.16a63.2,63.2,0,0,0-6.58,12.39q-6.3,14.88-12.45,29.84a80.93,80.93,0,0,0-5.2,18.9,193.28,193.28,0,0,0-2.3,19.51,93.68,93.68,0,0,1-1.67,11.09c-1.3,7.84-3.75,15.47-4.18,23.48a22.06,22.06,0,0,1-1.17,5.48c-5.55,17.08-12.87,33.21-25.74,46.21-5.75,5.8-9.32,12.83-12,20.39a2.55,2.55,0,0,0,.05,1.39,3.47,3.47,0,0,0,.6,1.2,1.33,1.33,0,0,0,2.26,0c2.1-3.08,4-6.32,6-9.49.8-1.28,2.43-2.13,3.51-1.85,1.29.34,2,3.08,1.13,4.91a46.72,46.72,0,0,1-3,6.35c-7.08,11.06-14.2,22.12-22.58,32.23a129.31,129.31,0,0,0-9.14,12.4c-14,21.61-14,21.6-31.68,39.21-1,1-2.07,1.92-3,3a10.41,10.41,0,0,0-1.44,2.38,2,2,0,0,0-.09,1.37,1.47,1.47,0,0,0,.9.84c5.29,1.38,10,.94,14.22-3.24,4.64-4.63,9.79-8.75,13.85-14a25.32,25.32,0,0,1,4.17-3.66c.73-.61,3.29.68,3.32,1.7a7.58,7.58,0,0,1-.26,2.7c-1.74,4.57-5.91,7.17-8.78,10.83a2.63,2.63,0,0,0,.18,2.48,3,3,0,0,0,2.39,1,8.59,8.59,0,0,0,3.85-1.39c2.65-1.93,5.14-4.08,7.63-6.22,2.11-1.82,4-4,6.23-5.6,10.62-7.83,20.36-16.51,27.84-27.51a26.59,26.59,0,0,1,3.63-4.29c6.61-6.24,11-13.94,14.82-22a101.77,101.77,0,0,1,5.69-9.63,1.5,1.5,0,0,1,2.47-.29,7.39,7.39,0,0,1,1.45,2.28,1.77,1.77,0,0,1-.1,1.33c-3.61,7.08-7.14,14.2-10.92,21.19-1.33,2.44-3.32,4.53-5,6.82q-2.88,4-5.65,8.06a101.89,101.89,0,0,1-22.85,24.59c-5.29,4-9.85,8.66-15,12.76a18.76,18.76,0,0,0-2.63,3.26c-.58.75-.67,3.37,0,4a4.55,4.55,0,0,0,2.34,1.33c2.32.13,4.66-.17,7,0,.67,0,1.37.88,1.89,1.49.18.22,0,1-.3,1.3a33.23,33.23,0,0,1-3,2.91c-2.48,2.1-5.93,3-7.61,6.06a3.58,3.58,0,0,0-.33,2.61,3.38,3.38,0,0,0,1.89,1.7,4.54,4.54,0,0,0,2.75.12,123.4,123.4,0,0,0,13.3-4.43c11.61-5.08,23-10.7,33.31-18.13,3.43-2.46,7-4.77,10.48-7.12a16.59,16.59,0,0,1,3.61-2.14,2.67,2.67,0,0,1,2.41.7,2.43,2.43,0,0,1-.32,2.36c-7.87,6.66-16.35,12.51-24.63,18.63s-18.17,9.64-27.34,14.28c-3.25,1.64-7.27,1.66-10.82,2.8-6.73,2.14-13.32,4.52-17.09,11.33-1.1,2-3.16,3.44-4.76,5.16-.63.69-1.19,1.45-1.79,2.17-1.07,1.3-.36,4,1.3,4.82A44.67,44.67,0,0,0,778,661.93a11.45,11.45,0,0,1,3.69,1.79,2,2,0,0,1,.59,1.2,1.4,1.4,0,0,1-1.42,1.79c-2.79,0-5.86.51-8.33-.45-5.27-2-11.09-2-16.14-4.71-2.32-1.24-4.56-.26-6.58,1.06a35.78,35.78,0,0,0-3.33,2.55,3.6,3.6,0,0,0,0,5c.68.65,1.31,1.35,2,2a23,23,0,0,0,7.38,4c7.53,2.58,15,5.31,22.46,8.09a14.23,14.23,0,0,1,3.44,2.29c.31.25.62,1,.48,1.24-.49.6-1.14,1.4-1.8,1.47a11,11,0,0,1-4.16-.32c-5.37-1.64-10.67-3.52-16-5.15-7.23-2.19-14.27-4.69-19.79-10.18a2.59,2.59,0,0,0-1.22-.65,5.47,5.47,0,0,0-2.7-.28c-4.38,1.61-8.89,3-12.82,5.6a5.11,5.11,0,0,0-1.3,5.12,30.79,30.79,0,0,0,2.09,3.61c1,1.51,2.73,2.64,2.69,4.74a1.84,1.84,0,0,1-.51,1.18,1.21,1.21,0,0,1-1.08.26c-4.78-2.33-7.71-6.73-11.42-10.26a4.08,4.08,0,0,0-3.88-1.1c-1.81.48-3.62,1-5.39,1.58-4.53,1.51-5.73,3.68-4.69,8.59.38,1.81,1.19,3.53,1.45,5.34a2.72,2.72,0,0,1-1.25,2.22,3,3,0,0,1-2.59-.35,8.38,8.38,0,0,1-2.6-3.15,44.46,44.46,0,0,1-1.31-5.44,4.38,4.38,0,0,0-5.31-3.33c-2.3.48-4.56,1.09-6.86,1.53a6.47,6.47,0,0,0-5.07,4.28,12.62,12.62,0,0,1-2.5,3.25,1.56,1.56,0,0,1-2.5-.08A13.64,13.64,0,0,1,670,694c-.5-.79-.8-1.7-1.24-2.52-1.36-2.52-6.65-2.94-8.62-.31-2.24,3-4,6.3-6,9.48-.77,1.23-2.71,2-3.49,1.35-1.22-1-1.17-2.49-.9-3.88.18-.9.65-1.75.92-2.64s.48-1.78.67-2.68c.21-1.06-1.29-2.9-2.42-3-2.34-.1-4.73-.52-7-.17-7.84,1.2-15.68,2.54-23.46,4.12a105.05,105.05,0,0,0-10.74,3.23,13.23,13.23,0,0,0-6.65,5c-2.22,3-4.14,6.26-6.44,9.21a83.44,83.44,0,0,0-11.87,20.66,20.32,20.32,0,0,1-2,3.65,1.77,1.77,0,0,1-2.5.62,3.37,3.37,0,0,1-1.53-2,8.71,8.71,0,0,1,.37-4.1,101,101,0,0,1,8.94-17.51c1.8-2.73,3.36-5.62,4.95-8.49,1-1.71-.48-3.55-2.74-3.72-2.92-.22-5.64.12-7.57,2.62-2.57,3.32-5.06,6.7-7.6,10-.75,1-2.85.59-3.49-.87a6.93,6.93,0,0,1-.86-3.91c.41-1.76,1.6-3.34,2.37-5,.14-.3,0-1.07-.21-1.14-.8-.28-2.05-.82-2.46-.48-6.42,5.47-12.94,10.87-16.81,18.67a4.2,4.2,0,0,1-2.12,1.73,3.6,3.6,0,0,1-2.65.12,2.92,2.92,0,0,1-1.4-2.18,7.69,7.69,0,0,1,.89-3.95c2.44-4,5.13-7.85,7.7-11.76.78-1.19.19-3.18-1-3.5-2.26-.6-4.54-1.14-6.79-1.78-4.87-1.36-9.31-.19-13.43,2.41-4,2.5-7.74,5.29-11.74,7.72-8.5,5.17-15.54,12.07-22.54,19a31.38,31.38,0,0,0-4.87,6.83c-2.8,4.91-2.78,7.57,3.12,11.77a15.89,15.89,0,0,0,3.69,2c8.84,3.27,17.88,5.56,27.39,5.66,7.51.08,15,.32,22.52.39s15,.37,22.26-2.28c10.29-1.14,20-4.75,30.15-6.73a52.66,52.66,0,0,0,9.4-2.9c11.74-4.72,23.47-9.46,35.1-14.43,13-5.54,26.2-10.11,40.52-10.58a28.44,28.44,0,0,0,7-.9c5.5-1.64,11.14-1.59,16.75-1.68,8-.14,15.95,0,23.93-.05s15.9-.09,23.73-2.19c5.86-1.56,11.94-2.33,17.92-3.42,5.07-.93,10.16-1.74,15.21-2.73a47.52,47.52,0,0,0,19-8.77c2.64-1.93,5.2-4,7.82-6a40.85,40.85,0,0,0,9.6-10.2c2.58-3.9,5.13-7.84,7.85-11.64A43.24,43.24,0,0,1,851.06,657c6.13-3.27,12.59-6.44,19.84-6.71a22.62,22.62,0,0,0,9.39-2.71c13.64-6.89,22.79-17.71,27.63-32.17a49.94,49.94,0,0,0,2.5-9.51c1.59-12.65,2.36-25.14-4.49-36.93-3.1-5.33-6-10.57-11-14.33-1.12-.83-2-2-3.1-2.84-4.88-3.95-8-9.15-10.33-14.83-1.08-2.6-1.87-5.31-2.92-7.91a19.43,19.43,0,0,0-2-3.65c-.52-.78-1.45-.71-2.41-.09-2.45,1.61-3.88,4-5.18,6.54-4.32,8.33-8.53,16.71-12.94,25-3.31,6.24-20.63,27.08-25.79,31.36-.72.6-1.47,1.16-2.2,1.75-4,3.24-8.07,6.4-12,9.76a17.42,17.42,0,0,1-6.1,3.33A2.28,2.28,0,0,1,807,601c-.09-.9-.3-2.15.17-2.68,2.17-2.44,4.3-5.07,7-6.9,4.67-3.24,8.21-7.66,12.5-11.2,4.8-4,8.23-9,12.31-13.45,7-7.7,12.35-16.44,17.08-25.66s9.62-18.25,14.9-27.1c5.09-8.53,11.25-16.19,20.88-20.15,7.84-3.24,12.7-9.37,16.07-16.85,1.15-2.57,2.06-5.24,3.1-7.85.34-.87.73-1.71,1.14-2.55a1.69,1.69,0,0,1,2.37-1c.73.38,1.65,1,1.83,1.73.89,3.3.08,6.5-1,9.62-.94,2.64-2,5.24-2.75,7.92-.14.51.77,1.78,1.41,2a8.34,8.34,0,0,0,7.94-1.62,58.38,58.38,0,0,0,6.84-7,9.2,9.2,0,0,0,1.86-3.72c2.41-10.06,4.2-20.2,3.34-30.62a8.64,8.64,0,0,0-5.88-7.21c-6.74-2-13.42-4.3-20.27-5.77A52.39,52.39,0,0,1,879,414.43a66.41,66.41,0,0,0-5.15-4.76,3.19,3.19,0,0,0-4.74,1.12,47.28,47.28,0,0,0-2.74,6.45c-1.18,4-2.29,8.13-3.06,12.26-2.78,14.8-8.51,28.69-13.26,42.87a98.16,98.16,0,0,1-6.47,15.56c-6.26,11.55-11.09,23.77-17,35.49a148.54,148.54,0,0,1-13.8,22.83c-7.06,9.35-14.2,18.64-21.31,27.94-.28.37-.69.64-1,1a2.66,2.66,0,0,1-3.71-.21,3.15,3.15,0,0,1-.8-3.82,44,44,0,0,1,3.73-5.94,117.67,117.67,0,0,0,13-18.3c1.14-2,2.88-3.69,4.23-5.6a58.48,58.48,0,0,0,4.63-7c5.05-10,11.48-19.36,15.32-30a87,87,0,0,1,4.26-8.88,332.49,332.49,0,0,0,24.67-65.66c2-7.71,4.37-15.31,6.61-22.94,3.36-11.44,9.23-21.51,15.71-31.31a12.8,12.8,0,0,1,4-3.81c3.07-1.79,4.67-4.53,5.87-7.63,1.68-4.37,3-8.91,5-13.1,2.51-5.14,4.44-10.31,4.59-16.07a2.27,2.27,0,0,1,.65-1.2,2.43,2.43,0,0,1,1-.74c1.09-.37,2-.06,2.29.91,1.72,5.13.86,10.17-.82,15.1-1,3.1-2.62,6-3.55,9.17C896.91,359.12,897.86,360.53,898.25,361.83ZM237.05,326c-6.92,1.07-14,1.52-20.73,3.37-8.22,2.25-15.25,7.2-21.52,12.9-4.86,4.41-9.24,9.34-13.8,14.07A38.1,38.1,0,0,0,173.28,368c-.84,2,.72,5.3,2.85,5.54,12.13,1.33,24,4.25,35.91,6.53a216.24,216.24,0,0,1,31.26,8,56.69,56.69,0,0,0,13.53,3.48,38.18,38.18,0,0,1,13.35,3.86c.29.14.38.74.52,1.15.38,1.12-.05,1.77-1.12,2.26a10.82,10.82,0,0,1-6.89.39c-9.6-2.07-19.25-4-28.72-6.56-21.71-5.89-53.27-12.38-73-13.54-2.8-.17-5.55-.91-8.34-1.19-3.73-.38-7.66-1.44-11.16-.66-7.73,1.72-15.85,1.94-23.12,5.62-2.08,1-4.3,1.84-6.48,2.7C101,389.88,93,397.55,86.28,406.87c-5,6.95-7.75,15-11,22.72-4.44,10.62-10.82,19.66-19.91,26.76-2.58,2-5.07,4.17-7.71,6.11-7.54,5.53-12,13-14.14,22a5,5,0,0,0,2.71,5.77,17.94,17.94,0,0,0,11,1.41c7.38-1.32,14.74-2.76,22.15-3.83,6.51-1,13-1.27,19.32,1.61,3.79,1.71,8.1,2.26,12.17,3.32,10,2.6,19.89,5.41,30.24,6,7.67,2.8,15.69,2.57,23.65,2.67,7.5.09,15,.13,22.52-.05,9.85-.25,19.82.12,29.5-1.33,13.58-2.05,27.13-1.6,40.7-1.58A63.32,63.32,0,0,1,272,504a7.4,7.4,0,0,1,4.93,6.31c.29,3.38,2.2,4.86,5.36,5.39,2.3.39,4.54,1.11,6.82,1.61s4.52-1.59,4.61-4.1c0-1.41,0-2.81.07-4.22.07-4.69.06-9.38.23-14.07a22.22,22.22,0,0,1,2-8.12,31.61,31.61,0,0,1,9-12.38c2.19-1.76,4.38-3.53,6.48-5.4,2.29-2.05,3.24-4.37,1.81-7.5a3.34,3.34,0,0,1,1.65-4.58c1.77-.6,3.73-.76,5.37-1.58,4.06-2,4.61-7.8,1-10.29a68.71,68.71,0,0,0-8.44-5c-2.5-1.24-5.43-1.68-7.81-3.09-8.23-4.89-17.74-5.87-26.5-9.1-6.21-.14-11.79-2.89-17.7-4.26-7.29-1.68-14.58-3.64-22-4.43s-15-.5-22.36-2.18a35.48,35.48,0,0,0-7-.36c-5.63-.12-11.26-.23-16.89-.3-18.28-.21-36.52-.52-54.71,2.32-8.78,1.38-17.63,2.25-26.3,4.32a1.47,1.47,0,0,1-2-1.23,3.63,3.63,0,0,1,.79-2.5,8.54,8.54,0,0,1,3.33-2.43,57.36,57.36,0,0,1,13.74-2.88c3.27-.18,6.65-.21,9.75-1.11,5.52-1.59,11.11-1.67,16.73-1.88,23.45-.88,46.9-.27,70.36.25a51.16,51.16,0,0,1,8.41.56c17.46,3.37,35,6.49,52.18,11.07,13.57,3.62,27,7.89,39.24,15.1a5.34,5.34,0,0,0,2.61.94,7.64,7.64,0,0,0,4-.9,21.71,21.71,0,0,0,3.83-4,2.87,2.87,0,0,0-.35-3.76,80.45,80.45,0,0,0-19.71-10.69c-6.53-2.59-13.19-4.84-19.76-7.33a19.46,19.46,0,0,1-3.64-2.09,1.82,1.82,0,0,1-.76-2.47,3.85,3.85,0,0,1,1.82-1.77c2.32-.82,4.64-.29,6.85.59,6.09,2.43,12.11,5,18.26,7.34a83,83,0,0,1,22.14,11.92c.37.29.77.53,1.16.79a3.78,3.78,0,0,0,4,0,37.74,37.74,0,0,0,9.74-10,3.83,3.83,0,0,0,0-4,28.36,28.36,0,0,0-3.81-5.84c-6.77-7.27-11.95-15.61-16.73-24.24s-10.6-16.6-14.48-25.7a16.73,16.73,0,0,0-2.33-3.51,10.46,10.46,0,0,0-5.5-4.17,40.08,40.08,0,0,1-15.06-7.28,27.24,27.24,0,0,0-7.54-3.68c-5.71-2.1-11.49-4-17.28-5.9-5.35-1.74-10.73-3.26-16.48-3.24a24.15,24.15,0,0,1-8.24-1.48A29.07,29.07,0,0,0,237.05,326Zm367.47,733.8h.16c0-19.24,0-38.48,0-57.71a68.88,68.88,0,0,0-.89-8.32,1.31,1.31,0,0,0-.78-.92,1.65,1.65,0,0,0-1.3.4c-4.44,5-7.12,11-10,16.85-6.24,12.59-13.08,24.9-17.7,38.25-2.29,6.64-5,13.15-7.19,19.82-4.26,12.86-10.39,25.19-11.56,39a11.68,11.68,0,0,1-.81,2.69c-2.56,7.55-4.06,15.37-5.83,23.13-.84,3.65-1.93,7.24-2.71,10.9-1.67,7.77-3.78,15.42-5.2,23.27-1.24,6.9-2,13.87-3.63,20.75-2.61,10.95-6.36,37.57-6.43,48.69,0,4.66-1.07,9.3-1.28,14-.23,5.1,0,10.15-.8,15.3-1,6.43-.82,13.08-1.07,19.63-.33,8.43-.24,16.89-1,25.28-.57,6.59-1.1,13,.59,19.54.57,2.21.34,4.64.38,7,.19,12.19.4,24.39.5,36.58.07,8.91-.06,17.82-.06,26.73,0,8-.35,16,2,23.74a19.22,19.22,0,0,1,.7,5.57c0,4.74,1.26,9.23,2.16,13.83,2,10.1,4.08,20.2,3.59,30.65-.41,8.9-.32,17.82-.27,26.74s.32,17.82.54,26.73c.06,2.35.36,4.73,2,6.6a4.87,4.87,0,0,0,2.23,1.16c.21.06.81-.54,1-.93,1-2.61,2.4-5.16,2.92-7.88,4.77-24.84,10.88-49.38,16.65-74,3.51-15,6.79-30.12,9.34-45.36,1.24-7.39,2.5-14.78,3.9-22.14,1.75-9.2,3.48-18.38,4.8-27.67,1.19-8.34,3.16-16.56,3-25.06a14.81,14.81,0,0,1,.41-2.78c2.17-12.45,4.44-24.89,4.9-37.57a27,27,0,0,1,.75-7c1.85-5.93,1.71-12,2.21-18.1.23-2.8.13-5.69.8-8.38,1.28-5.07,1.3-10.22,1.75-15.35.25-2.8.07-5.72.82-8.37,1.57-5.53,1.47-11.13,1.73-16.75.29-6.08.43-12.22,1.44-18.2a122.5,122.5,0,0,0,1.6-15.36c.14-3.28,0-6.63.65-9.82,2-10.2,1.85-20.53,2.33-30.82.19-4.21,0-8.5.63-12.64,1.51-9.31,1.65-18.68,1.79-28C604.38,1088.87,604.41,1074.32,604.52,1059.78Zm341.91,38.91q-3.85,5-7.72,10c-.73,1-.8,1.94.13,2.3a3.07,3.07,0,0,0,2.53-.2c11.71-9.55,22.28-20.06,28.53-34.19,1.89-4.28,4.13-8.42,6-12.71a31.5,31.5,0,0,0,2.57-8,39.19,39.19,0,0,1,3.46-12.1c3.25-6.5,1.87-13.89,4.08-20.6a21.72,21.72,0,0,0,.76-5.54,13.7,13.7,0,0,0-.34-4.19c-1.57-6-1.5-12.06-1.8-18.14a62.53,62.53,0,0,0-1.52-9.67,129.2,129.2,0,0,0-14-36.61c-6.57-11.79-16.06-20.66-29-25.31a14,14,0,0,0-2.76-.49,5.71,5.71,0,0,0-6.26,4.34c-1.11,5.2-.92,10.15,1.54,15,1.26,2.5.46,4.42-2.44,5.44s-4.58,3.16-6.86,4.72a3.51,3.51,0,0,1-2.63.54c-3.55-1.09-7.07-2.3-10.52-3.69a3.37,3.37,0,0,1-1.35-2.28c-.58-3,.22-5.54,3.11-7.06,4.84-2.55,5.88-7,5.81-11.89,0-.61-1.06-1.27-1.73-1.75a1.39,1.39,0,0,0-1.3,0,40.07,40.07,0,0,0-5,4.87c-2.57,3.34-4.73,7-7.32,10.29a14.74,14.74,0,0,1-4.36,3.44c-.53.31-1.68-.29-2.47-.64a1.37,1.37,0,0,1-.67-1.11,13.24,13.24,0,0,1,1-4c2-3.69,4.24-7.25,6.22-11A4.11,4.11,0,0,0,902,926c-.3-1.05-2.45-2.06-3.48-1.82-8.79,2-17,5.45-24,11.26-5,4.17-10.48,7.93-14,13.61-11.93,12-18,27.16-22.59,43.06-2.71,9.46-3.07,19.4-5.77,28.87a11.74,11.74,0,0,0-.26,2.79c-.28,7.91-1,15.76-.55,23.76a132,132,0,0,0,5.31,28.92c2.62,9.09,6,17.72,13,24.49,2,1.92,3.35,4.51,5.14,6.68a32.25,32.25,0,0,0,12.1,9.39c.64.28,1.68-.25,2.47-.56.21-.08.4-.85.26-1.13-2.1-4.19-4.05-8.46-6.44-12.47-5.18-8.68-7.32-18.18-8-28.08-.41-5.61-.49-11.24-.69-16.86s.08-11.29-.64-16.84c-.74-5.7,1-11.14.78-16.77-.29-9.9,3.28-19.36,3.77-29.2,3.25-10.24,5.72-20.75,10.06-30.63a40.68,40.68,0,0,1,2.8-4.81c.62-1,2.69-1.28,3.74-.55s1.95,2.67,1.62,3.61a18.87,18.87,0,0,1-.92,2.62c-7,13.54-9.93,28.26-12.08,43.08-1.47,10.15-1.47,20.51-2.63,30.75-1.54,13.59,1.61,27.05,2.24,40.6a22.68,22.68,0,0,0,1.1,4.06c3.12,12.51,10,23.15,17.06,33.64a18.36,18.36,0,0,0,4.13,3.69,1.64,1.64,0,0,0,2.5-.38c1.61-2.17,3.47-3,5.9-1.25a17.16,17.16,0,0,0,2.39,1.46,3.89,3.89,0,0,0,5-1c.84-1.11,1.53-2.34,2.37-3.47a17.55,17.55,0,0,1,2.69-3.18,3.19,3.19,0,0,1,2.55-.53,2.69,2.69,0,0,1,1.67,1.85,24.24,24.24,0,0,1-.62,5.48c-.22,1-.22,1.83.79,2.35a1.76,1.76,0,0,0,1.38-.08,24.08,24.08,0,0,0,3.61-2.1c13.32-10.06,23.24-23,31.29-37.45a37.07,37.07,0,0,0,4-10.45,78.79,78.79,0,0,1,2.54-8,62.44,62.44,0,0,0,2.19-6.66c1.31-6.41,2.33-12.87,3.61-19.28.92-4.59,2-9.15,3.17-13.67.18-.67,1.22-1.2,2-1.63,1.07-.62,2.37.8,2.4,2.57,0,.47.12.93.12,1.4,0,9.86-3.75,19.3-3.28,29.24.11,2.26-1,4.55-1.45,6.84C959.69,1076.22,955.6,1088.57,946.43,1098.69ZM774.72,384.13l.42.1c-.34,2.29-.73,4.58-1,6.87a1.37,1.37,0,0,0,.81,1,1.42,1.42,0,0,0,1.29-.4c1.47-2.36,2.87-4.76,4.23-7.18,4.62-8.21,8.48-16.7,9.8-26.17.25-1.82,1.23-3.54,1.63-5.36,1.9-8.64,5.17-17.05,4.63-26.14a4.37,4.37,0,0,1,.84-2.61,5.87,5.87,0,0,1,2.15-1.59c.21-.11.92.31,1.1.66a21.27,21.27,0,0,1,2.42,4.93,16.06,16.06,0,0,1-.39,8.33c-1.45,4.94-3.31,9.81-4.19,14.85a187.52,187.52,0,0,1-7.05,27.14,13.32,13.32,0,0,0-.81,4.05c0,.6.95,1.3,1.6,1.77a1.39,1.39,0,0,0,1.33-.16c1.25-1.34,2.87-2.6,3.5-4.22,1.67-4.35,2.94-8.87,4.31-13.33.4-1.34.56-2.74.95-4.08a1.9,1.9,0,0,1,2.13-1.42,1.81,1.81,0,0,1,2,1.52c.48,3.21.73,6.44,1.22,9.65a1.54,1.54,0,0,0,2.2,1.1,11.81,11.81,0,0,0,3.59-2c2.17-1.86,4.06-3.85,2.58-7.21a5.87,5.87,0,0,1,0-4.09c1.74-4.39,2.47-9,3.65-13.54a2.53,2.53,0,0,1,.81-1.12,3.27,3.27,0,0,1,1.16-.66c.89-.31,1.68.15,1.82,1.34a33.84,33.84,0,0,1-1,11.15,1.41,1.41,0,0,0,1.45,1.74,2.06,2.06,0,0,0,1.34-.25c6.26-5.36,8.91-13,12.65-20,1.87-9.76,6.29-18.56,10.12-27.61a47.7,47.7,0,0,1,7.16-11.92c10-12.2,17.78-31.34,19.47-47.44a48.9,48.9,0,0,1,1.95-11,26.73,26.73,0,0,0,1-12.5,4.24,4.24,0,0,0-2.31-3.25c-3.9-2.1-7.74-3-11.92-.46a68.18,68.18,0,0,0-10.27,7.19c-8.53,7.48-15.41,16.31-22.12,25.3-5,6.74-9.6,13.79-16.86,18.62-3,2-5.52,5.09-7.81,8a193.84,193.84,0,0,1-15,16.71,52.66,52.66,0,0,0-6.33,7.51c-9.49,14.06-17.41,28.85-21.1,45.62a43.64,43.64,0,0,1-4.8,13.14,22.48,22.48,0,0,0-2.28,5.11,64.7,64.7,0,0,1-8.89,18.95,13.83,13.83,0,0,0-1,2.6c-.48,1.19.52,3.16,1.72,3.27,15.24,1.42,14.27,1,19-12.25,2.64-7.46,4-15.37,6-23.06a9.52,9.52,0,0,1,1.14-2.49c.19-.31.72-.42,1.11-.58,1.13-.45,1.83-.05,2.2,1.11,1.31,4.19.61,8.34-.28,12.45S775.71,380.05,774.72,384.13Zm158.12-27.26c.2-.84-.17-1.24-1-.73-9.31,5.49-19.49,9.08-29.31,13.46a62.51,62.51,0,0,0-6.21,3.29A39.49,39.49,0,0,0,877.8,396.7a6.31,6.31,0,0,0,.93,5.38,68.75,68.75,0,0,0,14.7,15,2.07,2.07,0,0,0,1.29.48c.85-.12,2-.19,2.45-.74A18.92,18.92,0,0,0,900,412c5.84-15.54,15-29,25.48-41.76a43.44,43.44,0,0,0,7.35-11.83A5.29,5.29,0,0,0,932.84,356.87ZM885.55,522.35c1.25,5.58,2.17,12.53,7,18.1,1.91,2.2,4.4,2.35,5.69.12,7.66-13.32,15-26.78,21.81-40.58a4.58,4.58,0,0,0,.55-2.67A2.6,2.6,0,0,0,919,495.6c-5.24-.82-10,1.55-15.06,2.41C892.62,500,885.45,509.89,885.55,522.35ZM72.79,494.75a31,31,0,0,0-5.94.33c-6,1.06-11.86,2.42-17.76,3.8-.72.17-1.31,1.16-1.83,1.87a1.79,1.79,0,0,0,.37,2.52,33.89,33.89,0,0,0,17.22,8.84c7.48,1.37,14.28,4.25,21.24,6.92,1.73.67,3.5,1.24,5.28,1.77,2.21.66,5.08-1,5.5-3a31.86,31.86,0,0,0-.58-15.25,7.82,7.82,0,0,0-4.6-4.94C86.45,495.12,80.88,494.76,72.79,494.75Z" style="fill: inherit;"/><path d="M725.09,182.48c-.68,8-.52,15.94-2.18,23.81a64.12,64.12,0,0,0-.89,9.81c-.23,4.68-.15,9.37-1.79,13.89a15.14,15.14,0,0,0-.52,4.17c-1.1,19.34-6.4,37.81-11.52,56.31q-4.31,15.57-8.83,31.07c-.78,2.69-1.83,5.31-2.81,7.94-4.27,11.41-8.45,22.83-11.21,34.74-.94,4.08-2.64,8-4,12A3.31,3.31,0,0,1,678,378a3.61,3.61,0,0,1-2.64-3c0-1.39-.34-3,.18-4.13A90,90,0,0,0,682,351a22.6,22.6,0,0,1,2.14-6.68c4.37-7.88,4.93-17.1,9-25.08a19.29,19.29,0,0,0,1.12-4c2.49-9.52,4.78-19.06,8.34-28.28a51.9,51.9,0,0,0,3.57-15c.34-4.62,1.71-9.2,3-13.7a150.39,150.39,0,0,0,5.5-33.17c.16-3.25.79-6.49,1.22-9.73.31-2.32,1-4.65.91-7-.39-12.74,3.09-25.11,3.39-37.77a7.1,7.1,0,0,1,2.09-5.06,1.89,1.89,0,0,1,1.3-.44,1.18,1.18,0,0,1,.88.65,9.34,9.34,0,0,1,.59,2.68C725.12,173.1,725.09,177.79,725.09,182.48Z" style="fill: inherit;"/><path d="M593,230.49c-.22,7.95-.37,15.91-.68,23.86-.39,10.31-2.13,20.45-4.17,30.55s-4,20.16-5.83,30.27c-.59,3.22-.72,6.51-1,9.77a147.12,147.12,0,0,1-6.18,30.16,1.51,1.51,0,0,1-2.22,1c-.75-.38-1.76-1-1.94-1.65a18.53,18.53,0,0,1,.25-9.72c2.42-9.09,3-18.47,4.22-27.72,1-7.4,1.2-14.94,3.23-22.17,2.81-10,2.68-20.4,5.11-30.43a38.34,38.34,0,0,0,.62-8.39c.17-11.71.19-23.42.39-35.13.15-8.89.44-17.78.8-26.66,0-.63,1.07-1.44,1.82-1.76a2.59,2.59,0,0,1,3.36,1.64,25.29,25.29,0,0,1,1.2,5.4c.33,10.3.51,20.61.75,30.92Z" style="fill: inherit;"/><path d="M475.06,329.88c-2.64-.45-3.92-2.5-4.75-4.63a16.48,16.48,0,0,1-.79-5.49c-.2-7-.37-14-.39-21,0-7.49.2-15-1.87-22.29a23.41,23.41,0,0,1-.36-5.58c-.47-16.45-3.88-32.36-8.66-48.05a181,181,0,0,1-5.32-21.72,137.48,137.48,0,0,0-4.24-16.25c-.68-2.22-1.33-4.46-1.86-6.72s.55-4.76,1.72-4.46a3.92,3.92,0,0,1,2.79,2.82c2.95,8.84,5.62,17.77,8.22,26.72,3,10.3,6.37,20.49,9.71,30.69a35.09,35.09,0,0,1,2.08,9.54,24.91,24.91,0,0,0,.9,6.93c1.89,5.43,1.81,11,2.13,16.62.21,3.71.69,7.43,1.23,11.12,1,6.74,2.18,44,1.42,50.35A1.58,1.58,0,0,1,475.06,329.88Z" style="fill: inherit;"/><path d="M481,387.91c.21-.38.34-1,.63-1.1.82-.25,1.92-.66,2.51-.32a8.94,8.94,0,0,1,3,2.82c3.24,5.13,6.82,10,9.8,15.36,4.78,8.57,10.42,16.65,15.42,25.1,6.69,11.28,13.82,22.26,21.2,33.1a120.61,120.61,0,0,1,6.78,12.26c1.73,3.32,2.88,7,5,10.07,5.52,8.13,10.65,16.37,14.3,25.6,1.88,4.74,4.45,9.23,5.76,14.24a25.42,25.42,0,0,0,1.79,5.32c6.51,12.6,8.49,26.68,13.17,39.88.9,2.56.87,5.49,1,8.27a2.73,2.73,0,0,1-1.26,2.21c-.63.21-1.76-.4-2.39-1a5.8,5.8,0,0,1-1.4-2.36c-3-8.36-6.25-16.65-8.82-25.14a329.74,329.74,0,0,0-20-50.88,22.39,22.39,0,0,0-3-4.73c-4.33-5-7.25-10.88-10.1-16.79a131.13,131.13,0,0,0-13.73-22.79c-7.1-9.32-12.44-19.79-18.28-29.91-5.38-9.32-10.37-18.87-15.62-28.26-1.59-2.85-3.53-5.51-5.19-8.33A9.71,9.71,0,0,1,481,387.91Z" style="fill: inherit;"/><path d="M716.83,593c-.91-.76-1.94-1.2-2.13-1.87a6.59,6.59,0,0,1,1.13-5.32c3.4-5.58,7.43-10.89,10.11-16.8,3.27-7.25,7-14.22,10.55-21.33,1-2.1,2.1-4.17,3.26-6.19,6.29-11,10.86-22.76,14.65-34.81a92.17,92.17,0,0,0,3.13-13.63c1.63-10.6,3.73-21.13,5.18-31.78,1.32-9.75,2.22-19.48,2.68-29.28a12.35,12.35,0,0,1,1.39-3.87c.51-1.2,2.73-1.91,3.56-1.09a12,12,0,0,1,1.63,2.17,2,2,0,0,1,.21,1.35c-2.19,8.69-2.44,17.6-2.54,26.47-.07,7.1-1.92,13.89-2.89,20.82-1.11,7.82-2.67,15.62-4.54,23.36a170.54,170.54,0,0,1-12,32.89c-6.8,14.37-14.2,28.46-21.21,42.74a103.78,103.78,0,0,1-8.9,14.23C719.46,592.07,717.89,592.43,716.83,593Z" style="fill: inherit;"/><path d="M598.4,591.09c-.1.29-.63,2-1.28,3.75-.09.24-.75.33-1.16.35a2.5,2.5,0,0,1-1.31-.23,1.92,1.92,0,0,1-.9-1.05c-2.5-10.94-5.42-21.82-7.28-32.87-1.71-10.21-5.58-19.8-7.51-29.92a40.62,40.62,0,0,0-2.33-6.61c-.67-1.75-1.57-3.42-2.15-5.2-1.45-4.44-2.42-9.08-4.24-13.36-3.66-8.61-7-17.5-11.86-25.41-5.42-8.79-9.24-18.4-15-27-.69-1,.75-2.89,2.2-2.81.9,0,2.12,0,2.63.54,1.93,2,4.22,4,5.31,6.46,4.15,9.44,10.45,17.78,13.89,27.57a19.52,19.52,0,0,0,2.46,5c4.77,6.56,7.4,14.08,10,21.62,3,8.86,6.08,17.72,8.74,26.7A129,129,0,0,1,592.55,555c1.27,7.85,3.14,15.6,4.93,23.35A39,39,0,0,1,598.4,591.09Z" style="fill: inherit;"/><path d="M396.06,486.6c.39-.6.57-1.16.93-1.34a1.57,1.57,0,0,1,1.23.28c2.81,1.9,4.21,4.92,6,7.67,8.57,13.41,17.27,26.73,28.53,38.14,6.85,10.11,16.21,18.07,23.57,27.82a113.68,113.68,0,0,0,21,20.65c5.94,4.64,10.86,10.28,16,15.73a3.89,3.89,0,0,1,.86,2.56,3.67,3.67,0,0,1-1.11,2.4,3.05,3.05,0,0,1-2.49.65,11.19,11.19,0,0,1-3.43-2.34c-10.49-10-21.1-20-31.34-30.24-5.93-6-11.4-12.37-16.83-18.79-6.64-7.85-12.87-16-19.57-23.83a112.58,112.58,0,0,1-12.09-17.2c-3.5-6.09-7-12.17-10.36-18.33C396.25,489.28,396.29,487.77,396.06,486.6Z" style="fill: inherit;"/><path d="M684.65,471.75c-1.3,15.47-1.75,28.93-2.56,42.38-.59,9.74-2.34,19.41-3.46,29.13s-3.58,19.22-4.38,29c-.57,6.92-2.59,13.72-4,20.56a2.05,2.05,0,0,1-.82,1.11c-.74.47-1.59,1.14-2.34,1.09a3.1,3.1,0,0,1-2.23-1.39,7.25,7.25,0,0,1-.9-3.92c.62-4.14,1.52-8.24,2.37-12.35,1.33-6.39,2.38-12.83,3.56-19.23s1.31-13,2.69-19.34c2-9.2,1.43-18.62,3.2-27.73,1.71-8.79,1.43-17.66,2.38-26.45q1.13-10.39,2.41-20.76a1.54,1.54,0,0,1,2.12-1.31c.72.25,1.78,1,1.82,1.54A69.48,69.48,0,0,1,684.65,471.75Z" style="fill: inherit;"/><path d="M133.41,590.75c-1.31,0-5.06.09-8.79,0a10,10,0,0,1-4-1.1,3.06,3.06,0,0,1-1.43-2.16,2.33,2.33,0,0,1,1.41-1.81c2.78-.3,5.59-.3,8.39-.45,5.13-.26,10.27-.12,15.33-1.56,2.65-.75,5.58-.47,8.36-.82a43.81,43.81,0,0,0,8.28-1.4A169.4,169.4,0,0,1,182.71,576c10.64-2,20.58-6.06,30.47-10.26,8.62-3.66,17.15-7.46,25.59-11.52,7.13-3.43,14.79-5.79,22-9.23a11.72,11.72,0,0,1,4-1.12A107,107,0,0,0,280,541.49c1.13-.25,2.62.67,3.81,1.3s1.08,3.06,0,3.54c-1.27.55-2.54,1.44-3.85,1.52-8.08.55-15.53,3.15-22.85,6.4-3.84,1.71-7.84,3-11.75,4.59-2.61,1-5.43,1.75-7.74,3.25a49.86,49.86,0,0,1-12.79,5.67c-6.76,2-12.59,6-19.2,8.49-9.68,3.59-19.34,7.12-29.61,8.37-7,.84-13.55,3.9-20.69,3.77C149,590.66,142.38,590.33,133.41,590.75Z" style="fill: inherit;"/><path d="M326.13,571.52a14.23,14.23,0,0,1,2.05.73c.4.22,1,.59,1,.86-.05.85-.14,2.23-.62,2.43a50.73,50.73,0,0,1-14.87,3.55,31.24,31.24,0,0,0-8.18,1.73c-8.32,3.11-16.73,6.11-24.77,9.87s-16.26,7.14-24.51,10.46c-7.37,3-14.55,6.44-21.7,9.93a202,202,0,0,1-23.17,10,10,10,0,0,1-4.11.41,2.78,2.78,0,0,1-2-1.49,3.24,3.24,0,0,1,.6-2.5A4.8,4.8,0,0,1,208.1,616c12.06-4,23.05-10.31,34.42-15.79,13.07-6.31,26.34-12.17,39.86-17.47,2.17-.86,4.28-1.9,6.39-2.92,6.37-3.07,12.84-5.5,20.11-5.63,3.69-.07,7.35-1.36,11-2C322.21,571.8,324.55,571.68,326.13,571.52Z" style="fill: inherit;"/><path d="M394.65,635.69c-.11.45-.07,1.08-.36,1.33A7.82,7.82,0,0,1,392,638.5c-3.53,1.26-7.1,2.41-10.64,3.62a290.67,290.67,0,0,0-46,20.61c-3.29,1.81-6.77,3.28-9.93,5.26-7.93,5-16.16,9.52-22.54,16.61a18.66,18.66,0,0,1-4.4,3.44,2.64,2.64,0,0,1-2.45-.45,2.71,2.71,0,0,1-.68-2.42,10.55,10.55,0,0,1,2.43-3.36A163.31,163.31,0,0,1,344.45,651c5.14-2.25,10.24-4.6,15.37-6.89,3-1.33,5.89-3.18,9-3.84,7.44-1.54,14.07-5,21-7.82a3.43,3.43,0,0,1,4.56,1.88A5.14,5.14,0,0,1,394.65,635.69Z" style="fill: inherit;"/><path d="M346.55,590.15c.19,1.08-.21,2-1.27,2.12a76.2,76.2,0,0,1-9.72,1.06c-6.69.07-12.92,2.38-19.16,4.15-5.77,1.64-11.06,4.93-16.58,7.45a13.62,13.62,0,0,1-3.92,1.35,3.83,3.83,0,0,1-2.41-1.2,2.55,2.55,0,0,1,.46-3.63c8.1-4.72,16.33-8.88,25.79-10.63,7.86-1.46,15.63-2.94,23.64-2.72A3.11,3.11,0,0,1,346.55,590.15Z" style="fill: inherit;"/><path d="M607.41,626c.44-.8.71-1.91,1.38-2.28a2.5,2.5,0,0,1,2.38.45c2.19,3.57,4.21,7.25,6.21,10.93a32.27,32.27,0,0,1,2.36,5.1c2.22,6.66,4.38,13.34,6.4,20.07a8.74,8.74,0,0,1,0,4.16c-.15.67-1.09,1.31-1.81,1.7a1.66,1.66,0,0,1-2.41-.87c-1-2.1-2.35-4.17-2.73-6.39-.95-5.64-3.12-10.75-5.56-15.85-2.23-4.64-4-9.49-5.91-14.28A10.25,10.25,0,0,1,607.41,626Z" style="fill: inherit;"/><path d="M684.9,629.55a3.35,3.35,0,0,1,.41-1.1,2.72,2.72,0,0,1,1.14-.74,5.83,5.83,0,0,1,5.37.56c10.29,7.88,21.18,15.12,29.09,25.69a1.77,1.77,0,0,1,.33,1.29,7.94,7.94,0,0,1-1.09,2.34c-.16.24-1,.26-1.33.07a15.86,15.86,0,0,1-3.45-2.15c-4.73-4.42-9-9.32-14.68-12.74-5.15-3.06-8.89-8.15-14.34-11C685.67,631.43,685.37,630.32,684.9,629.55Z" style="fill: inherit;"/><path d="M392.57,705.46a13.32,13.32,0,0,1-1.57-1.8,1.43,1.43,0,0,1,.09-1.32c7-8.52,14.39-16.64,23.26-23.29a1.64,1.64,0,0,1,1.34,0c1.12.45,1.32,1.25.72,2.27-.23.39-.35.85-.59,1.23a8.62,8.62,0,0,1-1.58,2.26c-7.62,6-12.18,15.05-20.3,20.56C393.61,705.59,393,705.44,392.57,705.46Z" style="fill: inherit;"/><path d="M274.46,711.29c-1.27,0-2.53-2.25-2-3.16a21.09,21.09,0,0,1,9.66-9.31,1.43,1.43,0,0,1,1.31.16c.48.69,1.21,1.7,1,2.28a16.49,16.49,0,0,1-8.77,10A2.6,2.6,0,0,1,274.46,711.29Z" style="fill: inherit;"/><path d="M792.15,644.88c3.12,0,3.58,0,4.05,0a99.92,99.92,0,0,0,33-4.27,9.65,9.65,0,0,1,4-.35c.77.09,1.54.92,2.11,1.59.82.94.51,1.73-.62,2.28a13.22,13.22,0,0,1-2.42,1.35c-5.85,1.41-11.67,3.09-17.6,4-6.41,1-13,.83-19.33,2.48a6.37,6.37,0,0,1-1.39.13c-5.67.3-10.89-1.64-16.14-3.39-.28-.1-.46-.7-.58-1.1a1.68,1.68,0,0,1,1-2.28,13,13,0,0,1,4-.86C786.44,644.51,790.62,644.8,792.15,644.88Z" style="fill: inherit;"/><path d="M376,1053.17c-3-8.43-1.68-18.52-4.48-28-.9-3.07-.72-6.48-.92-9.74-.39-6.5,0-13-2.12-19.41-.53-1.59.2-3.63.45-5.45a1.62,1.62,0,0,1,.85-1,1.76,1.76,0,0,1,2.45.63,17.17,17.17,0,0,1,3.07,7.71c.27,2.79.45,5.6.46,8.4,0,6.14,1.38,12,3,17.91a2.15,2.15,0,0,0,3.21,1.3c1.6-.88,3.17-1.82,4.81-2.64a1.38,1.38,0,0,1,1.3.18c.49.73,1.26,1.77,1,2.38-2,5.71-4,11.42-6.28,17s-1.49,10.92.65,16.25c.84,2.08,2.87,2.22,4.36.28a54.4,54.4,0,0,1,3.33-4.46,2.89,2.89,0,0,1,2.49-.56,2.81,2.81,0,0,1,1.58,1.9,8.18,8.18,0,0,1-.12,4.12,114.24,114.24,0,0,0-6.25,20c-.33,1.69-1.82,3.18-2.88,4.7-.68,1-3.09,1.35-3.84.62-4.65-4.54-9.71-8.7-13.55-14A4.85,4.85,0,0,1,368,1070a4.23,4.23,0,0,1,.66-3.93,2.92,2.92,0,0,1,3.75-.85c1.24.63,2.37,1.45,3.59,2.13a2.62,2.62,0,0,0,1.2.26c.31-.82.94-1.85.68-2.5C376.5,1061.6,376.11,1057.92,376,1053.17Z" style="fill: inherit;"/><path d="M411.51,1364c1.68-3,3.46-4.14,5.15-3.38s3.45,1.46,5.12,2.29c6.28,3.12,12.49,6.4,18.82,9.4,11.92,5.65,22.62,13.15,32.82,21.39,2.88,2.33,6.67,3.66,8.44,7.21a2.65,2.65,0,0,1-.72,2.34,4,4,0,0,1-2.57.72,5.85,5.85,0,0,1-2.67-.71,23.68,23.68,0,0,1-3.46-2.35,235.7,235.7,0,0,0-50-30.78C418.63,1368.37,414.64,1366.9,411.51,1364Z" style="fill: inherit;"/><path d="M416.86,1290.64a5.61,5.61,0,0,1-1.33-.28,13.86,13.86,0,0,1-2.39-1.4c-15.79-12.53-33.45-21.7-52.15-29a1.63,1.63,0,0,1-.93-2.33c.35-.72,1.08-1.68,1.73-1.76a13.87,13.87,0,0,1,5.49.06,112.31,112.31,0,0,1,29,13.46c7,4.6,13.7,9.61,20.47,14.52a10.18,10.18,0,0,1,2.77,3,2.71,2.71,0,0,1-.27,2.43C418.73,1290,417.67,1290.24,416.86,1290.64Z" style="fill: inherit;"/><path d="M374.37,1243.25a4.44,4.44,0,0,1,1.1-.86,7,7,0,0,1,5.44.24c4.24,2,8.47,4,12.65,6.12,12.15,6.16,23.08,14.3,34.72,21.29a15.54,15.54,0,0,1,2.91,3c.91,1,.71,3.35-.39,3.7a3.68,3.68,0,0,1-2.56.12,92.24,92.24,0,0,1-8.22-5.32c-13.31-9.73-27.94-17.13-42.69-24.32a11.39,11.39,0,0,1-3-2.58C374.12,1244.39,374.35,1243.72,374.37,1243.25Z" style="fill: inherit;"/><path d="M429.76,1188.3c-.33-4.37,1.29-9.67,2.82-15,.3-1.06,1.13-1.64,2-1.31s2,1,1.93,1.5c-.61,7.75-1.36,15.49-2.16,23.23a1.35,1.35,0,0,1-2.05,1.16,4.35,4.35,0,0,1-1.94-1.55,6.16,6.16,0,0,1-.59-2.65C429.69,1192.32,429.76,1190.94,429.76,1188.3Z" style="fill: inherit;"/><path d="M395.63,1235c-.92,0-1.84.06-2.76,0a2.81,2.81,0,0,1-1.29-.5c-4.59-3.21-9.17-6.42-13.71-9.69a1.59,1.59,0,0,1-.32-1.33,1.3,1.3,0,0,1,.8-.9c1.34-.16,2.92-.65,4-.14,4.64,2.17,9.15,4.65,13.68,7.06a1.91,1.91,0,0,1,.91,1,5.16,5.16,0,0,1,.43,2.62C397.17,1233.85,396.25,1234.38,395.63,1235Z" style="fill: inherit;"/><path d="M168.25,481.53c7,0,14,0,21.06,0a55.69,55.69,0,0,0,15.29-1.7,32.18,32.18,0,0,1,8.34-.89c15.44-.23,30.88-.34,46.32-.49,9-.09,17.52,2.47,26.21,4.14,1.69.33,3.18,1.8,4.7,2.84.27.18.26.8.36,1.22.28,1.15-.19,1.78-1.31,2.15-2.79.93-5.57.35-8.3-.08a125.56,125.56,0,0,1-15.14-2.87c-6.88-2-13.85-2.08-20.86-2.09-7.48,0-15,.15-22.46.39a124.28,124.28,0,0,0-18.11,1.65c-6.39,1.15-13,1-19.58,1.14-5.61.13-11.2-.12-16.79.92a32.92,32.92,0,0,1-8.3,0c-6.51-.48-13-1.13-19.5-1.73-1.24-.12-2.68-2.33-2-3.1a5.31,5.31,0,0,1,2.07-1.56,7.52,7.52,0,0,1,2.77-.21c3.74.15,7.47.44,11.21.51,4.68.09,9.36,0,14,0Z" style="fill: inherit;"/><path d="M337.84,411.48a10,10,0,0,1-2.59-.23A40.63,40.63,0,0,1,323.34,404a45.74,45.74,0,0,0-12.07-7c-4.32-1.75-8.58-3.68-12.74-5.77-11.7-5.84-23.29-11.84-36-15.28-4-1.09-7.75-3.2-11.68-4.7-11.82-4.51-24.17-6.94-36.6-9a7.49,7.49,0,0,1-4.9-2.31c-.72-.86-.92-1.82-.08-2.54a8.23,8.23,0,0,1,3.36-2.07,8.14,8.14,0,0,1,4.12.46c6.61,2.32,13.18,4.73,20.3,5.05a16.32,16.32,0,0,1,4.07,1c8,2.58,15.72,5.79,23.84,8.07,7.58,2.12,14.65,6,22,9.13,3.43,1.46,6.89,2.86,10.32,4.34a69,69,0,0,1,6.36,2.92c7.34,4.09,14.73,8.09,21.87,12.5,4.72,2.92,9.94,5.34,13.14,10.23a1.93,1.93,0,0,1,0,1.36A4.38,4.38,0,0,1,337.84,411.48Z" style="fill: inherit;"/><path d="M299.06,447.91c-.18.37-.26.94-.54,1.06a4.58,4.58,0,0,1-2.55.68c-10.4-2.65-21-4.32-31.33-7.32a83.71,83.71,0,0,0-22-3.75,81.73,81.73,0,0,1-15.29-1.76c-4.53-.94-9.29-.85-14-1.07a101.27,101.27,0,0,1-16.7-1.71c-4.5-1-9.29-.69-14-.8-5.14-.12-10.29,0-15.43-.12-2.56-.05-4.4-1.67-3.79-3a3.52,3.52,0,0,1,3.21-2c.46-.05.92-.14,1.39-.15,7.95,0,15.91-.31,23.85,0,8.85.36,17.76.09,26.49,2.23,2.69.65,5.6.3,8.39.61,4.17.47,8.32,1.11,12.47,1.68,2.31.31,4.61.72,6.93.95a203.06,203.06,0,0,1,51.59,12.25A1.85,1.85,0,0,1,299.06,447.91Z" style="fill: inherit;"/><path d="M225.4,458.48c10.87.79,20.73,0,30.44,2.41,4,1,8.39.43,12.6.67,5.65.33,11.15,1.27,16.07,4.31.24.15.24.83.21,1.25a2.19,2.19,0,0,1-.43,1.17,2.09,2.09,0,0,1-1.18.71,12.38,12.38,0,0,1-4.19.13c-7.77-2.1-15.73-2.3-23.69-2.59-2.81-.11-5.71.08-8.4-.57-9.71-2.38-19.55-1.75-29.37-1.78-4.2,0-8.4-.09-12.58-.31-1.16-.06-1.53-1.06-1.12-2.06a2.64,2.64,0,0,1,.67-1.14,5.48,5.48,0,0,1,2.4-1.24C213.37,459,219.92,458.75,225.4,458.48Z" style="fill: inherit;"/><path d="M877.44,1056.65c-.6-11.37,1.65-23.34,3.72-35.32a1.44,1.44,0,0,1,2.13-1.17c.7.32,1.59,1.17,1.61,1.81a33.8,33.8,0,0,1-.31,7c-2.36,13.78-2,29.41.09,43.27a87.8,87.8,0,0,0,6.46,22.89c1.31,2.94,3.24,5.59,4.67,8.48.21.44-.62,2-1.19,2.12a6.36,6.36,0,0,1-4,0,14,14,0,0,1-7.29-8.17c-3.06-9.36-5.85-18.78-5.89-28.76C877.42,1065,877.44,1061.27,877.44,1056.65Z" style="fill: inherit;"/><path d="M845.76,1033.46c-.38,3.71-.55,7.46-1.21,11.13a25.85,25.85,0,0,0,.16,8.28c.84,6,1.12,12.07,1.48,18.12a4.86,4.86,0,0,1-1.15,2.45c-.39.6-3-.63-3.58-1.65a6.75,6.75,0,0,1-.71-1.2c-.64-2.24-1.82-4.52-1.69-6.72a116.5,116.5,0,0,0-.53-15.3,40.22,40.22,0,0,1,1.09-13.92c1-3.59,1.25-7.37,2.11-11a7.6,7.6,0,0,1,2.28-3.39c.52-.5,1.66-.44,2.51-.42.25,0,.74.77.7,1.13-.54,4.16-1.17,8.3-1.77,12.45Z" style="fill: inherit;"/><path d="M883.63,997.31a16,16,0,0,1-2.18-3.14,4.51,4.51,0,0,1,.25-2.68c1.75-6.22,3.79-12.33,4.51-18.82a20.44,20.44,0,0,1,4.08-10.18,9.23,9.23,0,0,1,3.37-2.14c1-.49,3.07.92,3.08,2s.29,2-.08,2.7c-4.48,8.74-6.39,18.25-8.54,27.7a9.47,9.47,0,0,1-1.82,3.59C885.85,996.87,884.75,996.92,883.63,997.31Z" style="fill: inherit;"/></g></svg>