<?xml version="1.0" encoding="UTF-8"?><svg xmlns="http://www.w3.org/2000/svg" xmlns:xlink="http://www.w3.org/1999/xlink" width="62px" height="50px" viewBox="0 0 61 50" version="1.1"><g id="surface1"><path style="stroke:none;fill-rule:nonzero;fill:rgb(51.372552%,52.549022%,47.843137%);fill-opacity:1" d="M 26.574219 1.734375 C 22.082031 2.347656 16.84375 4.738281 12.621094 8.121094 C 11.0625 9.363281 8.160156 12.15625 6.679688 13.835938 C 1.769531 19.386719 0.0234375 23.941406 1.53125 27.285156 C 2.027344 28.390625 2.972656 29.410156 3.910156 29.863281 C 6.984375 31.351562 13.214844 30.445312 18.613281 27.714844 C 19.070312 27.484375 19.472656 27.300781 19.519531 27.300781 C 19.558594 27.300781 19.597656 27.386719 19.597656 27.492188 C 19.597656 27.8125 20.097656 29.679688 20.472656 30.714844 C 20.671875 31.265625 21.097656 32.277344 21.433594 32.96875 C 21.769531 33.664062 22.011719 34.257812 21.984375 34.285156 C 21.839844 34.417969 19.480469 35.113281 17.804688 35.527344 C 15.265625 36.15625 13.421875 36.378906 11.214844 36.328125 C 9.835938 36.296875 9.417969 36.257812 8.648438 36.089844 C 2.507812 34.777344 -0.671875 29.960938 0.617188 23.933594 C 0.898438 22.636719 1.617188 20.851562 2.308594 19.730469 C 2.585938 19.285156 2.609375 19.25 2.5625 19.25 C 2.539062 19.25 2.339844 19.554688 2.105469 19.921875 C -0.367188 23.949219 -0.648438 28.28125 1.328125 31.769531 C 2.59375 34.003906 4.996094 35.714844 7.96875 36.503906 C 9.210938 36.832031 10.261719 36.964844 11.675781 36.964844 C 14.722656 36.964844 17.917969 36.273438 21.746094 34.792969 L 22.25 34.601562 L 22.722656 35.382812 C 24.699219 38.679688 27.609375 41.726562 30.859375 43.886719 C 35.371094 46.902344 40.726562 49.101562 45.292969 49.824219 C 46.503906 50.015625 49.632812 50.015625 50.746094 49.824219 C 53.792969 49.292969 55.953125 48.207031 57.773438 46.289062 C 59.300781 44.6875 60.285156 42.746094 60.664062 40.566406 C 60.839844 39.578125 60.839844 37.792969 60.664062 36.769531 C 60.535156 36.058594 60.109375 34.539062 60.046875 34.601562 C 60.03125 34.617188 60.109375 34.914062 60.207031 35.277344 C 60.550781 36.464844 60.640625 37.246094 60.597656 38.726562 C 60.550781 40.121094 60.457031 40.691406 60.109375 41.757812 C 59.421875 43.863281 58.0625 45.757812 56.28125 47.109375 C 54.800781 48.230469 53.191406 48.863281 50.820312 49.285156 C 49.707031 49.480469 46.742188 49.480469 45.484375 49.277344 C 43.613281 48.988281 41.320312 48.34375 39.039062 47.453125 C 36.761719 46.5625 33.207031 44.6875 30.996094 43.207031 C 28.753906 41.703125 26.390625 39.449219 24.726562 37.230469 C 22.546875 34.316406 20.855469 30.742188 20.191406 27.628906 C 19.953125 26.527344 19.9375 24.25 20.160156 23.242188 C 20.464844 21.816406 21.074219 20.367188 21.867188 19.179688 C 22.425781 18.335938 23.867188 16.871094 24.667969 16.34375 C 25.910156 15.519531 27.335938 14.921875 28.746094 14.640625 C 30.035156 14.371094 32.582031 14.363281 32.421875 14.625 C 32.375 14.699219 32.238281 14.691406 31.789062 14.601562 C 31.085938 14.449219 29.890625 14.5 29.011719 14.714844 C 26.222656 15.40625 24.597656 17.277344 24.363281 20.0625 C 24.300781 20.835938 24.46875 22 24.78125 22.953125 C 25.582031 25.34375 28.144531 29.070312 31.109375 32.15625 C 35.675781 36.902344 41.746094 40.535156 48.039062 42.285156 C 51.886719 43.351562 54.417969 43.414062 56.570312 42.492188 C 58.21875 41.785156 59.542969 40.429688 60.023438 38.957031 C 60.222656 38.34375 60.296875 36.902344 60.160156 36.144531 C 59.75 33.695312 57.402344 29.65625 54.40625 26.226562 C 53.527344 25.222656 51.667969 23.398438 50.707031 22.59375 C 47.375 19.792969 43.699219 17.691406 39.902344 16.410156 C 39.285156 16.203125 38.765625 16.027344 38.757812 16.027344 C 38.757812 16.027344 38.828125 15.734375 38.925781 15.375 C 39.261719 14.148438 39.367188 13.207031 39.320312 11.808594 C 39.246094 9.515625 38.6875 7.753906 37.460938 5.90625 C 36.507812 4.480469 35.015625 3.175781 33.601562 2.539062 C 32.871094 2.207031 32.863281 2.246094 33.589844 2.628906 C 35.835938 3.820312 37.539062 5.882812 38.390625 8.457031 C 38.839844 9.824219 38.925781 10.375 38.925781 12 C 38.925781 13.234375 38.894531 13.589844 38.75 14.300781 C 37.789062 18.820312 34.34375 24.457031 30.210938 28.242188 C 29.691406 28.710938 29.242188 29.109375 29.210938 29.125 C 29.144531 29.148438 28.472656 28.3125 28.523438 28.265625 C 28.539062 28.257812 28.84375 28.027344 29.203125 27.761719 C 30.699219 26.640625 32.925781 24.164062 34.070312 22.355469 C 34.488281 21.6875 35.242188 20.3125 35.203125 20.277344 C 35.195312 20.261719 34.953125 20.644531 34.671875 21.113281 C 33.160156 23.628906 30.933594 26.003906 28.675781 27.53125 C 28.113281 27.914062 28.21875 27.96875 27.457031 26.839844 L 26.910156 26.035156 L 27.121094 25.882812 C 28.546875 24.839844 30.902344 22.578125 32.085938 21.105469 C 33.527344 19.316406 34.695312 17.484375 35.609375 15.605469 C 36.15625 14.472656 36.699219 13.191406 36.652344 13.144531 C 36.636719 13.128906 36.546875 13.3125 36.449219 13.558594 C 36.148438 14.300781 35.1875 16.171875 34.679688 17.03125 C 32.839844 20.101562 30.308594 22.914062 27.449219 25.070312 C 27.054688 25.367188 26.710938 25.613281 26.6875 25.613281 C 26.664062 25.613281 26.457031 25.300781 26.238281 24.90625 L 25.824219 24.210938 L 26.125 23.941406 C 29.449219 20.949219 31.863281 18.25 33.277344 15.957031 C 35.195312 12.828125 36.011719 9.21875 35.378906 6.609375 C 35.082031 5.359375 34.335938 4.078125 33.40625 3.207031 C 32.519531 2.378906 31.660156 1.964844 30.316406 1.726562 C 29.484375 1.578125 27.648438 1.585938 26.574219 1.734375 Z M 30.179688 2.148438 C 30.964844 2.277344 31.828125 2.59375 32.324219 2.921875 C 33.269531 3.558594 34.128906 4.914062 34.480469 6.328125 C 34.679688 7.125 34.710938 8.742188 34.550781 9.578125 C 34.296875 10.859375 33.6875 12.460938 33 13.65625 L 32.621094 14.316406 L 32.222656 14.25 C 31.535156 14.117188 29.617188 14.148438 28.785156 14.300781 C 27.128906 14.59375 25.222656 15.398438 23.972656 16.34375 C 21.609375 18.121094 20.085938 20.644531 19.558594 23.65625 C 19.4375 24.339844 19.382812 26.527344 19.480469 26.6875 C 19.542969 26.777344 17.46875 27.8125 16.28125 28.289062 C 12.359375 29.847656 8.195312 30.476562 5.589844 29.90625 C 5.214844 29.824219 5.191406 29.808594 5.222656 29.617188 C 5.238281 29.5 5.300781 29.148438 5.34375 28.835938 C 5.65625 26.769531 7.128906 23.851562 9.417969 20.742188 C 10.5625 19.195312 11.476562 18.152344 13.007812 16.640625 C 15.523438 14.164062 18.253906 12.199219 21.617188 10.460938 C 25.976562 8.191406 29.25 7.546875 32.765625 8.242188 C 32.976562 8.28125 32.976562 8.28125 32.789062 8.207031 C 32.679688 8.160156 32.183594 8.050781 31.683594 7.960938 C 30.386719 7.738281 28.296875 7.792969 26.917969 8.089844 C 23.589844 8.796875 19.472656 10.828125 15.746094 13.613281 C 12.503906 16.019531 9.675781 19.125 7.601562 22.539062 C 6.007812 25.152344 5.230469 27.125 5.039062 29.019531 C 5.003906 29.386719 4.957031 29.699219 4.933594 29.722656 C 4.878906 29.777344 4.179688 29.492188 3.78125 29.265625 C 3.402344 29.042969 3.234375 28.695312 2.972656 27.570312 C 2.144531 24.027344 3.101562 20.199219 5.886719 15.996094 C 7.144531 14.09375 7.945312 13.113281 9.355469 11.71875 C 11.492188 9.601562 12.808594 8.464844 14.640625 7.179688 C 18.460938 4.480469 23.203125 2.53125 26.917969 2.125 C 27.511719 2.0625 29.730469 2.078125 30.179688 2.148438 Z M 31.980469 15.277344 C 31.558594 16.003906 29.746094 18.152344 28.28125 19.664062 L 27.015625 20.964844 L 26.445312 21.019531 C 26.125 21.050781 25.65625 21.15625 25.382812 21.273438 C 25.117188 21.378906 24.886719 21.449219 24.859375 21.425781 C 24.835938 21.402344 24.820312 20.980469 24.820312 20.492188 C 24.820312 19.59375 24.820312 19.59375 25.140625 18.917969 C 25.71875 17.699219 26.566406 16.710938 27.464844 16.195312 C 28.152344 15.804688 29.5625 15.421875 30.882812 15.269531 C 31.78125 15.167969 32.039062 15.167969 31.980469 15.277344 Z M 39.710938 16.59375 C 46.335938 18.84375 52.6875 23.84375 56.761719 30.023438 C 58.894531 33.257812 59.78125 35.390625 59.78125 37.292969 C 59.78125 37.984375 59.628906 38.734375 59.414062 39.15625 L 59.277344 39.433594 L 59.277344 38.183594 C 59.277344 36.394531 59.011719 35.328125 58.125 33.558594 C 56.875 31.042969 54.128906 27.398438 52.140625 25.605469 C 51.53125 25.0625 51.539062 25.078125 52.390625 25.972656 C 55.265625 28.996094 57.859375 33.113281 58.613281 35.867188 C 58.804688 36.550781 58.820312 36.742188 58.820312 37.921875 C 58.828125 39.679688 58.675781 40.390625 58.222656 40.828125 C 57.789062 41.242188 56.972656 41.765625 56.355469 42.015625 C 55.875 42.222656 54.96875 42.484375 54.761719 42.484375 C 54.703125 42.484375 54.671875 42.261719 54.671875 41.726562 C 54.671875 39.953125 54.078125 38.265625 52.574219 35.742188 C 49.050781 29.855469 43.445312 25.144531 37.019531 22.660156 C 36.394531 22.421875 35.867188 22.214844 35.851562 22.199219 C 35.84375 22.191406 36.042969 21.824219 36.300781 21.386719 C 36.964844 20.269531 37.804688 18.527344 38.285156 17.300781 C 38.507812 16.726562 38.695312 16.257812 38.703125 16.257812 C 38.710938 16.257812 39.160156 16.410156 39.710938 16.59375 Z M 26.117188 21.75 C 25.824219 22.023438 25.492188 22.316406 25.375 22.398438 L 25.164062 22.554688 L 25.09375 22.378906 C 25.0625 22.277344 25.011719 22.09375 24.988281 21.964844 C 24.941406 21.726562 24.957031 21.710938 25.375 21.527344 C 25.886719 21.296875 26.023438 21.265625 26.382812 21.257812 L 26.648438 21.25 Z M 37.628906 23.175781 C 43.445312 25.621094 48.746094 30.246094 52.019531 35.734375 C 53.566406 38.320312 54.128906 39.921875 54.136719 41.695312 L 54.136719 42.554688 L 53.785156 42.605469 C 52.886719 42.738281 50.78125 42.460938 48.808594 41.941406 C 42.53125 40.300781 36.59375 36.863281 31.863281 32.132812 C 30.78125 31.050781 29.417969 29.53125 29.449219 29.449219 C 29.464844 29.417969 29.828125 29.085938 30.269531 28.703125 C 31.941406 27.253906 33.855469 25.105469 35.144531 23.222656 L 35.707031 22.40625 L 36.210938 22.601562 C 36.484375 22.699219 37.125 22.960938 37.628906 23.175781 Z M 37.628906 23.175781 "/><path style="stroke:none;fill-rule:nonzero;fill:rgb(51.372552%,52.549022%,47.843137%);fill-opacity:1" d="M 16.195312 11.933594 C 12.445312 14.21875 9.460938 17.277344 6.976562 21.433594 C 6.335938 22.507812 4.726562 25.765625 4.84375 25.765625 C 4.855469 25.765625 5.007812 25.5 5.191406 25.167969 C 5.773438 24.09375 6.953125 22.140625 7.648438 21.089844 C 10.003906 17.515625 12.429688 14.929688 15.785156 12.4375 C 17.4375 11.195312 17.484375 11.148438 16.195312 11.933594 Z M 16.195312 11.933594 "/><path style="stroke:none;fill-rule:nonzero;fill:rgb(51.372552%,52.549022%,47.843137%);fill-opacity:1" d="M 40.71875 23.644531 C 40.742188 23.664062 41.433594 24.132812 42.265625 24.691406 C 46.023438 27.214844 48.882812 29.699219 50.835938 32.164062 C 52.550781 34.324219 54.238281 37.15625 54.746094 38.75 C 54.839844 39.042969 54.929688 39.257812 54.945312 39.242188 C 55.015625 39.171875 54.410156 37.578125 53.984375 36.671875 C 52.003906 32.523438 48.738281 28.902344 44.148438 25.75 C 43.027344 24.984375 40.542969 23.449219 40.71875 23.644531 Z M 40.71875 23.644531 "/><path style="stroke:none;fill-rule:nonzero;fill:rgb(51.372552%,52.549022%,47.843137%);fill-opacity:1" d="M 25.039062 16.886719 L 24.894531 17.0625 L 25.070312 16.917969 C 25.230469 16.777344 25.277344 16.71875 25.214844 16.71875 C 25.199219 16.71875 25.125 16.792969 25.039062 16.886719 Z M 25.039062 16.886719 "/><path style="stroke:none;fill-rule:nonzero;fill:rgb(51.372552%,52.549022%,47.843137%);fill-opacity:1" d="M 24.675781 17.355469 C 24.40625 17.707031 23.964844 18.664062 23.828125 19.210938 C 23.445312 20.691406 23.554688 22.207031 24.148438 23.871094 C 25.125 26.601562 28.144531 30.589844 31.78125 33.941406 C 33.976562 35.964844 38.515625 39.316406 40.832031 40.621094 C 43.996094 42.40625 47.113281 43.550781 50.332031 44.101562 C 51.660156 44.324219 54.273438 44.394531 55.25 44.21875 C 56.804688 43.949219 58.085938 43.390625 58.804688 42.667969 C 59.460938 42.007812 59.941406 40.988281 60.046875 40.054688 L 60.09375 39.609375 L 59.804688 40.152344 C 58.828125 41.957031 57.445312 42.9375 55.234375 43.382812 C 54.246094 43.582031 52.199219 43.558594 50.972656 43.335938 C 48.371094 42.867188 44.742188 41.640625 41.890625 40.269531 C 35.953125 37.398438 30.730469 33.097656 26.765625 27.800781 C 24.703125 25.046875 23.789062 22.890625 23.789062 20.789062 C 23.789062 19.625 24.125 18.351562 24.636719 17.554688 C 24.957031 17.0625 24.972656 16.957031 24.675781 17.355469 Z M 24.675781 17.355469 "/><path style="stroke:none;fill-rule:nonzero;fill:rgb(51.372552%,52.549022%,47.843137%);fill-opacity:1" d="M 22.21875 19.515625 C 21.496094 20.628906 20.976562 21.886719 20.65625 23.304688 C 20.425781 24.285156 20.375 26.3125 20.550781 27.40625 C 20.679688 28.234375 20.863281 28.910156 20.777344 28.25 C 20.527344 26.195312 20.542969 25.039062 20.855469 23.503906 C 21.144531 22.054688 21.832031 20.292969 22.539062 19.15625 C 22.636719 18.996094 22.707031 18.863281 22.683594 18.863281 C 22.660156 18.863281 22.457031 19.15625 22.21875 19.515625 Z M 22.21875 19.515625 "/><path style="stroke:none;fill-rule:nonzero;fill:rgb(51.372552%,52.549022%,47.843137%);fill-opacity:1" d="M 0.488281 26.609375 C 0.609375 28.835938 2.304688 30.835938 4.980469 31.910156 C 6.167969 32.394531 7.914062 32.753906 9.78125 32.898438 C 12.742188 33.136719 16.644531 32.398438 18.949219 31.179688 C 19.246094 31.027344 19.414062 30.921875 19.328125 30.941406 C 19.246094 30.972656 18.765625 31.136719 18.261719 31.304688 C 16.667969 31.832031 14.738281 32.214844 12.960938 32.347656 C 12.519531 32.378906 11.476562 32.378906 10.636719 32.347656 C 6.414062 32.199219 3.308594 31.066406 1.738281 29.078125 C 1.074219 28.234375 0.761719 27.578125 0.5625 26.570312 L 0.457031 26.035156 Z M 0.488281 26.609375 "/><path style="stroke:none;fill-rule:nonzero;fill:rgb(51.372552%,52.549022%,47.843137%);fill-opacity:1" d="M 20.824219 28.726562 C 20.824219 28.8125 20.847656 28.835938 20.871094 28.773438 C 20.890625 28.71875 20.886719 28.648438 20.863281 28.628906 C 20.839844 28.597656 20.816406 28.644531 20.824219 28.726562 Z M 20.824219 28.726562 "/><path style="stroke:none;fill-rule:nonzero;fill:rgb(51.372552%,52.549022%,47.843137%);fill-opacity:1" d="M 24.371094 32.667969 C 24.542969 33.027344 25.398438 34.402344 25.949219 35.199219 C 27.160156 36.949219 28.960938 38.949219 30.652344 40.445312 C 32.664062 42.222656 34.824219 43.648438 37.109375 44.699219 C 41.207031 46.585938 45.894531 47.546875 49.8125 47.308594 C 51.558594 47.191406 51.613281 47.125 49.960938 47.109375 C 46.4375 47.085938 42.882812 46.34375 39.148438 44.855469 C 35.265625 43.3125 32.085938 41.171875 28.851562 37.921875 C 27.085938 36.148438 25.839844 34.664062 24.378906 32.59375 C 24.246094 32.40625 24.246094 32.40625 24.371094 32.667969 Z M 24.371094 32.667969 "/></g></svg>