<svg xmlns="http://www.w3.org/2000/svg" xmlns:xlink="http://www.w3.org/1999/xlink" preserveAspectRatio="xMidYMid meet" version="1.0" viewBox="-2.9 -0.2 328.4 326.7" zoomAndPan="magnify" style="fill: rgb(0, 0, 0);" original_string_length="58162"><g id="__id0_s4ob3a8l4k"><path d="M304.01,4.95c-8.12-3.43-17.11-4.42-25.92-4.04c-0.74,0.03-1.48,0.07-2.22,0.12 c-13.02,0.9-25.49,5.17-37.04,11.1c-12.17,6.24-22.88,15.4-34.35,22.92c-11.92,7.82-24.36,15.24-37.89,19.57 c-0.09-0.16-0.2-0.31-0.32-0.45c-1.49-1.72-4.22-1.31-6.42-0.74c-3.8,0.97-5.71,1.26-7.57,4.84l0.06-2.01 c-11.49-2.57-21.56-7.26-32.3-12.11c-14.27-6.44-29.87-9.65-45.51-10.5c-20.58-1.12-42.07,4.2-58.36,18.12 C6.92,59.68-2.89,80.3,0.8,93.15l0,0.02l0.02,0.03c0.71,2.46,1.91,4.63,3.71,6.37l-1.73-2.1c-0.28-0.63-0.48-1.27-0.61-1.92 l2.34,4.02c6.15,6.52,12.83,10.75,21.1,13.2c22.21,6.59,43.48,1.47,64.49-6.73c16.21-6.33,32.21-13.56,46.9-22.82 c-14.14,19.75-18.19,45.78-16.21,70.21c0.75,9.23,2.27,18.44,2.02,27.7c-0.25,9.25-2.5,15.81-6.68,23.81 c-4.14,7.93-7.7,16.2-9.94,24.88c-3.58,13.91-3.7,28.48-6.4,42.59c-2.7,14.11-8.67,28.57-20.63,36.53 c9.21,1.46,16.19,17.57,24.95,14.75c12.89-7.97,17.06-24.78,17.46-39.93c0.41-15.15-1.73-30.79,3.17-45.13 c2.95-8.64,8.3-16.25,11.9-24.64c7.87-18.35,6.95-39.14,5.18-59.02c-2.04-22.97-6.07-50.54,4.95-71.88 c1.63-3.15,3.65-6.22,6.56-8.26l0.73-0.59c0.99,0.6,2.1,1.02,3.23,1.22c1.07,0.19,2.16,0.21,3.24,0.12l0.47,0.84 c10.11,14.43,9.05,33.78,15.3,50.25c2.69,7.09,7.32,11.88,11.77,17.96c4.52,6.18,8.56,12.74,11.56,19.79 c3.9,9.19,7.3,21.86,4.89,31.75c-2.97,12.2-8.33,23.75-11.11,36.07c-3.48,15.43-3.86,28.53,2.69,43.05 c3.35,7.43,7.43,14.52,12.16,21.15c2.44,3.42,5.05,6.71,7.82,9.86c3.93,5.56,20.01,4.8,23.45,1.57 c-1.57-2.06-9.97-12.08-12.61-16.76c-3.47-6.15-6.58-12.92-9.15-19.49c-5.58-14.29-7.31-30.08-4.85-45.22 c2.56-15.72,8.4-30.12,8.54-46.21c0.13-14.92-5.13-29.91-14.86-41.27c-3.33-3.88-7.14-7.36-10.13-11.51 c-6.43-8.92-8.51-19.96-11.84-30.22c-3.06-9.41-4.71-19.41-13.15-25.37l0,0c18.04,3.11,47.1,5.94,64.24,7.28 c22.48,1.76,47.12,2.51,67.65-8.2c3.57-1.86,7.58-3.67,9.69-7.1c5.59-9.06,7.57-15.7,9.17-24.94c-0.78,4.48-9.73,12.34-15.17,15.12 c-18.95,9.68-78.25,11.77-109.93,5.11h0c13.04-5.88,25.13-13.75,37.21-21.4c15.3-9.7,30.27-18.02,48.73-19.85 c0.72-0.07,1.44-0.13,2.16-0.19c7.13-0.53,14.74-0.05,21.06,3.63c5.89,3.42,16.39,10.23,15.93,17.58c0.75-2.78,1.72-9.21,1.67-12.91 C323.82,16.37,312.01,8.33,304.01,4.95z M15.93,74.89c19.95-14.47,56.3-26.27,75.21-21.49c16.95,4.28,32.25,13.27,49.07,17.96 c1.65,0.46,3.33,0.87,5.02,1.14l-0.5,0.67l-1.06,0c-14.85,9.9-30.74,18.57-47.78,24.06C69.71,105.67,26.16,108.03,15.93,74.89z" style="fill: #a6a998;"/></g><g id="__id1_s4ob3a8l4k"><path clip-rule="evenodd" d="M325.41,23.93c-0.65-3.6-2.26-6.19-3.91-8.2 c-1.68-2.01-3.5-3.48-5.54-4.67c-0.5-0.58-0.99-1.06-1.49-1.49c-0.51-0.41-1.04-0.77-1.59-1.15c-1.14-0.72-2.41-1.48-4.16-2.61 c-1.87-0.8-3.91-1.6-5.85-2.16c-1.94-0.57-3.77-0.94-5.19-1.07c-1.6-0.72-2.54-0.54-4.65-1.02c-3.77-0.86-8.08-1.49-11.65-1.3 c-0.88-0.1-1.68-0.25-2.94-0.12c-0.27-0.15-2.57-0.34-2.19,0.29c-1.35,0.32,1.08-0.03,0.75,0.32c-0.13,0.36-1.4,0.22-1.05,0.78 c4.44,0.51,9.64,0.35,13.96,1.39c2.32,0.24,4.43,0.7,6.23,1.31c3.62,0.59,7.47,1.88,9.47,2.81c1.45,0.6,3.62,2.1,4.55,2.1 c0.2,0,0.3,0.4,0.2,0.35c1.7,0.94,2.95,2,4.1,2.99c0.57,0.5,1.09,1.02,1.66,1.5c0.52,0.52,1.1,1,1.69,1.51 c0.47,0.43,0.96,0.79,1.42,1.16c0.45,0.38,0.92,0.74,1.39,1.11c1.4,2.55,2.67,5.47,2.79,8.62c-0.59,1.13-0.19,2.12-0.61,3.92 c-0.05,0.67-0.11,1.31-0.18,1.94c-0.1-0.25-0.2-0.53-0.42-0.96c-0.5-0.78-0.83-1.37-1.15-2.19c-0.14-0.14-0.08-0.21-0.3-0.31 c-0.13-0.38-0.36-1.04-0.66-1.32c0.08-0.25-0.33-0.69-0.41-1c-0.75-1.33-1.62-2.41-2.46-3.63c-0.93-1.13-1.6-1.87-2.51-2.41 c-0.34-0.61-0.74-0.76-1.36-1.44c-0.74-0.51-1.61-1.08-2.19-1.35c-0.25-0.31-0.49-0.32-0.86-0.62c-0.66-0.56-1.41-1.18-2.13-1.54 c-0.15-0.13-0.28-0.26-0.54-0.38c-0.03-0.07-0.41-0.43-0.46-0.2c-0.3-0.08,0.2,0.13,0.08,0.19c-0.09,0.08-0.3-0.12-0.33,0.09 c0.36,0.37,0.8,0.68,1.25,0.98c0.43,0.32,0.87,0.64,1.25,0.97c0.44,0.29,0.82,0.6,1.14,0.89c0.71,0.44,1.47,0.96,1.86,1.27 c0.28,0.22,0.68,0.66,0.92,0.66c0.05,0,0.04,0.11,0.02,0.1c0.67,0.57,0.98,1.09,1.55,1.54c0.23,0.18,0.47,0.31,0.73,0.43 c0.37,0.55,0.81,1.13,1.33,1.65c0.01,0.33,0.26,0.41,0.45,0.78c1.21,1.48,1.76,2.43,2.53,4.13c0.12,0.19,0.26,0.24,0.38,0.44 c0.3,0.95,0.99,2.03,1.42,2.73c0.11,0.18,0.18,0.34,0.27,0.5c0.1,0.16,0.2,0.27,0.28,0.41c0.09,0.16,0.15,0.33,0.22,0.49 c-0.01,0.13-0.03,0.25-0.05,0.37c-0.06-0.27-0.17-0.54-0.34-0.86c-0.34-0.5-0.77-1.21-1.52-2.23c0.09-0.39-0.5-0.58-1.13-1.31 c-1.58-1.19-1.9-1.97-3.75-3.45c-1.69-1.05-2.88-1.82-4.27-2.74c-1.42-0.91-2.94-1.96-5.64-3.35c-2.91-1.21-5.57-1.82-8.18-2.25 c-2.62-0.41-5.22-0.64-8.13-0.74c-1.27,0.22-1.47-0.02-2.72,0.44c-2.63-0.07-7.21,0.05-9.75,0.95c-1.23-0.42-5.01,0.77-7.05,1.04 c-4.91,1.22-9.43,2.95-13.78,4.89c-4.35,1.95-8.54,4.12-12.84,6.4c-8.32,4.84-13.65,8.4-18.94,12.6c-4.02,1.8-5.89,3.64-11.24,6.4 c-4.83,3.3-10.7,6.57-14.24,8.74c-2.43,0.8-3.43,1.67-6.42,2.81c-2.67,1.01-5.55,1.88-8.37,2.71c-2.85,0.75-5.65,1.42-8.15,2.21 c-1.28,0.24-2.44,0.4-4.2,0.96c-0.41-0.04-3.75,0.49-3.09,1.01c-0.06,0.02-0.09,0.04-0.14,0.06c-0.01-0.03-0.03-0.06-0.04-0.09 c-0.43-0.34-0.27-0.54-0.88-0.76c-0.11-0.26-0.24-0.57-0.39-0.9c1.43-0.2,2.98-0.75,4.37-1.06c0.75-0.27,1.44-0.5,2.07-0.66 c1.16-0.5,2.42-1.04,3.11-1.34c0.49-0.21,1.34-0.47,1.53-0.72c0.04-0.05,0.17,0,0.13,0.01c1.19-0.55,2.07-0.71,3.01-1.23 c0.38-0.21,0.69-0.44,1.01-0.69c0.93-0.28,1.93-0.72,2.89-1.21c0.43,0.01,0.67-0.26,1.25-0.45c2.54-1.29,4-1.94,6.53-3.1 c0.3-0.17,0.39-0.33,0.69-0.5c1.38-0.53,2.97-1.61,3.95-2.32c0.25-0.18,0.48-0.3,0.7-0.47c0.22-0.17,0.37-0.32,0.56-0.47 c0.42-0.31,0.89-0.51,1.18-0.83c0.2-0.01,0.55-0.27,0.85-0.45c0.15-0.16,0.5-0.33,0.55-0.48c0.19-0.16,0.76-0.35,0.55-0.48 c-0.12-0.14-0.56,0.22-0.88,0.4c-0.24-0.06-0.31,0.11-0.78,0.33c-0.09-0.06-0.13,0.09-0.31,0.19c-0.29,0.31-0.5,0.29-0.93,0.55 c-0.65,0.56-1.02,0.7-2.12,1.37c-1.07,0.8-1.94,1.31-3.09,1.85c-0.21,0.19-0.29,0.14-0.47,0.39c-0.55,0.21-1.48,0.56-1.94,0.95 c-0.31-0.06-1.03,0.43-1.47,0.54c-2.01,0.93-3.79,1.85-5.79,2.61c-1.94,0.86-3.25,1.4-4.53,2.2c-0.97,0.18-1.43,0.58-2.72,0.95 c-1.16,0.6-2.55,1.17-3.36,1.64c-0.57,0.09-0.79,0.31-1.47,0.52c-1.22,0.36-2.59,0.69-3.68,1.1c-0.29,0.05-0.55,0.08-0.93,0.23 c-0.08-0.02-0.59,0.06-0.68,0.19c-0.09-0.16-0.18-0.32-0.28-0.48c-0.19-0.31-0.42-0.62-0.63-0.86c-0.21-0.24-0.4-0.41-0.59-0.54 c0.11-0.23,0.12-0.42,0.14-0.58c1.38-0.17,2.85-0.57,4.18-0.81c0.79-0.24,1.53-0.45,2.19-0.58c1.23-0.47,2.58-0.97,3.3-1.25 c0.52-0.2,1.42-0.44,1.63-0.69c0.04-0.05,0.18,0,0.14,0.02c1.26-0.54,2.19-0.67,3.18-1.19c0.41-0.21,0.74-0.44,1.08-0.69 c0.98-0.28,2.02-0.71,3.03-1.2c0.45,0.01,0.7-0.27,1.31-0.45c2.67-1.31,4.19-1.99,6.83-3.21c0.31-0.18,0.41-0.34,0.72-0.52 c1.43-0.57,3.08-1.71,4.09-2.46c0.26-0.19,0.5-0.32,0.72-0.5c0.23-0.18,0.38-0.34,0.58-0.5c0.43-0.33,0.91-0.55,1.21-0.89 c0.2-0.02,0.57-0.31,0.87-0.5c0.15-0.17,0.51-0.36,0.56-0.51c0.2-0.17,0.78-0.39,0.56-0.51c-0.13-0.14-0.58,0.25-0.9,0.44 c-0.25-0.04-0.31,0.12-0.8,0.38c-0.1-0.06-0.13,0.1-0.31,0.2c-0.3,0.33-0.51,0.31-0.95,0.6c-0.67,0.6-1.04,0.75-2.18,1.46 c-1.1,0.84-2,1.39-3.2,1.96c-0.22,0.2-0.3,0.15-0.49,0.41c-0.57,0.23-1.54,0.6-2.02,1c-0.32-0.06-1.07,0.45-1.53,0.57 c-2.09,0.97-3.95,1.9-6.05,2.67c-2.03,0.86-3.41,1.38-4.78,2.17c-1.02,0.16-1.5,0.56-2.86,0.9c-1.24,0.58-2.71,1.1-3.57,1.55 c-0.6,0.07-0.84,0.28-1.56,0.46c-0.32,0.08-0.65,0.16-0.98,0.23c0.73-0.37,1.51-0.76,1.93-0.97c0.31-0.15,0.88-0.32,0.98-0.54 c0.02-0.05,0.12,0.01,0.1,0.02c0.76-0.4,1.37-0.46,1.96-0.86c0.24-0.16,0.43-0.34,0.62-0.54c0.62-0.17,1.28-0.45,1.89-0.81 c0.31,0.06,0.44-0.17,0.84-0.27c1.65-0.89,2.61-1.31,4.31-2.02c0.19-0.11,0.24-0.25,0.44-0.36c0.93-0.29,1.96-1.04,2.59-1.54 c0.16-0.13,0.31-0.2,0.45-0.32c0.14-0.12,0.23-0.24,0.35-0.34c0.27-0.22,0.59-0.33,0.76-0.57c0.15,0.02,0.38-0.16,0.58-0.27 c0.09-0.12,0.33-0.22,0.35-0.34c0.12-0.11,0.52-0.19,0.35-0.34c-0.11-0.15-0.39,0.11-0.61,0.22c-0.19-0.09-0.21,0.05-0.54,0.17 c-0.08-0.07-0.08,0.06-0.2,0.12c-0.18,0.23-0.33,0.18-0.62,0.35c-0.41,0.41-0.66,0.47-1.38,0.92c-0.68,0.56-1.25,0.91-2.02,1.23 c-0.13,0.15-0.19,0.09-0.29,0.29c-0.37,0.12-1.01,0.31-1.29,0.6c-0.24-0.1-0.69,0.26-1,0.3c-1.33,0.59-2.48,1.23-3.81,1.72 c-1.26,0.58-2.12,0.95-2.92,1.58c-0.66,0.07-0.93,0.4-1.79,0.63c-0.74,0.46-1.63,0.88-2.13,1.26c-0.38,0.04-0.51,0.23-0.96,0.38 c-0.8,0.25-1.71,0.46-2.41,0.78c-0.03,0.01-0.07,0.01-0.1,0.02c0.03-0.03,0.05-0.06,0.08-0.08c1.06-1.46,2.48-3.52,2.27-6.05 c-0.03-0.38-0.11-0.77-0.23-1.16c2.24-0.26,4.52-1.21,6.66-1.66c1.22-0.57,2.38-0.99,3.45-1.3c1.83-1.1,3.83-2.3,4.92-2.95 c0.78-0.44,2.2-0.97,2.36-1.62c0.03-0.14,0.32,0.03,0.26,0.06c1.85-1.21,3.4-1.46,4.79-2.64c0.57-0.48,0.98-1.04,1.39-1.64 c1.56-0.56,3.15-1.45,4.59-2.55c0.85,0.14,1.09-0.52,2.08-0.87c3.89-2.79,6.23-4.08,10.35-6.35c0.45-0.35,0.51-0.75,0.96-1.1 c2.32-0.97,4.62-3.26,6.03-4.75c0.36-0.38,0.72-0.62,1.04-0.97c0.31-0.35,0.48-0.7,0.77-1c0.61-0.64,1.4-0.98,1.75-1.71 c0.4,0.06,0.93-0.47,1.42-0.79c0.19-0.34,0.78-0.63,0.78-0.99c0.28-0.33,1.31-0.57,0.78-0.99c-0.36-0.43-1,0.33-1.53,0.64 c-0.54-0.25-0.55,0.15-1.36,0.53c-0.25-0.2-0.19,0.18-0.49,0.35c-0.37,0.67-0.8,0.55-1.48,1.06c-0.88,1.23-1.55,1.39-3.22,2.77 c-1.52,1.69-2.82,2.77-4.7,3.8c-0.27,0.43-0.46,0.28-0.61,0.87c-0.91,0.4-2.49,1.03-3.08,1.9c-0.67-0.25-1.68,0.83-2.47,1 c-3.21,1.85-5.92,3.84-9.17,5.4c-3.03,1.83-5.1,2.95-6.9,4.86c-1.71,0.26-2.27,1.21-4.4,1.95c-1.75,1.33-3.91,2.62-5.12,3.68 c-0.99,0.12-1.26,0.68-2.39,1.06c-2.03,0.69-4.34,1.19-6.1,2.03c-0.49,0.07-0.95,0.06-1.57,0.35c-0.07-0.04-0.32-0.04-0.57-0.01 c-0.2-0.26-0.42-0.5-0.68-0.72c-1.06-0.92-2.4-1.24-3.56-1.34c-2.33,0-3.9,0.58-5.27,0.98c-1.38,0.44-2.88,1.07-3.92,2.33 c-0.71,0.26-1.2,0.68-1.59,1.16c-6.84-2.33-14.69-5.09-21.15-8.36c-3.7-1.53-7.04-3.11-9.98-4.62c-2.98-1.21-6.17-2.39-9.07-3.32 c-2.91-0.92-5.54-1.66-7.41-2.13c-2.62-0.7-7.03-1.96-8.48-1.72c-0.31,0.04-0.76-0.34-0.56-0.3c-6.6-1.12-11.01-2.22-16.48-2.37 c-1.12-0.03-2.16-0.01-3.18,0.06c-1.01,0.05-2,0.14-3.01,0.27c-4.94-0.51-10.53-0.38-15.97,0.51c-2.05-0.33-3.65,0.39-6.76,0.75 c-7.13,1.65-12.53,3.56-17.71,5.84c-5.17,2.31-10.16,5.01-15.91,9.34c-1.35,1.12-1.84,1.89-3.06,3.19 c-2.87,2.55-5.45,6.16-7.43,9.86c-1.98,3.7-3.36,7.49-4.2,10.47c-0.41,1.51-0.83,2.79-1.08,4.19c-0.26,1.38-0.3,2.45-0.43,3.68 c-0.3,2.62-0.65,5.19-0.15,7.29c-0.25,0.89,0.08,3.12,0.59,4.79c0.07,0.16,0.15,0.35,0.24,0.54c0,0.03,0,0.06,0,0.09 c-0.03,0.1-0.07,0.4-0.1,0.8c0.02,0.39,0.03,0.87,0.12,1.3c0.17,0.88,0.55,1.56,0.77,1.2c0.48,0.93,0.34,0.54,0.15-0.03 c-0.23-0.56-0.33-1.35-0.13-1.13c0.34,0.15,0.8,1.92,1.17,1.26c-0.01-0.05-0.02-0.1-0.03-0.15c0.28,0.43,0.59,0.89,0.9,1.27 c0.54,0.59,0.97,0.97,1.01,0.53c0.17-0.26-0.29-0.78-0.82-1.49c-0.25-0.36-0.57-0.73-0.8-1.16c-0.24-0.39-0.47-0.78-0.62-1.15 c-0.05-0.82-0.01-1.65,0.13-2.47c0.3-1.55,0.92-3.08,1.75-4.52c0.84-1.46,1.88-2.82,3.02-4.07c0.02,0.13,0.03,0.26,0.02,0.39 c0.08,0.23,0.14,0.44,0.14,0.65c0.2,0.36,0.41,0.73,0.51,0.91c0.07,0.14,0.11,0.42,0.29,0.43c0.04,0-0.04,0.07-0.04,0.06 c0.21,0.34,0.14,0.66,0.38,0.9c0.1,0.1,0.23,0.17,0.37,0.23c0.03,0.31,0.16,0.61,0.35,0.87c-0.12,0.19,0.06,0.21,0.08,0.41 c0.48,0.72,0.67,1.15,0.99,1.94c0.06,0.08,0.17,0.07,0.24,0.15c0.09,0.47,0.57,0.85,0.88,1.06c0.08,0.06,0.12,0.12,0.2,0.17 c0.08,0.04,0.16,0.06,0.23,0.1c0.14,0.09,0.18,0.25,0.36,0.27c-0.04,0.1,0.07,0.17,0.13,0.26c0.08,0.01,0.13,0.13,0.23,0.09 c0.07,0.03,0.08,0.25,0.23,0.09c0.14-0.13-0.03-0.2-0.09-0.3c0.1-0.15-0.01-0.11-0.06-0.27c0.07-0.07-0.04-0.03-0.07-0.08 c-0.16-0.02-0.1-0.14-0.19-0.25c-0.28-0.1-0.28-0.24-0.54-0.52c-0.36-0.22-0.56-0.45-0.7-0.8c-0.1-0.03-0.04-0.08-0.2-0.08 c-0.04-0.18-0.09-0.5-0.29-0.57c0.13-0.17-0.1-0.33-0.08-0.49c-0.27-0.59-0.61-1.08-0.78-1.69c-0.27-0.56-0.42-0.94-0.83-1.25 c0.08-0.34-0.17-0.42-0.2-0.83c-0.26-0.31-0.47-0.71-0.71-0.91c0.04-0.19-0.1-0.23-0.14-0.44c-0.05-0.34-0.06-0.72-0.17-1.03 c0.98-1.01,2.01-1.95,3.06-2.78c0.38-0.36,0.76-0.68,1.14-1.02c0.04,0.64,0.13,1.31,0.25,1.99c0.19,0.8,0.41,1.59,0.55,2.35 c0.28,0.76,0.54,1.46,0.72,2.1c0.25,0.59,0.61,1.17,0.88,1.71c0.28,0.54,0.53,1.02,0.74,1.34c0.28,0.46,0.66,1.29,0.94,1.44 c0.06,0.03,0.03,0.17,0.01,0.14c0.78,1.08,1.08,1.96,1.83,2.76c0.31,0.33,0.61,0.58,0.93,0.83c0.51,0.85,1.25,1.67,2,2.46 c0.14,0.41,0.48,0.54,0.86,1.04c2.14,1.95,3.35,3.03,5.63,4.72c0.3,0.18,0.49,0.19,0.78,0.37c0.58,0.47,1.35,0.87,2.08,1.25 c0.74,0.36,1.51,0.6,2.08,0.81c0.29,0.1,0.53,0.23,0.81,0.29c0.27,0.07,0.49,0.09,0.73,0.15c0.51,0.14,0.96,0.38,1.4,0.41 c0.14,0.14,0.58,0.23,0.91,0.33c0.22,0.01,0.59,0.15,0.73,0.09c0.25,0.04,0.78,0.33,0.73,0.09c0.02-0.19-0.55-0.27-0.89-0.39 c-0.12-0.22-0.29-0.16-0.77-0.35c-0.02-0.11-0.15-0.03-0.34-0.1c-0.43,0-0.54-0.2-1.01-0.37c-0.84-0.17-1.19-0.32-2.37-0.85 c-1.28-0.39-2.18-0.87-3.25-1.56c-0.28-0.08-0.28-0.16-0.58-0.21c-0.45-0.38-1.22-1.03-1.78-1.25c-0.09-0.31-0.84-0.75-1.14-1.09 c-0.88-0.67-1.62-1.42-2.42-2.1c-0.73-0.75-1.49-1.46-2.14-2.31c-0.69-0.8-1.28-1.46-1.76-2.11c-0.5-0.63-1.01-1.16-1.51-1.73 c-0.36-0.93-0.86-1.28-1.4-2.53c-0.79-1.06-1.43-2.42-1.97-3.2c-0.11-0.57-0.33-0.79-0.56-1.47c-0.22-0.6-0.36-1.27-0.52-1.91 c-0.17-0.64-0.33-1.26-0.48-1.83c-0.03-0.29-0.03-0.56-0.14-0.96c0.03-0.09-0.01-0.75-0.18-0.7c0.96-0.82,1.92-1.57,2.89-2.25 c0.67,3.02,2.24,6.09,3.63,8.76c0.53,0.82,1.14,1.54,1.66,2.27c0.51,0.74,1.04,1.4,1.54,2.05c1.11,1.09,2.42,2.07,3.57,2.97 c1.21,0.83,2.26,1.59,3.06,2.04c0.56,0.32,1.23,0.88,1.93,1.24c0.69,0.37,1.34,0.66,1.74,0.6c0.17-0.03,0.25,0.34,0.17,0.3 c1.46,0.62,2.6,1.31,3.74,1.83c0.57,0.27,1.11,0.53,1.68,0.76c0.58,0.2,1.17,0.37,1.81,0.51c1.04,0.24,1.99,0.19,2.97,0.16 c1.06,0.5,2.25,0.81,3.47,1.14c1.23,0.26,2.5,0.5,3.78,0.59c0.84,0.68,1.67,0.39,3.09,0.76c3.4,0.25,6.05,0.27,8.68,0.37 c2.63,0.07,5.24,0.13,8.58,0.1c0.81-0.11,1.16-0.44,1.97-0.55c3.53,0.2,7.99-1.04,10.71-1.98c0.69-0.24,1.3-0.34,1.92-0.58 c0.61-0.24,1.05-0.53,1.59-0.73c1.16-0.42,2.36-0.56,3.23-1.17c0.47,0.18,1.44-0.24,2.24-0.43c0.44-0.29,1.35-0.45,1.53-0.83 c0.53-0.28,1.97-0.3,1.52-0.84c-0.23-0.51-1.43,0.12-2.26,0.32c-0.54-0.37-0.77,0.01-1.99,0.19c-0.19-0.26-0.34,0.14-0.81,0.23 c-0.84,0.56-1.31,0.31-2.45,0.63c-1.82,0.93-2.76,0.88-5.69,1.62c-2.97,1.03-5.31,1.52-8.31,1.64c-0.63,0.29-0.75,0.04-1.37,0.51 c-1.39-0.04-3.74-0.25-5.09,0.22c-0.61-0.58-2.62-0.12-3.68-0.42c-5.16-0.16-9.88-0.22-14.72-1.46c-4.83-0.91-7.9-1.94-11.41-2.53 c-0.94-0.69-1.72-1.09-2.63-1.51c-0.92-0.38-1.89-0.92-3.14-1.82c-2.77-1.23-5.55-3.35-7.39-4.57c-0.68-1.19-1.46-1.38-2.41-2.78 c-1.7-2.48-3.07-5.48-4.25-7.93c-0.18-0.66-0.28-1.26-0.66-2.15c0.02-0.08,0.01-0.3-0.03-0.55c0.51-0.33,1.01-0.66,1.51-0.96 c4.32-3.26,9.5-6.3,12.39-7.82c2.04-1.1,5.66-2.53,6.54-3.44c0.19-0.2,0.71-0.12,0.55-0.04c5.2-2.43,9-3.23,13.33-4.98 c1.78-0.72,3.28-1.44,4.85-2.21c4.2-0.85,8.83-1.87,13.47-2.77c1.76,0.32,3.12-0.34,5.79-0.33c12.44-1.46,19.21,1.59,30.41,6.19 c1.4,0.53,2.17,0.5,3.57,1.04c5.74,2.92,13.69,5.8,18.82,7.3c1.3,0.39,2.37,0.82,3.56,1.12c1.17,0.31,2.09,0.44,3.13,0.69 c2.22,0.58,4.31,1.37,6.19,1.49c0.67,0.47,2.59,0.82,4.08,1.06c0.32,0,0.73,0.03,1.15,0.05c-0.15,0.14-0.33,0.23-0.62,0.48 c-0.37,0.46-0.7,0.74-1.19,1c-0.06,0.12-0.12,0.07-0.14,0.25c-0.24,0.09-0.66,0.24-0.79,0.49c-0.2-0.1-0.44,0.21-0.65,0.24 c-0.81,0.49-1.48,1.04-2.3,1.46c-0.75,0.5-1.27,0.83-1.66,1.39c-0.46,0.05-0.56,0.35-1.1,0.56c-0.4,0.41-0.92,0.79-1.17,1.13 c-0.26,0.04-0.3,0.21-0.58,0.33c-0.5,0.22-1.09,0.39-1.5,0.68c-0.13,0.02-0.25,0.03-0.39,0.13c-0.06-0.03-0.39,0.01-0.25,0.19 c-0.13,0.16,0.14-0.06,0.14,0.06c0.03,0.11-0.16,0.13-0.03,0.29c0.69-0.03,1.33-0.44,1.97-0.62c0.29-0.18,0.57-0.32,0.85-0.41 c0.44-0.35,0.91-0.71,1.16-0.9c0.18-0.14,0.54-0.28,0.55-0.48c0-0.04,0.09,0.01,0.08,0.02c0.44-0.36,0.85-0.41,1.17-0.76 c0.13-0.14,0.22-0.31,0.3-0.49c0.4-0.15,0.8-0.39,1.15-0.7c0.24,0.06,0.28-0.14,0.54-0.22c0.95-0.77,1.54-1.12,2.6-1.69 c0.11-0.09,0.11-0.21,0.22-0.31c0.61-0.22,1.18-0.83,1.52-1.24c0.09-0.1,0.18-0.16,0.26-0.26c0.08-0.1,0.11-0.2,0.18-0.28 c0.11-0.12,0.23-0.21,0.33-0.32c0.59,0.02,1.12,0,1.37-0.15c0.35-0.02,0.85-0.01,1.35-0.02c-0.8,0.58-1.58,1.26-2.33,1.94 c-0.65,0.05-0.94,0.58-2.37,1.42c-0.32-0.15-0.41,0.34-1.01,0.73c-0.95,1.11-1.65,1.12-3.07,2.13c-1.07,1.04-1.94,1.66-2.99,2.35 c-0.23,0.15-0.46,0.3-0.71,0.46c-0.02-0.06-0.08-0.09-0.2-0.06c-0.19-0.07-0.56,0.28-1.01,0.84c-0.64,0.41-1.36,0.88-2.23,1.44 c-3.68,2.8-6.67,4.63-10.68,6.5c-0.76,0.63-1,0.49-1.67,1.3c-1.89,0.75-5.14,1.97-6.81,3.2c-1.02-0.13-3.61,1.43-5.14,1.83 c-7.08,3-13.43,5.87-20.52,8.25c-6.88,2.62-11.54,4.11-16.31,6.28c-1.7,0.15-2.98,0.51-4.43,0.86c-0.72,0.18-1.48,0.37-2.35,0.59 c-0.87,0.18-1.85,0.34-3,0.49c-4.34,1.25-9.48,2.01-12.65,2.64c-0.99-0.1-1.73-0.09-2.53-0.02c-0.8,0.06-1.67,0.19-2.9,0.08 c-1.1-0.09-2.24-0.15-3.37-0.29c-1.13-0.15-2.27-0.3-3.4-0.45c-2.24-0.37-4.43-0.74-6.43-1.07c-0.95-0.31-1.81-0.59-3.2-0.91 c-0.26-0.22-2.64-1.2-2.46-0.46c-1.57-0.16,1.18,0.34,0.71,0.56c-0.26,0.29-1.61-0.28-1.42,0.37c4.72,2.28,10.88,3.17,16.1,3.93 c2.81,0.1,5.39,0.2,7.7,0.28c4.43-0.39,9.22-1.18,11.8-1.74c0.92-0.16,2.15-0.35,3.26-0.61c1.11-0.25,2.09-0.5,2.49-0.86 c0.17-0.15,0.58,0.04,0.45,0.08c1.11-0.31,2.13-0.56,3.1-0.77c0.97-0.23,1.87-0.44,2.75-0.65c1.77-0.39,3.4-0.88,5.14-1.57 c1.41-0.6,2.57-1.28,3.77-2c3.3-0.83,6.87-2.09,10.28-3.65c1.47,0.04,2.36-0.8,4.42-1.39c9.12-3.97,14.21-6.18,23.12-10.06 c1.05-0.57,1.41-1.09,2.46-1.66c3.46-1.35,7.31-3.69,10.45-5.85c-0.15,0.19-0.29,0.4-0.45,0.65c-0.2,0.33-0.44,0.72-0.74,1.2 c-0.28,0.49-0.6,1.08-1.03,1.79c-0.42,0.13-0.43,0.88-1.08,2c-0.45,1.22-0.81,2.06-1.28,2.92c-0.45,0.87-1.01,1.79-1.57,3.27 c-0.38,1.29-0.78,2.38-1.11,3.43c-0.32,1.06-0.65,2.06-1.02,3.14c-0.39,1.07-0.7,2.26-1.12,3.64c-0.19,0.7-0.43,1.44-0.63,2.26 c-0.19,0.83-0.4,1.73-0.62,2.71c-1.42,8.2-2.03,14.42-2.64,22.33c0.15,1.74-0.14,2,0.24,3.74c-0.28,3.6-0.43,9.84,0.26,13.44 c-0.49,1.6,0.4,6.92,0.41,9.7c0.62,6.81,1.23,13.27,0.89,19.6c-0.18,3.15-0.64,6.26-1.47,9.29c-0.84,3.03-2.03,5.98-3.51,8.88 c-1.36,2.88-2.87,5.56-4.08,8.14c-1.23,2.57-2.3,5.01-3.22,7.37c-1.84,4.73-3.13,9.17-3.89,13.81c-1.04,2.88-1.49,5.26-1.94,7.91 c-0.4,2.66-0.85,5.6-1.47,9.73c-0.3,4.03-0.62,8.37-0.92,12.4c-0.32,4.03-0.69,7.74-0.95,10.58c-0.93,3.38-0.88,5.18-2.13,9.4 c-1.16,3.75-2.72,7.59-4.56,11.17c-1.84,3.58-3.99,6.89-6.18,9.7c-1.21,1.29-2.38,2.34-4.15,4.12c-0.25,0.11-1.29,0.83-2.15,1.52 c-0.91,0.63-1.63,1.25-1.17,1.33c-2.08,1.8,1.77-1.24,1.41-0.57c-0.02,0.33-1.25,1.16-1.53,1.6c-0.15,0.04-0.31,0.08-0.5,0.18 c-0.08-0.02-0.68,0.11-0.52,0.28c-0.31,0.22,0.27-0.1,0.22,0.04c0,0.12-0.34,0.19-0.19,0.34c0.21-0.03,0.42-0.1,0.64-0.15 c-0.01,0.04-0.02,0.09,0,0.16c-0.01,0.3,0.37,0.42,0.86,0.58c0.49,0.15,1.11,0.33,1.56,0.59c0.21,0.68,0.71,0.54,1.87,1.51 c-0.06,0.34,0.39,0.21,0.84,0.61c1.15,0.48,1.31,1.08,2.45,2.07c2.24,1.39,2.83,2.47,5.9,5.15c1.72,1.24,3.28,2.32,4.96,3.19 c1.68,0.84,3.61,1.54,5.88,1.26c0.46-0.2,0.72-0.27,0.99-0.35l0.05-0.01c0.05-0.01,0.09-0.04,0.13-0.07 c0.21-0.16,0.4-0.34,0.65-0.76c0.41-0.22,0.89-0.48,1.4-0.77c0.52-0.28,1.01-0.68,1.52-1.05c1.04-0.73,1.9-1.67,2.41-2.47 c0.51-0.06,1.14-0.71,1.77-1.45c0.31-0.37,0.66-0.75,0.95-1.12c0.29-0.38,0.56-0.72,0.83-0.98c2.11-2.88,3.61-5.94,4.82-9.05 c1.2-3.12,2.07-6.31,2.91-9.62c0.66-3.31,0.99-6.11,1.1-8.67c0.14-2.56-0.01-4.87-0.36-7.21c0.62-3.03,0.04-4.81,0.29-8.98 c-0.47-4.04-0.73-8.67-1.15-11.53c0.35-1.74-0.03-2.64,0.18-4.83c0.4-3.93,1.28-8.18,1.9-11.7c0.33-0.83,0.65-1.57,0.9-2.81 c0.22-0.22,1.21-2.27,0.48-2.16c0.17-1.39-0.35,1.03-0.56,0.6c-0.29-0.25,0.29-1.42-0.35-1.3c-2.27,4.12-3.11,9.64-3.95,14.25 c-0.17,2.49-0.34,4.77-0.56,6.8c0.13,3.93,0.43,8.18,0.54,10.5c0.08,1.64-0.06,4.4,0.44,5.21c0.11,0.18-0.17,0.49-0.18,0.37 c0.24,4.04-0.29,6.74-0.11,10c0.1,1.34,0.24,2.5,0.47,3.74c-0.59,2.96-1.12,6.22-1.67,9.48c-0.82,1.03-0.61,2.11-1.38,3.83 c-1.14,4.19-2.54,7.32-4.32,10.14c-1.8,2.8-3.98,5.38-7.31,7.81c-0.73,0.7-1,1.14-1.82,1.77c-0.2,0.11-0.42,0.23-0.63,0.35 c0.02,0,0.03,0,0.05-0.01l-0.21,0.1c0.06-0.03,0.11-0.06,0.16-0.09c-1.84,0.43-3.86-0.04-5.77-1.07c-1.92-1.02-3.68-2.37-5.06-3.41 c-0.75-0.58-1.31-1.15-2-1.68c-0.68-0.52-1.26-0.84-1.85-1.3c-1.27-1-2.31-2.19-3.55-2.7c-0.25-0.55-1.4-1.29-2.29-1.85 c-0.63-0.19-1.64-0.83-2.1-0.66c-0.36-0.1-0.91-0.35-1.38-0.48c-0.09-0.02-0.17-0.03-0.25-0.04c0.26-0.08,0.52-0.16,0.78-0.26 c0.62-0.25,1.22-0.54,1.82-0.74c0.57-0.33,1.1-0.63,1.6-0.84c0.84-0.62,1.75-1.3,2.23-1.7c0.34-0.28,0.97-0.67,1.04-0.93 c0.02-0.06,0.14-0.03,0.12-0.01c0.78-0.75,1.48-1.05,2.03-1.75c0.23-0.28,0.4-0.56,0.56-0.85c0.64-0.48,1.27-1.11,1.83-1.8 c0.35-0.11,0.42-0.41,0.81-0.74c1.47-1.83,2.25-2.81,3.71-4.64c0.15-0.24,0.14-0.4,0.29-0.64c0.81-0.91,1.49-2.34,1.86-3.26 c0.1-0.23,0.21-0.41,0.29-0.63c0.08-0.21,0.1-0.39,0.18-0.58c0.16-0.4,0.41-0.73,0.46-1.09c0.15-0.08,0.27-0.43,0.41-0.67 c0.03-0.18,0.2-0.45,0.16-0.58c0.06-0.2,0.39-0.57,0.16-0.58c-0.18-0.06-0.31,0.39-0.46,0.65c-0.22,0.05-0.18,0.2-0.42,0.56 c-0.11-0.01-0.05,0.12-0.13,0.26c-0.05,0.35-0.23,0.41-0.41,0.78c-0.2,0.68-0.4,0.93-0.89,1.85c-0.4,1.02-0.81,1.73-1.43,2.57 c-0.07,0.23-0.15,0.22-0.17,0.48c-0.32,0.36-0.88,0.95-1.05,1.42c-0.27,0.05-0.61,0.68-0.9,0.92c-1.12,1.4-2.13,2.69-3.4,3.88 c-1.19,1.24-2.04,2.01-2.78,3c-0.74,0.35-0.95,0.82-1.9,1.37c-0.75,0.76-1.75,1.46-2.29,2.02c-0.45,0.15-0.59,0.37-1.11,0.64 c-0.36,0.19-0.75,0.36-1.14,0.52c3.36-2.21,6.52-5.25,9.04-8.75c3.06-4.1,5.31-8.71,7.18-13.02c1.7-4.71,2.86-9.14,3.83-13.1 c1.29-7.75,1.86-16.23,2.32-20.83c0.3-3.25,1.17-8.66,0.94-10.34c-0.05-0.36,0.32-0.94,0.29-0.7c1.03-7.99,2.85-13.05,4.68-19.29 c0.77-2.56,1.37-4.8,2.04-7.14c1.32-2.69,2.76-5.51,4.25-8.38c1.53-2.86,3.03-5.89,4.15-9.05c1.38-2.08,1.68-4.17,2.68-7.86 c0.81-4.42,0.87-8.42,0.81-12.1c-0.09-3.7-0.34-7.13-0.64-10.53c-0.59-6.81-1.37-13.51-1.34-22.02c-0.1-2.09-0.34-3.07-0.38-5.17 c0.35-4.48,0.67-9.62,1.2-14.56c0.57-4.93,1.28-9.66,2.03-13.28c0.36-1.85,0.88-3.37,1.25-5.04c0.42-1.63,0.69-2.88,1.1-4.33 c0.47-1.54,1.11-2.99,1.65-4.4c0.56-1.4,1.17-2.69,1.54-3.96c0.34-0.44,0.81-1.27,1.35-2.22c0.53-0.95,1.06-2.05,1.61-2.97 c0.53-1.15,1.8-3.06,2.03-3.91c0.38-0.28,0.76-0.56,1.1-0.83c0.62-0.46,1.19-0.83,1.75-1.23c-0.01,0.02-0.03,0.03-0.04,0.05 c-0.28,0.45-0.55,0.85-0.83,1.18c-0.37,0.76-0.77,1.58-0.98,2.02c-0.15,0.32-0.49,0.81-0.42,1.04c0.01,0.05-0.1,0.07-0.09,0.04 c-0.34,0.8-0.75,1.24-0.96,1.92c-0.08,0.28-0.1,0.55-0.11,0.82c-0.37,0.54-0.66,1.19-0.88,1.87c-0.28,0.16-0.22,0.42-0.44,0.76 c-0.61,1.78-1,2.76-1.71,4.46c-0.06,0.22,0.01,0.35-0.05,0.57c-0.46,0.87-0.62,2.14-0.68,2.94c-0.02,0.2-0.06,0.37-0.07,0.55 c-0.01,0.18,0.02,0.33,0.01,0.49c-0.02,0.35-0.15,0.66-0.08,0.95c-0.12,0.09-0.13,0.39-0.18,0.61c0.03,0.15-0.05,0.39,0.03,0.49 c0.01,0.17-0.19,0.52,0.03,0.48c0.19,0.01,0.17-0.37,0.23-0.6c0.19-0.08,0.1-0.19,0.22-0.52c0.11-0.01,0-0.1,0.04-0.23 c-0.05-0.28,0.09-0.37,0.15-0.69c-0.05-0.58,0.1-0.8,0.25-1.63c0.05-0.88,0.19-1.53,0.5-2.31c-0.01-0.19,0.07-0.2,0-0.41 c0.17-0.35,0.48-0.93,0.48-1.34c0.24-0.09,0.31-0.67,0.49-0.91c0.55-1.34,0.94-2.6,1.61-3.84c0.55-1.27,0.95-2.11,1.16-3.1 c0.46-0.48,0.46-0.9,0.97-1.62c0.28-0.82,0.74-1.69,0.9-2.3c0.29-0.26,0.28-0.49,0.55-0.87c0.5-0.67,1.13-1.36,1.54-2 c0.14-0.13,0.29-0.23,0.43-0.46c0.07-0.02,0.46-0.33,0.24-0.41c0,0,0,0,0,0c0.08-0.06,0.15-0.13,0.23-0.19 c1.09-0.88,2.26-1.59,3.19-2.39c-0.7,0.97-1.33,1.92-1.71,2.51c-0.37,0.56-1.06,1.48-1.09,1.86c-0.01,0.08-0.16,0.14-0.13,0.1 c-0.83,1.45-1.54,2.34-2.08,3.59c-0.22,0.52-0.36,0.98-0.49,1.48c-0.65,1.06-1.23,2.32-1.7,3.6c-0.36,0.39-0.37,0.83-0.73,1.53 c-1.17,3.44-1.79,5.37-2.77,8.79c-0.09,0.43-0.03,0.65-0.12,1.08c-0.58,1.78-0.83,4.22-0.92,5.75c-0.02,0.39-0.08,0.72-0.09,1.07 c-0.01,0.35,0.01,0.62,0,0.93c-0.03,0.66-0.16,1.29-0.1,1.83c-0.12,0.21-0.13,0.77-0.18,1.21c0.02,0.27-0.05,0.76,0.03,0.92 c0.01,0.32-0.19,1.05,0.04,0.92c0.19-0.02,0.17-0.75,0.23-1.2c0.19-0.21,0.1-0.4,0.22-1.05c0.11-0.05,0.01-0.2,0.05-0.45 c-0.06-0.53,0.09-0.73,0.15-1.36c-0.03-1.09,0.12-1.56,0.31-3.18c0.1-1.68,0.28-2.95,0.69-4.52c0-0.36,0.1-0.4,0.04-0.77 c0.22-0.71,0.63-1.91,0.69-2.66c0.27-0.26,0.43-1.34,0.69-1.86c0.84-2.67,1.62-5.09,2.79-7.53c1.07-2.46,1.92-4.03,2.63-5.81 c0.79-0.96,0.99-1.68,2.02-3.03c0.79-1.45,1.91-2.99,2.52-4c0.4-0.36,0.57-0.66,0.9-1.06c0.54-0.37,1.15-0.84,1.7-1.23 c0.51-0.55,1.63-1.31,1.79-1.79c0.62-0.61,2.48-1.53,1.77-1.8c0,0-0.01,0-0.02-0.01c0.12-0.09,0.22-0.18,0.28-0.25 c0.08-0.01,0.17-0.02,0.24-0.04c0.05,0.08,0.08,0.17,0.13,0.26c0.16,0.27,0.33,0.52,0.53,0.75c-0.44,0.21-0.86,0.47-1.26,0.67 c-0.3,0.27-0.61,0.48-0.9,0.65c-0.42,0.48-0.88,1-1.12,1.3c-0.17,0.2-0.54,0.47-0.5,0.69c0.01,0.05-0.1,0.02-0.08,0 c-0.39,0.53-0.83,0.73-1.08,1.22c-0.1,0.2-0.16,0.4-0.2,0.61c-0.38,0.31-0.73,0.73-1,1.19c-0.27,0.04-0.24,0.26-0.48,0.46 c-0.75,1.21-1.23,1.84-2.08,2.95c-0.08,0.15-0.03,0.27-0.11,0.42c-0.52,0.54-0.83,1.46-0.98,2.06c-0.04,0.15-0.1,0.26-0.14,0.4 c-0.03,0.14-0.02,0.26-0.05,0.38c-0.06,0.26-0.22,0.46-0.19,0.7c-0.12,0.04-0.17,0.26-0.24,0.41c0.01,0.12-0.1,0.28-0.03,0.37 c-0.01,0.13-0.25,0.34-0.03,0.37c0.18,0.06,0.21-0.23,0.29-0.39c0.19-0.01,0.12-0.12,0.27-0.33c0.1,0.02,0.02-0.07,0.07-0.16 c-0.02-0.23,0.13-0.25,0.22-0.48c0.03-0.45,0.19-0.58,0.43-1.16c0.15-0.66,0.37-1.1,0.74-1.61c0.01-0.15,0.09-0.13,0.05-0.31 c0.2-0.21,0.55-0.57,0.6-0.88c0.23,0,0.36-0.42,0.56-0.55c0.65-0.87,1.15-1.72,1.88-2.49c0.64-0.82,1.09-1.34,1.38-2.07 c0.47-0.21,0.51-0.56,1.05-0.95c0.35-0.55,0.84-1.1,1.07-1.52c0.27-0.12,0.3-0.3,0.59-0.5c0.52-0.36,1.16-0.65,1.6-1.01 c0.02-0.01,0.04-0.01,0.06-0.02c0.31,0.32,0.65,0.62,1.01,0.86c-1.15,0.62-2.24,1.47-3.25,2.39c-1.34,1.23-2.57,2.59-3.71,3.93 c-0.49,0.78-0.95,1.62-1.29,2.33c-0.37,0.72-0.74,1.4-1.13,2.02c-0.53,1.3-0.89,2.74-1.27,4.01c-0.19,0.63-0.37,1.23-0.53,1.78 c-0.13,0.55-0.24,1.04-0.34,1.45c-0.26,1.14-1.06,2.98-0.66,3.68c0.08,0.15-0.24,0.3-0.23,0.22c-0.22,1.43-0.57,2.59-0.88,3.69 c-0.25,1.11-0.47,2.16-0.49,3.35c-0.03,0.97,0.15,1.82,0.36,2.71c-0.26,1.04-0.49,2.15-0.63,3.29c-0.1,1.15-0.15,2.33-0.14,3.51 c-0.64,0.82-0.2,1.56-0.47,2.88c0.12,6.24,0.07,9.72-0.04,15.82c0.07,0.74,0.39,1.07,0.48,1.82c-0.32,3.22,0.55,7.34,1.17,9.91 c0.16,0.65,0.19,1.22,0.35,1.81c0.16,0.58,0.38,1.01,0.5,1.53c0.27,1.11,0.19,2.22,0.66,3.1c-0.24,0.41-0.03,1.35,0.02,2.1 c0.2,0.44,0.18,1.3,0.5,1.53c0.16,0.53-0.12,1.84,0.5,1.54c0.55-0.11,0.18-1.33,0.16-2.12c0.48-0.43,0.14-0.71,0.19-1.87 c0.29-0.14-0.07-0.33-0.07-0.78c-0.41-0.86-0.1-1.26-0.22-2.35c-0.66-1.8-0.47-2.66-0.87-5.44c-0.73-2.83-1.04-5.01-1-7.79 c-0.25-0.59-0.01-0.7-0.46-1.28c0.1-1.28,0.38-3.46-0.1-4.71c0.54-0.57,0.16-2.43,0.41-3.41c0.06-4.79-0.15-9.14,0.55-13.73 c0.12-2.28,0.41-4.16,0.5-5.9c0.13-1.73,0.24-3.29,0.1-4.96c0.49-0.97,0.7-1.77,0.87-2.68c0.18-0.91,0.32-1.94,0.91-3.26 c0.34-2.81,1.31-5.9,1.64-7.93c0.79-0.99,0.7-1.71,1.43-3.08c1.37-2.4,3.63-4.45,5.29-6.3c0.52-0.35,1.03-0.61,1.65-1.23 c0.14-0.02,0.75-0.28,1.05-0.57c0.22,0.13,0.46,0.24,0.78,0.32c0.09,0.22,1.46,0.91,1.38,0.19c0.87-0.08-0.65-0.16-0.36-0.45 c0.13-0.24,0.57-0.09,0.72-0.3c0.15,0.11,0.3,0.21,0.44,0.28c0.14,0.08,0.24,0.16,0.37,0.22c0.13,0.05,0.25,0.06,0.37,0.1 c0.16,0.06,0.3,0.15,0.45,0.19c-0.15,0.03-0.28,0.07-0.36,0.16c-0.48,0.1-1.51-0.47-1.41,0.2c-0.04,0.57,1.13,0.48,1.84,0.53 c0.34,0.52,0.63,0.22,1.67,0.31c0.08,0.2,0.19,0.11,0.37,0.02c1.68,3.18,3.19,6.68,4.37,10.35c1.32,4.09,2.26,8.33,2.86,12.31 c0.92,4.17,1.58,8.08,2.12,11.59c0.78,3.33,1.72,6.83,2.7,9.96c0.26,0.78,0.51,1.54,0.75,2.27c0.25,0.73,0.53,1.42,0.78,2.08 c0.48,1.31,0.98,2.5,1.45,3.45c0.64,1.34,1.56,3.12,2.54,4.63c0.98,1.51,1.98,2.77,2.62,3.21c0.27,0.19,0.38,0.81,0.25,0.64 c2.24,2.82,4.04,5.16,5.63,7.44c1.59,2.29,3.04,4.47,4.72,6.8c1.38,1.91,2.64,3.52,3.93,5.23c2.28,4.76,4.55,10.14,6.4,15.66 c0.05,2.16,0.97,3.74,1.37,7.01c0.78,3.74,1.11,7.14,1.03,10.3c-0.05,3.18-0.75,6.01-1.59,8.89c-1.64,5.73-3.81,11.25-6.48,18.35 c-0.57,1.77-0.56,2.7-1.1,4.49c-1.48,3.71-2.74,8.21-3.51,12.59c-0.81,4.37-1.17,8.66-1.23,11.95c0,0.84-0.03,1.61-0.06,2.37 c0,0.76,0.01,1.49,0.04,2.25c0.11,1.5,0.29,2.62,0.46,3.93c0.29,2.81,0.52,5.56,1.34,7.72c-0.1,0.99,0.56,3.3,1.09,5.1 c0.25,0.52,0.51,1.29,0.77,2c0.29,0.7,0.58,1.33,0.83,1.58c0.53,1.23,1.47,4.28,1.8,3.46c0.46-0.36-1-3.06-1.57-4.91 c0.07-0.52,0-0.95-0.19-1.57c-0.18-0.62-0.52-1.45-0.77-2.81c0.24-0.33-0.27-0.78-0.46-1.85c-0.77-2.06-0.61-3-0.95-5.64 c-0.26-1.1-0.41-2.07-0.5-3c-0.12-0.93-0.14-1.83-0.17-2.79c-0.03-1.94,0.03-4.17,0.31-7.62c0.13-3.57,0.53-6.7,1.09-9.77 c0.56-3.08,1.33-6.06,2.43-9.33c0.25-1.5,0.53-1.66,0.62-3.22c1.13-2.95,3.28-7.95,3.95-11.1c1.01-1.09,2.2-5.68,3.19-7.96 c0.47-1.45,0.91-2.89,1.31-4.33c0.19-0.72,0.38-1.44,0.58-2.16c0.18-0.72,0.33-1.5,0.49-2.24c0.51-3.01,0.55-6,0.34-8.93 c-0.45-5.87-1.83-11.51-3.65-17.2c-1.97-5.56-4.19-10.02-6.48-13.86c-2.31-3.84-4.72-7.1-7.45-10.2c-1.33-2.34-2.65-4-4.11-5.84 c-1.44-1.84-3.11-3.84-4.8-6.96c-0.97-1.43-1.86-2.98-2.6-4.61c-0.39-0.8-0.69-1.67-1.04-2.5c-0.35-0.83-0.65-1.68-0.93-2.51 c-1.19-3.33-2.06-6.5-2.83-8.9c-0.34-3.08-1.01-4.52-1.66-8.35c-0.58-3.42-1.15-7.03-1.94-10.54c-0.8-3.51-1.82-6.91-3.1-9.86 c-0.56-1.48-0.92-2.91-2.12-4.87c0-0.3-0.63-1.59-1.22-2.51c0.21-0.01,0.45-0.02,0.75-0.09c0.74-0.41,1.28-0.61,1.92-0.81 c0.12-0.04,0.25-0.08,0.38-0.12c0.11,0.15,0.21,0.3,0.29,0.45c0.26,0.29,0.46,0.59,0.59,0.89c0.42,0.46,0.83,1.02,1.03,1.33 c0.15,0.22,0.3,0.65,0.51,0.7c0.05,0.01-0.01,0.1-0.03,0.08c0.36,0.56,0.39,1.04,0.72,1.49c0.13,0.18,0.3,0.32,0.47,0.46 c0.11,0.5,0.3,1.01,0.56,1.5c-0.11,0.25,0.09,0.36,0.13,0.67c0.59,1.33,0.79,2.13,1.02,3.53c0.05,0.16,0.17,0.22,0.23,0.38 c0.02,0.76,0.41,1.66,0.65,2.24c0.06,0.15,0.09,0.28,0.14,0.41c0.06,0.13,0.14,0.22,0.19,0.34c0.1,0.25,0.09,0.52,0.25,0.71 c-0.08,0.1,0,0.32,0.02,0.5c0.07,0.1,0.07,0.3,0.17,0.35c0.05,0.12-0.03,0.44,0.17,0.35c0.18-0.04,0.05-0.32,0.05-0.51 c0.16-0.12,0.04-0.17,0.05-0.45c0.1-0.04-0.03-0.08-0.03-0.18c-0.14-0.19-0.04-0.3-0.09-0.55c-0.24-0.41-0.18-0.62-0.37-1.26 c-0.3-0.64-0.45-1.13-0.54-1.79c-0.1-0.12-0.03-0.16-0.19-0.27c-0.02-0.31-0.03-0.84-0.24-1.09c0.15-0.18-0.08-0.58-0.06-0.83 c-0.28-1.12-0.7-2.07-1.01-3.15c-0.41-1.03-0.7-1.71-1.28-2.3c-0.04-0.54-0.34-0.72-0.57-1.39c-0.43-0.54-0.9-1.18-1.3-1.48 c-0.08-0.3-0.27-0.35-0.47-0.66c-0.14-0.22-0.28-0.45-0.44-0.67c0.47-0.17,1.01-0.42,1.65-0.85c0.41-0.36,0.76-0.78,1.07-1.23 c0.6,0.84,1.25,1.72,1.63,2.63c0.33,0.55,0.59,1.09,0.76,1.6c0.51,0.89,0.99,1.93,1.23,2.51c0.17,0.4,0.36,1.13,0.59,1.28 c0.05,0.03-0.01,0.14-0.02,0.11c0.43,1.01,0.49,1.76,0.88,2.57c0.16,0.33,0.34,0.6,0.54,0.88c0.15,0.81,0.4,1.68,0.71,2.53 c-0.09,0.36,0.13,0.59,0.19,1.1c0.73,2.27,1.01,3.58,1.39,5.88c0.08,0.28,0.2,0.38,0.27,0.66c0.1,1.23,0.58,2.76,0.89,3.73 c0.08,0.24,0.11,0.46,0.19,0.68c0.07,0.22,0.17,0.38,0.23,0.57c0.13,0.42,0.14,0.85,0.32,1.18c-0.07,0.16,0.04,0.52,0.07,0.81 c0.08,0.17,0.1,0.5,0.21,0.58c0.07,0.2,0.01,0.71,0.21,0.58c0.18-0.05,0.02-0.51-0.01-0.82c0.15-0.17,0.03-0.28,0.01-0.72 c0.09-0.06-0.03-0.13-0.05-0.3c-0.17-0.32-0.07-0.48-0.15-0.9c-0.29-0.68-0.25-1.01-0.5-2.07c-0.37-1.07-0.58-1.89-0.73-2.95 c-0.12-0.22-0.05-0.27-0.23-0.47c-0.04-0.49-0.11-1.34-0.35-1.79c0.14-0.25-0.14-0.93-0.14-1.32c-0.39-1.83-0.91-3.44-1.32-5.21 c-0.51-1.72-0.87-2.87-1.53-3.98c-0.07-0.84-0.42-1.23-0.7-2.34c-0.5-0.99-1.04-2.15-1.51-2.79c-0.11-0.48-0.33-0.64-0.58-1.18 c-0.44-0.98-0.99-2.06-1.68-2.79c-0.13-0.21-0.24-0.42-0.5-0.66c0-0.02-0.02-0.05-0.04-0.09c0.05-0.1,0.09-0.21,0.13-0.31 c0.51,0.12,1.19,0.18,1.71,0.3c0.26,0.32,0.76,0.74,1.31,1.25c0.43,0.41,0.94,0.83,1.37,1.33c0.22,0.24,0.45,0.48,0.66,0.71 c0.2,0.24,0.38,0.49,0.55,0.71c0.07,0.3,0.17,0.55,0.31,0.8c0.12,0.26,0.29,0.53,0.5,0.85c0.21,0.31,0.47,0.68,0.74,1.18 c0.29,0.48,0.61,1.07,0.93,1.83c-0.13,0.4,0.46,0.86,0.95,2.07c1.29,2.31,1.3,3.46,2.31,6.59c1.04,2.6,1.65,4.56,2.41,6.87 c0.75,2.27,1.5,4.89,2.76,8.98c1.47,4.15,2.76,7.83,4.26,11.38c1.5,3.55,3.19,7,5.62,10.57c1.29,1.38,1.29,1.76,2.8,2.92 c1.19,1.53,2.89,3.53,4.62,5.48c0.86,0.97,1.72,1.94,2.52,2.84c0.77,0.92,1.54,1.74,2.19,2.45c0.25,0.83,1.29,2.31,2.34,3.97 c0.54,0.82,1.04,1.72,1.53,2.54c0.47,0.84,0.85,1.65,1.14,2.32c6.42,12.82,8.44,26.3,5.92,40.03c-1.03,6.83-2.51,12.47-3.7,17.68 c-1.2,5.21-2.19,9.99-2.73,14.96c-0.88,3.13-1.25,5.7-1.52,8.58c-0.22,2.89-0.36,6.08-0.41,10.59c0.31,4.37,0.94,9.03,1.9,13.29 c0.94,4.26,2.17,8.1,3.33,10.93c0.88,3.67,1.95,5.3,3.68,9.67c1.56,3.91,3.32,7.98,5.28,11.88c0.49,0.97,0.99,1.93,1.5,2.88 c0.52,0.95,1.1,1.88,1.69,2.74c1.18,1.75,2.41,3.37,3.63,4.88c1.08,1.58,2.02,3.03,3.79,5.12c0.22,0.48,2.41,3.63,2.99,3.75 c-0.02,0.01-0.04,0.02-0.06,0.03c-0.31-0.23-0.29,0.02-0.74,0.11c-0.12-0.17-0.11,0.08-0.28,0.13c-0.26,0.33-0.47,0.18-0.9,0.32 c-0.64,0.53-1.03,0.47-2.18,0.79c-1.16,0.54-2.12,0.72-3.33,0.65c-0.26,0.16-0.3-0.01-0.56,0.27c-0.56-0.1-1.5-0.34-2.06-0.08 c-0.23-0.39-1.05-0.19-1.46-0.41c-2.05-0.26-3.96-0.42-5.75-1.23c-0.91-0.3-1.62-0.63-2.24-0.93c-0.6-0.28-1.14-0.53-1.82-0.85 c-0.09-0.26-0.16-0.46-0.28-0.62l-0.05-0.07c-0.34-0.45-0.81-0.77-1.28-1.56c-1.01-0.78-2.03-1.81-2.84-2.3 c-0.18-0.55-0.56-0.6-0.94-1.18c-0.66-1.04-1.29-2.26-2.05-3.09c-0.11-0.27-0.17-0.53-0.45-0.82c0.03-0.13-0.2-0.84-0.5-0.49 c-0.39-0.25,0.18,0.29-0.06,0.33c-0.22,0.1-0.34-0.31-0.59,0c0.38,1.48,1.5,2.75,2.13,4.08c0.49,0.59,0.9,1.17,1.21,1.73 c0.88,0.85,1.84,1.78,2.35,2.3c0.36,0.37,0.82,1.11,1.24,1.09c0.09-0.01,0.01,0.19-0.01,0.17c0.25,0.23,0.45,0.47,0.63,0.69 c0-0.01-0.01-0.01-0.01-0.02l0.05,0.06c-0.01-0.01-0.02-0.03-0.03-0.04c0.47,0.72,0.94,1.31,1.68,1.65 c0.43,0.19,0.85,0.23,1.29,0.23c0.75,0.63,1.77,1.06,2.81,1.22c0.27,0.48,0.66,0.26,1.21,0.55c2.79,0.36,4.31,0.55,7.06,0.83 c0.34-0.02,0.49-0.24,0.82-0.27c1.46,0.3,3.32-0.28,4.41-0.77c0.28-0.12,0.53-0.17,0.78-0.29c0.24-0.12,0.4-0.3,0.62-0.41 c0.45-0.24,0.95-0.28,1.23-0.66c0.23,0.12,0.58-0.13,0.88-0.26c0.13-0.19,0.48-0.31,0.46-0.54c0.03-0.03,0.08-0.06,0.13-0.1 c0.39,0.4,0.32,0.28,0.07-0.05c0.19-0.11,0.39-0.24,0.13-0.42c-0.15-0.15-0.29-0.08-0.43,0.03c-0.52-0.68-1.21-1.6-0.85-1.41 c0.48,0.03,2.03,2.32,2.05,1.42c-2.71-4.07-5.95-8.23-8.97-12.54c-0.74-1.08-1.49-2.16-2.15-3.25c-0.65-1.06-1.25-2.23-1.84-3.38 c-1.17-2.3-2.24-4.6-3.17-6.85c-2.23-4.65-4.04-9.11-5.29-13.09c-1.46-3.77-2.67-7.85-3.51-11.6c-0.84-3.76-1.35-7.17-1.57-9.6 c-0.18-1.71-0.26-4.02-0.31-6.11c-0.04-2.1-0.06-3.98-0.26-4.86c-0.09-0.38,0.22-1.03,0.21-0.77c0.13-4.27,0.72-7.79,1.4-11.09 c0.68-3.31,1.42-6.4,2.07-9.85c0.54-2.83,0.88-5.29,1.2-7.88c1.82-6.15,3.51-13.17,3.99-20.31c0.75-2.53,0.52-4.74,0.64-8.81 c-0.25-4.76-0.94-8.95-1.88-12.8c-0.94-3.85-2.13-7.36-3.56-10.75c-1.44-3.39-3.14-6.66-5.25-9.96c-2.1-3.3-4.74-6.61-7.83-10 c-1.56-1.62-2.51-2.17-3.99-3.83c-1.47-1.88-2.93-3.93-4.23-6.17c-1.31-2.23-2.49-4.64-3.52-7.06c-2.07-4.85-3.64-9.73-4.95-13.49 c-0.66-1.91-1.13-3.57-1.78-5.28c-0.64-1.7-1.23-2.92-1.76-4.44c-1.13-3.24-1.89-6.5-3.25-8.94c-0.14-1.18-1.37-3.82-2.54-5.76 c-0.82-1.11-2.26-3.23-3.06-3.56c-0.44-0.45-1.09-1.14-1.75-1.75c0.15,0.03,0.32,0.07,0.5,0.12c0.08,0.32,0.42,0.03,0.95,0.15 c1.14-0.15,1.53,0.27,2.87,0.45c2.33-0.13,3.3,0.27,6.74,0.6c3.58,0,6.26,0.22,9.61,0.86c0.76-0.11,0.85,0.14,1.64-0.17 c1.52,0.38,4.12,1.06,5.72,0.84c0.6,0.66,2.93,0.58,4.09,0.99c5.86,0.84,11.22,1.15,16.91,2.04c5.65,0.54,9.45,0.9,13.5,0.43 c2.55,0.8,4.11,0.35,7.67,0.9c3.51-0.17,7.54-0.2,10.01-0.63c1.51,0.34,2.28-0.03,4.17,0.06c3.39,0.2,7.18,0.46,10.3,0.09 c0.78,0.06,1.48,0.16,2.59,0c0.24,0.13,2.27,0.28,1.91-0.35c1.17-0.35-0.95,0.06-0.67-0.3c0.1-0.36,1.23-0.25,0.89-0.8 c-3.95-0.44-8.52,0-12.46-0.45c-2.09,0.07-4.02-0.01-5.72-0.21c-3.31,0.17-6.95,0.22-8.94,0.19c-1.4-0.02-3.75-0.37-4.49,0.08 c-0.16,0.1-0.41-0.2-0.31-0.2c-3.48-0.04-5.77-0.77-8.62-0.66c-1.17,0.04-2.19,0.23-3.25,0.45c-2.55-0.53-5.42-0.84-8.29-0.92 c-0.98-0.67-1.89-0.3-3.48-0.69c-7.57-0.47-11.79-1.08-19.09-2.37c-0.9-0.08-1.36,0.17-2.27,0.09c-3.8-0.98-8.9-1.12-12.13-1.18 c-0.82-0.02-1.5-0.13-2.25-0.13c-0.74,0-1.3,0.1-1.96,0.08c-1.39-0.05-2.7-0.42-3.86-0.22c-0.42-0.35-1.6-0.42-2.51-0.59 c-0.58,0.07-1.59-0.22-1.96,0.02c-0.27,0-0.67-0.11-1.04-0.2c0.06-0.35,0.08-0.7,0.04-1.04c-0.08-0.69-0.32-1.25-0.55-1.77 c-0.06-0.14-0.13-0.29-0.19-0.43c0.33-0.05,0.66-0.1,0.99-0.15c1.38,0.2,2.84,0.31,4.14,0.53c0.97,0.06,1.87,0.16,2.66,0.28 c1.55,0.06,3.24,0.12,4.16,0.16c0.65,0.03,1.74,0.19,2.08,0.05c0.07-0.03,0.19,0.07,0.14,0.07c1.61,0.06,2.68,0.32,4,0.3 c0.54-0.01,1.01-0.06,1.5-0.13c1.19,0.18,2.52,0.29,3.85,0.31c0.47,0.22,0.88,0.09,1.62,0.21c3.51,0.1,5.48,0.24,8.9,0.47 c0.42,0,0.62-0.1,1.04-0.1c1.8,0.21,4.16,0.04,5.65-0.11c0.38-0.03,0.7-0.03,1.04-0.08c0.34-0.04,0.59-0.11,0.89-0.14 c0.64-0.07,1.26-0.02,1.78-0.17c0.22,0.08,0.76,0.02,1.19,0.01c0.26-0.07,0.74-0.05,0.88-0.16c0.3-0.05,1.03,0.05,0.88-0.16 c-0.04-0.18-0.74-0.07-1.19-0.07c-0.23-0.16-0.4-0.05-1.04-0.07c-0.06-0.1-0.19,0.02-0.44,0.02c-0.5,0.13-0.71,0.01-1.33,0.04 c-1.04,0.18-1.52,0.13-3.1,0.18c-1.63,0.18-2.87,0.21-4.44,0.11c-0.34,0.06-0.4-0.01-0.74,0.11c-0.72-0.08-1.94-0.24-2.67-0.12 c-0.3-0.2-1.37-0.13-1.92-0.25c-2.72-0.17-5.2-0.23-7.84-0.52c-2.61-0.17-4.37-0.32-6.23-0.2c-1.18-0.29-1.9-0.15-3.54-0.4 c-1.62,0-3.47-0.08-4.61-0.01c-0.69-0.16-1.05-0.06-1.92-0.16c-1.07-0.13-2.21-0.29-3.29-0.39c2.19-0.42,4.44-0.94,6.7-1.49 c1.76-0.43,3.53-0.86,5.27-1.28c0.11-0.03,0.21-0.06,0.32-0.09c0.56,0.18,1.19,0.21,1.73,0.37c0.36,0.01,0.69,0.05,0.97,0.13 c0.57-0.04,1.19-0.07,1.53-0.07c0.24,0,0.64,0.09,0.77-0.07c0.03-0.03,0.07,0.06,0.05,0.06c0.59-0.02,0.98,0.18,1.47,0.1 c0.2-0.03,0.38-0.11,0.56-0.2c0.43,0.13,0.92,0.18,1.41,0.16c0.16,0.2,0.32,0.06,0.59,0.16c1.29,0,2.01,0.11,3.25,0.35 c0.15,0,0.23-0.09,0.39-0.09c0.65,0.22,1.52,0.11,2.07,0.02c0.14-0.02,0.26-0.01,0.38-0.03c0.13-0.03,0.22-0.08,0.33-0.1 c0.24-0.04,0.46,0.04,0.66-0.07c0.07,0.1,0.27,0.07,0.43,0.09c0.1-0.05,0.27,0,0.33-0.1c0.11-0.03,0.37,0.12,0.33-0.1 c0-0.19-0.26-0.12-0.43-0.15c-0.07-0.18-0.14-0.08-0.37-0.15c-0.02-0.1-0.07,0.01-0.16-0.01c-0.19,0.1-0.26-0.03-0.49-0.03 c-0.4,0.13-0.56,0.03-1.15,0.04c-0.61,0.12-1.07,0.12-1.64,0.01c-0.13,0.06-0.14-0.02-0.28,0.1c-0.26-0.08-0.7-0.24-0.97-0.13 c-0.1-0.2-0.5-0.12-0.69-0.23c-1-0.14-1.91-0.13-2.87-0.32c-0.96-0.07-1.6-0.13-2.3,0.08c-0.43-0.23-0.7-0.06-1.29-0.21 c-0.6,0.09-1.28,0.11-1.71,0.24c-0.25-0.12-0.39,0-0.71-0.05c-0.3-0.05-0.61-0.12-0.92-0.17c1.17-0.33,2.33-0.66,3.45-1 c3.3-1.22,6.28-2.46,8.98-3.49c0.51,0.1,1.1,0.18,1.56,0.3c0.41,0.61,0.87,0.36,2.33,0.77c0.09,0.33,0.45,0.04,1.02,0.18 c1.22-0.14,1.64,0.27,3.08,0.46c2.49-0.15,3.55,0.26,7.25,0.52c3.84-0.1,6.7,0.03,10.33,0.48c0.81-0.15,0.92,0.1,1.74-0.26 c1.65,0.29,4.48,0.8,6.17,0.46c0.69,0.62,3.18,0.35,4.46,0.67c6.34,0.35,12.09,0.08,18.25,0.24c6.08-0.2,10.18-0.42,14.4-1.54 c2.83,0.35,4.4-0.35,8.26-0.46c3.68-0.8,7.91-1.65,10.41-2.57c1.65,0.02,2.38-0.5,4.39-0.83c3.59-0.55,7.61-1.2,10.74-2.5 c0.83-0.15,1.58-0.31,2.67-0.82c0.29,0.07,2.42-0.59,1.83-1.03c1.06-0.77-0.94,0.41-0.78-0.03c-0.02-0.37,1.14-0.69,0.61-1.08 c-2.03,0.57-4.16,1.18-6.32,1.79c-2.18,0.56-4.38,1.1-6.47,1.33c-2.15,0.55-4.18,0.89-6,1.04c-3.41,0.87-7.24,1.62-9.33,1.96 c-1.48,0.24-4.01,0.33-4.71,0.9c-0.15,0.12-0.47-0.13-0.36-0.14c-3.68,0.58-6.2,0.23-9.19,0.78c-1.23,0.22-2.27,0.55-3.37,0.93 c-2.78-0.16-5.85-0.07-8.9,0.19c-1.12-0.55-2.04-0.07-3.77-0.28c-8.09,0.36-12.64,0.14-20.5-0.66c-0.97-0.02-1.44,0.26-2.41,0.24 c-4.11-0.76-9.53-0.69-12.98-0.69c-0.87,0-1.61-0.1-2.4-0.09c-0.78,0-1.39,0.11-2.08,0.09c-1.49-0.02-2.88-0.43-4.13-0.23 c-0.45-0.34-1.71-0.45-2.68-0.63c-0.53,0.06-1.38-0.15-1.87-0.08c4.75-2.45,9.58-5.29,12.28-6.91c2.05-1.21,5.61-3.08,6.38-4.13 c0.17-0.23,0.7-0.22,0.56-0.12c4.93-3.21,8.54-4.88,12.4-7.72c1.58-1.17,2.85-2.3,4.18-3.5c3.85-2.07,8-4.55,12.12-7.04 c1.79-0.34,2.86-1.43,5.39-2.45c5.62-2.95,10.21-4.85,14.91-6.25c4.7-1.39,9.49-2.35,15.61-2.79c1.5-0.16,2.18-0.53,3.69-0.64 c3.24,0.1,6.93,0.17,10.42,0.71c3.5,0.5,6.73,1.57,9.11,2.78c1.23,0.6,2.21,1.24,3.3,1.82c1.08,0.58,1.94,0.95,2.87,1.52 c2,1.24,3.62,2.82,5.23,3.9c0.38,0.74,1.82,2.13,2.67,3.46c0.69,0.65,1.32,2.17,1.76,2.71c-0.2,1.2-0.42,2.32-0.68,3.33l-0.01,0.06 l0,0.01c-0.49,2.65-1.03,5.08-1.83,7.67c-0.11,0.09-0.24,0.18-0.39,0.35c-0.51,0.72-0.81,0.97-1.76,1.89 c-0.88,1.05-1.65,1.74-2.7,2.51c-0.18,0.24-0.26,0.2-0.4,0.48c-0.52,0.31-1.4,0.82-1.8,1.29c-0.32-0.01-0.99,0.58-1.42,0.76 c-1.9,1.22-3.64,2.32-5.64,3.22c-1.93,0.98-3.27,1.55-4.59,2.36c-1,0.17-1.47,0.59-2.81,0.91c-1.21,0.58-2.68,1.03-3.55,1.45 c-0.59,0.04-0.84,0.23-1.56,0.37c-0.64,0.13-1.33,0.21-1.99,0.31c-0.67,0.09-1.32,0.21-1.91,0.31c-0.3,0-0.57-0.01-0.99,0.08 c-0.1-0.04-0.86-0.04-0.73,0.16c-0.45,0.15,0.36-0.04,0.26,0.08c-0.04,0.12-0.47,0.11-0.34,0.29c0.77,0.03,1.6-0.03,2.43-0.11 c0.83-0.11,1.65-0.25,2.43-0.31c0.8-0.19,1.54-0.36,2.21-0.45c1.24-0.4,2.58-0.87,3.31-1.14c0.51-0.19,1.41-0.43,1.61-0.67 c0.04-0.05,0.18,0,0.14,0.02c1.24-0.55,2.16-0.69,3.12-1.25c0.39-0.23,0.71-0.47,1.04-0.73c0.96-0.31,1.96-0.82,2.92-1.38 c0.44-0.03,0.66-0.33,1.25-0.56c2.5-1.55,3.91-2.4,6.3-4.01c0.28-0.22,0.35-0.4,0.62-0.62c0.65-0.4,1.31-0.97,1.93-1.53 c0.61-0.57,1.14-1.19,1.56-1.65c0.21-0.24,0.42-0.41,0.59-0.64c0.17-0.22,0.28-0.42,0.44-0.61c0.03-0.03,0.06-0.06,0.08-0.1 c-0.41,1.22-0.88,2.48-1.44,3.82c-0.32,0.96-0.21,1.51-0.57,2.47c-0.49,0.87-0.98,1.81-1.47,2.77c-0.11,0.12-0.26,0.18-0.44,0.37 c-0.35,0.54-0.59,0.7-1.27,1.36c-0.61,0.78-1.16,1.29-1.93,1.83c-0.12,0.18-0.19,0.14-0.27,0.38c-0.38,0.21-1.04,0.57-1.3,0.94 c-0.26-0.04-0.71,0.42-1.04,0.54c-1.36,0.9-2.56,1.76-3.99,2.46c-1.35,0.78-2.28,1.25-3.16,1.97c-0.73,0.13-1.03,0.49-1.98,0.78 c-0.82,0.52-1.84,0.97-2.41,1.37c-0.43,0.05-0.58,0.24-1.09,0.39c-0.91,0.26-1.94,0.47-2.75,0.77c-0.22,0.02-0.41,0.03-0.7,0.14 c-0.08-0.03-0.63,0.02-0.5,0.21c-0.3,0.17,0.25-0.06,0.2,0.07c0,0.12-0.32,0.14-0.19,0.31c1.13-0.03,2.35-0.47,3.46-0.68 c0.56-0.2,1.07-0.38,1.55-0.49c0.86-0.41,1.78-0.86,2.28-1.1c0.35-0.18,0.99-0.39,1.1-0.62c0.02-0.05,0.13,0,0.11,0.02 c0.85-0.48,1.53-0.59,2.18-1.06c0.27-0.19,0.47-0.4,0.68-0.63c0.69-0.24,1.39-0.65,2.06-1.1c0.34,0.01,0.47-0.25,0.9-0.42 c1.74-1.22,2.74-1.85,4.47-3.01c0.19-0.16,0.23-0.32,0.42-0.48c0.96-0.55,1.93-1.62,2.5-2.32c0.08-0.09,0.16-0.18,0.24-0.26 c-0.3,0.6-0.6,1.21-0.91,1.81c-0.54,1.09-1.08,2.15-1.58,3.15c-0.46,0.96-1.02,1.76-1.6,2.43c-0.58,0.68-1.21,1.14-1.83,1.69 c-0.61,0.55-1.05,1.02-1.65,1.46c-1.29,0.92-2.75,1.44-3.7,2.37c-0.6,0-1.74,0.72-2.7,1.14c-0.51,0.42-1.64,0.82-1.86,1.23 c-0.65,0.41-2.47,0.71-1.9,1.18c0.28,0.49,1.83-0.41,2.87-0.82c0.71,0.25,0.99-0.21,2.52-0.78c0.27,0.21,0.42-0.25,1-0.5 c0.98-0.88,1.56-0.77,2.93-1.52c1.05-0.83,1.87-1.35,2.84-1.99c0.95-0.65,2.14-1.37,3.56-3.03c0.66-0.92,1.13-1.89,1.52-2.69 c0.42-0.83,0.82-1.62,1.22-2.41c0.8-1.58,1.63-3.11,2.55-4.85c0.16-0.87,0.44-0.89,0.4-1.84c0.88-1.55,2.24-4.36,2.34-6.21 c0.8-0.58,1.11-3.25,1.67-4.54c0.38-1.52,0.67-3.01,0.94-4.41c-0.01,0.03-0.01,0.05-0.02,0.08l0.03-0.13c0,0.02-0.01,0.03-0.01,0.05 c0.67-2.56,1.02-4.96,1.36-7.42c0.16-1.24,0.3-2.48,0.41-3.75c0.06-0.63,0.09-1.28,0.12-1.94 C325.48,25.36,325.44,24.64,325.41,23.93z M167.32,65.74c0,0.05-0.07,0.09-0.14,0.13c-0.02-0.04-0.04-0.09-0.07-0.13 C167.22,65.7,167.35,65.68,167.32,65.74z M151.4,56.35c0.1-0.08,0.35-0.08,0.65-0.05c-0.01,0.02-0.03,0.04-0.04,0.06 c-0.06,0.09-0.11,0.18-0.16,0.28C151.46,56.52,151.2,56.41,151.4,56.35z M12.78,79.57c-0.04-0.01-0.06-0.05-0.09-0.1 c0.04-0.03,0.07-0.07,0.11-0.1C12.82,79.49,12.83,79.61,12.78,79.57z M150.15,71.52c-0.64,0.03-1.39,0.06-2.06,0.03 c-0.05-0.05-0.11-0.05-0.17-0.01c-0.09-0.01-0.19-0.01-0.27-0.02c-0.69-0.59-1.3-0.27-3.44-0.85c-0.14-0.34-0.65-0.09-1.49-0.33 c-1.79-0.1-2.4-0.67-4.51-1.27c-3.68-0.67-5.2-1.42-10.53-3.32c-5.61-1.68-9.73-3.35-14.84-5.72c-1.22-0.28-1.3-0.58-2.6-0.67 c-2.3-1.15-6.3-3.12-8.89-3.59c-0.84-0.94-4.61-1.82-6.46-2.66c-1.19-0.36-2.36-0.7-3.54-1.02c-1.22-0.3-2.43-0.56-3.64-0.71 c-2.42-0.34-4.81-0.45-7.17-0.43c-4.74,0.05-9.38,0.58-14.15,1.28c-4.68,0.87-8.54,1.85-11.99,2.94c-3.45,1.09-6.49,2.31-9.48,3.82 c-4.26,0.96-6.42,2.41-11.98,4.62c-5.11,2.79-10.83,6.29-13.95,8.96c-2.26,1.14-3.08,2.18-5.62,4.04c-2.26,1.69-4.59,3.56-6.59,5.72 c-2.01,2.13-3.72,4.59-4.56,7.14c-0.11,0.25-0.22,0.5-0.32,0.75c-0.06-0.2-0.11-0.44-0.12-0.73c-0.49-1.92-0.17-2.76,0-5.18 c-0.03-2.08,0.2-3.6,0.58-5.36c0.26-1.12,0.59-2.34,1.07-3.86c0.31-0.36,0.61-0.74,0.91-1.12c0.66-0.78,1.32-1.57,1.97-2.26 c0.63-0.78,1.26-1.46,1.84-2.04c1-1.23,2.15-2.55,2.81-3.23c0.47-0.48,1.32-1.23,1.45-1.58c0.03-0.08,0.18-0.1,0.15-0.06 c1.2-1.16,2.12-1.8,3.1-2.74c0.4-0.39,0.71-0.76,1.03-1.16c1.02-0.72,2.14-1.51,3.2-2.39c0.52-0.13,0.77-0.49,1.45-0.87 c2.94-2.12,4.72-3.15,7.91-4.67c0.38-0.21,0.51-0.4,0.89-0.61c0.87-0.35,1.84-0.79,2.75-1.28c0.92-0.47,1.81-0.91,2.49-1.28 c0.35-0.18,0.65-0.31,0.97-0.47c0.31-0.16,0.54-0.31,0.82-0.44c0.6-0.29,1.23-0.46,1.69-0.77c0.24,0.02,0.77-0.2,1.19-0.33 c0.24-0.14,0.72-0.26,0.84-0.41c0.29-0.14,1.05-0.25,0.84-0.41c-0.09-0.17-0.76,0.15-1.21,0.28c-0.27-0.09-0.41,0.07-1.07,0.23 c-0.09-0.08-0.19,0.08-0.44,0.15c-0.47,0.27-0.7,0.25-1.31,0.48c-0.96,0.56-1.47,0.6-2.98,1.32c-1.52,0.8-2.66,1.4-4.17,2.04 c-0.29,0.22-0.38,0.16-0.64,0.45c-0.69,0.29-1.88,0.78-2.48,1.25c-0.37-0.01-1.28,0.65-1.83,0.86c-1.26,0.67-2.38,1.45-3.53,2.16 c-1.11,0.76-2.21,1.5-3.37,2.29c-2.19,1.64-3.62,2.81-4.89,4.29c-1.06,0.69-1.5,1.3-2.8,2.44c-1.14,1.24-2.38,2.73-3.07,3.69 c-0.55,0.48-0.69,0.84-1.31,1.51c-0.57,0.59-1.14,1.23-1.69,1.87c-0.36,0.42-0.7,0.84-1.02,1.25c0.15-0.43,0.3-0.87,0.47-1.35 c0.98-3.17,2.13-5.88,3.5-8.43c1.39-2.54,2.99-4.94,5.1-7.32c0.74-1.2,1.06-1.19,1.73-2.47c0.54-0.49,1.2-1.03,1.93-1.59 c0.76-0.54,1.57-1.12,2.36-1.72c0.78-0.62,1.62-1.16,2.36-1.72c0.75-0.54,1.4-1.13,1.98-1.59c0.69-0.09,1.9-0.8,3.21-1.57 c1.35-0.71,2.76-1.57,3.83-1.93c4.98-2.44,9.94-4.31,15-5.7c5.06-1.38,10.22-2.26,15.6-2.55c5.3-0.45,9.75-0.39,13.81-0.27 c4.08,0.16,7.76,0.3,11.57,0.44c2.4,0.64,4.31,0.95,6.46,1.33c2.15,0.36,4.53,0.81,7.78,1.77c6.5,1.18,13.73,3.57,18.19,5.04 c2.52,1.43,3.99,1.7,7.27,3.25c5.84,2.81,12.36,5.89,18.12,7.55c1.37,0.56,2.6,1.1,4.67,1.6c0.2,0.13,1.2,0.52,2.11,0.77 c0.19,0.05,0.38,0.09,0.56,0.13c-0.3,0.54-0.62,1.15-1.05,1.91c-0.61,2.49-0.74,5.32-0.24,6.99c-0.28,1.03,0.09,1.53,0.14,2.82 c0.03,0.84,0.15,1.76,0.48,2.63C150.67,71.5,150.43,71.5,150.15,71.52z M162.1,77.37c-0.12-0.01-0.28-0.16-0.45-0.36 c0.13-0.05,0.25-0.08,0.36-0.09C162.19,77.25,162.28,77.48,162.1,77.37z M167.64,72.43c-0.28,0.44-0.7,0.83-1.11,1.14 c-0.42,0.31-0.85,0.45-1.27,0.69c-0.04,0.02-0.06,0.04-0.09,0.06c-0.07-0.11-0.24-0.29-0.31-0.12c-0.23-0.08,0.14,0.12,0.03,0.17 c-0.09,0.08-0.22-0.11-0.29,0.08c0.04,0.05,0.08,0.1,0.12,0.16c-0.19,0.13-0.38,0.25-0.59,0.35c-0.87,0.39-1.78,0.4-2.48,0.88 c-0.05-0.03-0.13-0.04-0.19-0.06c-0.35-0.43-0.32-0.34-0.14-0.04c-0.4-0.04-0.95,0.08-1.43,0.08c-0.02,0.01-0.04,0.01-0.06,0.02 c-0.05-0.09-0.12-0.04-0.29-0.13c0.01-0.11-0.06,0-0.14-0.04c-0.2,0.05-0.22-0.09-0.42-0.18c-0.4-0.04-0.51-0.2-0.98-0.56 c-0.56-0.3-0.9-0.68-1.19-1.22c-0.13-0.07-0.08-0.14-0.26-0.18c-0.11-0.27-0.23-0.75-0.48-0.94c0.12-0.2-0.17-0.52-0.17-0.76 c-0.37-0.99-0.72-1.9-0.8-2.94c-0.18-1-0.21-1.67-0.5-2.39c0.19-0.47,0-0.75,0.14-1.4c-0.1-0.64-0.07-1.38-0.16-1.85 c0.14-0.26,0.04-0.42,0.14-0.76c0.18-0.61,0.46-1.25,0.57-1.82c0.08-0.13,0.16-0.23,0.19-0.44c0.06-0.03,0.28-0.34,0.05-0.36 c-0.01-0.24-0.06,0.16-0.15,0.08c-0.1-0.06,0.02-0.23-0.17-0.25c-0.49,0.61-0.66,1.48-0.98,2.18c-0.07,0.4-0.16,0.76-0.27,1.07 c-0.03,0.64-0.03,1.34-0.03,1.72c0,0.27-0.09,0.72,0.07,0.86c0.04,0.03-0.06,0.08-0.06,0.06c0.05,0.66-0.12,1.11,0.03,1.65 c0.07,0.22,0.17,0.4,0.29,0.58c-0.05,0.49,0.02,1.04,0.2,1.56c-0.15,0.23,0.04,0.36,0.04,0.68c0.48,1.36,0.74,2.11,1.32,3.43 c0.1,0.14,0.22,0.16,0.33,0.3c0.09,0.26,0.25,0.5,0.44,0.73c-0.88-0.49-1.72-1.01-2.44-1.65c-0.93-0.81-1.59-1.83-1.67-2.86 c-0.38-1.02-0.37-2.24-0.23-3.37c-0.33-2.03-0.13-4.33,0.19-5.53c0.19-0.87,0.96-2.1,0.76-2.71c-0.05-0.14,0.28-0.15,0.25-0.09 c0.45-0.99,1.07-1.6,1.69-2.01c0.64-0.4,1.28-0.66,2.08-1.09c0.65-0.35,1.23-0.78,1.83-1.25c1.76-0.13,3.59-0.6,5.3-0.38 c0.22,0.35,0.43,0.46,0.68,0.6c0.25,0.11,0.54,0.3,0.69,0.68c0.6,0.71,0.72,1.77,0.54,2.64c-0.18,0.91-0.62,1.73-1.14,2.51 c-0.26,0.39-0.56,0.77-0.86,1.26c-0.29,0.48-0.61,1.1-0.61,1.91c0,0.83,0.4,1.54,0.74,2.06c0.36,0.53,0.63,0.95,0.94,1.47 c0.36,0.45,0.76,0.51,1.11,0.99c0.23,0.6,0.5,1.22,0.8,1.83c0.31,0.63,0.59,1.18,0.67,1.6C167.99,71.56,167.93,71.99,167.64,72.43z M238.58,307.54c-0.02,0.01-0.04,0.03-0.05,0.04c0.01-0.02,0.02-0.04,0.02-0.07C238.56,307.53,238.57,307.53,238.58,307.54z M169.85,67.81c-0.03,0.09-0.14,0.17-0.3,0.25c-0.02,0-0.04,0-0.06,0c-0.08-0.05-0.67-0.17-0.85-0.1c-0.01-0.01-0.01-0.03-0.02-0.04 C169.21,67.77,170.07,67.57,169.85,67.81z M168.72,68.11c0.12,0.02,0.23,0.04,0.17,0.08c-0.02,0.03-0.06,0.04-0.11,0.05 C168.76,68.19,168.74,68.15,168.72,68.11z M109.69,90.18c-0.28-0.36,0.47-0.46,0.59-0.4c0.35-0.22,0.62-0.23,0.91-0.28 c0.99-0.59,2.34-0.94,3.53-1.35c0.66-0.24,0.8-0.59,1.39-0.64c0.68-0.67,1.96-1.41,3.01-2.18c1.28-0.35,1.62-0.94,2.66-0.98 c1.1-1.1,2.37-1.67,4.24-2.57c1.99-0.71,3.67-1.71,5.65-2.59c0.48-0.03,1.12-0.63,1.52-0.39c0.38-0.5,1.35-0.75,1.92-0.9 c0.11-0.36,0.23-0.24,0.4-0.49c1.15-0.48,1.98-1.02,2.93-1.95c1.04-0.71,1.44-0.77,1.97-1.47c0.41-0.27,0.67-0.15,0.89-0.55 c0.18-0.09,0.14-0.34,0.29-0.19c0.48-0.19,0.48-0.44,0.81-0.24c0.32-0.16,0.69-0.6,0.92-0.31c0.33,0.3-0.29,0.39-0.46,0.58 c0.01,0.23-0.35,0.38-0.46,0.58c-0.29,0.17-0.61,0.48-0.85,0.41c-0.21,0.43-0.7,0.59-1.07,0.94c-0.18,0.17-0.28,0.38-0.48,0.58 c-0.2,0.2-0.43,0.32-0.65,0.52c-0.88,0.82-2.35,2.06-3.78,2.43c-0.28,0.18-0.33,0.43-0.61,0.61c-2.55,1.03-3.98,1.65-6.4,3.06 c-0.6,0.12-0.76,0.54-1.27,0.36c-0.89,0.57-1.86,1.01-2.81,1.23c-0.26,0.35-0.51,0.67-0.86,0.94c-0.84,0.66-1.78,0.7-2.88,1.36 c0.03-0.02-0.14-0.15-0.16-0.06c-0.1,0.41-0.94,0.66-1.4,0.91c-0.64,0.36-1.8,1.06-2.85,1.71c-0.62,0.16-1.29,0.42-1.98,0.77 c-1.45,0.32-2.94,1.15-4.48,1.25c-0.25-0.31,0.17-0.35,0.12-0.58C110.02,90.05,109.36,90.51,109.69,90.18z M26.2,108.57 c-0.65-0.37-1.08-0.4-1.43-0.76c-1.18-0.57-2.37-1.14-3.32-1.85c-0.46-0.16-0.9-0.32-1.38-0.55c-1.18-0.57-1.93-1.38-3.28-2.24 c0.04,0.03,0-0.12-0.08-0.14c-0.35-0.07-1.17-0.8-1.68-1.19c-0.38-0.26-0.87-0.68-1.43-1.15c-0.55-0.47-1.2-0.95-1.75-1.49 c-0.51-0.62-1.12-1.26-1.79-1.96c-0.53-0.75-1.15-1.52-1.75-2.3c-0.55-0.82-1.08-1.64-1.49-2.44c0.08-0.21,0.33,0.24,0.46,0.22 c0.17,0.05-0.46-0.69-0.07-0.3c0.11-0.23,0.54,0.56,0.56,0.67c0.31,0.39,0.46,0.67,0.63,0.98c0.42,0.57,0.93,1.15,1.41,1.78 c0.48,0.63,0.97,1.28,1.5,1.84c0.58,0.64,0.91,0.8,1.31,1.36c0.95,0.62,2.29,1.84,3.63,2.68c1.18,1.12,1.88,1.32,2.72,2.16 c0.8,0.43,1.6,0.81,2.44,1.29c0.83,0.5,1.78,0.99,2.91,1.58c1.1,0.67,2.28,1.12,3.41,1.65c0.59,0.22,1.18,0.44,1.78,0.66 c0.6,0.23,1.21,0.45,1.85,0.64c0.49,0.24,1.52,0.42,1.76,0.69c0.72,0.04,1.86,0.39,2.54,0.61c0.35-0.07,0.39,0.04,0.73,0.01 c1.51,0.28,2.72,0.44,4.32,0.33c1.54,0.07,2.01,0.06,3.02-0.11c0.6-0.03,0.81,0.11,1.29-0.06c0.24-0.02,0.36-0.14,0.43-0.05 c0.63-0.02,0.78-0.14,1.01,0c0.43-0.03,1.1-0.19,1.16-0.01c0.17,0.2-0.55,0.15-0.85,0.22c-0.13,0.12-0.6,0.14-0.85,0.22 c-0.42,0.04-0.94,0.15-1.16,0.07c-0.5,0.14-1.11,0.1-1.74,0.17c-0.29,0.03-0.54,0.1-0.88,0.14c-0.34,0.05-0.65,0-1.03,0.02 c-0.73,0.01-1.69,0.09-2.68-0.01c-0.98-0.11-2.02-0.2-2.87-0.48c-0.41-0.08-0.62-0.02-1.03-0.1 C31.25,110.52,29.42,109.85,26.2,108.57z M85.62,103.17c-0.2-0.17,0.73-0.36,0.85-0.34c0.49-0.19,0.81-0.25,1.17-0.33 c1.38-0.53,3.1-0.99,4.63-1.48c0.86-0.28,1.15-0.52,1.86-0.67c1.03-0.56,2.79-1.28,4.27-2.01c1.62-0.51,2.21-0.96,3.43-1.24 c1.65-0.96,3.31-1.64,5.77-2.71c2.53-0.98,4.8-2.1,7.35-3.25c0.55-0.16,1.49-0.74,1.85-0.7c0.6-0.45,1.79-0.9,2.47-1.17 c0.26-0.28,0.34-0.23,0.62-0.45c1.46-0.67,2.58-1.28,3.98-2.22c1.42-0.8,1.87-0.97,2.74-1.63c0.55-0.31,0.8-0.31,1.19-0.66 c0.23-0.12,0.29-0.28,0.4-0.22c0.6-0.28,0.7-0.46,0.98-0.42c0.41-0.21,0.99-0.64,1.12-0.49c0.23,0.12-0.48,0.37-0.73,0.55 c-0.08,0.16-0.53,0.37-0.73,0.55c-0.38,0.21-0.85,0.52-1.09,0.55c-0.4,0.37-0.99,0.62-1.54,0.98c-0.26,0.17-0.45,0.35-0.74,0.54 c-0.29,0.2-0.58,0.35-0.91,0.56c-1.28,0.83-3.34,2.1-5.07,2.78c-0.38,0.2-0.52,0.38-0.9,0.58c-3.21,1.43-5.05,2.25-8.29,3.82 c-0.73,0.24-1.05,0.55-1.57,0.58c-1.22,0.6-2.48,1.14-3.65,1.52c-0.42,0.29-0.82,0.55-1.31,0.81c-1.2,0.63-2.3,0.87-3.8,1.55 c0.04-0.02-0.11-0.06-0.16,0c-0.25,0.28-1.33,0.63-1.94,0.89c-0.87,0.37-2.46,1.05-3.93,1.67c-0.79,0.22-1.66,0.52-2.6,0.87 c-1.83,0.48-3.89,1.25-5.74,1.56c-0.19-0.14,0.34-0.24,0.36-0.37C86.05,103.04,85.11,103.43,85.62,103.17z M292.74,66.02 c-0.8,0.32-1.62,0.57-2.4,0.69c-0.27,0.19-0.53,0.36-0.85,0.5c-0.79,0.35-1.51,0.34-2.51,0.67c0.03-0.01-0.07-0.08-0.11-0.04 c-0.17,0.21-0.87,0.31-1.28,0.43c-0.57,0.16-1.62,0.46-2.6,0.74c-0.52,0.04-1.09,0.13-1.72,0.26c-1.2,0.05-2.56,0.32-3.76,0.2 c-0.11-0.18,0.23-0.16,0.25-0.28c0.08-0.12-0.55,0.04-0.2-0.09c-0.11-0.21,0.48-0.18,0.56-0.14c0.32-0.07,0.53-0.05,0.76-0.05 c0.91-0.19,2.03-0.25,3.03-0.38c0.56-0.08,0.76-0.25,1.22-0.23c0.68-0.31,1.84-0.61,2.81-0.99c1.06-0.13,1.45-0.44,2.24-0.45 c1.08-0.56,2.16-0.86,3.76-1.36c1.65-0.41,3.13-1.01,4.78-1.58c0.37-0.04,0.96-0.4,1.22-0.29c0.38-0.3,1.15-0.5,1.6-0.62 c0.15-0.21,0.21-0.15,0.39-0.3c0.95-0.34,1.67-0.71,2.54-1.32c0.9-0.48,1.2-0.56,1.73-1c0.35-0.19,0.53-0.14,0.76-0.39 c0.15-0.07,0.17-0.21,0.25-0.14c0.39-0.15,0.44-0.3,0.64-0.21c0.26-0.12,0.62-0.41,0.73-0.26c0.18,0.15-0.29,0.25-0.44,0.38 c-0.04,0.13-0.33,0.25-0.45,0.38c-0.24,0.13-0.53,0.33-0.7,0.31c-0.24,0.27-0.62,0.39-0.96,0.63c-0.16,0.11-0.28,0.24-0.46,0.37 c-0.18,0.13-0.37,0.22-0.58,0.35c-0.8,0.54-2.11,1.34-3.26,1.64c-0.25,0.12-0.33,0.26-0.57,0.37c-2.1,0.73-3.31,1.13-5.42,1.96 C293.3,65.87,293.1,66.1,292.74,66.02z M301.8,9.95c0.06-0.1-0.29-0.08-0.09-0.13c-0.02-0.23,0.29-0.07,0.32-0.01 c0.18,0,0.29,0.07,0.41,0.12c0.52,0.02,1.11,0.25,1.63,0.44c0.3,0.1,0.45,0,0.67,0.16c0.43-0.05,1.09,0.05,1.68,0.12 c0.53,0.28,0.83,0.2,1.17,0.54c0.71-0.01,1.3,0.25,2.15,0.66c0.81,0.52,1.63,0.88,2.43,1.46c0.12,0.19,0.5,0.29,0.49,0.52 c0.29,0.04,0.58,0.39,0.75,0.59c0.18-0.04,0.15,0.04,0.29,0.06c0.41,0.4,0.79,0.63,1.34,0.88c0.48,0.32,0.54,0.51,0.93,0.64 c0.17,0.14,0.15,0.27,0.36,0.32c0.06,0.07,0.17,0.02,0.12,0.11c0.13,0.2,0.25,0.17,0.19,0.35c0.1,0.12,0.35,0.24,0.22,0.38 c-0.12,0.19-0.21-0.08-0.31-0.13c-0.11,0.03-0.21-0.11-0.31-0.13c-0.1-0.11-0.27-0.21-0.26-0.34c-0.22-0.03-0.35-0.22-0.55-0.33 c-0.1-0.05-0.2-0.06-0.31-0.12c-0.11-0.05-0.2-0.13-0.32-0.19c-0.48-0.24-1.23-0.6-1.64-1.11c-0.13-0.07-0.24-0.03-0.37-0.11 c-0.9-0.8-1.48-1.2-2.6-1.7c-0.2-0.19-0.39-0.12-0.45-0.37c-0.45-0.14-0.86-0.37-1.21-0.62c-0.2,0.03-0.38,0.05-0.57,0.02 c-0.46-0.07-0.76-0.36-1.31-0.5c0.02,0,0.01-0.1-0.03-0.07c-0.16,0.12-0.51-0.06-0.73-0.11c-0.31-0.07-0.9-0.16-1.44-0.22 c-0.25-0.12-0.55-0.21-0.89-0.27c-0.59-0.28-1.34-0.34-1.93-0.7C301.6,9.96,301.77,10.06,301.8,9.95z M103.28,280.04 c0.08,0.12-0.02,0.46-0.01,0.65c-0.07,0.3-0.1,0.69-0.22,0.83c0.04,0.39-0.13,0.81-0.18,1.28c-0.03,0.22-0.01,0.41-0.03,0.65 c-0.02,0.25-0.09,0.47-0.14,0.74c-0.15,1.07-0.49,2.76-1.09,3.94c-0.1,0.29-0.05,0.46-0.15,0.75c-1.04,2.32-1.61,3.57-2.66,5.9 c-0.32,0.45-0.31,0.78-0.64,1c-0.41,0.87-0.87,1.72-1.41,2.41c-0.09,0.35-0.19,0.69-0.35,1.05c-0.39,0.88-0.99,1.43-1.58,2.45 c0.02-0.03-0.11-0.01-0.11,0.05c0,0.29-0.52,0.9-0.78,1.3c-0.37,0.56-1.06,1.58-1.7,2.51c-0.42,0.41-0.84,0.91-1.3,1.46 c-0.51,0.44-1,0.97-1.52,1.48c-0.53,0.49-1.07,0.97-1.62,1.34c-0.2-0.07,0.11-0.29,0.06-0.4c-0.01-0.15-0.45,0.41-0.23,0.07 c-0.22-0.09,0.31-0.48,0.4-0.5c0.24-0.28,0.43-0.41,0.64-0.57c0.67-0.79,1.6-1.64,2.37-2.47c0.43-0.47,0.49-0.75,0.89-1.07 c0.37-0.75,1.15-1.83,1.7-2.86c0.79-0.9,0.89-1.44,1.53-2.05c0.5-1.26,1.16-2.32,2.06-3.97c1-1.62,1.71-3.25,2.52-5.03 c0.24-0.33,0.43-1.08,0.69-1.22c0.06-0.54,0.48-1.32,0.72-1.78c-0.04-0.28,0.05-0.29,0.06-0.54c0.42-1.05,0.67-1.91,0.82-3.09 c0.27-1.11,0.4-1.43,0.43-2.19c0.09-0.44,0.25-0.55,0.21-0.93c0.05-0.18-0.05-0.29,0.06-0.31c0.14-0.44,0.06-0.59,0.26-0.71 c0.08-0.31,0.1-0.82,0.28-0.81C103.52,279.33,103.29,279.82,103.28,280.04z M211.02,291.38c-1.7-2.69-2.62-4.27-4.29-7.06 c-0.27-0.65-0.58-0.91-0.62-1.38c-0.6-1.07-1.17-2.17-1.53-3.23c-0.28-0.36-0.54-0.71-0.79-1.15c-0.62-1.06-0.81-2.07-1.44-3.43 c0.02,0.04,0.06-0.1,0.01-0.15c-0.26-0.23-0.56-1.21-0.78-1.77c-0.33-0.79-0.89-2.27-1.38-3.61c-0.15-0.73-0.37-1.54-0.63-2.41 c-0.13-0.85-0.34-1.75-0.52-2.65c-0.15-0.91-0.29-1.82-0.33-2.67c0.16-0.15,0.19,0.33,0.32,0.36c0.14,0.11-0.12-0.77,0.06-0.29 c0.19-0.16,0.26,0.68,0.23,0.79c0.12,0.45,0.13,0.75,0.17,1.08c0.34,1.28,0.61,2.87,0.95,4.28c0.2,0.79,0.41,1.06,0.5,1.71 c0.49,0.95,1.05,2.56,1.71,3.89c0.42,1.47,0.86,1.99,1.09,3.09c0.9,1.46,1.55,2.94,2.64,5.09c1.01,2.22,2.2,4.17,3.5,6.31 c0.2,0.48,0.82,1.24,0.82,1.59c0.49,0.47,1.04,1.47,1.37,2.05c0.29,0.18,0.26,0.27,0.5,0.48c0.81,1.2,1.53,2.1,2.62,3.15 c0.95,1.11,1.21,1.47,1.96,2.09c0.39,0.42,0.41,0.65,0.82,0.91c0.15,0.18,0.32,0.19,0.28,0.3c0.37,0.47,0.56,0.51,0.57,0.77 c0.27,0.31,0.78,0.72,0.67,0.87c-0.06,0.25-0.43-0.33-0.65-0.51c-0.17-0.03-0.45-0.38-0.65-0.51c-0.27-0.29-0.64-0.63-0.71-0.83 c-0.41-0.27-0.75-0.74-1.18-1.15c-0.2-0.19-0.4-0.33-0.64-0.54c-0.24-0.21-0.42-0.45-0.67-0.7c-0.98-0.96-2.47-2.59-3.31-4.05 C211.44,291.78,211.25,291.69,211.02,291.38z M136.9,182.32c0.09-0.51-0.01-1.5,0.18-1.79c-0.15-0.67-0.04-1.81,0.01-2.48 c-0.14-0.32-0.07-0.37-0.14-0.68c0.02-1.46-0.06-2.61-0.3-4.12c-0.12-1.47-0.07-1.92-0.29-2.88c-0.04-0.58,0.06-0.78-0.08-1.24 c0-0.24-0.13-0.35-0.03-0.41c0.01-0.6-0.1-0.76,0.06-0.97c-0.01-0.42-0.14-1.07,0.05-1.11c0.21-0.14,0.12,0.54,0.18,0.82 c0.11,0.13,0.1,0.58,0.17,0.82c0.02,0.4,0.09,0.9,0.01,1.11c0.16,0.47,0.13,1.05,0.22,1.65c0.04,0.28,0.12,0.51,0.17,0.82 c0.05,0.31,0.06,0.61,0.11,0.96c0.21,1.37,0.47,3.56,0.35,5.24c0.02,0.39,0.12,0.57,0.14,0.97c-0.08,3.24-0.13,5.03-0.21,8.3 c-0.12,0.69,0.01,1.08-0.21,1.51c-0.03,1.24-0.16,2.48-0.39,3.57c0.04,0.46,0.08,0.9,0.06,1.4c-0.02,1.24-0.42,2.2-0.6,3.7 c0.01-0.04-0.11,0.05-0.09,0.12c0.1,0.33-0.19,1.32-0.31,1.92c-0.15,0.85-0.52,2.4-0.87,3.81c-0.3,0.69-0.58,1.49-0.88,2.36 c-0.4,0.77-0.77,1.63-1.17,2.47c-0.44,0.82-0.9,1.63-1.4,2.32c-0.22,0.02,0.05-0.38-0.03-0.48c-0.04-0.17-0.38,0.69-0.23,0.19 c-0.25,0.01,0.22-0.7,0.31-0.77c0.18-0.43,0.36-0.68,0.54-0.96c0.28-0.62,0.57-1.28,0.88-1.97c0.32-0.68,0.65-1.37,0.9-2.06 c0.29-0.76,0.28-1.11,0.58-1.69c0.12-1.07,0.56-2.72,0.72-4.21c0.46-1.47,0.34-2.15,0.74-3.21c0.01-1.73,0.24-3.33,0.44-5.75 C136.8,187.15,136.83,184.86,136.9,182.32z M140.97,188.34c-0.03,0.38-0.02,0.86-0.12,1.04c0.1,0.47-0.01,1.01,0,1.58 c0.01,0.27,0.05,0.49,0.05,0.79c0,0.3-0.03,0.59-0.03,0.92c-0.01,1.32-0.13,3.42-0.59,4.96c-0.06,0.37,0.01,0.56-0.05,0.93 c-0.75,2.96-1.25,4.62-2.13,7.62c-0.29,0.6-0.28,0.99-0.6,1.33c-0.35,1.12-0.82,2.22-1.34,3.15c-0.09,0.43-0.17,0.84-0.33,1.3 c-0.4,1.11-1,1.88-1.62,3.17c0.02-0.04-0.12,0.01-0.12,0.09c0.01,0.34-0.53,1.16-0.8,1.66c-0.39,0.71-1.11,2.03-1.77,3.24 c-0.43,0.57-0.87,1.23-1.33,1.96c-1.02,1.27-2.02,2.88-3.15,4.05c-0.22-0.01,0.09-0.35,0.02-0.46c-0.02-0.16-0.45,0.6-0.25,0.15 c-0.25-0.02,0.3-0.63,0.39-0.69c0.23-0.39,0.43-0.6,0.64-0.84c0.66-1.09,1.61-2.3,2.42-3.43c0.45-0.64,0.5-0.97,0.92-1.44 c0.4-0.93,1.19-2.36,1.78-3.66c0.81-1.22,0.93-1.85,1.59-2.7c0.5-1.57,1.17-2.95,2-5.08c0.94-2.13,1.53-4.22,2.17-6.53 c0.21-0.45,0.32-1.39,0.56-1.61c0.01-0.65,0.34-1.68,0.52-2.29c-0.07-0.32,0.01-0.35-0.01-0.66c0.31-1.35,0.42-2.44,0.43-3.89 c0.1-1.4,0.23-1.8,0.14-2.73c0.04-0.54,0.16-0.72,0.08-1.17c0.03-0.22-0.08-0.34,0.02-0.39c0.09-0.56-0.01-0.72,0.17-0.91 c0.04-0.39-0.02-1.02,0.16-1.04c0.22-0.12,0.06,0.52,0.09,0.79C140.98,187.68,140.93,188.11,140.97,188.34z" fill-rule="evenodd" style="fill: rgb(0, 0, 0);"/></g></svg>