<?xml version="1.0" standalone="no"?>
<!DOCTYPE svg PUBLIC "-//W3C//DTD SVG 20010904//EN"
 "http://www.w3.org/TR/2001/REC-SVG-20010904/DTD/svg10.dtd">
<svg version="1.0" xmlns="http://www.w3.org/2000/svg"
 width="800.000000pt" height="652.000000pt" viewBox="0 0 800.000000 652.000000"
 preserveAspectRatio="xMidYMid meet">

<g transform="translate(0.000000,652.000000) scale(0.100000,-0.100000)"
fill="#83867a" stroke="none">
<path d="M3485 6294 c-589 -80 -1276 -392 -1830 -833 -204 -162 -585 -526
-779 -745 -644 -724 -873 -1318 -675 -1754 65 -144 189 -277 312 -336 403
-194 1220 -76 1928 280 60 30 113 54 119 54 5 0 10 -11 10 -25 0 -42 66 -285
115 -420 26 -72 82 -204 126 -294 44 -91 76 -168 72 -172 -19 -17 -328 -108
-548 -162 -333 -82 -575 -111 -864 -104 -181 4 -236 9 -337 31 -805 171 -1222
799 -1053 1585 37 169 131 402 222 548 36 58 39 63 33 63 -3 0 -29 -40 -60
-88 -324 -525 -361 -1090 -102 -1545 166 -291 481 -514 871 -617 163 -43 301
-60 486 -60 400 0 819 90 1321 283 l66 25 62 -102 c259 -430 641 -827 1067
-1109 592 -393 1294 -680 1893 -774 159 -25 569 -25 715 0 400 69 683 211 922
461 200 209 329 462 379 746 23 129 23 362 0 495 -17 93 -73 291 -81 283 -2
-2 8 -41 21 -88 45 -155 57 -257 51 -450 -6 -182 -18 -256 -64 -395 -90 -275
-268 -522 -502 -698 -194 -146 -405 -229 -716 -284 -146 -25 -535 -25 -700 1
-245 38 -546 122 -845 238 -299 116 -765 361 -1055 554 -294 196 -604 490
-822 779 -286 380 -508 846 -595 1252 -31 144 -33 441 -4 572 40 186 120 375
224 530 73 110 262 301 367 370 163 107 350 185 535 222 169 35 503 36 482 2
-6 -10 -24 -9 -83 3 -92 20 -249 13 -364 -15 -366 -90 -579 -334 -610 -697 -8
-101 14 -253 55 -377 105 -312 441 -798 830 -1200 599 -619 1395 -1093 2220
-1321 505 -139 837 -147 1119 -27 216 92 390 269 453 461 26 80 36 268 18 367
-54 319 -362 846 -755 1293 -115 131 -359 369 -485 474 -437 365 -919 639
-1417 806 -81 27 -149 50 -150 50 0 0 9 38 22 85 44 160 58 283 52 465 -10
299 -83 529 -244 770 -125 186 -321 356 -506 439 -96 43 -97 38 -2 -12 295
-155 518 -424 630 -760 59 -178 70 -250 70 -462 0 -161 -4 -207 -23 -300 -126
-589 -578 -1324 -1120 -1818 -68 -61 -127 -113 -131 -115 -9 -3 -97 106 -90
112 2 1 42 31 89 66 196 146 488 469 638 705 55 87 154 266 149 271 -1 2 -33
-48 -70 -109 -198 -328 -490 -638 -786 -837 -74 -50 -60 -57 -160 90 l-72 105
28 20 c187 136 496 431 651 623 189 233 342 472 462 717 72 148 143 315 137
321 -2 2 -14 -22 -27 -54 -39 -97 -165 -341 -232 -453 -241 -400 -573 -767
-948 -1048 -52 -39 -97 -71 -100 -71 -3 0 -30 41 -59 92 l-54 91 39 35 c436
390 753 742 938 1041 252 408 359 879 276 1219 -39 163 -137 330 -259 444
-116 108 -229 162 -405 193 -109 19 -350 18 -491 -1z m473 -54 c103 -17 216
-58 281 -101 124 -83 237 -260 283 -444 26 -104 30 -315 9 -424 -33 -167 -113
-376 -203 -532 l-50 -86 -52 9 c-90 17 -342 13 -451 -7 -217 -38 -467 -143
-631 -266 -310 -232 -510 -561 -579 -954 -16 -89 -23 -374 -10 -395 8 -12
-264 -147 -420 -209 -514 -203 -1060 -285 -1402 -211 -49 11 -52 13 -48 38 2
15 10 61 16 102 41 269 234 650 534 1055 150 202 270 338 471 535 330 323 688
579 1129 806 572 296 1001 380 1462 289 28 -5 28 -5 3 5 -14 6 -79 20 -145 32
-170 29 -444 22 -625 -17 -436 -92 -976 -357 -1465 -720 -425 -314 -796 -719
-1068 -1164 -209 -341 -311 -598 -336 -845 -5 -48 -11 -89 -14 -92 -7 -7 -99
30 -151 60 -50 29 -72 74 -106 221 -109 462 17 961 382 1509 165 248 270 376
455 558 280 276 453 424 693 592 501 352 1123 606 1610 659 78 8 369 6 428 -3z
m236 -1712 c-55 -95 -293 -375 -485 -572 l-166 -170 -75 -7 c-42 -4 -103 -18
-139 -33 -35 -14 -65 -23 -69 -20 -3 3 -5 58 -5 122 0 117 0 117 42 205 76
159 187 288 305 355 90 51 275 101 448 121 118 13 152 13 144 -1z m1014 -172
c869 -293 1702 -945 2236 -1751 280 -422 396 -700 396 -948 0 -90 -20 -188
-48 -243 l-18 -36 0 163 c0 233 -35 372 -151 603 -164 328 -524 803 -785 1037
-80 71 -79 69 33 -48 377 -394 717 -931 816 -1290 25 -89 27 -114 27 -268 1
-229 -19 -322 -78 -379 -57 -54 -164 -122 -245 -155 -63 -27 -182 -61 -209
-61 -8 0 -12 29 -12 99 0 231 -78 451 -275 780 -462 768 -1197 1382 -2040
1706 -82 31 -151 58 -153 60 -1 1 25 49 59 106 87 146 197 373 260 533 29 75
54 136 55 136 1 0 60 -20 132 -44z m-1783 -672 c-38 -36 -82 -74 -97 -85 l-28
-20 -9 23 c-4 13 -11 37 -14 54 -6 31 -4 33 51 57 67 30 85 34 132 35 l35 1
-70 -65z m1510 -186 c763 -319 1458 -922 1887 -1638 203 -337 277 -546 278
-777 l0 -112 -46 -7 c-118 -17 -394 19 -653 87 -823 214 -1602 662 -2222 1279
-142 141 -321 339 -317 350 2 4 50 47 108 97 219 189 470 469 639 715 l74 106
66 -25 c36 -13 120 -47 186 -75z"/>
<path d="M2124 4964 c-492 -298 -883 -697 -1209 -1239 -84 -140 -295 -565
-280 -565 2 0 22 35 46 78 76 140 231 395 322 532 309 466 627 803 1067 1128
217 162 223 168 54 66z"/>
<path d="M5340 3437 c3 -3 94 -64 203 -137 493 -329 868 -653 1124 -974 225
-282 446 -651 513 -859 12 -38 24 -66 26 -64 9 9 -70 217 -126 335 -260 541
-688 1013 -1290 1424 -147 100 -473 300 -450 275z"/>
<path d="M3284 4318 l-19 -23 23 19 c21 18 27 26 19 26 -2 0 -12 -10 -23 -22z"/>
<path d="M3236 4257 c-35 -46 -93 -171 -111 -242 -50 -193 -36 -391 42 -608
128 -356 524 -876 1001 -1313 288 -264 883 -701 1187 -871 415 -233 824 -382
1246 -454 174 -29 517 -38 645 -15 204 35 372 108 466 202 86 86 149 219 163
341 l6 58 -38 -71 c-128 -235 -309 -363 -599 -421 -130 -26 -398 -23 -559 6
-341 61 -817 221 -1191 400 -779 374 -1464 935 -1984 1626 -270 359 -390 640
-390 914 0 152 44 318 111 422 42 64 44 78 5 26z"/>
<path d="M2914 3975 c-95 -145 -163 -309 -205 -494 -30 -128 -37 -392 -14
-535 17 -108 41 -196 30 -110 -33 268 -31 419 10 619 38 189 128 419 221 567
13 21 22 38 19 38 -3 0 -30 -38 -61 -85z"/>
<path d="M64 3050 c16 -290 238 -551 589 -691 156 -63 385 -110 630 -129 388
-31 900 65 1202 224 39 20 61 34 50 31 -11 -4 -74 -25 -140 -47 -209 -69 -462
-119 -695 -136 -58 -4 -195 -4 -305 0 -554 19 -961 167 -1167 426 -87 110
-128 196 -154 327 l-14 70 4 -75z"/>
<path d="M2731 2774 c0 -11 3 -14 6 -6 3 7 2 16 -1 19 -3 4 -6 -2 -5 -13z"/>
<path d="M3196 2260 c23 -47 135 -226 207 -330 159 -228 395 -489 617 -684
264 -232 547 -418 847 -555 537 -246 1152 -371 1666 -340 229 15 236 24 19 26
-462 3 -928 100 -1418 294 -509 201 -926 480 -1350 904 -232 231 -395 425
-587 695 -17 24 -17 24 -1 -10z"/>
</g>
</svg>
