<svg xmlns="http://www.w3.org/2000/svg" xmlns:xlink="http://www.w3.org/1999/xlink" preserveAspectRatio="xMidYMid meet" version="1.0" viewBox="-0.0 -0.1 445.7 500.1" zoomAndPan="magnify" style="fill: rgb(0, 0, 0);" original_string_length="72788"><g><g id="__id0_s6f50v8lwh"><path d="M353.76,59.4c0.72,0.17-1.75,1.21-2.39,1.06c-14.03-3.27-27.4,1.65-40.65,5.81c-8.63,2.71-17.18,4.67-26.24,5 c-23.23,0.85-46.71,3.61-66.15,17.53c-0.55,0.39-3.13,0.65-2.6,0.27c17.83-12.77,39.68-17.37,61.24-18.55 c7.38-0.4,14.73-0.26,21.99-1.83c7.1-1.53,13.93-4.05,20.86-6.17C330.86,59.14,342.32,56.73,353.76,59.4L353.76,59.4z M301.16,107.26c-31.3,6.73-59.84-17.61-91.32-11.14c-1.15,0.24-2.54,1.53-0.52,1.12c31.32-6.43,59.82,17.92,91.32,11.14 C301.79,108.13,303.17,106.83,301.16,107.26L301.16,107.26z M313.98,36.01c-10.74,2.09-21.89,4.47-30.69,11.38 c-10.47,8.21-16.85,21.61-30.36,25.7c-1.71,0.52-1.33,2.08,0.42,1.55c10.75-3.26,17.83-11.8,25.09-19.81 c4.73-5.21,9.91-9.45,16.49-12.14c6.23-2.55,12.89-3.85,19.48-5.13C316.18,37.22,315.74,35.67,313.98,36.01L313.98,36.01z M341.57,81.59c-19.44,4.02-35.24-14.6-54.86-11.72c-1.58,0.23-2.22,2.38-0.26,2.1c19.79-2.9,35.58,15.74,55.65,11.59 C343.91,83.17,343.36,81.22,341.57,81.59L341.57,81.59z M358.86,60.45c0.59,0.07,0.94-0.4,0.86-1.39 c-0.32-4.02-1.99-8.25-5.26-10.79c-2.42-1.88-5.64-1.93-7.77,0.43c-2.51,2.77-1.68,6.97-0.15,10.02c1.35,2.69,4.04,6.24,7.47,5.87 C356.09,64.35,358.06,62.51,358.86,60.45z M329.62,60.46c4.02-0.33,4.14-5.24,2.63-8.04c-1.58-2.94-5.33-5.4-8.49-3.19 c-3.25,2.27-3.07,6.73-0.84,9.67C324.59,61.1,327.48,61.69,329.62,60.46z M328.88,95.38c2.38-0.88,4.03-3.03,3.75-5.61 c-0.01-0.05-0.01-0.1-0.02-0.14c0.02-0.05,0.04-0.1,0.05-0.16c0.37-1.44-0.96-3.66-1.88-4.65c-1.83-1.95-4.33-3.82-7.16-3.59 c-2.27,0.18-4.31,1.76-4.81,4.02C317.61,90.58,323.3,97.44,328.88,95.38z M348.38,86.2c1.64-2.79,0.62-6.93-1.88-9.02 c-1.56-2.21-4.1-3.55-6.84-2.17c-3.95,2-3.19,7.75-0.87,10.65C341.05,88.49,346.17,89.97,348.38,86.2z M367,67.15 c0.21-0.6,0.17-1.33,0.02-1.97c-0.03-1.09-0.57-2.24-1.17-3.04c-1.02-1.38-2.71-2.25-4.38-1.59c-1.42,0.56-1.79,2.19-1.63,3.55 c0.16,1.39,0.96,2.79,1.99,3.71c0.54,0.48,1.26,0.91,1.98,1.04C365.2,69.1,366.5,68.54,367,67.15z M318.77,40.91 c0.28-1.2,0.15-2.52-0.29-3.73c-0.18-1.14-0.85-2.2-1.7-2.99c-2.3-2.15-6.13-1.98-7.72,0.87c-1.71,3.07,0.03,7.34,3.06,8.84 C314.94,45.3,318.05,43.98,318.77,40.91z M282.92,45.84c0.94-1.06,1.45-2.13,1.59-3.25c0.08-0.03,0.16-0.1,0.22-0.21 c1.33-2.42-0.45-5.7-1.78-7.72c-1.41-2.15-3.54-3.84-6.22-2.91c-2.31,0.8-3.52,3.41-3.67,5.69c-0.2,3.06,1.48,6.43,3.53,8.62 C278.6,48.19,280.99,48.01,282.92,45.84z M291.6,84.49c1.2-1.8,1.33-3.81,0.78-5.72c0.22-0.51,0.15-1.35,0.03-1.84 c-0.35-1.47-1.4-3.43-2.84-4.13c-2.7-1.32-6.19-1.69-8.65,0.38c-2.19,1.84-2.84,4.76-2.12,7.46c0.81,3.02,2.96,6.26,6.05,7.26 C287.84,88.85,290.04,86.82,291.6,84.49z M307.28,117.81c4.52-3.46,2.92-11.68-2.51-13.42c-2.28-0.73-4.67,0.49-6.15,2.21 c-1.47,1.71-1.57,3.93-0.89,5.94C298.76,116.83,303.03,121.06,307.28,117.81z M277.84,117.82c0.81-0.45,1.19-1.16,1.45-2.01 c0.09-0.29,0.06-0.68-0.01-1.06c0.07-0.44,0.02-0.94-0.09-1.32c-0.53-1.76-1.4-3.54-2.9-4.69c-0.72-0.56-1.64-1.05-2.58-1.02 c-2.01,0.07-2.78,1.9-2.7,3.67c0.07,1.53,0.78,3.12,1.65,4.35c0.78,1.11,1.85,2.13,3.22,2.4 C276.52,118.26,277.27,118.13,277.84,117.82z M260.14,98.9c0-0.41-0.06-0.81-0.18-1.2c-0.09-0.51-0.28-1.01-0.47-1.38 c-0.75-1.44-2.44-3-4.21-2.57c-1.71,0.41-2.26,2.17-1.91,3.77c0.42,1.91,2,4.49,4.29,4.29C259.13,101.67,260.13,100.33,260.14,98.9 z M293.95,110.89c0.66-0.15,1.24-0.55,1.73-1.26c1.19-1.75,0.68-4.24-0.06-6.05c-1.29-3.2-5.18-8.23-9.22-5.87 c-4.04,2.35-1.91,8.23,0.21,11.12c1.09,1.48,2.93,3.46,4.99,3.32C292.61,112.09,293.42,111.61,293.95,110.89z M263.7,116.19 c0.24-0.03,0.47-0.08,0.7-0.2c1.04-0.52,1.37-1.61,1.4-2.71c0.15-0.45,0.2-0.95,0.17-1.35c-0.15-2.53-1.61-5.29-3.66-6.8 c-1-0.74-2.18-1.14-3.38-0.82c-0.44,0.01-0.87,0.11-1.28,0.34c-0.9,0.49-1.52,1.44-1.89,2.36c-1.07,2.67,0.59,5.87,2.41,7.82 c1.12,1.2,2.74,2.22,4.43,1.84C263.03,116.56,263.39,116.4,263.7,116.19z M286.82,125.33c0.67-0.32,1.18-0.96,1.44-1.64 c0.63-1.64,0.11-3.6-0.95-4.94c-1.57-1.99-4.31-2.44-6.18-0.64c-2.12,2.04-1.28,5.8,0.85,7.48c0.85,0.67,1.97,1.08,3.06,0.89 C285.85,126.35,286.43,125.92,286.82,125.33z M243.55,107.16c0.17-0.01,0.34-0.04,0.5-0.13c0.4-0.25,0.62-0.64,0.69-1.1 c0.05-0.35,0.1-0.69,0.15-1.04c0.16-1.14-0.55-2.15-1.46-2.72c-0.94-0.59-2.34-0.57-3.13,0.27c-0.87,0.93-0.74,2.51-0.11,3.53 c0.44,0.71,1.1,1.38,1.96,1.53C242.64,107.59,243.15,107.46,243.55,107.16z M324.4,77.15c0.44-1.67-0.3-3.69-1.63-4.78 c-0.28-0.23-0.64-0.44-1.02-0.58c-0.16-0.18-0.32-0.34-0.48-0.49c-0.93-0.84-2.17-1.49-3.46-1.31c-1.29,0.18-2.27,1.17-2.72,2.36 c-1.13,2.99,0.84,7.37,4.07,8.1C321.48,80.97,323.8,79.42,324.4,77.15z M340.27,95.97c0.18-0.12,0.32-0.27,0.44-0.43 c0.21-0.14,0.35-0.33,0.43-0.54c0.73,0.22,0.52-1.02,0.41-1.48c-0.27-1.1-0.9-2.19-1.68-3.01c-0.28-0.29-0.62-0.58-1-0.77 c-0.39-0.28-0.82-0.45-1.3-0.43c-0.99,0.04-1.73,0.74-1.74,1.74c-0.01,0.74,0.27,1.54,0.68,2.24c0.19,0.43,0.42,0.84,0.63,1.15 C337.75,95.38,339.04,96.83,340.27,95.97z M309.77,84.84c1.79-1.96,1.19-4.88-0.6-6.64c-0.1-0.09-0.2-0.19-0.31-0.27 c-0.87-1.43-2.37-2.51-4.05-2.21c-1.97,0.36-3.71,2.56-3.82,4.52C300.74,84.79,306.29,88.66,309.77,84.84z M316.04,94.9 c0.64-1.43,0.07-3.07-0.83-4.26c-0.32-0.42-0.81-0.92-1.34-1.19c-0.31-0.25-0.64-0.45-1.03-0.57c-0.71-0.23-1.59-0.23-2.21,0.25 c-1.99,1.56-0.43,4.91,0.97,6.26c0.78,0.76,1.77,1.17,2.84,0.88C315.14,96.08,315.74,95.56,316.04,94.9z M303.15,44.15 c-0.32-0.67-0.82-1.27-1.35-1.66c-3.32-2.39-8.3-0.63-8.53,3.7c-0.21,3.98,3.36,9.21,7.81,8.06 C305.74,53.04,306.01,47.31,303.15,44.15z M273.05,59.71c1.02-0.47,1.68-1.21,1.96-2.13c0.06-0.01,0.12-0.03,0.16-0.08 c1.27-1.32,0.19-3.53-0.66-4.82c-0.96-1.45-2.37-2.53-4.09-2.92c-3.39-0.76-5.74,2.08-4.94,5.3 C266.35,58.59,269.38,61.41,273.05,59.71z M287.02,55.27c0.95-1.79-0.7-4.59-1.88-5.84c-0.5-0.53-1.08-0.97-1.84-0.88 c-0.29,0.03-0.55,0.15-0.75,0.32c-0.99-0.06-1.98,0.15-2.47,1.14c-0.69,1.4,0.29,3.42,1.28,4.71c0.63,1.06,1.51,1.99,2.66,2.12 C285.22,56.96,286.44,56.35,287.02,55.27z M298.6,62.26c0.03-0.28,0.02-0.57-0.02-0.86c0.38-0.25,0.35-1.18,0.25-1.58 c-0.28-1.12-0.98-2.29-1.99-2.89c-1.52-0.91-3.98-1.14-4.93,0.7c-1.12,2.15,0.44,5.55,2.43,6.63 C295.99,65.17,298.38,64.24,298.6,62.26z M302.91,38.16c0.07-0.07,0.12-0.14,0.18-0.21c0.24,0.14,0.46,0.14,0.61-0.13 c0.96-1.77,0.37-3.87-0.38-5.62c-0.86-1.98-2.22-4.32-4.23-5.32c-1.51-0.75-3.36-0.44-4.66,0.6c-1.64,1.32-2.07,3.31-1.54,5.3 c0.63,2.32,2.22,5.2,4.51,6.28C299.03,39.83,301.61,39.5,302.91,38.16z M275.67,105.03c1.16-0.7,1.73-1.75,1.86-2.95 c2.95-3.52-1.37-10.55-4.77-12.21c-4.29-2.1-8.79,1.9-8.17,6.33c0.42,3,2.37,6.52,4.96,8.16 C271.27,105.45,273.81,106.15,275.67,105.03z M284.83,94.44c0.03-0.23,0.02-0.47-0.02-0.71c-0.01-0.14-0.02-0.28-0.04-0.4 c-0.2-1.11-0.88-2.17-1.73-2.91c-0.43-0.38-1.03-0.69-1.62-0.68c-1.28,0-1.77,1.23-1.68,2.34c0.08,1.03,0.57,2.05,1.21,2.85 c0.47,0.57,1.09,1.11,1.85,1.19C283.81,96.21,284.71,95.43,284.83,94.44z M260.15,87.24c0.18-0.62,0.01-1.4-0.27-1.9 c-1.18-2.16-4.4-3.71-6.26-1.39c-1.8,2.24-0.52,5.78,1.99,6.87C258.16,91.93,260.62,89.87,260.15,87.24z M336.85,5.58 c0.59-0.34,0.85-1,0.96-1.6c0.16-0.85,0.1-1.85-0.46-2.75c-0.32-0.52-0.9-0.94-1.58-1.13c-0.73-0.2-1.33-0.05-1.82,0.24 c-0.3,0.18-0.43,0.68-0.49,0.97c-0.06,0.3-0.09,0.66-0.05,1c-0.09,0.74,0.03,1.57,0.52,2.32C334.58,5.61,335.93,6.11,336.85,5.58z M357.88,87.95c-0.37-1.31-1.32-2.5-2.68-2.85c-0.32-0.08-0.62-0.1-0.93-0.08c-1.89-0.42-3.95-0.09-4.68,2.04 c-1.03,3,1.64,5.44,4.47,5.58C356.72,92.77,358.63,90.59,357.88,87.95z M118.38,40.96c-0.59,32.1-32.38,57.6-33.26,89.67 c-0.01,0.48,2.86,0.1,2.88-0.77c0.89-32.04,32.67-57.53,33.26-89.67C121.27,39.7,118.39,40.1,118.38,40.96L118.38,40.96z M131,36.66c-2.33-5.2-10.69-5.53-13.64-0.64c-1.24,2.05-0.6,4.66,0.74,6.49c1.32,1.82,3.47,2.44,5.58,2.23 C128.1,44.73,133.19,41.54,131,36.66z M124.25,65.31c-0.25-0.89-0.86-1.43-1.63-1.87c-0.27-0.15-0.64-0.21-1.03-0.23 c-0.41-0.17-0.91-0.24-1.3-0.21c-1.84,0.12-3.76,0.55-5.23,1.75c-0.71,0.58-1.4,1.36-1.59,2.28c-0.4,1.97,1.21,3.15,2.95,3.47 c1.51,0.28,3.22-0.05,4.61-0.61c1.26-0.51,2.5-1.31,3.07-2.58C124.38,66.7,124.43,65.94,124.25,65.31z M101.78,78.2 c-0.4-0.1-0.8-0.12-1.21-0.1c-0.52-0.03-1.05,0.04-1.45,0.14c-1.58,0.39-3.48,1.69-3.47,3.51c0.01,1.76,1.59,2.7,3.23,2.73 c1.95,0.03,4.83-0.92,5.16-3.19C104.24,79.82,103.17,78.53,101.78,78.2z M121.21,48.04c0-0.68-0.25-1.33-0.83-1.97 c-1.43-1.56-3.97-1.63-5.9-1.33c-3.41,0.52-9.19,3.15-7.83,7.62c1.36,4.47,7.58,3.75,10.87,2.35c1.69-0.72,4.04-2.06,4.38-4.09 C122.07,49.62,121.79,48.73,121.21,48.04z M119.43,78.7c0.03-0.24,0.03-0.48-0.03-0.73c-0.27-1.14-1.25-1.71-2.32-1.98 c-0.4-0.25-0.88-0.41-1.27-0.48c-2.5-0.43-5.51,0.36-7.46,2c-0.95,0.81-1.61,1.86-1.58,3.1c-0.09,0.43-0.09,0.87,0.03,1.33 c0.27,0.99,1.05,1.81,1.86,2.38c2.36,1.65,5.85,0.77,8.16-0.55c1.43-0.81,2.79-2.15,2.8-3.89 C119.63,79.44,119.56,79.05,119.43,78.7z M133.62,58.3c-0.16-0.72-0.67-1.37-1.26-1.78c-1.45-0.99-3.48-0.93-5.02-0.21 c-2.29,1.08-3.37,3.64-2.05,5.87c1.5,2.53,5.35,2.58,7.48,0.89c0.85-0.67,1.51-1.67,1.57-2.77 C134.39,59.48,134.11,58.82,133.62,58.3z M106,96.24c0.03-0.17,0.04-0.34-0.01-0.51c-0.15-0.44-0.48-0.75-0.91-0.92 c-0.33-0.13-0.65-0.25-0.98-0.38c-1.07-0.42-2.22,0.04-2.99,0.8c-0.79,0.78-1.09,2.15-0.45,3.11c0.71,1.06,2.27,1.3,3.41,0.92 c0.79-0.26,1.59-0.75,1.94-1.56C106.21,97.23,106.21,96.7,106,96.24z M111.31,64.49c-0.41-1.29-1.3-2.08-2.44-2.49 c-2.75-3.68-10.58-1.09-12.98,1.83c-3.02,3.69-0.17,8.99,4.28,9.41c3.01,0.28,6.89-0.81,9.09-2.96 C110.71,68.87,111.97,66.56,111.31,64.49z M103.11,53.14c-0.22-0.08-0.45-0.12-0.69-0.14c-0.14-0.03-0.28-0.04-0.4-0.05 c-1.13-0.06-2.32,0.36-3.22,1.01c-0.46,0.33-0.91,0.85-1.04,1.42c-0.29,1.25,0.79,2,1.89,2.17c1.03,0.16,2.13-0.08,3.05-0.53 c0.66-0.32,1.33-0.8,1.58-1.53C104.6,54.54,104.05,53.49,103.11,53.14z M90.43,75.51c-0.56-0.32-1.36-0.33-1.91-0.18 c-2.37,0.65-4.62,3.43-2.79,5.78c1.77,2.27,5.51,1.83,7.15-0.36C94.54,78.53,93.1,75.66,90.43,75.51z M128.15,23.91 c-0.69-0.36-1.58-0.34-2.32-0.21c-1.06,0.17-2.18,0.57-2.94,1.36c-0.43,0.45-0.63,1.08-0.51,1.69c0.13,0.67,0.61,1.11,1.19,1.39 c0.36,0.18,1,0.11,1.37,0.06c0.38-0.06,0.8-0.16,1.18-0.32c0.9-0.19,1.8-0.58,2.41-1.25C129.32,25.76,129.22,24.47,128.15,23.91z M99.75,302.6c-1.56-1.91-4.06-2.39-6.48-2.05c-2.03-0.25-4.37,0.43-5.83,1.84c-2,1.93-2.58,4.91-0.91,7.25 c2.39,3.34,8.1,2.25,11.01,0.39C100.04,308.42,101.93,305.27,99.75,302.6z M103.22,289.26c-1.05,0.7-1.59,2-1.42,3.11 c-0.12,0.21-0.22,0.43-0.3,0.67c-0.36,1.2,0.13,2.37,1.23,2.98c2.6,1.42,7.35-0.43,7.39-3.66 C110.16,288.73,105.95,287.45,103.22,289.26z M15.47,258.98c-0.64,0.05-1.51,0.2-2.18,0.54c-0.41,0.14-0.81,0.31-1.15,0.52 c-1.25,0.77-2.05,2.34-1.37,3.77c0.86,1.8,3.2,1.6,4.82,1.18c1.61-0.42,3.83-1.45,3.71-3.44 C19.18,259.61,17.13,258.84,15.47,258.98z M104.35,322.97c-1.91,0.8-4.99,0.91-6.03-1.28c-0.58-1.22-0.14-2.43,0.69-3.34 c0.01-0.39,0.43-0.82,0.79-1.05c1.88-1.17,5.35-1.65,6.76,0.52C107.92,319.9,106.36,322.13,104.35,322.97z M102.4,320.15 c0.07,0.26,0.18,0.49,0.36,0.68c0.11-0.42,0.07-0.85-0.09-1.26c-0.06-0.16-0.16-0.28-0.26-0.38 C102.32,319.51,102.31,319.83,102.4,320.15z M38.57,273.91c-0.65-0.69-1.51-0.87-2.27-0.7c-0.05-0.01-0.09-0.02-0.14-0.02 c-2.02-0.12-3.67,1.98-3.06,3.91c0.6,1.88,2.95,2.82,4.65,1.77C39.41,277.84,39.98,275.4,38.57,273.91z M98.64,293.03 c-0.84-0.99-2.38-1.16-3.5-0.57c-1.17,0.61-1.68,2.01-1.28,3.25c0.42,1.3,1.65,2.16,3.02,1.97c1.4-0.19,2.63-1.58,2.45-3.03 c-0.1-0.77-0.62-1.53-1.49-1.49c-0.73,0.03-1.6,0.66-1.49,1.49c0.01,0.08-0.02,0.44,0.03,0.13c0.03-0.18,0.09-0.04-0.01,0.01 c0.09-0.1,0.09-0.12,0.02-0.04c-0.08,0.07-0.06,0.07,0.04-0.02c-0.04,0.02-0.08,0.04-0.12,0.07c0.05-0.04,0.11-0.06,0.18-0.06 c0.11-0.01,0.09-0.01-0.07-0.01c0.05,0,0.1,0.01,0.15,0.01c0.42,0.12-0.09-0.07,0.11,0.05c0.09,0.07,0.08,0.06-0.02-0.04 c0.03,0.04,0.06,0.08,0.09,0.12c-0.07-0.13-0.08-0.14-0.03-0.03c0.04,0.11,0.04,0.1-0.01-0.04c-0.08-0.28,0.01,0.18,0,0 c-0.01-0.17-0.08,0.26,0.02,0c-0.02,0.06-0.2,0.34-0.1,0.23c0.12-0.14-0.16,0.21,0.03,0.01c-0.16,0.07-0.19,0.09-0.08,0.06 c0.11-0.03,0.07-0.02-0.11,0.01c0.29,0.03-0.18-0.05,0.01-0.02c0.1,0.02,0.29,0.14,0.02-0.01c-0.2-0.1-0.08-0.07,0.04,0.07 c0.52,0.62,1.57,0.54,2.11,0C99.25,294.54,99.17,293.65,98.64,293.03L98.64,293.03z M102.55,225.43c-0.22-0.07-0.47-0.04-0.69,0.04 c-0.69,0.09-1.32,0.57-1.55,1.23c-0.34,0.97,0.22,2.1,1.21,2.4c1,0.31,2.12-0.29,2.4-1.31 C104.21,226.76,103.57,225.73,102.55,225.43z M100.14,240.14c0-0.12-0.03-0.24-0.08-0.34c-0.02-0.09-0.04-0.18-0.09-0.26 c-0.3-0.52-1.01-0.69-1.5-0.35c-0.54,0.38-0.4,1.18,0.12,1.51c0.07,0.04,0.14,0.08,0.21,0.1c0.16,0.1,0.34,0.16,0.54,0.15 c0.06,0,0.11-0.02,0.16-0.05C99.85,240.82,100.13,240.54,100.14,240.14z M116.41,226.14c-0.08-0.15-0.2-0.26-0.33-0.35 c-0.19-0.29-0.51-0.49-0.88-0.47c-0.89,0.05-1.73,0.49-2.09,1.33c-0.32,0.76-0.13,1.69,0.5,2.23c0.73,0.62,1.81,0.55,2.5-0.1 C116.85,228.1,116.86,227,116.41,226.14z M101.18,399.87c-0.17-1.34-0.88-2.56-2.09-3.17c-0.17-0.13-0.36-0.25-0.55-0.36 c-0.05-0.03-0.1-0.06-0.15-0.09c-0.06-0.03-0.12-0.06-0.18-0.09c-0.15-0.08-0.3-0.15-0.46-0.21c-5.16-3.03-11.97,2.7-10.63,8.3 c0.82,3.45,3.47,4.91,6.23,4.8c3.43,0.54,6.33-1.67,7.56-4.95C101.43,402.67,101.51,401.2,101.18,399.87z M104,459.86 c-0.15-0.44-0.49-0.8-0.98-0.94c-0.9-0.24-1.89,0.16-2.36,0.98c-0.44,0.78-0.41,1.79,0.25,2.45c0.54,0.55,1.35,0.71,2.08,0.51 c0.92-0.26,1.4-1.01,1.51-1.91C104.56,460.54,104.33,460.14,104,459.86z M110.77,418.51c0,0.01,0,0.03,0,0.04 C110.77,418.53,110.77,418.52,110.77,418.51C110.77,418.51,110.77,418.51,110.77,418.51z M112.8,421.69 c-2.16,1.59-5.44,0.54-6.58-1.81c-0.31-0.64-0.42-1.36-0.33-2.04c0.01-0.13,0.04-0.27,0.08-0.41c0-0.01,0.01-0.01,0.01-0.02 c0-0.01,0.01-0.01,0.01-0.02c0.89-2.83,4.26-3.5,6.62-1.99C114.89,416.85,115,420.08,112.8,421.69z M212,121.27 c-0.87-0.26-2.22,0.01-2.79,0.8c-0.05,0.05-0.1,0.11-0.12,0.18c-0.28,0.7,0.33,1.26,0.96,1.44c0.55,0.16,1.15,0.08,1.69-0.09 c0.47-0.15,1.02-0.41,1.22-0.89C213.26,122.01,212.62,121.45,212,121.27z M213.8,106.25c-1.49-0.56-3.79,0.03-4.75,1.75 c-0.09,0.12-0.16,0.24-0.21,0.38c-0.47,1.52,0.57,2.73,1.63,3.13c0.93,0.35,1.97,0.18,2.88-0.19c0.8-0.33,1.74-0.89,2.08-1.94 C215.93,107.87,214.84,106.64,213.8,106.25z M362.32,15.07c-0.51-0.78-1.79-1.32-2.83-0.87c-0.08,0.02-0.16,0.05-0.23,0.1 c-0.74,0.53-0.67,1.45-0.31,2.01c0.32,0.49,0.86,0.77,1.41,0.92c0.48,0.13,1.12,0.2,1.64-0.15 C362.77,16.56,362.68,15.62,362.32,15.07z M373.1,95.62c0.26-0.63,0.08-1.31-0.19-1.86c-0.38-0.77-1.03-1.54-2.02-1.93 c-0.57-0.22-1.29-0.21-1.94,0.04c-0.7,0.27-1.1,0.76-1.31,1.28c-0.13,0.32,0.06,0.81,0.19,1.07c0.13,0.28,0.32,0.58,0.56,0.83 c0.38,0.65,0.97,1.24,1.81,1.55C371.3,97.01,372.68,96.6,373.1,95.62z M54.07,432.85c0,0.01,0,0.03,0,0.04 C54.07,432.87,54.07,432.86,54.07,432.85C54.07,432.85,54.07,432.85,54.07,432.85z M56.1,436.03c-2.16,1.59-5.44,0.54-6.58-1.81 c-0.31-0.64-0.42-1.36-0.33-2.04c0.01-0.13,0.04-0.27,0.08-0.41c0-0.01,0.01-0.01,0.01-0.02c0-0.01,0.01-0.01,0.01-0.02 c0.89-2.83,4.26-3.5,6.62-1.99C58.2,431.19,58.3,434.42,56.1,436.03z M322.97,113.44c0.59-0.34,0.85-1,0.96-1.6 c0.16-0.85,0.1-1.85-0.46-2.75c-0.32-0.52-0.9-0.94-1.58-1.13c-0.73-0.2-1.33-0.05-1.82,0.24c-0.3,0.18-0.43,0.68-0.49,0.97 c-0.06,0.3-0.09,0.66-0.05,1c-0.09,0.74,0.03,1.57,0.52,2.32C320.69,113.47,322.05,113.98,322.97,113.44z M348.44,122.93 c-0.51-0.78-1.79-1.32-2.83-0.87c-0.08,0.02-0.16,0.05-0.23,0.1c-0.74,0.53-0.67,1.45-0.31,2.01c0.32,0.49,0.86,0.77,1.41,0.92 c0.48,0.13,1.12,0.2,1.64-0.15C348.88,124.43,348.79,123.48,348.44,122.93z" style="fill: #c4d2ad;"/></g><g><g id="__id1_s6f50v8lwh"><path d="M387.93,57.73c0.73,2.36,1.47,4.72,2.01,7.17c-1.53-1.99-2.86-4.07-4.19-6.15c-1.32-2.09-2.56-4.21-3.77-6.35 c-1.14-2.04-2.24-4.09-3.3-6.16c0.06,0.2,0.13,0.4,0.19,0.6c0.53,1.81,1.03,3.64,1.45,5.5c0.41,1.86,0.79,3.74,1,5.68 c-1.2-1.54-2.25-3.15-3.25-4.77c-1-1.62-1.92-3.28-2.81-4.95c-0.88-1.67-1.71-3.36-2.5-5.07c-0.79-1.71-1.53-3.44-2.25-5.17 l-0.48-1.17l0.68-1.08c1.02-1.62,2.06-3.23,3.14-4.81c1.09-1.58,2.2-3.14,3.38-4.66c1.17-1.53,2.38-3.03,3.66-4.49 c1.3-1.44,2.59-2.9,4.08-4.23c-0.54,1.92-1.28,3.72-2,5.52c-0.75,1.79-1.56,3.54-2.42,5.27c-0.85,1.73-1.76,3.41-2.7,5.09 c-0.17,0.31-0.36,0.61-0.53,0.92c0.93-1.24,1.85-2.49,2.81-3.71c1.58-2,3.17-3.98,4.83-5.92c1.65-1.94,3.35-3.86,5.1-5.72 c1.78-1.85,3.55-3.71,5.51-5.43c-1.05,2.38-2.29,4.63-3.51,6.89c-1.25,2.24-2.56,4.43-3.92,6.59c-1.35,2.17-2.76,4.29-4.19,6.4 c-1.16,1.7-2.36,3.37-3.57,5.03c1.83,4.02,3.55,8.09,5.11,12.23C386.36,53.06,387.18,55.37,387.93,57.73z M392.33,48 c-1.49-3.12-3.1-6.16-4.81-9.14c0.94-1.13,1.88-2.26,2.79-3.42c1.27-1.62,2.52-3.26,3.71-4.95c1.19-1.69,2.35-3.4,3.45-5.17 c1.08-1.79,2.17-3.56,3.08-5.49c-1.76,1.2-3.34,2.55-4.94,3.89c-1.58,1.36-3.09,2.77-4.57,4.21c-1.48,1.44-2.91,2.93-4.32,4.43 c-1.4,1.51-2.77,3.05-4.11,4.61l-1.16,1.35l0.91,1.53c2.06,3.46,4.26,6.84,6.63,10.12c1.19,1.64,2.42,3.25,3.71,4.83 c1.3,1.57,2.64,3.12,4.12,4.58c-0.57-2.01-1.29-3.92-2.04-5.82C394.02,51.69,393.2,49.83,392.33,48z M416.47,42.85 c-1.44-0.64-2.9-1.21-4.37-1.74c-0.55-0.2-1.11-0.38-1.67-0.56c0.57-0.25,1.13-0.51,1.7-0.78c1.42-0.69,2.82-1.42,4.2-2.22 c1.38-0.81,2.74-1.66,4.04-2.68c-1.66,0-3.25,0.17-4.84,0.37c-1.58,0.21-3.14,0.5-4.68,0.83c-1.54,0.33-3.06,0.72-4.57,1.15 c-0.54,0.15-1.09,0.32-1.63,0.49c0.66-0.62,1.32-1.26,1.96-1.91c1.11-1.13,2.2-2.3,3.23-3.53c1.03-1.24,2.03-2.51,2.91-3.92 c-1.57,0.55-3.03,1.25-4.46,1.98c-1.43,0.74-2.8,1.54-4.15,2.38c-2.69,1.68-5.25,3.52-7.69,5.51l-1.94,1.57l0.82,1.02l1.13,1.37 c1.77,2.17,3.65,4.25,5.66,6.22c1.09,1.05,2.21,2.08,3.39,3.06c1.19,0.97,2.4,1.93,3.75,2.77c-0.53-1.5-1.19-2.9-1.88-4.27 c-0.7-1.36-1.46-2.68-2.24-3.98c-0.48-0.77-0.99-1.51-1.49-2.25c0.99,0.2,1.97,0.39,2.97,0.56c1.53,0.25,3.07,0.47,4.62,0.63 c1.55,0.16,3.11,0.27,4.69,0.31c1.58,0.03,3.17,0.02,4.8-0.17C419.34,44.19,417.91,43.5,416.47,42.85z" style="fill: #c4d2ad;"/></g><g id="__id2_s6f50v8lwh"><path d="M410.42,43.05c-8.91-2.3-18.08-3.26-27.25-3.53c-9.18-0.22-18.36,0.25-27.5,1.09 c-18.29,1.63-36.44,4.71-54.47,8.32c-9.01,1.83-17.99,3.83-26.95,5.96c-8.96,2.1-17.94,4.11-26.97,5.99l-13.55,2.75 c-4.53,0.87-9.05,1.79-13.6,2.6c-9.08,1.67-18.2,3.22-27.39,4.35L192.61,70c8.82-2.8,17.68-5.38,26.58-7.86 c4.44-1.27,8.9-2.43,13.36-3.64l13.41-3.44c8.96-2.22,17.98-4.22,27.06-5.95c9.09-1.7,18.19-3.35,27.31-4.88 c18.24-3.05,36.62-5.56,55.13-6.6c9.25-0.47,18.54-0.55,27.8,0.05c9.24,0.64,18.48,2.03,27.33,4.8L410.42,43.05z" style="fill: #c4d2ad;"/></g></g><g><g id="__id3_s6f50v8lwh"><path d="M226.91,62.14c-4.18-0.17-8.34-0.53-12.48-0.99c3.17,0.98,6.31,2.03,9.44,3.16c2.65,0.96,5.27,1.99,7.88,3.08 c2.6,1.13,5.19,2.25,7.72,3.62c-2.86-0.21-5.66-0.66-8.45-1.11c-2.79-0.48-5.55-1.02-8.3-1.65c-5.49-1.23-10.92-2.7-16.29-4.34 l-0.91-0.28c0.05,0.1,0.09,0.21,0.14,0.31c3.63,1.51,7.2,3.15,10.69,4.99c1.89,0.99,3.77,2.03,5.61,3.15 c1.84,1.12,3.66,2.29,5.41,3.64c-2.18-0.3-4.29-0.78-6.38-1.31c-2.09-0.53-4.15-1.13-6.18-1.79c-4.07-1.3-8.05-2.83-11.97-4.5 l-0.95-0.41l-0.38-0.92c-0.74-1.81-1.45-3.62-2.12-5.46c-0.68-1.83-1.29-3.69-1.88-5.56c-0.58-1.88-1.12-3.76-1.59-5.68 c-0.46-1.92-0.91-3.85-1.19-5.85c1.24,1.6,2.29,3.27,3.34,4.95c1.04,1.68,2.01,3.39,2.94,5.12c0.92,1.73,1.81,3.47,2.65,5.24 c0.24,0.51,0.48,1.02,0.71,1.53c-1.35-3.99-2.6-8.02-3.7-12.1c-0.62-2.26-1.18-4.53-1.68-6.83c-0.5-2.3-0.98-4.61-1.3-6.97 c1.25,2.03,2.34,4.12,3.42,6.21c1.07,2.1,2.08,4.21,3.04,6.35c1.76,3.88,3.35,7.81,4.85,11.78c0.3,0.09,0.6,0.17,0.9,0.26 l-0.16-0.97c-0.37-2.25-0.71-4.51-1-6.78c-0.3-2.27-0.54-4.54-0.75-6.82c-0.2-2.28-0.36-4.57-0.44-6.88 c-0.07-2.31-0.14-4.61-0.01-6.95c0.9,2.16,1.61,4.36,2.31,6.56c0.69,2.2,1.3,4.41,1.88,6.63c0.56,2.22,1.1,4.45,1.57,6.68 c0.36,1.63,0.68,3.26,0.98,4.9c4.39,0.52,8.77,1.16,13.12,2c2.48,0.47,4.95,1,7.41,1.61c2.46,0.64,4.92,1.26,7.35,2.13 c-2.57,0.29-5.1,0.32-7.64,0.38C231.96,62.31,229.43,62.25,226.91,62.14z M244.42,42.24c-3.96-1.97-7.98-3.79-12.05-5.5 c-0.25-2.04-0.51-4.09-0.81-6.12c-0.39-2.52-0.79-5.03-1.27-7.54c-0.48-2.51-1-5.01-1.61-7.5c-0.64-2.49-1.25-4.98-2.1-7.44 c-0.27,2.59-0.3,5.16-0.35,7.72c-0.02,2.56,0.04,5.12,0.14,7.67c0.1,2.55,0.28,5.09,0.48,7.63c0.12,1.48,0.27,2.95,0.42,4.42 c-0.06-0.28-0.12-0.55-0.19-0.83c-0.45-1.86-0.93-3.72-1.48-5.57c-0.55-1.85-1.14-3.68-1.8-5.5c-0.7-1.82-1.38-3.64-2.29-5.41 c-0.18,1.99-0.14,3.93-0.12,5.87c0.05,1.94,0.19,3.86,0.36,5.78c0.17,1.92,0.42,3.82,0.69,5.72c0.28,1.9,0.6,3.78,0.96,5.67 l0.24,1.25l1.15,0.53c1.71,0.79,3.43,1.55,5.17,2.27c1.74,0.72,3.5,1.39,5.28,2.02c1.78,0.62,3.59,1.21,5.42,1.72 c1.84,0.51,3.69,0.98,5.62,1.29c-1.48-1.28-3.03-2.4-4.6-3.49c-1.57-1.08-3.18-2.08-4.8-3.05c-0.18-0.11-0.36-0.21-0.54-0.31 c2.19,0.8,4.39,1.56,6.61,2.28c2.34,0.75,4.7,1.46,7.08,2.1c2.39,0.62,4.79,1.24,7.26,1.67c-2.06-1.43-4.21-2.66-6.35-3.89 C248.79,44.48,246.61,43.34,244.42,42.24z M247.56,35.57c-3.21-1.28-6.46-2.41-9.74-3.44c-0.07-1.47-0.16-2.93-0.28-4.4 c-0.18-2.05-0.37-4.1-0.65-6.15c-0.27-2.05-0.58-4.1-0.98-6.14c-0.43-2.04-0.83-4.09-1.47-6.12c-0.47,2.08-0.72,4.15-0.98,6.22 c-0.23,2.07-0.38,4.13-0.49,6.2c-0.11,2.06-0.15,4.12-0.16,6.18c0,2.06,0.04,4.12,0.12,6.17l0.07,1.78l1.71,0.51 c3.86,1.14,7.78,2.13,11.74,2.92c1.99,0.39,3.98,0.74,6,1.02c2.02,0.27,4.06,0.5,6.14,0.56c-1.78-1.09-3.61-2-5.45-2.88 C251.31,37.13,249.44,36.33,247.56,35.57z M259.34,20.46c1.24-0.94,2.47-1.92,3.65-2.96c1.18-1.05,2.34-2.14,3.41-3.38 c-1.61,0.31-3.13,0.78-4.63,1.28c-1.5,0.51-2.95,1.08-4.39,1.69c-0.54,0.23-1.07,0.48-1.61,0.72c0.24-0.57,0.49-1.14,0.71-1.73 c0.57-1.47,1.11-2.96,1.57-4.48c0.46-1.53,0.88-3.08,1.14-4.72c-1.22,1.12-2.27,2.33-3.3,3.56c-1.01,1.23-1.96,2.5-2.87,3.79 c-0.91,1.29-1.76,2.61-2.58,3.95c-0.3,0.48-0.58,0.97-0.86,1.46c0.06-0.91,0.11-1.82,0.14-2.73c0.05-1.59,0.05-3.18-0.03-4.78 c-0.09-1.61-0.21-3.22-0.53-4.86c-0.78,1.48-1.37,2.98-1.93,4.49c-0.54,1.51-1.01,3.03-1.43,4.56c-0.83,3.06-1.46,6.15-1.91,9.27 l-0.36,2.47l1.29,0.19l1.75,0.25c2.78,0.38,5.57,0.63,8.4,0.71c1.51,0.03,3.03,0.03,4.57-0.06c1.53-0.09,3.07-0.22,4.64-0.52 c-1.41-0.74-2.84-1.32-4.28-1.86c-1.44-0.53-2.89-0.98-4.35-1.39c-0.86-0.24-1.73-0.45-2.59-0.66c0.85-0.51,1.69-1.04,2.52-1.58 C256.82,22.29,258.1,21.4,259.34,20.46z" style="fill: #c4d2ad;"/></g><g id="__id4_s6f50v8lwh"><path d="M257.48,19.65c-8.42,5.19-16.11,11.41-23.42,18.01c-3.68,3.27-7.24,6.69-10.75,10.15 c-1.74,1.75-3.51,3.46-5.22,5.23l-5.1,5.34c-1.66,1.82-3.31,3.65-4.94,5.49c-1.62,1.86-3.19,3.75-4.78,5.62 c-3.15,3.77-6.38,7.47-9.64,11.14c-1.67,1.8-3.25,3.68-4.9,5.5c-1.69,1.79-3.23,3.7-4.89,5.52c-1.66,1.83-3.22,3.72-4.87,5.57 c-1.67,1.84-3.18,3.78-4.91,5.62l-0.51-0.31c1.9-4.66,4.26-9.13,6.92-13.38c1.31-2.14,2.69-4.24,4.13-6.29 c1.44-2.05,2.89-4.1,4.45-6.05c3.05-3.97,6.37-7.72,9.86-11.3l5.32-5.28c1.81-1.72,3.6-3.46,5.38-5.21l5.46-5.12 c1.83-1.7,3.71-3.33,5.56-5c3.77-3.26,7.59-6.47,11.53-9.53c1.94-1.56,3.98-3.01,5.99-4.48c1.99-1.5,4.08-2.86,6.15-4.26 c2.04-1.43,4.22-2.66,6.33-3.97c1.05-0.66,2.17-1.23,3.27-1.8l3.31-1.73L257.48,19.65z" style="fill: #c4d2ad;"/></g></g><g><g id="__id5_s6f50v8lwh"><path d="M200.07,35.01c-1.43,0.53-2.86,1.01-4.31,1.46c0.54-0.03,1.07-0.07,1.61-0.09c2.02-0.09,4.06-0.12,6.1-0.08 c2.05,0.08,4.09,0.14,6.17,0.45c-1.92,0.85-3.88,1.45-5.83,2.07c-1.96,0.59-3.92,1.1-5.9,1.55c-1.96,0.45-3.92,0.84-5.9,1.18 c1.33,0.15,2.66,0.32,3.99,0.52c2.06,0.3,4.13,0.67,6.18,1.12c2.05,0.48,4.11,0.94,6.15,1.65c-2.11,0.46-4.21,0.67-6.3,0.89 c-2.09,0.19-4.19,0.31-6.27,0.36c-2.09,0.06-4.17,0.05-6.25,0c-2.08-0.06-4.16-0.15-6.23-0.3l-0.97-0.07l-0.64-0.66 c-1.27-1.31-2.51-2.66-3.72-4.04c-1.22-1.37-2.39-2.78-3.54-4.21c-1.15-1.44-2.26-2.91-3.33-4.42c-1.06-1.52-2.09-3.07-3.01-4.73 c1.64,0.95,3.17,2.02,4.67,3.1c1.49,1.1,2.94,2.24,4.36,3.41c1.41,1.18,2.8,2.38,4.14,3.62c0.05,0.05,0.1,0.1,0.16,0.15 c-0.22-0.35-0.44-0.7-0.65-1.05c-0.93-1.52-1.81-3.07-2.66-4.64c-0.85-1.57-1.65-3.17-2.41-4.81c-0.75-1.64-1.46-3.3-2.05-5.06 c1.42,1.18,2.71,2.45,3.97,3.75c1.25,1.3,2.45,2.63,3.6,3.99c1.15,1.37,2.28,2.75,3.35,4.16c0.35,0.46,0.69,0.92,1.03,1.38 c-0.99-2.51-1.9-5.05-2.67-7.65c-0.46-1.52-0.87-3.07-1.23-4.64c-0.35-1.57-0.67-3.16-0.85-4.8c1.07,1.26,2.01,2.58,2.92,3.91 c0.89,1.34,1.75,2.69,2.54,4.07c0.39,0.66,0.76,1.33,1.13,2.01c-0.02-0.11-0.03-0.22-0.05-0.32c-0.24-1.67-0.42-3.36-0.57-5.05 c-0.14-1.69-0.23-3.4-0.27-5.11c-0.02-1.72-0.01-3.44,0.16-5.2c0.82,1.56,1.49,3.15,2.12,4.75c0.62,1.6,1.18,3.21,1.69,4.83 c0.5,1.62,0.98,3.25,1.39,4.89c0.02,0.09,0.04,0.17,0.06,0.26l0-0.01c-0.13-1.64-0.22-3.28-0.26-4.93 c-0.03-1.65-0.04-3.3,0.03-4.95c0.06-1.65,0.17-3.31,0.36-4.98c0.2-1.66,0.44-3.33,0.86-5.01c0.67,1.6,1.16,3.21,1.61,4.83 c0.44,1.62,0.8,3.24,1.11,4.86c0.04,0.22,0.07,0.44,0.11,0.66c0.41-1.01,0.83-2.02,1.27-3.01c0.77-1.69,1.59-3.36,2.49-5 c0.91-1.64,1.88-3.26,3.05-4.81c-0.01,1.94-0.23,3.82-0.5,5.67c-0.25,1.69-0.58,3.35-0.95,5.01c0.24-0.23,0.46-0.47,0.71-0.7 c1.04-0.98,2.12-1.94,3.3-2.83c-0.43,1.41-0.96,2.76-1.52,4.07c-0.57,1.32-1.18,2.6-1.84,3.85c-0.14,0.27-0.3,0.53-0.44,0.79 c0.15-0.07,0.31-0.14,0.46-0.21c1.48-0.64,2.99-1.24,4.53-1.77c1.55-0.53,3.11-1.02,4.76-1.37c-1.12,1.26-2.33,2.37-3.56,3.45 c-1.23,1.07-2.5,2.07-3.79,3.04c-0.95,0.7-1.91,1.37-2.88,2.03c1.68-0.52,3.39-1.01,5.12-1.42c1.89-0.44,3.8-0.84,5.78-1.07 c-1.54,1.27-3.15,2.36-4.79,3.41c-1.64,1.04-3.3,2.01-4.99,2.92c-0.4,0.22-0.8,0.42-1.2,0.63c1.34-0.2,2.69-0.37,4.05-0.5 c1.95-0.18,3.91-0.3,5.93-0.23c-1.71,1.06-3.48,1.93-5.26,2.75C203.69,33.6,201.89,34.34,200.07,35.01z M191.23,70.41 c2.64-0.34,5.28-0.67,7.92-1.24c-2.64-0.59-5.27-0.94-7.91-1.3c-2.64-0.33-5.28-0.58-7.91-0.77c-2.64-0.2-5.28-0.33-7.91-0.41 c-0.17-0.01-0.35-0.01-0.52-0.01c3.2-0.44,6.48-0.87,9.72-1.41c4.44-0.75,8.88-1.61,13.3-2.94c-4.56-0.73-9.09-0.93-13.62-0.95 c-4.54,0.02-9.01,0.21-13.64,0.87c-0.11,0.02-0.22,0.04-0.32,0.06c-0.11-0.45-0.22-0.9-0.34-1.35c-0.59-2.18-1.21-4.34-1.91-6.49 c-1.39-4.3-2.93-8.56-4.96-12.7c0.01,4.62,0.51,9.12,1.14,13.59c0.15,1.08,0.33,2.15,0.51,3.23c-0.56-0.99-1.12-1.98-1.7-2.96 c-1.19-2.02-2.42-4.02-3.71-5.99c-1.31-1.97-2.62-3.93-4.1-5.81c0.56,2.33,1.28,4.58,2.01,6.82c0.74,2.24,1.55,4.44,2.4,6.63 c0.7,1.77,1.42,3.53,2.17,5.28c-1.12-1.31-2.25-2.61-3.4-3.89c-1.68-1.85-3.39-3.67-5.16-5.45c-1.8-1.76-3.58-3.52-5.54-5.15 c1.09,2.3,2.36,4.47,3.62,6.65c1.28,2.16,2.62,4.27,4,6.35c1.38,2.08,2.81,4.12,4.26,6.15c0.2,0.27,0.4,0.54,0.6,0.81 c-1.88-1.68-3.79-3.34-5.74-4.96c-2.1-1.75-4.23-3.46-6.42-5.11c-2.21-1.62-4.41-3.27-6.78-4.73c1.57,2.29,3.32,4.41,5.05,6.55 c1.75,2.11,3.56,4.16,5.4,6.17c3.68,4.03,7.52,7.89,11.48,11.64l0.43,0.4l0.54,0.17c2.45,0.76,4.9,1.49,7.38,2.17 c2.47,0.69,4.96,1.32,7.45,1.92c2.5,0.58,5.01,1.14,7.55,1.61c2.54,0.46,5.08,0.92,7.69,1.18c-2.28-1.28-4.63-2.36-6.98-3.44 c-2.35-1.07-4.73-2.05-7.11-3.01c-2.39-0.94-4.79-1.86-7.21-2.7c-0.77-0.28-1.55-0.54-2.33-0.81c0.77,0.14,1.54,0.28,2.31,0.41 c2.47,0.42,4.94,0.8,7.42,1.13c2.48,0.33,4.97,0.62,7.48,0.85c1.26,0.09,2.51,0.22,3.77,0.3l1.89,0.13 c0.63,0.04,1.27,0.04,1.88,0.18c-1.08-0.72-2.3-1.14-3.46-1.64c-1.18-0.48-2.37-0.9-3.56-1.34c-2.38-0.84-4.78-1.59-7.2-2.29 c-1.61-0.47-3.23-0.9-4.85-1.31c2.34-0.07,4.68-0.17,7.01-0.33C185.95,70.95,188.59,70.72,191.23,70.41z" style="fill: #c4d2ad;"/></g><g id="__id6_s6f50v8lwh"><path d="M199.65,21.08c-4.72,7.06-9.4,14.13-13.68,21.42l-3.2,5.47l-3.06,5.53c-1.01,1.84-1.96,3.72-2.95,5.58 c-0.97,1.86-1.85,3.77-2.77,5.65c-1.79,3.79-3.36,7.68-4.78,11.59L164.96,88c-0.39,0.96-0.71,1.95-1.02,2.93l-0.99,2.94 c-0.72,1.95-1.14,3.97-1.82,5.96c-0.35,0.99-0.51,2.01-0.79,3.02l-0.8,3.05c-0.49,2.04-0.86,4.12-1.44,6.22l-0.6-0.01 c-0.32-2.13-0.56-4.3-0.68-6.48c0.03-2.16-0.04-4.37,0.17-6.53c0.1-1.08,0.22-2.17,0.36-3.25c0.14-1.08,0.25-2.18,0.48-3.24 c0.44-2.13,0.8-4.3,1.42-6.38c1.13-4.21,2.66-8.29,4.5-12.21c1.86-3.91,3.92-7.7,5.98-11.48c1.07-1.86,2.09-3.75,3.2-5.59 c1.12-1.83,2.21-3.67,3.36-5.48l3.53-5.36l3.65-5.26c5-6.92,10.21-13.65,15.7-20.15L199.65,21.08z" style="fill: #c4d2ad;"/></g></g><g><g id="__id7_s6f50v8lwh"><path d="M95.98,171.27c-0.29,2.32-0.91,4.75-2.58,6.38c-1.7,1.65-4.18,2.2-6.55,2.38c-1.26,0.1-2.53,0.12-3.78,0.22 c-3.83,2.19-6.4,5.62-7.47,9.64c0.04,0.9,0.08,1.8,0.12,2.7l0.14,7.64c-0.02,2.55-0.01,5.09-0.08,7.64 c-0.07,2.55-0.18,5.09-0.3,7.64c-0.17,2.54-0.34,5.09-0.6,7.63l-0.36,0c-0.29-2.54-0.49-5.07-0.7-7.61 c-0.22-2.53-0.43-5.06-0.6-7.59c-0.23-2.53-0.38-5.06-0.57-7.58l-0.56-7.58c0-0.02,0-0.05-0.01-0.08 c-1.72-3.98-4.36-7.46-7.65-10.16c-4.24-0.44-8.62,1.33-12.95,1.91c-1.21,0.16-2.46,0.23-3.64-0.07 c-3.03-0.78-4.92-3.78-6.06-6.69c-1.03-2.62-1.7-5.58-0.74-8.24c1.38-3.84,6.4-5.86,10.05-4.04c2.86,1.42,4.42,4.49,6.12,7.19 c1.33,2.12,2.86,4.12,4.55,5.98c3.99,2.14,7.41,5.22,9.96,8.99c-0.05-0.79-0.11-1.59-0.15-2.38c-0.18-2.52-0.32-5.05-0.45-7.58 l-0.46-7.58l-0.15-1.87c-3.21-4.63-7.45-8.23-12.51-10.57c-1.2-0.08-2.43-0.05-3.62,0.07c-3.45,0.33-6.84,1.24-10.31,1.3 c-3.47,0.06-7.19-0.9-9.39-3.58c-2.26-2.76-2.36-6.97-0.51-10.02c1.86-3.04,5.44-4.85,9.01-4.88c3.57-0.03,7.05,1.59,9.58,4.11 c1.48,1.47,2.65,3.21,3.87,4.9c2.61,3.63,5.5,7.06,8.61,10.28c1.81,1.35,3.48,2.9,4.98,4.62l-0.15-1.94 c-0.64-7.31-1.42-14.61-2.33-21.9c-0.14-0.04-0.27-0.11-0.35-0.2c-2.13-2.57-4.45-4.92-6.94-7.05c-2.16-0.48-4.47-0.49-6.69-0.35 c-3.6,0.23-7.25,0.79-10.79,0.08c-2.52-0.5-5.09-1.82-6.11-4.18c-0.84-1.93-0.48-4.15-0.1-6.22c0.33-1.83,0.7-3.75,1.89-5.18 c1.36-1.63,3.56-2.32,5.68-2.53c1.66-0.16,3.38-0.06,4.93,0.57c3.65,1.49,5.5,5.47,7,9.12c0.65,1.58,1.36,3.23,2.25,4.71 c3.19,2.3,6.12,4.89,8.79,7.8c-0.21-1.63-0.42-3.26-0.65-4.89c-0.62-4.6-1.31-9.19-2.04-13.78c-0.71-1.55-1.64-2.96-2.81-3.99 c-2.75-2.42-5.95-4.4-8.59-6.93c-3.77-3.61-6.29-8.31-7.13-13.26c-0.69-4.09-0.12-8.61,2.78-11.77c2.9-3.15,8.55-4.28,11.98-1.61 c2.9,2.25,3.36,6.17,3.34,9.67c-0.03,5.8-0.77,11.7-0.62,17.48c1.66,7.24,3.14,14.53,4.51,21.84c0.45-3.31,1.11-6.59,1.97-9.84 c-0.28-5.18-1.79-10.41-1.41-15.62c0.34-4.72,2.29-9.31,5.44-12.83c1.26-1.41,2.76-2.69,4.57-3.27c4-1.29,8.52,1.35,10.35,5.14 c1.82,3.79,1.41,8.31,0.05,12.29c-1.19,3.47-3.1,6.72-5.69,9.32c-2.5,2.51-5.58,4.36-8.3,6.64c-1.7,1.43-3.3,3.11-4.39,5.03 c-0.65,3.75-1.02,7.54-1.14,11.37c1.14,6.86,2.15,13.74,3.04,20.64c0.82-3.21,1.96-6.31,3.43-9.29c0.09-2.63,0.17-5.25,0.26-7.88 c0.14-4.28,0.59-9.17,4.02-11.73c1.53-1.14,3.47-1.62,5.38-1.7c3.03-0.12,6.28,0.86,8.14,3.27c0.82,1.06,1.33,2.34,1.64,3.65 c1.01,4.14,0.12,8.7-2.37,12.16c-2.49,3.46-6.53,5.75-10.78,6.11c-1.64,0.14-3.32,0.01-4.92,0.41c-0.45,0.11-0.89,0.29-1.31,0.51 c-1.34,3.69-2.22,7.54-2.61,11.5l0.47,3.96l0.84,7.59c0.24,2.54,0.46,5.07,0.64,7.61c0.01,0.22,0.02,0.44,0.04,0.66 c0.95-1.56,2.15-2.98,3.58-4.19c1.62-3.42,2.95-6.97,3.95-10.62c0.86-3.15,1.53-6.48,3.52-9.07c1.16-1.51,3.01-2.76,4.88-2.35 c0.92,0.2,1.71,0.78,2.35,1.47C96.15,163.56,96.44,167.63,95.98,171.27z" style="fill: #c4d2ad;"/></g></g><g><g id="__id8_s6f50v8lwh"><path d="M104.43,211.3c2.82,0.2,5.65,0.4,8.48,0.85c-2.77,0.75-5.56,1.25-8.34,1.76c-2.79,0.47-5.58,0.88-8.37,1.2 c-5.59,0.66-11.19,1.07-16.81,1.31l-0.95,0.04c0.08,0.08,0.16,0.17,0.23,0.25c3.92,0.23,7.84,0.59,11.74,1.16 c2.12,0.31,4.23,0.67,6.34,1.11c2.11,0.45,4.21,0.95,6.31,1.64c-2.16,0.44-4.31,0.69-6.45,0.89c-2.15,0.19-4.29,0.31-6.42,0.36 c-4.28,0.12-8.54,0.01-12.79-0.27l-1.03-0.07l-0.66-0.74c-1.3-1.46-2.57-2.94-3.81-4.45c-1.25-1.5-2.44-3.06-3.62-4.62 c-1.17-1.58-2.31-3.18-3.39-4.83c-1.07-1.66-2.14-3.33-3.06-5.13c1.7,1.1,3.25,2.33,4.8,3.56c1.54,1.24,3.02,2.53,4.47,3.85 c1.44,1.33,2.86,2.67,4.24,4.07c0.4,0.4,0.79,0.8,1.18,1.21c-2.6-3.32-5.11-6.7-7.5-10.19c-1.33-1.93-2.62-3.89-3.85-5.89 c-1.24-2-2.45-4.02-3.54-6.14c1.85,1.5,3.58,3.11,5.28,4.73c1.71,1.62,3.36,3.28,4.97,4.98c2.94,3.07,5.75,6.25,8.49,9.5 c0.31-0.02,0.62-0.04,0.94-0.05l-0.47-0.86c-1.1-2-2.17-4.02-3.19-6.07c-1.04-2.04-2.02-4.11-2.97-6.19 c-0.94-2.09-1.86-4.2-2.7-6.34c-0.83-2.15-1.66-4.31-2.32-6.55c1.57,1.74,2.96,3.58,4.36,5.42c1.38,1.85,2.69,3.73,3.98,5.63 c1.27,1.91,2.51,3.83,3.7,5.78c0.88,1.42,1.72,2.85,2.55,4.3c4.31-0.97,8.65-1.81,13.04-2.46c2.49-0.38,5-0.7,7.52-0.94 c2.53-0.21,5.06-0.44,7.64-0.42c-2.32,1.12-4.7,2-7.08,2.9c-2.38,0.87-4.78,1.65-7.2,2.38c-4,1.22-8.04,2.27-12.1,3.21 c3.31-0.12,6.63-0.18,9.95-0.15C98.79,211.03,101.61,211.13,104.43,211.3z M115.72,181.51c-4.27-1.13-8.58-2.11-12.91-2.96 c-0.65-1.95-1.32-3.9-2.03-5.83c-0.89-2.39-1.78-4.77-2.76-7.13c-0.97-2.36-1.99-4.7-3.08-7.02c-1.12-2.31-2.23-4.62-3.56-6.87 c0.26,2.59,0.75,5.11,1.21,7.64c0.5,2.52,1.07,5.01,1.68,7.48c0.61,2.48,1.3,4.93,2,7.38c0.42,1.42,0.85,2.84,1.3,4.25 c-0.12-0.26-0.23-0.52-0.35-0.78c-0.82-1.73-1.66-3.46-2.57-5.16c-0.91-1.7-1.85-3.38-2.88-5.03c-1.05-1.64-2.08-3.28-3.33-4.84 c0.22,1.98,0.65,3.88,1.06,5.78c0.44,1.89,0.96,3.75,1.52,5.59c0.55,1.84,1.18,3.66,1.82,5.46c0.65,1.8,1.35,3.59,2.08,5.36 l0.49,1.18l1.23,0.29c1.83,0.43,3.67,0.83,5.52,1.18c1.85,0.35,3.71,0.66,5.58,0.92c1.87,0.25,3.76,0.46,5.66,0.6 c1.9,0.13,3.82,0.21,5.77,0.13c-1.7-0.96-3.45-1.74-5.2-2.49c-1.76-0.74-3.53-1.4-5.32-2.02c-0.2-0.07-0.4-0.13-0.59-0.2 c2.3,0.34,4.61,0.64,6.93,0.9c2.44,0.26,4.89,0.49,7.36,0.63c2.47,0.12,4.94,0.25,7.45,0.17c-2.31-0.98-4.66-1.75-7-2.53 C120.45,182.83,118.09,182.15,115.72,181.51z M100.39,163.73c0.31,2.04,0.69,4.07,1.09,6.09c0.41,2.02,0.87,4.02,1.36,6.02 l0.42,1.73l1.78,0.15c4.02,0.34,8.04,0.52,12.09,0.5c2.02-0.02,4.05-0.07,6.09-0.21c2.03-0.15,4.07-0.33,6.13-0.69 c-1.96-0.71-3.94-1.24-5.92-1.73c-1.98-0.48-3.97-0.89-5.96-1.25c-3.4-0.61-6.81-1.07-10.24-1.41c-0.37-1.42-0.75-2.84-1.16-4.25 c-0.58-1.98-1.19-3.95-1.87-5.9c-0.68-1.95-1.39-3.89-2.19-5.82c-0.83-1.92-1.64-3.83-2.67-5.7c-0.05,2.13,0.13,4.21,0.29,6.29 C99.81,159.64,100.08,161.69,100.39,163.73z M112.05,167.79l1.31-0.08l1.76-0.11c2.8-0.18,5.59-0.5,8.37-0.99 c1.49-0.27,2.98-0.59,4.46-0.97c1.48-0.4,2.96-0.83,4.44-1.44c-1.53-0.45-3.05-0.72-4.56-0.96c-1.52-0.23-3.03-0.38-4.54-0.49 c-0.89-0.06-1.78-0.1-2.67-0.13c0.73-0.67,1.45-1.36,2.15-2.06c1.1-1.1,2.17-2.22,3.2-3.39c1.03-1.17,2.03-2.38,2.98-3.64 c0.94-1.27,1.86-2.57,2.66-4c-1.51,0.63-2.91,1.39-4.28,2.18c-1.36,0.8-2.67,1.65-3.96,2.54c-0.48,0.34-0.96,0.68-1.43,1.03 c0.12-0.61,0.25-1.22,0.35-1.83c0.27-1.55,0.49-3.12,0.64-4.71c0.14-1.59,0.24-3.2,0.17-4.85c-0.97,1.35-1.76,2.74-2.51,4.15 c-0.75,1.41-1.42,2.84-2.05,4.29c-0.63,1.45-1.19,2.91-1.73,4.38c-0.19,0.53-0.37,1.07-0.55,1.61c-0.12-0.9-0.25-1.8-0.41-2.7 c-0.27-1.56-0.59-3.12-0.99-4.68c-0.41-1.55-0.86-3.11-1.49-4.65c-0.47,1.6-0.74,3.19-0.98,4.78c-0.23,1.59-0.38,3.17-0.48,4.76 c-0.2,3.16-0.19,6.32,0,9.46L112.05,167.79z" style="fill: #c4d2ad;"/></g><g id="__id9_s6f50v8lwh"><path d="M123.96,156.76c-8.63,7.97-15.94,17.21-22.63,26.8c-3.36,4.79-6.53,9.71-9.54,14.72 c-3.03,5-5.89,10.09-8.57,15.27c-2.69,5.18-5.08,10.5-7.28,15.87c-2.22,5.37-4.38,10.74-6.45,16.15 c-2.07,5.41-4.01,10.87-5.72,16.42c-1.7,5.56-3.17,11.2-4.47,16.99l-0.6-0.04c-0.41-5.96,0.03-11.97,0.97-17.88 c0.94-5.92,2.36-11.76,4.17-17.46c1.82-5.7,4.08-11.25,6.7-16.61c2.64-5.35,5.51-10.57,8.48-15.72 c2.97-5.15,6.11-10.19,9.41-15.12c3.33-4.91,6.82-9.71,10.49-14.36c3.69-4.64,7.54-9.14,11.61-13.45 c4.05-4.31,8.37-8.39,13.04-12.03L123.96,156.76z" style="fill: #c4d2ad;"/></g></g><g><g id="__id10_s6f50v8lwh"><path d="M24.98,206.63c1.36,0.02,2.71,0.08,4.06,0.15c-1.9-0.66-3.79-1.37-5.66-2.14c-1.89-0.77-3.76-1.6-5.61-2.51 c-1.84-0.94-3.68-1.86-5.45-3.02c2.12,0.04,4.16,0.32,6.2,0.58c2.04,0.29,4.05,0.66,6.05,1.09c0.54,0.11,1.07,0.24,1.6,0.36 c-1.36-0.69-2.7-1.4-4.03-2.16c-1.7-0.96-3.36-1.99-5-3.08c-1.63-1.1-3.24-2.26-4.77-3.59c2.01,0.26,3.94,0.71,5.85,1.21 c1.33,0.36,2.65,0.76,3.95,1.18c-0.36-0.27-0.73-0.54-1.08-0.82c-1.53-1.18-3.03-2.41-4.48-3.72c-1.45-1.31-2.87-2.65-4.19-4.17 c1.93,0.55,3.76,1.26,5.56,2.01c1.68,0.71,3.32,1.48,4.93,2.29c-0.87-0.82-1.74-1.65-2.58-2.51c-1.12-1.17-2.22-2.37-3.27-3.63 c-1.04-1.27-2.06-2.57-2.96-4c1.58,0.61,3.05,1.36,4.5,2.14c1.44,0.78,2.83,1.63,4.2,2.5c0.16,0.1,0.3,0.22,0.46,0.32 c-0.1-0.3-0.22-0.58-0.31-0.88c-0.44-1.35-0.84-2.72-1.18-4.11c-0.34-1.39-0.65-2.81-0.84-4.27c1.02,1.07,1.93,2.2,2.8,3.34 c0.21,0.28,0.41,0.56,0.61,0.84c-0.09-1.7-0.14-3.41-0.12-5.13c0.04-1.87,0.14-3.76,0.44-5.68c0.9,1.72,1.58,3.48,2.21,5.25 c0.62,1.77,1.15,3.55,1.63,5.34c0.28,1.08,0.53,2.17,0.77,3.25c0.08-0.23,0.16-0.47,0.25-0.7c0.58-1.55,1.21-3.09,1.91-4.61 c0.71-1.52,1.47-3.03,2.4-4.49c0.13,1.73,0.08,3.41,0,5.09c-0.1,1.67-0.27,3.33-0.49,4.97c-0.21,1.64-0.5,3.27-0.81,4.89 c-0.32,1.62-0.69,3.22-1.09,4.82l-0.06,0.22c0.07-0.15,0.13-0.31,0.2-0.46c0.69-1.55,1.43-3.07,2.2-4.59 c0.78-1.51,1.6-3.01,2.49-4.48c0.89-1.47,1.82-2.92,2.89-4.32c-0.13,1.76-0.41,3.46-0.73,5.15c-0.33,1.69-0.71,3.35-1.13,5 c-0.43,1.64-0.9,3.28-1.42,4.89c-0.04,0.13-0.09,0.26-0.13,0.38c0.5-0.63,1.01-1.25,1.53-1.87c1.02-1.23,2.09-2.42,3.2-3.59 c1.12-1.16,2.27-2.3,3.55-3.37c-0.46,1.59-1.05,3.1-1.66,4.6c-0.63,1.49-1.29,2.95-2.01,4.37c-1.23,2.49-2.59,4.89-4.04,7.25 c0.47-0.44,0.92-0.9,1.39-1.34c1.31-1.22,2.66-2.39,4.03-3.55c1.38-1.15,2.79-2.26,4.25-3.33c1.46-1.06,2.96-2.1,4.56-3.03 c-0.88,1.63-1.88,3.15-2.9,4.65c-1.03,1.49-2.1,2.93-3.21,4.34c-1.11,1.41-2.25,2.79-3.43,4.13c-0.3,0.34-0.61,0.66-0.91,1 c0.1-0.07,0.2-0.13,0.3-0.2c1.55-1,3.13-1.95,4.72-2.88c1.6-0.92,3.23-1.8,4.9-2.63c1.67-0.82,3.37-1.62,5.16-2.28 c-1.2,1.48-2.49,2.84-3.8,4.16c-1.32,1.32-2.67,2.58-4.06,3.81c-1.39,1.22-2.79,2.41-4.23,3.56c-1.44,1.15-2.89,2.28-4.38,3.36 l-0.74,0.54L37,212.43c-2.09-0.19-4.17-0.45-6.24-0.74c-2.08-0.3-4.15-0.64-6.21-1.05c-2.07-0.4-4.12-0.86-6.17-1.4 c-2.05-0.57-4.1-1.13-6.12-1.94c2.15-0.36,4.27-0.47,6.39-0.6C20.76,206.61,22.87,206.59,24.98,206.63z M77.39,227.25 c-1.96,2-4.05,3.8-6.13,5.61c-2.1,1.79-4.24,3.51-6.41,5.19c-4.34,3.36-8.81,6.53-13.37,9.56l-0.49,0.32L50.44,248 c-2.56,0.34-5.12,0.65-7.7,0.91c-2.57,0.27-5.15,0.47-7.73,0.65c-2.59,0.16-5.17,0.28-7.78,0.33c-2.6,0.03-5.21,0.06-7.84-0.12 c2.49-0.88,5-1.55,7.51-2.23c2.52-0.66,5.04-1.24,7.58-1.78c2.53-0.52,5.07-1.03,7.62-1.46c0.81-0.14,1.62-0.27,2.43-0.4 c-0.78,0.01-1.57,0.02-2.35,0.02c-2.52,0-5.04-0.03-7.57-0.12c-2.52-0.09-5.05-0.22-7.58-0.41c-1.27-0.12-2.53-0.2-3.79-0.33 l-1.9-0.19c-0.63-0.06-1.27-0.17-1.9-0.14c1.2-0.53,2.48-0.75,3.72-1.05c1.25-0.28,2.51-0.49,3.76-0.73 c2.51-0.43,5.02-0.77,7.54-1.06c1.68-0.19,3.35-0.35,5.03-0.48c-2.31-0.46-4.61-0.94-6.9-1.49c-2.6-0.61-5.18-1.28-7.75-2.03 c-2.57-0.78-5.14-1.54-7.67-2.55c2.72-0.15,5.4-0.05,8.08,0.04c2.68,0.11,5.34,0.31,7.99,0.56c2.66,0.25,5.3,0.56,7.94,0.92 c0.17,0.02,0.35,0.05,0.52,0.08c-3.12-0.97-6.31-1.94-9.45-3.02c-4.27-1.48-8.53-3.06-12.69-5.11c4.64,0.04,9.16,0.59,13.65,1.32 c4.49,0.78,8.07,2.04,12.55,3.46c0.14,0.05,0.28,0.1,0.42,0.15c0.18-0.4,0.36-0.82,0.54-1.22c0.96-2.06,2.18-4.57,3.23-6.58 c2.1-4.02,4.93-7.85,7.64-11.61c-0.8,4.57-2.06,8.94-3.46,13.25c-0.34,1.05-0.69,2.09-1.06,3.13c0.74-0.91,1.49-1.82,2.25-2.72 c1.52-1.79,3.08-3.56,4.69-5.29c1.62-1.72,3.26-3.43,5.04-5.04c-0.95,2.2-2.05,4.3-3.16,6.39c-1.12,2.08-2.3,4.12-3.51,6.14 c-1,1.65-2.03,3.28-3.08,4.9c1.36-1.13,2.72-2.24,4.11-3.33c1.98-1.54,3.98-3.06,6.04-4.51c2.08-1.43,4.14-2.88,6.36-4.15 c-1.48,2.09-3.11,4.02-4.72,5.95c-1.64,1.92-3.33,3.77-5.05,5.6c-1.72,1.82-3.48,3.6-5.27,5.35c-0.25,0.25-0.52,0.49-0.77,0.74 c2.18-1.37,4.38-2.7,6.62-3.98c2.38-1.37,4.78-2.7,7.23-3.96C72.34,229.55,74.8,228.3,77.39,227.25z" style="fill: #c4d2ad;"/></g><g id="__id11_s6f50v8lwh"><path d="M25.38,185.05c1.31,2.44,2.72,4.85,3.96,7.33c1.24,2.48,2.52,4.96,3.68,7.48c1.19,2.51,2.38,5.02,3.5,7.56 c1.14,2.53,2.29,5.07,3.36,7.63c2.19,5.11,4.28,10.25,6.34,15.41c2.03,5.17,3.99,10.37,5.94,15.57l5.81,15.62 c1.9,5.22,3.6,10.51,5.06,15.88c1.48,5.36,2.78,10.77,3.92,16.22c1.15,5.45,2.1,10.95,2.67,16.53l-0.58,0.15 c-2.23-5.14-4.19-10.32-6.13-15.52c-1.92-5.19-3.8-10.4-5.59-15.62c-1.78-5.23-3.45-10.49-4.98-15.8 c-1.51-5.32-3.05-10.63-4.71-15.9c-1.68-5.26-3.38-10.52-5.15-15.76c-1.74-5.24-3.52-10.48-5.39-15.68 c-3.68-10.43-7.64-20.75-12.26-30.81L25.38,185.05z" style="fill: #c4d2ad;"/></g></g><g><g id="__id12_s6f50v8lwh"><path d="M97.65,281.05c-0.02-0.14-0.17-0.11-0.28-0.11c-0.12,0.01-0.24,0.03-0.36,0.05 c-0.24,0.05-0.48,0.12-0.72,0.19c-0.48,0.13-0.96,0.28-1.43,0.43L92,282.53c-1.91,0.6-3.82,1.16-5.74,1.69 c-1.92,0.54-3.85,1.01-5.78,1.47c-0.29,0.07-0.58,0.12-0.87,0.19c1.77,0.09,3.54,0.22,5.31,0.41c1.88,0.2,3.75,0.45,5.63,0.78 c1.88,0.34,3.75,0.73,5.63,1.31c-1.88,0.55-3.76,0.91-5.65,1.22c-1.88,0.31-3.76,0.53-5.64,0.7c-3.76,0.35-7.52,0.45-11.28,0.39 l-0.73-0.01l-0.58-0.37c-1.44-0.93-2.87-1.89-4.27-2.89c-1.41-0.99-2.77-2.04-4.13-3.11c-1.35-1.08-2.67-2.2-3.96-3.37 c-1.28-1.18-2.55-2.4-3.73-3.75c1.72,0.49,3.36,1.11,4.98,1.76c1.61,0.66,3.19,1.38,4.74,2.14c1.28,0.64,2.55,1.3,3.8,1.98 c-1.62-1.98-3.2-3.98-4.7-6.06c-1.13-1.59-2.24-3.2-3.28-4.87c-1.03-1.68-2.06-3.36-2.93-5.18c1.69,1.11,3.21,2.35,4.74,3.6 c1.51,1.26,2.97,2.57,4.39,3.9c0.86,0.82,1.69,1.67,2.53,2.51c-0.94-2.38-1.85-4.78-2.69-7.21c-0.7-2.05-1.38-4.11-2-6.19 l-0.91-3.14l-0.45-1.57c-0.07-0.26-0.15-0.53-0.23-0.78l-0.14-0.38c-0.05-0.1-0.09-0.3-0.2-0.28c0.04-0.08,0.15,0,0.2,0.03 c0.06,0.04,0.11,0.09,0.17,0.14c0.1,0.1,0.2,0.2,0.3,0.3c0.19,0.21,0.37,0.42,0.56,0.63c0.35,0.43,0.68,0.88,1.02,1.32 c0.67,0.89,1.26,1.81,1.88,2.72c0.77,1.19,1.5,2.4,2.2,3.62c-0.19-0.68-0.39-1.36-0.57-2.05c-0.53-2.04-1.03-4.1-1.45-6.19 c-0.39-2.1-0.8-4.19-0.99-6.35c1.23,1.79,2.25,3.66,3.29,5.53c1.01,1.87,1.94,3.78,2.83,5.69c0.89,1.92,1.72,3.86,2.52,5.8 c0.44,1.08,0.86,2.16,1.27,3.24c1.01-0.51,2.03-1.02,3.05-1.51c1.88-0.89,3.77-1.76,5.7-2.56c1.93-0.81,3.87-1.57,5.85-2.27 c1.99-0.69,3.99-1.35,6.08-1.85c-1.58,1.45-3.25,2.74-4.94,4c-1.69,1.25-3.42,2.43-5.16,3.57c-1.75,1.14-3.52,2.23-5.32,3.28 c-1.68,0.99-3.39,1.93-5.1,2.85c0.98-0.34,1.97-0.67,2.96-0.99c2.12-0.67,4.25-1.33,6.4-1.91c2.15-0.59,4.32-1.13,6.52-1.6 c2.2-0.46,4.41-0.88,6.69-1.13c-1.9,1.28-3.86,2.38-5.84,3.45c-1.98,1.06-3.99,2.04-6.01,2.98c-1.92,0.9-3.87,1.73-5.83,2.54 c1.14-0.14,2.29-0.27,3.44-0.36c2.01-0.16,4.02-0.27,6.06-0.25c1.02,0.02,2.04,0.04,3.07,0.14c0.51,0.05,1.03,0.11,1.55,0.19 c0.26,0.05,0.52,0.11,0.77,0.18c0.13,0.04,0.26,0.08,0.38,0.14C97.52,280.79,97.72,280.9,97.65,281.05z M74.83,247.72 c0.96,2.58,2.08,5.07,3.34,7.49l1.05,2.02l2.14-0.91c2.7-1.15,5.33-2.46,7.87-3.98c1.27-0.76,2.52-1.56,3.74-2.45 c1.21-0.89,2.41-1.82,3.53-2.92c-1.57,0.08-3.06,0.33-4.54,0.62c-1.47,0.3-2.91,0.67-4.33,1.09c-0.73,0.21-1.45,0.44-2.16,0.69 c0.94-0.82,1.86-1.68,2.74-2.57c0.97-0.98,1.91-2,2.8-3.08c0.88-1.09,1.75-2.22,2.49-3.49c-1.42,0.39-2.73,0.94-4.01,1.51 c-0.99,0.45-1.94,0.95-2.88,1.47c0.52-0.83,1-1.69,1.45-2.57c0.47-0.93,0.9-1.88,1.28-2.88c0.37-1,0.72-2.02,0.93-3.14 c-1.02,0.51-1.91,1.11-2.78,1.74c-0.68,0.5-1.32,1.03-1.94,1.57c-0.01-0.11,0-0.23-0.01-0.34c-0.06-1.18-0.19-2.37-0.4-3.56 c-0.21-1.19-0.48-2.39-0.93-3.61c-0.68,1.11-1.17,2.23-1.61,3.36c-0.43,1.13-0.79,2.27-1.08,3.42c-0.3,1.14-0.53,2.3-0.72,3.45 c-0.05,0.3-0.08,0.59-0.12,0.89c-0.36-0.99-0.74-1.98-1.18-2.96c-0.55-1.21-1.14-2.41-1.89-3.59c-0.27,1.37-0.38,2.7-0.44,4.03 c-0.06,1.33-0.05,2.64,0.01,3.94c0.03,0.57,0.07,1.14,0.11,1.71c-0.52-0.68-1.06-1.36-1.62-2.02c-0.92-1.06-1.87-2.1-2.96-3.06 c0.18,1.45,0.51,2.82,0.88,4.17C73.93,245.11,74.36,246.42,74.83,247.72z" style="fill: #c4d2ad;"/></g><g id="__id13_s6f50v8lwh"><path d="M83.48,240.22c-1.1,5.6-2.2,11.2-3.13,16.82c-0.51,2.8-0.97,5.61-1.42,8.41l-0.69,4.2l-0.63,4.21 c-0.41,2.8-0.69,5.63-0.94,8.45c-0.14,1.41-0.31,2.81-0.51,4.2c-0.18,1.39-0.43,2.78-0.69,4.16c-1.08,5.54-2.24,11.01-3.92,16.67 l-0.6,0c-0.41-1.43-0.68-2.88-0.95-4.33c-0.24-1.46-0.36-2.91-0.47-4.37c-0.13-1.46-0.14-2.92-0.13-4.37 c0.02-1.45,0.03-2.91,0.15-4.35c0.12-1.44,0.26-2.88,0.46-4.31c0.23-1.43,0.52-2.84,0.83-4.25c0.66-2.81,1.42-5.6,2.08-8.39 l1.04-4.18l1.1-4.16c0.78-2.76,1.56-5.52,2.39-8.26c1.73-5.47,3.44-10.93,5.47-16.29L83.48,240.22z" style="fill: #c4d2ad;"/></g></g><g><g id="__id14_s6f50v8lwh"><path d="M215.92,86c-1.52-3.39-4.01-6.94-7.7-7.28c-2.59-0.24-5.02,1.22-7.05,2.85c-1.36,1.1-2.66,2.32-3.6,3.79 c-1.82,2.84-2.19,6.34-3.12,9.59c-0.57,1.98-1.49,4-2.87,5.49c-3.88,1.18-7.81,2.18-11.78,3.08c-2.07,0.48-4.15,0.94-6.24,1.39 c1.51-1.94,2.88-3.95,4.13-6.04c0.47-0.47,0.94-0.94,1.4-1.41c1.41-1.47,2.79-3,3.74-4.79c0.8-1.49,1.28-3.13,1.63-4.78 c0.65-3.11,0.8-6.46-0.54-9.34c-1.34-2.88-4.5-5.07-7.62-4.48c-2.1,0.4-3.81,1.94-5.15,3.61c-1.47,1.84-2.67,4.03-2.67,6.38 c0,2.28,1.12,4.4,2.38,6.29c1.26,1.89,2.7,3.71,3.5,5.84c0.36,0.96,0.55,2.01,0.54,3.03c-1.31,2.2-2.76,4.32-4.37,6.35 c-2.83,0.61-5.66,1.22-8.49,1.87c-4.89,1.15-9.79,2.44-14.62,4.04c1.19-3.17,1.82-6.43,2.06-9.73c1.28-2.82,2.37-5.72,2.93-8.76 c0.8-4.39,0.37-9.16-2.06-12.91c-0.65-0.99-1.46-1.93-2.52-2.44c-0.79-0.38-1.67-0.51-2.53-0.63c-2.22-0.3-4.61-0.51-6.6,0.52 c-2.53,1.31-3.73,4.3-4.09,7.13c-0.29,2.24-0.17,4.56,0.63,6.67c1.25,3.32,4.02,5.79,6.48,8.35c1.81,1.88,3.56,4.04,4.39,6.47 c-0.38,2.16-0.95,4.29-1.8,6.39c-5.81,2.11-11.49,4.73-16.84,7.92c-1.2,0.71-2.37,1.47-3.52,2.25c1.23-4.29,1.52-8.66,1.28-13.06 c1.05-2.92,1.95-5.9,2.64-8.92c1.06-4.6,1.68-9.47,0.35-14c-1.33-4.53-5.03-8.63-9.71-9.19c-4.95-0.58-9.83,3.14-11.24,7.92 c-1.41,4.78,0.33,10.16,3.76,13.77c3.22,3.39,7.82,5.48,10.3,9.45c0.44,0.7,0.79,1.46,1.07,2.24c0.21,4.89-0.29,9.75-2.1,14.44 c-2.66,2.05-5.19,4.27-7.55,6.66c-1.37,1.38-2.67,2.82-3.93,4.29c0.04-3.95-0.51-7.82-1.65-11.53c1.08-3.24,2.31-6.44,3.08-9.77 c0.9-3.91,1.11-8.12-0.38-11.85c-1.71-4.27-5.44-7.41-9.31-9.9c-1.09-0.7-2.26-1.38-3.55-1.46c-1.72-0.1-3.3,0.88-4.66,1.94 c-4.85,3.75-8.71,9.2-9.17,15.32c-0.46,6.11,3.22,12.68,9.13,14.29c2.95,0.8,6.26,0.41,8.91,1.94c2.09,1.2,3.34,3.36,4.31,5.61 c0.46,2.99,0.56,6.05,0.28,9.15c-1.62,2.15-3.14,4.37-4.54,6.66c-3.22,5.3-5.82,10.97-7.47,16.88l0.55,0.24 c3.21-5.18,6.61-10.1,10.36-14.7c2.99-3.67,6.19-7.11,9.57-10.36c3.6-1.08,7.27-1.17,10.8-0.44c0.6,0.43,1.15,0.93,1.6,1.49 c2.1,2.64,2.73,6.11,3.6,9.37c0.87,3.26,2.25,6.69,5.16,8.39c2.3,1.34,5.2,1.33,7.76,0.58c1.47-0.43,2.89-1.11,4.02-2.15 c3.04-2.78,3.34-7.75,1.43-11.41c-1.91-3.65-5.58-6.11-9.44-7.56c-5.97-2.24-12.72-2.35-18.77-0.36c-1.55,0.08-3.1,0.3-4.63,0.65 c0.36-0.34,0.72-0.68,1.08-1.02c4.35-3.93,8.95-7.56,13.78-10.89c0.52-0.36,1.05-0.71,1.58-1.06c5.03-0.04,9.98,1.78,14.36,4.64 c1.69,2.1,2.95,4.64,4.04,7.13c1.84,4.22,3.6,8.74,7.18,11.64c1.25,1.02,2.84,1.82,4.42,1.51c2.1-0.42,3.35-2.63,3.76-4.73 c1.37-6.94-3.5-13.83-9.6-17.4c-5.03-2.95-11.01-4.23-16.81-3.67c-1.56-0.4-3.15-0.66-4.74-0.77c3.59-2.2,7.34-4.14,11.26-5.75 c2.98-1.24,6.03-2.32,9.13-3.33c3.08,0.61,5.98,2.03,8.68,3.92c1.28,1.97,2.09,4.38,2.71,6.67c0.52,1.9,0.99,3.84,1.9,5.59 c0.91,1.75,2.33,3.32,4.19,3.98c1,0.35,2.09,0.42,3.15,0.38c2.89-0.11,5.97-1.21,7.46-3.69c1.2-2,1.15-4.6,0.22-6.74 c-0.93-2.14-2.64-3.87-4.55-5.2c-4.24-2.97-9.66-4.16-14.76-3.33c-1.89-1.09-3.87-1.95-5.93-2.53c1.58-0.48,3.17-0.95,4.77-1.4 c3.41-0.98,6.86-1.91,10.31-2.86c2.9-0.01,5.66,0.61,8.24,1.69c1.41,1.36,2.39,3.28,3.11,5.14c1.09,2.79,2.05,5.85,4.42,7.7 c2.83,2.2,7.13,1.91,10.04-0.19c2.91-2.1,4.51-5.68,4.81-9.26c0.07-0.87,0.08-1.76-0.2-2.58c-0.83-2.49-3.78-3.53-6.39-3.76 c-5.85-0.52-11.77,1.29-17.59,0.55c-0.8-0.18-1.6-0.32-2.42-0.41c1.06-0.3,2.12-0.59,3.17-0.9c4.57-1.35,9.13-2.82,13.58-4.58 c0.07,0,0.13,0.01,0.2,0.01c4.82,0.31,9.78,0.86,14.39-0.58c4.61-1.44,8.81-5.55,8.58-10.38C217.23,89.19,216.62,87.56,215.92,86 z" style="fill: #c4d2ad;"/></g><g id="__id15_s6f50v8lwh"><path d="M110.61,335.42c-1.08-0.32-2.24-0.21-3.34,0.01c-5.41,1.08-10.18,4.81-12.75,9.69 c-2.57,4.88-2.97,10.81-1.31,16.08c0.05,0.17,0.11,0.35,0.17,0.53c-0.97,2.89-1.64,5.82-2.01,8.84 c-0.49-0.74-0.97-1.49-1.48-2.21c-3.11-4.39-6.63-8.43-10.38-12.18c-0.46-0.46-0.92-0.9-1.38-1.35c0.07-0.13,0.11-0.26,0.1-0.43 c-0.2-2.82-0.01-5.54,0.55-8.19c1.82-1.73,4.25-2.98,6.39-4.39c2.26-1.49,4.29-3.31,6.03-5.39c1.32-1.58,2.49-3.38,2.74-5.42 c0.28-2.29-0.66-4.61-2.13-6.38c-0.94-1.13-2.16-2.11-3.59-2.44c-2.02-0.46-4.12,0.44-5.76,1.69c-3.25,2.47-5.27,6.34-5.97,10.36 c-0.53,3.05-0.35,6.19,0.27,9.24c-0.91,2.78-1.4,5.63-1.47,8.57c-2.37-2.3-4.75-4.59-7.09-6.89c-2.81-2.77-5.59-5.58-8.25-8.48 c0-0.02,0.02-0.04,0.02-0.06c0.15-2.7,0.77-5.21,1.88-7.58c1.16-0.96,2.49-1.79,3.73-2.59c3.08-1.99,6.01-4.4,7.83-7.58 c1.82-3.18,2.38-7.27,0.71-10.53s-5.89-5.23-9.25-3.75c-2.41,1.06-3.87,3.49-5.18,5.77c-1.62,2.82-3.28,5.79-3.36,9.04 c-0.09,3.46,1.6,6.65,2.56,9.99c-0.65,1.44-1.12,2.94-1.43,4.49c-3.4-3.92-6.55-8.03-9.23-12.46c-0.5-0.8-0.97-1.63-1.42-2.46 c0.12-0.12,0.22-0.24,0.22-0.38c0.1-2.44,0.61-4.71,1.54-6.89c2.68-3.18,5.98-5.92,8.64-9.15c1.06-1.29,2.04-2.69,2.52-4.29 c0.48-1.6,0.42-3.43-0.5-4.83c-1.33-2.04-4.22-2.66-6.52-1.87c-2.31,0.79-4.07,2.71-5.27,4.83c-1.5,2.63-2.29,5.66-2.26,8.69 c0.02,2.27,0.48,4.52,0.71,6.78c-0.47,1.04-0.84,2.1-1.11,3.19c-1.2-2.48-2.32-5.03-3.43-7.59c-0.14-0.32-0.28-0.65-0.42-0.97 c-0.62-4-0.51-8.14-0.91-12.2c-0.37-3.75-1.32-7.66-3.96-10.34c-2.64-2.68-7.41-3.54-10.15-0.95c-1.04,0.98-1.68,2.32-2.04,3.7 c-0.72,2.73-0.39,5.81,1.26,8.09c2.87,3.97,8.7,4.58,12.12,8.08c0.54,0.55,1,1.17,1.43,1.82c1.52,4.03,2.93,8.12,4.64,12.13 c-1.99-0.62-4.08-0.82-6.23-0.64c-1.05-0.59-2.03-1.34-3.04-2.01c-1.52-1.01-3.29-1.89-5.09-1.62c-0.68,0.1-1.33,0.36-1.93,0.68 c-3.46,1.86-5.45,6.09-4.69,9.94c0.17,0.85,0.48,1.71,1.1,2.32c0.59,0.58,1.41,0.88,2.23,0.97c3.07,0.33,5.74-2.01,7.79-4.34 c1.52-1.72,3.09-3.62,5.04-4.71c2.01,0.25,3.93,0.95,5.74,2.07c0.07,0.04,0.18,0.07,0.3,0.09c0.49,1.04,0.99,2.08,1.54,3.1 c2.61,4.8,5.72,9.27,9.08,13.52c-2.6,0.22-5.19,0.45-7.79,0.67c-0.56-0.11-1.11-0.23-1.65-0.4c-2.58-0.84-4.9-2.6-7.61-2.8 c-2.66-0.19-5.29,1.26-6.89,3.4s-2.25,4.88-2.23,7.55c0.01,1.65,0.38,3.49,1.75,4.41c1.38,0.93,3.26,0.56,4.75-0.18 c3.24-1.59,5.53-4.57,8.04-7.16c1.07-1.11,2.28-2.18,3.58-3.03c3.13-0.27,6.26-0.54,9.4-0.81c2.84,3.48,5.83,6.83,8.85,10.1 c1.76,1.92,3.53,3.83,5.29,5.73c-1.95,0.15-3.86,0.49-5.72,1.04c-3.16-1-6.39-1.85-9.69-1.93c-3.87-0.09-7.93,0.99-10.69,3.7 c-1.44,1.42-2.47,3.21-3.18,5.1c-0.63,1.69-1.02,3.57-0.46,5.29c1.02,3.13,4.96,4.52,8.17,3.78c3.21-0.74,5.82-3.02,8.18-5.32 c3.02-2.93,5.87-6.03,8.58-9.25c2.04-0.56,4.14-0.84,6.29-0.82c1.29,1.42,2.58,2.85,3.84,4.29c3.44,3.89,6.81,7.78,9.99,11.8 c0.83,1.02,1.63,2.06,2.42,3.11c-2.54,0.15-5.06,0.46-7.54,0.92c-4.46-1.35-8.9-2.8-13.54-3.07c-5.55-0.32-11.62,1.44-14.75,6.03 c-1.25,1.83-1.95,3.99-2.36,6.16c-0.42,2.21-0.53,4.59,0.42,6.63c1.46,3.14,5.25,4.75,8.69,4.38c3.44-0.36,6.53-2.36,8.98-4.8 c2.45-2.44,4.39-5.34,6.55-8.05c1.89-2.38,4.23-4.73,6.93-5.93c2.54-0.42,5.11-0.67,7.71-0.75c1.85,2.58,3.57,5.24,5.15,8 c2.53,4.45,4.51,9.2,6.02,14.25l0.49-0.07c-0.1-5.32-1.31-10.68-3.35-15.68c-0.51-1.25-1.02-2.51-1.64-3.7 c-0.57-1.23-1.22-2.41-1.86-3.6c-0.09-0.16-0.2-0.32-0.29-0.48c0.1-3.9,0.66-7.64,1.7-11.29c2.36-2.25,5.73-3.46,8.64-5.12 c5.53-3.17,9.83-8.86,10.27-15.21c0.11-1.55-0.02-3.14-0.64-4.56C113.27,337.08,112.1,335.86,110.61,335.42z" style="fill: #c4d2ad;"/></g></g><g><g id="__id16_s6f50v8lwh"><path d="M88.62,471.78c1.33,1.35,2.64,2.73,3.87,4.22c-1.79-0.72-3.51-1.55-5.19-2.41c-1.68-0.87-3.34-1.78-4.95-2.74 c-1.57-0.92-3.1-1.87-4.62-2.86c1.3,1.66,2.57,3.34,3.78,5.07c0.94,1.35,1.85,2.73,2.71,4.15c0.86,1.42,1.69,2.87,2.42,4.4 c-1.42-0.93-2.75-1.94-4.04-2.98c-1.29-1.04-2.54-2.12-3.76-3.23c-1.91-1.73-3.72-3.55-5.5-5.4c-0.18,0.11-0.35,0.23-0.53,0.35 l1.24,1.8c0.86,1.25,1.7,2.51,2.51,3.79c0.8,1.29,1.59,2.59,2.32,3.92c0.75,1.33,1.45,2.69,2.11,4.08 c0.65,1.4,1.27,2.82,1.78,4.32c-1.27-0.94-2.44-1.97-3.57-3.01c-1.13-1.05-2.21-2.13-3.25-3.25c-1.05-1.11-2.05-2.25-3.03-3.41 c-0.37-0.44-0.72-0.9-1.08-1.34l0,0l0.44,0.84c1.35,2.57,2.56,5.21,3.61,7.94c0.51,1.37,1,2.76,1.41,4.18 c0.41,1.43,0.79,2.87,1.02,4.39c-1.14-1.04-2.14-2.15-3.1-3.28c-0.95-1.14-1.84-2.3-2.7-3.49c-0.23-0.32-0.44-0.64-0.66-0.96 c-0.06,1.13-0.14,2.27-0.25,3.4c-0.17,1.62-0.41,3.24-0.72,4.85c-0.32,1.62-0.7,3.24-1.3,4.86c-0.61-1.61-1.02-3.23-1.36-4.84 c-0.31-1.47-0.54-2.94-0.73-4.41c-0.21,0.37-0.42,0.74-0.64,1.1c-0.69,1.12-1.41,2.22-2.26,3.28c-0.04-1.36,0.04-2.68,0.17-3.98 c0.13-1.3,0.31-2.59,0.54-3.86c0.01-0.07,0.03-0.14,0.04-0.21c-0.15,0.13-0.3,0.26-0.46,0.39c-1.24,1.01-2.51,1.98-3.84,2.89 c-1.34,0.91-2.71,1.78-4.21,2.53c0.7-1.53,1.54-2.92,2.41-4.28c0.87-1.36,1.81-2.66,2.78-3.92c0.33-0.43,0.68-0.86,1.02-1.28 c-1.19,0.76-2.39,1.51-3.62,2.21c-1.71,0.96-3.45,1.88-5.32,2.64c1.12-1.68,2.36-3.21,3.65-4.69c1.29-1.47,2.63-2.89,4.01-4.24 c1.39-1.35,2.8-2.68,4.26-3.93c1.05-0.92,2.13-1.81,3.22-2.68l0.07-0.25c-1.51,0.88-3.05,1.72-4.61,2.53 c-1.78,0.9-3.59,1.75-5.45,2.53c-1.86,0.77-3.76,1.49-5.76,2.02c1.36-1.58,2.83-2.97,4.33-4.31c1.51-1.34,3.06-2.6,4.65-3.81 c0.73-0.55,1.47-1.09,2.21-1.62c-0.27,0.11-0.53,0.22-0.8,0.32c-1.97,0.76-3.98,1.46-6.01,2.09c-2.05,0.6-4.1,1.21-6.26,1.58 c1.63-1.46,3.37-2.7,5.11-3.94c1.75-1.21,3.54-2.36,5.36-3.44c3.63-2.17,7.37-4.11,11.19-5.89l1.38-0.65l1.15,0.87 c2.98,2.26,5.89,4.62,8.69,7.14C85.92,469.14,87.28,470.45,88.62,471.78z M64.01,462.25c2.16-0.46,4.3-0.96,6.42-1.53 c1.77-0.46,3.52-0.98,5.27-1.51c3.07,1.93,6.2,3.79,9.42,5.5c1.78,0.96,3.59,1.86,5.43,2.72c1.85,0.85,3.71,1.68,5.66,2.38 c-1.41-1.51-2.9-2.91-4.42-4.27c-1.52-1.35-3.06-2.66-4.64-3.92c-3.15-2.53-6.41-4.9-9.74-7.16l-0.92-0.63l-1.14,0.32 c-2.11,0.6-4.22,1.23-6.3,1.93c-2.09,0.69-4.16,1.44-6.21,2.23c-2.06,0.79-4.09,1.66-6.1,2.6c-2,0.97-4.01,1.93-5.95,3.13 c2.28-0.05,4.48-0.35,6.69-0.64C59.67,463.1,61.85,462.71,64.01,462.25z" style="fill: #c4d2ad;"/></g><g id="__id17_s6f50v8lwh"><path d="M67.09,486.17c2.23-7.23,4.42-14.46,6.18-21.77c0.91-3.65,1.75-7.31,2.47-10.98 c0.74-3.67,1.4-7.35,1.89-11.03c0.3-1.84,0.42-3.69,0.58-5.54c0.19-1.85,0.21-3.7,0.28-5.54c0.13-1.84,0.09-3.67,0.16-5.5 c0.12-1.83,0.07-3.65,0.12-5.48c0.08-3.65-0.04-7.29-0.26-10.97c0-0.93-0.17-1.83-0.26-2.75l-0.28-2.78 c-0.22-1.85-0.61-3.68-0.79-5.63l0.55-0.22c1.03,1.63,2.02,3.33,2.86,5.1c0.7,1.8,1.55,3.62,2.04,5.51 c1.12,3.76,1.82,7.65,2.1,11.56c0.09,1.95,0.26,3.91,0.12,5.86c-0.09,1.95-0.18,3.9-0.49,5.81c-0.29,1.92-0.53,3.84-0.93,5.73 c-0.38,1.89-0.67,3.8-1.12,5.67c-0.78,3.76-1.72,7.48-2.74,11.16c-1.06,3.67-2.23,7.3-3.47,10.9c-2.56,7.17-5.36,14.23-8.49,21.13 L67.09,486.17z" style="fill: #c4d2ad;"/></g></g><g id="__id18_s6f50v8lwh"><path d="M334.56,62.44c-0.16-1.02-0.21-2.09-0.07-3.11c-0.01-0.95,0.17-1.86,0.65-2.64c0.98-1.59,2.64-2.56,4.47-2.73 c2.58-0.25,4.93,1.61,6.5,3.43c3,3.48,6.51,11.83,0.8,14.72C340.89,75.16,335.37,67.68,334.56,62.44z M314.88,73.96 c-0.03-0.13-0.08-0.26-0.12-0.39c-0.06-0.98-0.56-1.96-1.23-2.64c-1.07-1.08-2.5-1.26-3.92-0.83c-3.4,1.03-2.46,5.51,0.01,7.06 C312.03,78.68,315.62,77.08,314.88,73.96z M415.01,68.88c0.82-0.74,1-1.74,0.65-2.76c-0.34-0.98-1.07-2.31-2.19-2.55 c-0.04-0.01-0.09-0.01-0.13-0.02c-0.29-0.2-0.59-0.35-0.93-0.44c-0.92-0.24-1.98,0.1-2.44,0.96c-0.46,0.87-0.09,2,0.28,2.82 c0.44,0.98,1.17,2.14,2.24,2.54C413.35,69.75,414.36,69.48,415.01,68.88z M356.26,82.64c0.19-0.01,0.39-0.04,0.59-0.12 c0.81-0.32,1.82-1.32,1.75-2.24c-0.16-2.15-2.86-4.72-4.9-2.89c-0.93,0.84-0.85,2.12-0.41,3.19c0.46,1.11,1.42,2.59,2.79,2.32 C356.19,82.88,356.24,82.78,356.26,82.64z M319.57,88.22c3.39-1.21,3.04-5.79,0.78-7.93c-2.31-2.19-6.56-1.4-7.55,1.77 c-0.31,1-0.22,2.15,0.21,3.14c0.2,1.1,0.8,2.12,1.72,2.77C316.12,88.97,318.03,88.77,319.57,88.22z M341.4,87.01 c-0.22-2.36-1.88-4.85-4.26-5.42c-0.63-0.15-1.34-0.16-2.03-0.05c-0.13-0.03-0.25-0.07-0.38-0.09c-3.51-0.65-5.04,2.77-3.71,5.59 c0.2,0.41,0.42,0.78,0.67,1.12c0.75,1.3,2.05,2.3,3.52,2.49c0.65,0.08,1.3,0.05,1.9-0.1C339.46,90.8,341.66,89.84,341.4,87.01z M349.44,97.09c1.58-1.64,0.14-4.65-1.38-5.8c-1.6-1.22-3.86-0.42-4.19,1.61c-0.07,0.4,0.02,0.83,0.18,1.23 c0.11,0.62,0.35,1.22,0.65,1.74C345.64,97.51,347.87,98.71,349.44,97.09z M325.15,69.49c-1.67-1.11-2.44-3.5-1.58-5.33 c1.76-3.78,7.65-2.42,8.26,1.45c0.33,2.08-0.89,3.39-2.47,3.84C328.08,70.24,326.44,70.35,325.15,69.49z M328.75,65.74 c-0.12,0.01-0.24,0.02-0.36,0.05c-0.42,0.09-0.7,0.3-0.98,0.52c0,0,0.01,0,0.01,0c0.06-0.01,0.12-0.02,0.19-0.03 c0.09-0.05,0.17-0.1,0.25-0.16c0.18-0.13,0.38-0.15,0.58-0.12c0.06-0.04,0.13-0.07,0.19-0.11 C328.62,65.88,328.68,65.82,328.75,65.74z M317.31,61.46c0.67-0.75,0.68-1.77,0.39-2.7c-0.18-0.57-0.49-1.2-0.93-1.71 c-0.26-0.55-0.65-1.06-1.16-1.38c-1.38-0.88-3.33-0.16-3.59,1.51c-0.29,1.88,1.22,4.79,3.25,5.07 C316.05,62.36,316.8,62.02,317.31,61.46z M345.55,45.68c-0.42-1.25-1.52-2.24-2.82-2.47c-0.19-0.03-0.39-0.04-0.58-0.04 c-1.23-0.35-2.6,0.01-3.21,1.34c-0.97,2.13,0.67,5.05,2.95,5.41C344.28,50.31,346.32,48.01,345.55,45.68z M369.95,57.83 c0.35-0.87,0.14-1.96-0.39-2.81c-0.31-1.02-0.9-1.98-1.64-2.55c-2.31-1.8-5.31-0.43-5.71,2.41c-0.37,2.64,1.8,6.47,4.87,5.49 C368.24,60.01,369.49,58.97,369.95,57.83z M374.97,64c0.51-0.48,0.7-1.05,0.7-1.65c0.24-0.28-0.09-1.28-0.15-1.45 c-0.23-0.56-0.67-1.4-1.29-1.68c-0.19-0.15-0.38-0.23-0.57-0.16c-1.06-0.23-2.26-0.29-2.93,0.72c-0.87,1.31,0.22,3.37,1.24,4.26 C372.83,64.8,374.12,64.8,374.97,64z M287.7,112.77c2.64-3.49-0.97-10.03-5.41-9.19c-1.5,0.28-2.41,1.29-2.82,2.55 c-0.32,0.45-0.55,0.97-0.66,1.53C277.92,112.22,284.34,117.2,287.7,112.77z M296.6,119.5c0.53-1.11,0.25-2.46-0.47-3.43 c-0.03-0.04-0.07-0.08-0.1-0.12c-0.17-0.37-0.42-0.71-0.67-0.97c-1.13-1.17-3.27-1.45-4.35-0.04c-1.25,1.63-0.31,4.23,1.14,5.4 C293.57,121.48,295.77,121.24,296.6,119.5z M271.96,122.66c1.28-1.87,0.51-4.51-1.22-5.61c-1.15-1.69-3.69-2.34-5.37-0.81 c-2,1.82-1.6,5.31,0.29,7.04C267.46,124.93,270.54,124.74,271.96,122.66z M272.01,106.2c-0.2-0.85-0.63-1.61-1.21-2.2 c-1.56-2.21-5.11-2.84-6.67-0.23c-1.66,2.77,0.11,6.64,3.2,7.39C270.45,111.92,272.7,109.16,272.01,106.2z M246.05,97.57 c0.21-0.05,0.41-0.12,0.62-0.2c2.16-0.92,3-3.58,2.67-5.74c-0.39-2.54-2.16-4.67-4.83-4.86c-2.51-0.17-4.74,1.48-5.44,3.86 c-0.67,2.3,0.2,4.92,1.92,6.55C242.49,98.61,244.55,98.86,246.05,97.57z M252.51,110.78c2.52-1.16,1.03-4.82-0.7-5.96 c-0.86-0.57-1.97-0.71-2.78,0.02c-1,0.9-0.94,2.21-0.57,3.4c0.1,0.33,0.35,0.79,0.67,1.15 C249.93,110.57,251.19,111.38,252.51,110.78z M256.16,125.33c2.12-1.26,2.79-3.75,2.03-6.01c-0.71-2.12-2.46-4.32-4.81-4.65 c-0.44-0.06-0.87-0.04-1.28,0.05c-1.46-0.33-3.03,0.24-3.79,1.75c-1.16,2.3,0,5.25,1.47,7.12 C251.31,125.55,253.83,126.72,256.16,125.33z M276.69,130.02c0.76-0.49,0.85-1.1,0.56-1.94c-0.01-0.02-0.02-0.05-0.03-0.07 c0.03-0.25-0.07-0.63-0.12-0.78c-0.24-0.7-0.69-1.67-1.34-2.11c-1.14-0.78-2.95-1.3-3.9,0.04c-1.06,1.49,0.15,3.74,1.26,4.85 C274.15,131.04,275.57,130.75,276.69,130.02z M293.59,43.38c-0.28-0.93-0.74-1.76-1.33-2.44c-0.9-2.92-4.19-5.33-6.85-2.8 c-2.81,2.66-2.21,7.58,0.83,9.84C289.4,50.33,294.81,47.45,293.59,43.38z M311.29,44.69c-0.22-0.67-0.61-1.33-1.14-1.82 c-0.49-0.96-1.4-1.86-2.55-1.85c-0.93,0.01-1.74,0.64-2.13,1.46c-1.01,2.12,0.46,5.03,2.61,5.77 C310.39,49.06,311.98,46.8,311.29,44.69z M326.76,34.14c0.58-0.77,0.58-1.89,0.22-2.91c-0.05-0.6-0.52-1.39-0.73-1.71 c-0.95-1.47-3.14-2.77-4.73-1.36c-1.71,1.52-0.6,4.42,0.64,5.86C323.4,35.43,325.54,35.77,326.76,34.14z M280.54,54.04 c0.88-0.74,0.97-1.83,0.64-2.87c-0.39-1.26-1.21-2.69-2.39-3.37c-0.24-0.14-0.49-0.23-0.74-0.28c-0.76-0.59-1.68-0.57-2.35,0.26 c-0.73,0.9-0.6,2.13-0.24,3.17c0.43,1.24,1.22,2.69,2.42,3.35C278.73,54.76,279.8,54.67,280.54,54.04z M290.36,34.13 c0.51-0.3,0.78-0.87,0.82-1.44c0.02-0.39-0.04-0.77-0.16-1.14c-0.07-0.43-0.26-0.84-0.53-1.11c-0.28-0.29-0.58-0.54-0.92-0.7 c-0.04-0.02-0.08-0.03-0.12-0.04c-0.11-0.05-0.22-0.1-0.35-0.12c-0.19-0.05-0.39-0.08-0.6-0.09c-0.13,0-0.26,0.06-0.38,0.14 c-0.3,0.1-0.58,0.28-0.78,0.51c-1.09,1.27-0.04,3.33,1.26,3.97C289.16,34.37,289.84,34.44,290.36,34.13z M260.22,59.44 c0.01-0.06,0.02-0.13,0.02-0.2c0.03-0.1,0.05-0.21,0.04-0.31c-0.05-1.64-1.19-3.5-2.95-3.66c-1.23-0.12-1.93,1.01-1.96,2.11 c-0.04,1.44,0.96,3.24,2.45,3.54C258.87,61.14,260,60.53,260.22,59.44z M292.23,56.82c0.33-0.39,0.57-0.85,0.72-1.32 c0.43-1.37-0.24-2.98-1.44-3.74c-1.06-0.67-2.15-0.5-2.94,0.13c-0.01,0.01-0.03,0.02-0.04,0.03c-0.06,0.05-0.12,0.1-0.17,0.15 c-0.07,0.06-0.13,0.1-0.2,0.17c-0.89,0.96-0.97,2.48-0.44,3.62c0.25,0.55,0.66,1.06,1.16,1.42c0.01,0.01,0.03,0.02,0.04,0.03 c0.05,0.03,0.1,0.06,0.14,0.09c0.26,0.17,0.54,0.3,0.84,0.38C290.8,57.99,291.83,57.65,292.23,56.82z M286.13,61.62 c-0.26-0.73-0.66-1.69-1.38-2.09c-0.02-0.01-0.03-0.01-0.04-0.02c-0.29-0.32-0.62-0.57-0.99-0.6c-0.97-0.09-1.19,1.11-1.06,1.82 c0.17,0.96,0.71,2,1.43,2.66c0.36,0.33,0.78,0.55,1.28,0.43C286.35,63.58,286.41,62.4,286.13,61.62z M308.8,126.28 c-0.28-0.91-1.45-1.69-2.69-1.38c-0.09,0.01-0.18,0.03-0.27,0.07c-0.95,0.44-1.17,1.43-0.97,2.08c0.17,0.57,0.65,0.96,1.19,1.21 c0.47,0.22,1.11,0.39,1.78,0.1C308.78,127.94,309,126.92,308.8,126.28z M115.37,40.44c-0.12,1.37-1.17,2.36-2.44,2.75 c-2.17,0.68-5.27-0.42-5.48-3c-0.15-1.83,1.68-3.06,3.41-3.09c0.01-0.01,0.02-0.01,0.04-0.02c1.14-0.57,2.66-0.6,3.59,0.38 C115.19,38.22,115.46,39.44,115.37,40.44z M111.81,40.79c0.01-0.21,0-0.42-0.04-0.63c-0.15,0.05-0.31,0.09-0.46,0.12 C111.44,40.47,111.61,40.65,111.81,40.79z M121.6,54.56c-2.79-3.37-9.99-1.36-10.19,3.16c-0.07,1.53,0.71,2.64,1.84,3.33 c0.36,0.41,0.82,0.76,1.33,0.99C118.82,63.95,125.14,58.84,121.6,54.56z M130.2,47.45c-0.96-0.77-2.34-0.81-3.44-0.33 c-0.05,0.02-0.09,0.05-0.14,0.07c-0.4,0.09-0.78,0.25-1.1,0.43c-1.4,0.83-2.16,2.85-1.04,4.22c1.3,1.59,4.05,1.27,5.52,0.13 C131.43,50.85,131.7,48.65,130.2,47.45z M127.62,72.15c-1.52-1.67-4.28-1.53-5.74-0.1c-1.91,0.73-3.13,3.06-2.02,5.04 c1.31,2.36,4.8,2.77,6.91,1.34C128.8,77.05,129.31,74.01,127.62,72.15z M111.6,68.32c-0.87,0-1.71,0.25-2.42,0.67 c-2.51,1.01-3.94,4.32-1.75,6.44c2.32,2.25,6.49,1.42,7.93-1.41C116.81,71.15,114.65,68.33,111.6,68.32z M97.24,91.61 c0-0.21-0.02-0.43-0.05-0.65c-0.4-2.31-2.79-3.75-4.98-3.92c-2.57-0.2-5.04,1.03-5.84,3.59c-0.74,2.4,0.35,4.96,2.51,6.18 c2.09,1.18,4.84,0.94,6.82-0.36C97.44,95.31,98.16,93.36,97.24,91.61z M111.58,88.35c-0.55-2.72-4.45-2.11-5.96-0.68 c-0.75,0.71-1.14,1.75-0.62,2.71c0.64,1.18,1.94,1.42,3.18,1.33c0.34-0.02,0.85-0.16,1.28-0.39 C110.79,90.81,111.87,89.77,111.58,88.35z M126.59,88.14c-0.74-2.36-3.01-3.58-5.39-3.35c-2.23,0.21-4.77,1.41-5.63,3.62 c-0.16,0.42-0.24,0.84-0.24,1.25c-0.66,1.34-0.46,3.01,0.83,4.09c1.97,1.66,5.11,1.2,7.27,0.21 C125.69,92.91,127.4,90.72,126.59,88.14z M135.87,69.24c-0.3-0.85-0.88-1.08-1.76-0.99c-0.02,0-0.05,0.01-0.07,0.01 c-0.23-0.08-0.63-0.08-0.79-0.06c-0.74,0.07-1.79,0.29-2.36,0.82c-1.02,0.93-1.95,2.57-0.86,3.81c1.21,1.38,3.68,0.71,5.01-0.11 C136.27,71.95,136.31,70.5,135.87,69.24z M66.45,415.12c-1.71-4.45-7.39-4.61-10.81-2.08c-2.69,1.99-3.36,6.42-0.88,8.39 c1.19,1.24,3.05,1.49,4.69,1.33C63.21,422.37,68.19,419.65,66.45,415.12z M112.12,396.72c-1.84-1.61-5.2-0.84-6.01,1.52 c-0.69,2.01,0.56,3.92,2.6,4.24c0.48,0.07,1.07-0.05,1.55-0.32c0.21-0.02,0.41-0.04,0.6-0.1 C113.42,401.37,114.09,398.45,112.12,396.72z M107.77,309.07c-0.68-1.24-1.91-1.87-3.2-1.97c-0.77-0.12-1.58-0.07-2.36,0.12 c-1.32,0.28-2.55,0.99-3.32,2.04c-0.12,0.15-0.23,0.31-0.33,0.48c-0.27,0.49-0.1,0.79,0.28,0.94c-0.29,0.88-0.2,1.86,0.49,2.82 c1.62,2.25,5.11,2.17,7.09,0.48c0.44-0.37,0.78-0.83,1.04-1.34C108.25,311.72,108.51,310.4,107.77,309.07z M27.45,267.86 c-0.64-0.03-1.34,0.05-2.02,0.25c-0.71,0.11-1.41,0.35-2.03,0.69c-0.34,0.14-0.68,0.31-1,0.55c-1.94,1.44-2.52,4.17-1.37,6.28 c1.74,3.19,7.15,2.28,8.5-0.52C32.3,272.83,31.43,268.08,27.45,267.86z M102.83,233.22c-0.1-0.32-0.25-0.59-0.42-0.83 c-0.29-1.04-1.19-1.71-2.16-1.84c-0.45-0.3-1.4-0.14-1.74-0.05c-1.87,0.51-3.7,1.99-3.53,4.11c0.17,2.07,2.49,2.63,4.21,2.38 C100.93,236.73,103.52,235.39,102.83,233.22z M109.33,227.36c-0.09-0.18-0.21-0.33-0.36-0.45c-0.03-0.1-0.09-0.19-0.2-0.26 c-0.2-0.13-0.43-0.16-0.66-0.14c-0.56-0.11-1.17-0.01-1.65,0.3c-0.92,0.59-1.27,1.69-0.95,2.66c0,0.01,0,0.01,0.01,0.02 c0.08,0.26,0.2,0.5,0.38,0.73c0.81,1.01,2.37,1.12,3.32,0.22C110.07,229.63,110.11,228.22,109.33,227.36z M4.46,243.28 c-0.67-0.73-1.78-0.84-2.68-0.53c-0.59-0.03-1.42,0.26-1.55,0.73c-0.24,0.86-0.03,2.16,0.8,2.67c0.95,0.59,2.43,0.17,3.2-0.54 C4.91,244.99,5.13,244.01,4.46,243.28z M86.75,387c-0.14-0.24-0.32-0.48-0.55-0.69c-0.23-0.25-0.5-0.46-0.82-0.62 c-1.21-0.59-2.52-0.19-3.46,0.71c-0.9,0.86-1.41,2.2-0.9,3.39c0.45,1.06,1.55,1.64,2.67,1.69c1.69,0.07,3.05-1.25,3.33-2.69 C87.4,388.19,87.27,387.48,86.75,387z M100.27,40.62c-0.22-0.17-0.47-0.28-0.73-0.3c-0.2-0.07-0.41-0.11-0.63-0.11 c-0.79,0-1.54,0.46-1.95,1.14c-0.87,1.48,0.49,3.24,2.09,3.13C100.91,44.36,101.75,41.79,100.27,40.62z M110.18,20.67 c-0.92-0.48-1.93-0.19-2.49,0.65c-0.1,0.16-0.21,0.31-0.31,0.47c-0.53,0.79-0.18,2.05,0.65,2.49c0.92,0.48,1.93,0.19,2.49-0.65 c0.1-0.16,0.21-0.31,0.31-0.47C111.36,22.37,111.02,21.11,110.18,20.67z M121.28,11.12c-0.07-0.07-0.14-0.12-0.22-0.17 c-0.08-0.12-0.19-0.23-0.33-0.31c-0.49-0.28-1.23-0.14-1.49,0.39c-0.29,0.57-0.34,1.29,0.14,1.78c0.47,0.48,1.25,0.57,1.79,0.15 C121.72,12.51,121.82,11.64,121.28,11.12z M24.76,261.49c-0.1-0.07-0.21-0.12-0.32-0.16c-0.45-0.27-1.11-0.2-1.57,0.11 c-0.49,0.33-0.95,0.75-1.2,1.3c-0.63,1.33,0.26,2.81,1.73,2.86c1.28,0.05,2.29-1.07,2.22-2.34 C25.6,262.58,25.34,261.88,24.76,261.49z M48.18,273.57c-0.18-0.77-0.78-1.4-1.47-1.61c-0.17-0.48-0.63-0.86-1.27-0.67 c-2.36,0.68-4.24,4.09-1.99,6c1.02,0.87,2.63,0.75,3.62-0.11C48.07,276.33,48.49,274.84,48.18,273.57z M17.53,250.42 c-0.86-0.53-1.98-0.3-2.66,0.4c-0.76,0.79-1.08,2.28-0.2,3.1c0.77,0.72,1.96,0.57,2.78,0.02c0.18-0.12,0.32-0.28,0.41-0.46 c0.12-0.14,0.24-0.28,0.32-0.43C18.71,252.12,18.44,250.98,17.53,250.42z M16.35,274c-0.28-0.52-0.99-0.68-1.49-0.39 c-0.09,0.05-0.16,0.12-0.23,0.19c-0.08,0.02-0.16,0.05-0.23,0.09c-0.2,0.04-0.39,0.13-0.52,0.3c-0.43,0.55-0.6,1.26-0.22,1.91 c0.36,0.61,1.06,0.93,1.75,0.74c0.62-0.17,1.1-0.72,1.18-1.35C16.7,274.98,16.6,274.45,16.35,274z M103.03,446.75 c-0.99-1.91-3.72-2.76-5.54-1.47c-0.15,0.11-0.29,0.23-0.42,0.36c-0.28,0.19-0.55,0.39-0.78,0.65c-0.87,0.95-1.33,2.34-0.99,3.61 c0.6,2.22,3.22,3.41,5.35,2.63C102.96,451.68,104.21,449.03,103.03,446.75z M93.99,420.34c-0.03-0.08-0.06-0.15-0.1-0.23 c0.01-0.16,0-0.33-0.05-0.5c-0.23-0.71-1.02-1.29-1.79-1.02c-0.74,0.26-1.38,0.73-1.62,1.51c-0.22,0.71-0.04,1.49,0.47,2.03 c0.58,0.6,1.5,0.71,2.22,0.32C93.84,422.08,94.28,421.13,93.99,420.34z M106.7,407.67c-1.25-2.87-5.24-2.92-6.96-0.48 c-0.8,1.14-0.84,2.62-0.09,3.8c0.85,1.34,2.43,1.89,3.95,1.82c0.51-0.03,0.99-0.25,1.32-0.6 C106.54,411.42,107.53,409.58,106.7,407.67z M129.41,363.6c-0.09-0.67-0.45-1.21-1.04-1.54c-0.26-0.14-0.57-0.24-0.88-0.28 c-0.49-0.19-1.03-0.19-1.47,0.14c-0.47,0.35-0.86,0.73-1.01,1.33c-0.1,0.41-0.11,0.86,0.01,1.27c0.32,1.15,1.54,1.87,2.7,1.56 C128.79,365.79,129.56,364.72,129.41,363.6z M123.23,388.64c-1.36,0.01-2.39,1.11-2.6,2.36c-0.37,1.26,0.3,2.77,1.66,3.18 c1.56,0.47,3.36-0.55,3.7-2.18C126.34,390.28,125,388.64,123.23,388.64z M110.41,454.29c-0.13-0.71-0.69-1.29-1.38-1.47 c-0.78-0.19-1.64,0.22-2.05,0.91c-0.86,1.46,0.53,3.1,2.11,2.72c0.61-0.15,1.09-0.65,1.25-1.24 C110.44,454.91,110.47,454.6,110.41,454.29z M225.77,116.43c-0.28,0.8-0.44,1.61-0.5,2.42c-0.06,0.81-0.02,1.64,0.14,2.47 c0.17,0.83,0.43,1.67,1,2.53c0.68-0.77,1.06-1.56,1.35-2.36c0.28-0.8,0.44-1.61,0.49-2.42c0.06-0.82,0.01-1.64-0.15-2.47 c-0.17-0.83-0.43-1.67-0.99-2.53C226.44,114.84,226.06,115.63,225.77,116.43z M228.66,117.56c-0.78-0.11-1.54-0.11-2.28-0.01 c-0.75,0.1-1.48,0.3-2.2,0.62c-0.72,0.33-1.42,0.75-2.08,1.47c0.83,0.51,1.62,0.73,2.4,0.86c0.78,0.11,1.54,0.11,2.28,0.01 c0.75-0.1,1.48-0.31,2.2-0.63c0.72-0.33,1.42-0.75,2.08-1.47C230.23,117.9,229.44,117.68,228.66,117.56z M302,99.66 c0.63-1.14,0.36-2.49-0.43-3.44c-0.03-0.04-0.08-0.08-0.11-0.12c-0.19-0.36-0.46-0.7-0.74-0.95c-1.25-1.14-3.67-1.35-4.95,0.1 c-1.48,1.68-0.49,4.28,1.12,5.4C298.48,101.75,301,101.43,302,99.66z M342.27,19.19c0.32-0.89-0.15-2.22-1.32-2.71 c-0.08-0.05-0.17-0.09-0.26-0.11c-1.03-0.22-1.8,0.44-2.03,1.08c-0.2,0.56-0.05,1.16,0.22,1.68c0.24,0.45,0.65,0.98,1.36,1.14 C341.26,20.5,342.04,19.81,342.27,19.19z M398.75,83.34c-0.28-0.91-1.45-1.69-2.69-1.38c-0.09,0.01-0.18,0.03-0.27,0.07 c-0.95,0.44-1.17,1.43-0.97,2.08c0.17,0.57,0.65,0.96,1.19,1.21c0.47,0.22,1.11,0.39,1.78,0.1 C398.74,84.99,398.95,83.98,398.75,83.34z M123.44,202.63c1.64,1.08,3.36,1.98,5.14,2.73c1.78,0.75,3.63,1.33,5.55,1.74 c1.93,0.39,3.92,0.64,6.1,0.42c-1.38-1.7-2.96-2.94-4.59-4.04c-1.64-1.08-3.36-1.98-5.14-2.72c-1.78-0.74-3.63-1.33-5.55-1.73 c-1.93-0.39-3.92-0.64-6.1-0.43C120.23,200.3,121.81,201.53,123.44,202.63z M126.31,207.18c1.72-0.54,3.34-1.24,4.88-2.1 c1.54-0.85,3-1.86,4.36-3.03c1.35-1.19,2.63-2.52,3.67-4.28c-2.04-0.05-3.85,0.34-5.57,0.86c-1.72,0.54-3.34,1.24-4.88,2.1 c-1.54,0.86-3,1.86-4.36,3.04c-1.35,1.19-2.63,2.52-3.67,4.27C122.78,208.09,124.58,207.7,126.31,207.18z M126.46,198.75 c0.04,1.82,0.27,3.59,0.66,5.33c0.39,1.74,0.95,3.44,1.7,5.1c0.77,1.65,1.69,3.27,3.09,4.78c0.62-1.97,0.74-3.82,0.72-5.65 c-0.04-1.82-0.27-3.59-0.67-5.33c-0.4-1.74-0.96-3.44-1.71-5.1c-0.77-1.65-1.69-3.27-3.09-4.78 C126.56,195.07,126.44,196.92,126.46,198.75z M114.34,374.78c-0.54,1.32-0.97,2.67-1.29,4.03c-0.33,1.37-0.56,2.76-0.67,4.18 c-0.1,1.42-0.12,2.87,0.16,4.38c0.93-1.23,1.57-2.52,2.12-3.84c0.54-1.32,0.97-2.67,1.29-4.04c0.33-1.37,0.55-2.76,0.67-4.18 c0.1-1.42,0.12-2.87-0.16-4.38C115.53,372.16,114.89,373.46,114.34,374.78z M118.09,378.15c-1.29-0.25-2.59-0.39-3.89-0.43 c-1.3-0.04-2.6,0.03-3.91,0.22c-1.31,0.2-2.61,0.48-3.93,1.07c1.28,0.66,2.57,1.01,3.87,1.28c1.29,0.25,2.59,0.39,3.89,0.42 c1.3,0.03,2.6-0.04,3.91-0.22c1.31-0.2,2.61-0.48,3.93-1.07C120.68,378.77,119.39,378.41,118.09,378.15z M23.5,152.01 c0.86-1,1.67-2.07,2.29-3.36c-1.4,0.34-2.61,0.91-3.77,1.55c-0.54,0.3-1.05,0.63-1.56,0.97c-0.43-0.74-0.89-1.46-1.4-2.16 c-0.85-1.15-1.77-2.26-2.97-3.23c0.09,1.54,0.45,2.94,0.88,4.29c0.33,1,0.73,1.95,1.17,2.89c-0.77,0.67-1.5,1.37-2.18,2.14 c-0.86,1-1.67,2.07-2.29,3.37c1.4-0.34,2.61-0.9,3.77-1.54c0.72-0.41,1.41-0.86,2.07-1.34c0.41,0.69,0.84,1.36,1.31,2.01 c0.85,1.15,1.77,2.26,2.97,3.23c-0.09-1.54-0.44-2.94-0.88-4.3c-0.32-0.96-0.7-1.89-1.12-2.8 C22.39,153.18,22.97,152.62,23.5,152.01z M71.56,55.4c0.93,2.35,2,4.67,3.57,6.88c0.46-2.67,0.43-5.22,0.25-7.75 c-0.12-1.49-0.31-2.96-0.55-4.42c0.88,0.28,1.77,0.55,2.66,0.8c2.78,0.75,5.62,1.35,8.66,1.49c-2.24-2.06-4.66-3.65-7.15-5.1 c-1.17-0.67-2.35-1.3-3.55-1.9c0.85-0.8,1.69-1.63,2.51-2.48c1.97-2.1,3.85-4.31,5.41-6.92c-2.87,1-5.42,2.38-7.88,3.88 c-0.94,0.59-1.86,1.2-2.77,1.83c-0.21-0.61-0.43-1.21-0.66-1.81c-0.93-2.35-2-4.67-3.56-6.88c-0.45,2.67-0.42,5.22-0.24,7.75 c0.04,0.54,0.1,1.08,0.16,1.62c-1.71-0.63-3.45-1.19-5.22-1.68c-2.78-0.74-5.62-1.35-8.65-1.5c2.24,2.05,4.67,3.64,7.15,5.1 c1.52,0.87,3.07,1.67,4.64,2.42c-1.43,1.26-2.81,2.58-4.13,3.96c-1.97,2.1-3.85,4.31-5.41,6.92c2.86-1,5.42-2.39,7.87-3.89 c1.8-1.12,3.53-2.32,5.2-3.59C70.33,51.91,70.89,53.67,71.56,55.4z M74.59,73.4c-0.6,0.17-1.17,0.39-1.73,0.63 c-0.42-0.71-0.86-1.41-1.36-2.07c-0.76-0.98-1.6-1.91-2.7-2.71c0,1.36,0.27,2.59,0.62,3.78c0.25,0.82,0.56,1.61,0.91,2.38 c-0.4,0.27-0.8,0.57-1.18,0.88c-0.8,0.68-1.56,1.45-2.18,2.48c1.2,0.07,2.26-0.13,3.28-0.41c0.47-0.13,0.93-0.3,1.38-0.47 c0.34,0.56,0.71,1.1,1.11,1.63c0.76,0.98,1.6,1.91,2.71,2.71c0-1.37-0.27-2.59-0.62-3.78c-0.19-0.64-0.42-1.26-0.67-1.86 c0.53-0.34,1.05-0.7,1.54-1.11c0.8-0.69,1.56-1.45,2.18-2.48C76.67,72.92,75.61,73.12,74.59,73.4z M37.01,399.44 c0.55,1.89,1.28,3.68,2.16,5.41c0.87,1.72,1.9,3.36,3.11,4.92c1.22,1.55,2.58,3.02,4.38,4.27c0.05-2.19-0.35-4.16-0.89-6.05 c-0.55-1.89-1.28-3.68-2.16-5.4c-0.88-1.72-1.91-3.36-3.11-4.92c-1.22-1.55-2.57-3.02-4.37-4.27 C36.07,395.58,36.47,397.54,37.01,399.44z M36.25,404.76c1.66,0.7,3.35,1.21,5.08,1.56c1.73,0.35,3.49,0.52,5.29,0.51 c1.8-0.03,3.64-0.21,5.57-0.89c-1.53-1.36-3.15-2.23-4.8-2.95c-1.66-0.7-3.35-1.21-5.08-1.55c-1.73-0.34-3.49-0.52-5.29-0.5 c-1.8,0.03-3.64,0.21-5.57,0.88C32.97,403.17,34.6,404.04,36.25,404.76z M41.82,398.42c-1.15,1.41-2.12,2.91-2.95,4.49 c-0.83,1.58-1.5,3.24-2,4.99c-0.48,1.76-0.83,3.59-0.73,5.65c1.74-1.1,3.04-2.43,4.21-3.84c1.15-1.41,2.12-2.91,2.94-4.5 c0.82-1.58,1.49-3.24,1.99-4.99c0.48-1.76,0.83-3.59,0.74-5.64C44.28,395.69,42.98,397.02,41.82,398.42z M37.84,381.08 c-1.36,0.01-2.39,1.11-2.6,2.36c-0.37,1.26,0.3,2.77,1.66,3.18c1.56,0.47,3.36-0.55,3.7-2.18 C40.95,382.72,39.61,381.07,37.84,381.08z M328.38,127.05c0.32-0.89-0.15-2.22-1.32-2.71c-0.08-0.05-0.17-0.09-0.26-0.11 c-1.03-0.22-1.8,0.44-2.03,1.08c-0.2,0.56-0.05,1.16,0.22,1.68c0.24,0.45,0.65,0.98,1.36,1.14 C327.38,128.36,328.16,127.68,328.38,127.05z M441.04,73.78c-0.35-0.23-0.7-0.44-1.05-0.65c0.33-0.25,0.65-0.51,0.96-0.79 c1.35-1.19,2.63-2.52,3.67-4.28c-2.04-0.05-3.85,0.34-5.57,0.86c-0.92,0.29-1.81,0.63-2.68,1.01c-0.22-0.59-0.45-1.18-0.71-1.76 c-0.77-1.65-1.69-3.27-3.09-4.78c-0.61,1.97-0.74,3.82-0.72,5.65c0,0.22,0.02,0.44,0.03,0.66c-0.51-0.14-1.02-0.26-1.54-0.37 c-1.93-0.39-3.92-0.64-6.1-0.43c1.39,1.7,2.96,2.93,4.6,4.03c0.44,0.29,0.89,0.57,1.35,0.83c-0.12,0.1-0.25,0.2-0.37,0.3 c-1.35,1.19-2.63,2.52-3.67,4.27c2.04,0.05,3.84-0.34,5.57-0.86c0.52-0.16,1.02-0.34,1.52-0.53c0.28,0.85,0.61,1.7,0.99,2.53 c0.77,1.65,1.69,3.27,3.09,4.78c0.62-1.97,0.74-3.82,0.72-5.65c-0.01-0.53-0.04-1.06-0.09-1.59c0.52,0.14,1.05,0.27,1.59,0.38 c1.93,0.39,3.92,0.64,6.1,0.42C444.25,76.11,442.67,74.88,441.04,73.78z M383.84,79.65c0.65-0.82,1.24-1.72,1.65-2.84 c-1.18,0.16-2.18,0.56-3.12,1.03c-0.33,0.17-0.64,0.36-0.96,0.55c-0.31-0.48-0.64-0.95-1-1.41c-0.71-0.88-1.5-1.72-2.56-2.43 c-0.04,1.27,0.18,2.4,0.48,3.5c0.21,0.72,0.47,1.41,0.77,2.09c-0.53,0.49-1.04,1-1.51,1.57c-0.65,0.82-1.24,1.72-1.65,2.85 c1.19-0.16,2.19-0.56,3.13-1.02c0.48-0.25,0.95-0.52,1.39-0.81c0.28,0.43,0.57,0.85,0.9,1.26c0.71,0.88,1.5,1.72,2.56,2.43 c0.05-1.27-0.17-2.41-0.47-3.5c-0.2-0.7-0.45-1.36-0.74-2.02C383.11,80.49,383.49,80.08,383.84,79.65z M348.76,8.26 c-0.03-0.19-0.05-0.39-0.1-0.58c-0.18-0.66-0.44-1.33-1.01-2.03c-0.67,0.59-1.05,1.21-1.33,1.83c-0.06,0.15-0.1,0.3-0.15,0.45 c-0.37,0.02-0.74,0.07-1.11,0.15c-0.74,0.17-1.49,0.42-2.27,0.98c0.67,0.68,1.36,1.07,2.06,1.36c0.35,0.14,0.7,0.25,1.05,0.33 c0.03,0.2,0.05,0.39,0.1,0.59c0.18,0.66,0.44,1.33,1,2.03c0.67-0.59,1.04-1.21,1.33-1.83c0.09-0.22,0.16-0.44,0.22-0.66 c0.21-0.03,0.42-0.04,0.63-0.08c0.74-0.17,1.49-0.42,2.27-0.98c-0.67-0.68-1.36-1.06-2.06-1.35 C349.18,8.38,348.97,8.33,348.76,8.26z M334.87,116.13c-0.03-0.19-0.05-0.39-0.1-0.58c-0.18-0.66-0.44-1.33-1.01-2.03 c-0.67,0.59-1.05,1.21-1.33,1.83c-0.06,0.15-0.1,0.3-0.15,0.45c-0.37,0.02-0.74,0.07-1.11,0.15c-0.74,0.17-1.49,0.42-2.27,0.98 c0.67,0.68,1.36,1.07,2.06,1.36c0.35,0.14,0.7,0.25,1.05,0.33c0.03,0.2,0.05,0.39,0.1,0.59c0.18,0.66,0.44,1.33,1,2.03 c0.67-0.59,1.04-1.21,1.33-1.83c0.09-0.22,0.16-0.44,0.22-0.66c0.21-0.03,0.42-0.04,0.63-0.08c0.74-0.17,1.49-0.42,2.27-0.98 c-0.67-0.68-1.36-1.06-2.06-1.35C335.29,116.24,335.08,116.19,334.87,116.13z" style="fill: #c4d2ad;"/></g></g></svg>